<svg width="278" height="192" viewBox="0 0 278 192" fill="none" xmlns="http://www.w3.org/2000/svg">
    <path
        d="M127.114 119.42C106.171 132.071 84.5451 144.497 62.9488 155.978L60.834 157.08L62.8597 155.821C83.8085 143.11 105.351 130.682 127.111 119.417L127.114 119.42Z"
        fill="#21282B" />
    <path
        d="M94.303 104.445C94.318 104.837 94.3419 105.24 94.5335 105.58C94.71 105.894 95.0063 106.113 95.2995 106.324C97.4512 107.863 99.7105 109.243 101.97 110.622C102.832 111.146 103.691 111.673 104.552 112.197C105.411 112.721 106.27 113.245 107.132 113.772C111.375 116.362 115.619 118.952 119.862 121.542C121.026 122.253 122.196 122.967 123.211 123.876C124.276 124.828 125.171 125.991 126.392 126.729C128.606 128.069 131.79 127.981 133.203 130.162C133.245 126.924 133.427 123.687 133.753 120.464C132.688 120.669 131.958 119.479 131.308 118.606C130.219 117.145 128.576 116.224 126.963 115.386C122.699 113.173 118.288 111.236 113.775 109.598C112.444 109.113 111.094 108.652 109.852 107.972C108.2 107.065 106.773 105.791 105.118 104.891C103.978 104.27 102.748 103.84 101.563 103.31C100.21 102.704 98.9145 101.963 97.7025 101.108C96.7449 100.439 95.4312 98.7378 94.333 98.5752C93.7973 100.208 94.2282 102.692 94.303 104.445Z"
        fill="#99F876" />
    <path
        d="M145.643 113.657C148.525 111.633 151.116 109.203 154.079 107.297C156.871 105.499 159.941 104.198 162.862 102.622C165.052 101.442 167.156 100.105 169.257 98.7705C169.667 100.858 170.077 102.948 170.487 105.035C170.591 105.568 170.693 106.137 170.487 106.637C170.265 107.185 169.732 107.526 169.248 107.863C168.14 108.631 167.138 109.534 166.082 110.369C159.211 115.799 150.347 118.112 143.312 123.322C139.915 125.837 136.866 129.065 132.844 130.339C133.433 128.153 133.837 125.912 134.05 123.656C134.172 122.352 133.912 120.777 134.927 119.801C136.222 118.551 138.661 117.819 140.244 116.949C142.091 115.934 143.913 114.871 145.64 113.657H145.643Z"
        fill="#99F876" />
    <path
        d="M247.576 89.9651C241.855 92.7285 234.895 92.8817 229.055 90.3706C228.199 90.0012 227.355 89.5746 226.655 88.9649C225.294 87.7844 224.591 86.0513 224.01 84.3633C224.725 94.9932 224.468 105.656 224.45 116.307C224.45 117.034 224.45 117.782 224.725 118.458C225.425 120.197 227.538 120.819 229.135 121.84C229.902 122.333 230.596 122.957 231.449 123.288C232.198 123.579 233.021 123.618 233.828 123.657C236.635 123.789 239.458 123.918 242.243 123.564C245.029 123.21 247.805 122.339 250.025 120.647C250.649 120.173 251.248 119.602 251.481 118.863C251.64 118.365 251.618 117.83 251.594 117.307C251.254 109.444 251.065 101.574 251.025 93.7017C251.016 91.7523 251.465 89.1962 250.964 87.3279C250.004 88.4723 248.94 89.3043 247.573 89.9651H247.576Z"
        fill="#BAC3C8" />
    <path
        d="M169.458 148.197C163.737 151 156.777 151.156 150.937 148.609C150.081 148.234 149.237 147.801 148.537 147.183C147.176 145.986 146.473 144.228 145.892 142.516C146.607 153.297 146.35 164.113 146.332 174.916C146.332 175.653 146.332 176.412 146.607 177.097C147.307 178.861 149.42 179.492 151.016 180.528C151.784 181.027 152.478 181.661 153.331 181.996C154.08 182.292 154.903 182.331 155.71 182.371C158.517 182.505 161.339 182.636 164.125 182.276C166.911 181.917 169.687 181.033 171.907 179.318C172.531 178.837 173.13 178.258 173.363 177.508C173.522 177.003 173.5 176.46 173.476 175.93C173.136 167.954 172.947 159.972 172.907 151.987C172.898 150.01 173.347 147.418 172.846 145.523C171.886 146.683 170.822 147.527 169.455 148.197H169.458Z"
        fill="#BAC3C8" />
    <path
        d="M34.8318 59.4211C29.1107 62.224 22.1512 62.3793 16.3109 59.8324C15.4548 59.4577 14.6108 59.0251 13.9106 58.4066C12.5499 57.2093 11.8466 55.4514 11.2656 53.7393C11.9811 64.5211 11.7243 75.3364 11.7059 86.1395C11.7059 86.8768 11.7059 87.6354 11.9811 88.3208C12.6814 90.0848 14.7943 90.7155 16.3904 91.7513C17.1579 92.2509 17.852 92.8846 18.7052 93.2197C19.4543 93.5153 20.2768 93.5548 21.0841 93.5945C23.8911 93.7285 26.7134 93.8595 29.499 93.5C32.2847 93.1405 35.0611 92.257 37.281 90.5418C37.9048 90.0604 38.5042 89.4816 38.7365 88.7321C38.8955 88.2264 38.8741 87.6841 38.8497 87.154C38.5103 79.1781 38.3207 71.1961 38.2809 63.211C38.2718 61.2338 38.7213 58.6412 38.2198 56.7462C37.2596 57.907 36.1955 58.7509 34.8287 59.4211H34.8318Z"
        fill="#BAC3C8" />
    <path
        d="M188.128 15.1819C182.524 17.9453 175.706 18.0985 169.985 15.5874C169.147 15.2179 168.32 14.7914 167.634 14.1817C166.301 13.0012 165.612 11.2681 165.043 9.58008C165.744 20.21 165.492 30.873 165.474 41.524C165.474 42.2509 165.474 42.9988 165.744 43.6746C166.43 45.4137 168.5 46.0355 170.063 47.0567C170.815 47.5493 171.495 48.1741 172.331 48.5045C173.065 48.7958 173.87 48.8349 174.661 48.8739C177.411 49.0061 180.176 49.1353 182.904 48.7808C185.633 48.4264 188.353 47.5553 190.527 45.8643C191.139 45.3897 191.726 44.819 191.953 44.0801C192.109 43.5815 192.088 43.0468 192.064 42.5242C191.732 34.6606 191.546 26.791 191.507 18.9185C191.498 16.9691 191.938 14.413 191.447 12.5447C190.506 13.6891 189.464 14.5211 188.125 15.1819H188.128Z"
        fill="#BAC3C8" />
    <path
        d="M226.715 108.259C223.345 110.045 219.634 111.94 217.736 115.404C216.349 117.88 216.367 120.987 217.561 123.524C219.695 127.865 224.597 129.927 229.036 131.153C234.639 132.597 240.593 132.504 246.317 131.756C251.872 131.038 257.826 128.876 260.76 123.802C262.634 120.599 262.725 116.191 260.343 113.218C259.161 111.737 257.478 110.684 255.734 109.83C253.978 108.976 252.132 108.286 250.231 107.783C254.009 108.543 258.188 109.815 260.911 112.736C264.45 116.781 263.519 123.127 260.032 126.906C256.62 130.772 251.488 132.54 246.526 133.215C240.593 134.039 234.509 134.093 228.667 132.528C223.019 130.962 216.415 127.481 215.79 120.962C215.119 113.966 221.109 110.511 226.718 108.249L226.715 108.259Z"
        fill="#21282B" />
    <path
        d="M225.412 84.2344C225.472 85.6634 225.578 87.0894 225.762 88.5063C225.904 92.2817 225.977 96.0571 225.986 99.8356C226.007 106.124 225.929 112.409 225.542 118.688C224.877 107.211 225.037 95.6575 225.412 84.2344Z"
        fill="#21282B" />
    <path
        d="M226.669 117.68C226.567 120.526 229.637 121.883 231.825 122.906C235.724 124.535 240.124 124.871 244.222 123.878C246.359 123.327 248.574 122.476 250.294 121.098C251.267 120.308 252.02 119.279 252.394 118.11L252.373 118.249L252.385 109.472C252.422 102.763 252.512 94.2012 252.697 87.5345C252.73 86.0721 252.769 84.6098 252.824 83.1475C252.875 84.6098 252.917 86.0721 252.947 87.5345C253.189 97.244 253.31 108.649 253.25 118.389C252.131 121.825 248.589 123.457 245.383 124.405C240.865 125.661 235.905 125.286 231.656 123.29C229.477 122.146 226.373 120.581 226.672 117.68H226.669Z"
        fill="#21282B" />
    <path
        d="M239.669 92.0422C243.703 91.688 248.514 91.2702 251.319 88.0034C251.751 87.4766 252.078 86.8802 252.232 86.2474C252.392 85.6116 252.401 84.9274 252.41 84.2189C252.419 83.5196 252.404 82.8383 252.159 82.3509C251.869 81.7696 251.265 81.482 250.802 80.934C250.325 80.3799 250.032 79.9107 249.445 79.5352C248.944 79.1961 248.336 78.966 247.699 78.7571C245.045 77.9579 242.322 77.2524 239.662 77.3069C238.324 77.3281 236.958 77.531 235.555 77.7338C234.851 77.8398 234.195 77.9215 233.633 78.1183C232.76 78.409 231.799 79.1568 230.838 79.5352C229.913 79.844 228.925 80.1347 228.22 80.828C227.359 81.6727 226.492 82.8293 226.549 84.122C226.588 85.4269 227.184 86.7076 228.103 87.7219C230.98 90.6768 235.592 92.1694 239.669 92.0422ZM239.669 92.0422C235.377 92.2451 228.565 90.3377 226.344 86.3534C225.047 84.0221 225.576 81.8453 227.323 79.9197C228.115 79.0448 229.178 78.5694 230.239 78.1486C231.212 77.6672 231.923 76.9799 233.059 76.5379C233.833 76.2412 234.591 76.114 235.283 75.996C236.683 75.7507 238.13 75.5206 239.629 75.4873C241.857 75.451 244.054 75.9173 246.16 76.5773C248.427 77.2857 250.488 77.9246 251.772 80.1226C252.186 80.6585 252.924 81.2095 253.16 81.927C253.468 82.7687 253.371 83.5589 253.311 84.2643C253.241 84.9728 253.172 85.7206 252.921 86.4503C250.996 91.252 244.105 91.6789 239.669 92.0362V92.0422Z"
        fill="#21282B" />
    <path
        d="M244.129 98.6394C246.616 98.264 248.892 97.5677 251.171 96.502C249.66 98.6334 246.565 99.5689 244.129 98.6394Z"
        fill="#21282B" />
    <path
        d="M242.418 102.215C245.207 101.936 247.834 101.403 250.514 100.589C248.423 102.56 245.108 103.22 242.418 102.215Z"
        fill="#21282B" />
    <path
        d="M241.12 105.867C244.142 106.121 247.056 105.742 249.921 104.74C247.663 106.917 243.852 107.398 241.12 105.867Z"
        fill="#21282B" />
    <path
        d="M236.021 110.314C240.829 110.014 245.806 110.32 250.213 108.016C246.429 111.467 240.735 111.301 236.021 110.314Z"
        fill="#21282B" />
    <path
        d="M234.105 114.25C239.554 114.041 245.251 114.428 249.96 111.152C246.037 115.515 239.412 115.352 234.105 114.25Z"
        fill="#21282B" />
    <path
        d="M232.875 118.11C234.543 119.678 237.354 119.042 239.439 118.93C241.724 118.703 243.985 118.285 246.206 117.707C247.681 117.313 249.122 116.814 250.431 115.954C247.916 118.597 243.036 119.508 239.509 119.784C237.348 119.817 234.244 120.162 232.875 118.11Z"
        fill="#21282B" />
    <path
        d="M145.483 165.998C142.113 167.784 138.402 169.679 136.504 173.143C135.117 175.62 135.135 178.726 136.328 181.263C138.462 185.605 143.364 187.666 147.804 188.892C153.407 190.337 159.361 190.243 165.085 189.495C170.64 188.777 176.593 186.616 179.528 181.541C181.402 178.338 181.492 173.93 179.111 170.957C177.929 169.477 176.246 168.423 174.502 167.569C172.746 166.715 170.899 166.025 168.998 165.522C172.776 166.282 176.956 167.554 179.679 170.476C183.218 174.52 182.287 180.866 178.799 184.645C175.387 188.511 170.256 190.279 165.293 190.954C159.361 191.778 153.277 191.832 147.435 190.267C141.787 188.702 135.183 185.22 134.557 178.702C133.887 171.705 139.877 168.25 145.486 165.989L145.483 165.998Z"
        fill="#21282B" />
    <path
        d="M144.179 141.974C144.24 143.403 144.346 144.829 144.53 146.246C144.672 150.021 144.745 153.796 144.754 157.575C144.775 163.863 144.696 170.148 144.309 176.428C143.645 164.95 143.805 153.397 144.179 141.974Z"
        fill="#21282B" />
    <path
        d="M145.437 175.419C145.334 178.265 148.405 179.622 150.593 180.645C154.492 182.274 158.892 182.61 162.99 181.617C165.127 181.066 167.342 180.215 169.062 178.838C170.035 178.047 170.787 177.018 171.162 175.849L171.141 175.989L171.153 167.212C171.189 160.503 171.28 151.94 171.464 145.274C171.497 143.811 171.537 142.349 171.591 140.887C171.642 142.349 171.685 143.811 171.715 145.274C171.957 154.983 172.078 166.388 172.017 176.128C170.899 179.564 167.357 181.196 164.15 182.144C159.632 183.4 154.673 183.025 150.424 181.03C148.245 179.885 145.141 178.32 145.44 175.419H145.437Z"
        fill="#21282B" />
    <path
        d="M158.435 149.781C162.47 149.427 167.281 149.009 170.086 145.743C170.518 145.216 170.844 144.619 170.998 143.987C171.159 143.351 171.168 142.667 171.177 141.958C171.186 141.259 171.171 140.578 170.926 140.09C170.636 139.509 170.031 139.221 169.569 138.673C169.091 138.119 168.798 137.65 168.212 137.274C167.71 136.935 167.103 136.705 166.465 136.496C163.812 135.697 161.089 134.992 158.429 135.046C157.09 135.067 155.724 135.27 154.322 135.473C153.618 135.579 152.962 135.661 152.4 135.858C151.526 136.148 150.565 136.896 149.604 137.274C148.679 137.583 147.691 137.874 146.987 138.567C146.126 139.412 145.258 140.569 145.316 141.861C145.355 143.166 145.95 144.447 146.869 145.461C149.746 148.416 154.358 149.909 158.435 149.781ZM158.435 149.781C154.144 149.984 147.332 148.077 145.11 144.093C143.814 141.761 144.343 139.585 146.089 137.659C146.881 136.784 147.945 136.309 149.006 135.888C149.979 135.406 150.689 134.719 151.826 134.277C152.599 133.98 153.358 133.853 154.05 133.735C155.449 133.49 156.897 133.26 158.396 133.227C160.623 133.19 162.82 133.657 164.927 134.317C167.193 135.025 169.255 135.664 170.539 137.862C170.953 138.398 171.69 138.949 171.926 139.666C172.234 140.508 172.138 141.298 172.077 142.004C172.008 142.712 171.938 143.46 171.687 144.19C169.762 148.991 162.872 149.418 158.435 149.775V149.781Z"
        fill="#21282B" />
    <path
        d="M162.896 156.379C165.384 156.003 167.659 155.307 169.938 154.241C168.427 156.373 165.332 157.308 162.896 156.379Z"
        fill="#21282B" />
    <path
        d="M161.186 159.954C163.975 159.675 166.601 159.143 169.282 158.328C167.191 160.299 163.875 160.959 161.186 159.954Z"
        fill="#21282B" />
    <path
        d="M159.888 163.606C162.91 163.86 165.823 163.482 168.688 162.479C166.431 164.656 162.62 165.138 159.888 163.606Z"
        fill="#21282B" />
    <path
        d="M154.788 168.053C159.596 167.753 164.574 168.059 168.98 165.755C165.197 169.206 159.503 169.04 154.788 168.053Z"
        fill="#21282B" />
    <path
        d="M152.871 171.989C158.32 171.78 164.017 172.167 168.726 168.892C164.803 173.254 158.178 173.091 152.871 171.989Z"
        fill="#21282B" />
    <path
        d="M151.642 175.849C153.31 177.417 156.12 176.781 158.206 176.669C160.491 176.442 162.751 176.025 164.973 175.446C166.447 175.053 167.889 174.553 169.198 173.693C166.683 176.336 161.802 177.248 158.275 177.523C156.114 177.557 153.011 177.902 151.642 175.849Z"
        fill="#21282B" />
    <path
        d="M165.034 32.7731C161.665 34.5594 157.953 36.4546 156.056 39.9182C154.668 42.3948 154.686 45.5011 155.88 48.0382C158.014 52.3798 162.916 54.4416 167.356 55.6678C172.959 57.1119 178.912 57.0181 184.636 56.2733C190.191 55.5558 196.145 53.3941 199.08 48.3198C200.953 45.1166 201.044 40.7084 198.662 37.7353C197.481 36.2548 195.797 35.2012 194.054 34.3474C192.298 33.4937 190.451 32.8034 188.55 32.3008C192.328 33.0607 196.508 34.3323 199.231 37.2539C202.77 41.2988 201.839 47.6446 198.351 51.4231C194.939 55.2893 189.807 57.0574 184.845 57.7326C178.912 58.5561 172.829 58.6106 166.987 57.0453C161.338 55.4801 154.735 51.9983 154.109 45.4799C153.438 38.4831 159.428 35.0286 165.038 32.767L165.034 32.7731Z"
        fill="#21282B" />
    <path
        d="M163.731 8.74902C163.792 10.178 163.897 11.604 164.082 13.021C164.224 16.7964 164.296 20.5718 164.305 24.3502C164.324 30.6386 164.248 36.9238 163.861 43.2031C163.196 31.7255 163.356 20.1721 163.731 8.74902Z"
        fill="#21282B" />
    <path
        d="M164.989 42.1949C164.886 45.0408 167.957 46.3972 170.145 47.4205C174.043 49.0494 178.444 49.3854 182.542 48.3924C184.678 47.8414 186.894 46.9906 188.613 45.613C189.586 44.8228 190.339 43.7935 190.714 42.6248L190.693 42.7641L190.705 33.9871C190.741 27.2779 190.832 18.7159 191.016 12.0491C191.049 10.5868 191.088 9.12444 191.143 7.66211C191.194 9.12444 191.237 10.5868 191.267 12.0491C191.509 21.7586 191.629 33.1636 191.569 42.9033C190.451 46.3397 186.909 47.9715 183.702 48.9192C179.184 50.1756 174.225 49.8002 169.975 47.805C167.796 46.6606 164.693 45.0953 164.992 42.1949H164.989Z"
        fill="#21282B" />
    <path
        d="M177.988 16.5569C182.022 16.2027 186.834 15.7849 189.638 12.5181C190.071 11.9913 190.397 11.3948 190.551 10.7621C190.711 10.1263 190.72 9.44203 190.729 8.73358C190.739 8.0342 190.723 7.35299 190.479 6.86555C190.188 6.28425 189.584 5.99663 189.122 5.44863C188.644 4.89458 188.351 4.4253 187.765 4.04988C187.263 3.71079 186.656 3.48069 186.018 3.27179C183.364 2.4725 180.641 1.76707 177.982 1.82157C176.643 1.84276 175.277 2.04561 173.875 2.24846C173.17 2.35443 172.515 2.43617 171.953 2.63297C171.079 2.92362 170.118 3.67143 169.157 4.04988C168.232 4.3587 167.244 4.64935 166.54 5.34267C165.678 6.18737 164.811 7.34391 164.868 8.63669C164.908 9.94159 165.503 11.2223 166.422 12.2365C169.299 15.1914 173.911 16.684 177.988 16.5569ZM177.988 16.5569C173.696 16.7597 166.884 14.8524 164.663 10.868C163.366 8.53678 163.895 6.35994 165.642 4.43439C166.434 3.55941 167.498 3.08408 168.559 2.66324C169.532 2.18185 170.242 1.49459 171.378 1.05256C172.152 0.755856 172.911 0.628697 173.603 0.510621C175.002 0.265386 176.45 0.0352882 177.949 0.00198459C180.176 -0.0343466 182.373 0.431903 184.48 1.09192C186.746 1.80038 188.807 2.4392 190.092 4.63724C190.506 5.17312 191.243 5.72414 191.479 6.44168C191.787 7.28336 191.691 8.07356 191.63 8.77899C191.561 9.48745 191.491 10.2353 191.24 10.9649C189.315 15.7667 182.424 16.1936 177.988 16.5508V16.5569Z"
        fill="#21282B" />
    <path
        d="M182.448 23.1541C184.936 22.7787 187.211 22.0823 189.49 21.0166C187.979 23.148 184.884 24.0836 182.448 23.1541Z"
        fill="#21282B" />
    <path
        d="M180.737 26.7293C183.527 26.4508 186.153 25.9179 188.834 25.1035C186.742 27.0745 183.427 27.7345 180.737 26.7293Z"
        fill="#21282B" />
    <path
        d="M179.439 30.3811C182.462 30.6355 185.375 30.257 188.24 29.2549C185.983 31.4317 182.172 31.9131 179.439 30.3811Z"
        fill="#21282B" />
    <path
        d="M174.34 34.8282C179.148 34.5285 184.126 34.8343 188.532 32.5303C184.748 35.9817 179.054 35.8152 174.34 34.8282Z"
        fill="#21282B" />
    <path
        d="M172.424 38.7642C177.873 38.5553 183.57 38.9429 188.278 35.667C184.355 40.0298 177.731 39.8663 172.424 38.7642Z"
        fill="#21282B" />
    <path
        d="M171.194 42.6244C172.863 44.1927 175.673 43.5569 177.759 43.4449C180.043 43.2178 182.304 42.8 184.525 42.2217C186 41.8281 187.442 41.3286 188.75 40.4688C186.236 43.1118 181.355 44.0232 177.828 44.2987C175.667 44.332 172.563 44.6771 171.194 42.6244Z"
        fill="#21282B" />
    <path
        d="M10.9769 77.2722C7.60712 79.0585 3.89586 80.9538 1.99792 84.4173C0.610729 86.8939 0.628862 90.0002 1.82263 92.5374C3.9563 96.8789 8.85831 98.9407 13.2979 100.167C18.9011 101.611 24.8548 101.517 30.5788 100.769C36.1336 100.052 42.0874 97.8902 45.0219 92.8159C46.8957 89.6127 46.9864 85.2045 44.6049 82.2314C43.4232 80.7509 41.7398 79.6973 39.996 78.8435C38.2401 77.9898 36.3936 77.2995 34.4926 76.7969C38.2703 77.5568 42.45 78.8284 45.173 81.75C48.712 85.7949 47.7812 92.1407 44.2936 95.9192C40.8815 99.7854 35.7498 101.554 30.7874 102.229C24.8548 103.052 18.7711 103.107 12.9292 101.541C7.28072 99.9762 0.677217 96.4944 0.0516224 89.976C-0.619306 82.9792 5.37069 79.5247 10.9799 77.2631L10.9769 77.2722Z"
        fill="#21282B" />
    <path
        d="M9.6736 53.248C9.73405 54.6771 9.83982 56.1031 10.0242 57.52C10.1662 61.2954 10.2388 65.0708 10.2478 68.8493C10.269 75.1376 10.1904 81.4229 9.80356 87.7021C9.13867 76.2245 9.29885 64.6712 9.6736 53.248Z"
        fill="#21282B" />
    <path
        d="M10.9312 86.6939C10.8284 89.5399 13.899 90.8962 16.087 91.9195C19.9857 93.5484 24.386 93.8845 28.4841 92.8914C30.6208 92.3404 32.836 91.4896 34.5557 90.1121C35.5288 89.3219 36.2814 88.2925 36.6561 87.1238L36.6349 87.2631L36.647 78.4861C36.6833 71.7769 36.774 63.2149 36.9583 56.5481C36.9916 55.0858 37.0309 53.6235 37.0853 52.1611C37.1366 53.6235 37.1789 55.0858 37.2092 56.5481C37.4509 66.2576 37.5718 77.6626 37.5114 87.4024C36.3932 90.8387 32.8512 92.4706 29.6446 93.4182C25.1264 94.6747 20.167 94.2992 15.9178 92.3041C13.7388 91.1596 10.635 89.5944 10.9342 86.6939H10.9312Z"
        fill="#21282B" />
    <path
        d="M23.9299 61.0564C24.6401 61.0412 25.3442 60.9534 26.0484 60.8656C26.7526 60.7778 27.4537 60.6809 28.1549 60.578C29.5542 60.3691 30.9565 60.0845 32.2349 59.4971C33.5193 58.9189 34.6828 58.1135 35.5623 57.0387C36.0066 56.521 36.3239 55.9276 36.4871 55.2918C36.6503 54.656 36.6654 53.9748 36.6714 53.2694C36.6805 52.567 36.6714 51.8858 36.4327 51.3923C36.3178 51.144 36.1577 50.9654 35.9159 50.7444C35.6802 50.5324 35.3719 50.2963 35.0939 49.9814C34.8249 49.6817 34.6164 49.388 34.4078 49.1549C34.2053 48.9248 33.9877 48.7401 33.7369 48.5705C33.2382 48.2284 32.6368 47.9953 31.9991 47.7864C29.3517 46.9871 26.6257 46.2756 23.9661 46.321C22.6303 46.3392 21.2643 46.539 19.862 46.7419C19.1548 46.8478 18.499 46.9296 17.9308 47.1203C17.3808 47.2989 16.8217 47.638 16.184 48.0074C15.8666 48.1891 15.5251 48.3768 15.1474 48.5281C15.0537 48.5675 14.957 48.6038 14.8602 48.6371L14.5822 48.728C14.425 48.7734 14.2709 48.8249 14.1198 48.8794C13.5154 49.1004 12.9744 49.3971 12.515 49.8149C12.0556 50.2266 11.6476 50.7686 11.3001 51.3317C10.9737 51.8646 10.8014 52.464 10.8075 53.0998C10.8105 53.7265 10.9767 54.3896 11.2578 54.983C11.5449 55.5825 11.9438 56.1426 12.4183 56.6421C12.8898 57.1447 13.4247 57.5958 13.9899 58.0136C14.558 58.4314 15.1353 58.8311 15.7578 59.1611C18.2391 60.5023 21.1041 61.1199 23.9359 61.0594L23.9299 61.0564ZM23.9299 61.0564C21.095 61.1169 18.236 60.5931 15.6369 59.3821C14.9902 59.0763 14.3616 58.719 13.7602 58.3345C13.1557 57.95 12.5664 57.5262 12.0284 57.0296C11.4875 56.5392 10.9949 55.976 10.608 55.3221C10.2242 54.6621 9.96731 53.9324 9.88873 53.1422C9.81015 52.3581 9.97033 51.5194 10.3269 50.8079C10.6715 50.1328 11.0583 49.4788 11.6174 48.8975C12.1675 48.3162 12.8656 47.8651 13.5728 47.5502C13.7511 47.4715 13.9264 47.3989 14.1047 47.3322L14.3253 47.2445L14.5278 47.1506C14.7998 47.0113 15.0748 46.8478 15.3619 46.6601C15.9331 46.2938 16.5648 45.8336 17.3566 45.5369C18.1272 45.2493 18.8858 45.1251 19.5779 45.0071C20.9772 44.7648 22.4248 44.5347 23.9268 44.5045C24.6794 44.4984 25.4289 44.5408 26.1663 44.6316C26.9037 44.7225 27.6321 44.8617 28.3453 45.0252C29.0616 45.1887 29.7597 45.3916 30.4518 45.6035C31.1469 45.8215 31.8118 46.0455 32.5129 46.312C33.208 46.5784 33.9212 46.9205 34.565 47.4261C34.8823 47.6774 35.1875 47.9802 35.4323 48.3041C35.6741 48.622 35.8585 48.9187 36.0489 49.1639C36.2242 49.3971 36.4629 49.6181 36.7319 49.9027C36.9978 50.1752 37.288 50.5627 37.43 50.9835C37.7232 51.8252 37.6234 52.6124 37.563 53.3178C37.4935 54.0263 37.421 54.7771 37.1641 55.5037C36.9132 56.2304 36.472 56.8783 35.9522 57.402C35.6892 57.6685 35.4323 57.9016 35.1483 58.1408C34.8642 58.3739 34.565 58.5828 34.2567 58.7735C33.6402 59.155 32.9874 59.4608 32.3195 59.7212C30.9776 60.248 29.5602 60.469 28.1549 60.6385L26.0394 60.8807C25.3352 60.9625 24.628 61.0442 23.9208 61.0533L23.9299 61.0564Z"
        fill="#21282B" />
    <path
        d="M28.3906 67.6531C30.8779 67.2777 33.1536 66.5813 35.4323 65.5156C33.9212 67.6471 30.8265 68.5826 28.3906 67.6531Z"
        fill="#21282B" />
    <path
        d="M26.6797 71.2293C29.4692 70.9508 32.0955 70.4179 34.7762 69.6035C32.6848 71.5745 29.3694 72.2345 26.6797 71.2293Z"
        fill="#21282B" />
    <path
        d="M25.3818 74.8802C28.404 75.1345 31.3174 74.756 34.1825 73.7539C31.9249 75.9307 28.1139 76.4121 25.3818 74.8802Z"
        fill="#21282B" />
    <path
        d="M20.2822 79.3282C25.0905 79.0285 30.0681 79.3343 34.4745 77.0303C30.6907 80.4817 24.9969 80.3152 20.2822 79.3282Z"
        fill="#21282B" />
    <path
        d="M18.3672 83.2632C23.8162 83.0543 29.5131 83.4419 34.2216 80.166C30.2988 84.5288 23.6742 84.3653 18.3672 83.2632Z"
        fill="#21282B" />
    <path
        d="M17.1367 87.1234C18.805 88.6917 21.6156 88.0559 23.7009 87.9439C25.9857 87.7168 28.2463 87.299 30.4676 86.7208C31.9425 86.3272 33.3841 85.8276 34.6927 84.9678C32.1782 87.6109 27.2973 88.5222 23.7704 88.7977C21.6096 88.831 18.5058 89.1761 17.1367 87.1234Z"
        fill="#21282B" />
    <path
        d="M150.686 87.3048C154.872 84.7896 159.709 81.9962 163.979 79.5673C165.462 78.7185 166.952 77.8841 168.443 77.0473L168.448 77.8098C166.798 76.9466 165.153 76.0786 163.514 75.201C158.959 72.7865 153.325 69.7318 148.78 67.2334L148.144 66.8857C148.4 66.7274 152.247 64.4496 152.63 64.2194C156.394 62.0087 160.535 59.5726 164.323 57.4554C160.715 59.8603 156.669 62.4763 152.988 64.8164L149.181 67.2238L149.16 66.5092C155.575 69.8685 162.524 73.5754 168.846 77.0497L169.549 77.4357C167.814 78.3684 166.074 79.3107 164.335 80.2315C159.987 82.5285 155.062 85.1252 150.686 87.3096V87.3048Z"
        fill="#21282B" />
    <path
        d="M157.16 116.604C170.42 123.371 183.749 130.769 196.705 138.095C199.616 139.761 202.827 141.589 205.708 143.27L205.232 143.285C208.549 141.189 213.114 138.356 216.467 136.317C217.723 135.553 218.983 134.799 220.245 134.047C219.049 134.901 217.85 135.749 216.642 136.588C213.328 138.898 208.856 141.953 205.509 144.206C202.481 142.585 199.167 140.753 196.139 139.096C183.123 131.876 169.854 124.375 157.157 116.604H157.16Z"
        fill="#21282B" />
    <path
        d="M148.708 121.675C150.624 122.489 153.392 124.007 155.289 124.966C156.929 125.817 160.176 127.523 161.798 128.394C174.908 135.404 188.195 142.862 201.094 150.286C193.767 155.036 186.073 159.928 178.631 164.485C183.678 160.899 189.332 156.988 194.479 153.484C196.252 152.283 198.02 151.067 199.802 149.878L199.833 150.77C196.616 149 190.181 145.418 186.979 143.621C174.129 136.472 161.455 128.999 148.708 121.675Z"
        fill="#21282B" />
    <path
        d="M49.0049 107.029C58.9174 112.026 68.6042 117.398 78.2311 122.86C80.629 124.224 85.4318 127.001 87.8086 128.395H87.1774C91.5324 126.054 95.9156 123.762 100.331 121.52C101.805 120.773 103.282 120.037 104.77 119.314C103.377 120.186 101.977 121.044 100.57 121.896C96.2471 124.502 91.8885 127.058 87.4947 129.561C84.9135 128.141 80.0683 125.439 77.5082 123.986C67.8884 118.515 58.325 112.957 49.0084 107.033L49.0049 107.029Z"
        fill="#21282B" />
    <path
        d="M130.242 76.3389C118.272 82.9544 106.548 90.0158 95.1025 97.5086C97.0963 99.0165 99.0901 100.525 101.088 102.036C101.728 102.522 102.379 103.011 103.11 103.348C103.91 103.718 104.789 103.892 105.589 104.269C106.631 104.762 107.481 105.578 108.422 106.245C109.667 107.129 111.064 107.764 112.435 108.438C117.324 110.838 121.937 113.799 126.16 117.246C127.43 118.283 128.896 119.436 130.517 119.182C131.266 119.063 131.931 118.653 132.576 118.247C138.336 114.615 144.043 110.899 149.698 107.104C155.032 103.522 160.463 99.7995 166.683 98.2046C160.539 97.2657 156.515 91.2519 150.867 88.6492C149.275 87.917 147.549 87.4566 146.054 86.5395C144.824 85.7855 143.796 84.7524 142.671 83.8534C140.232 81.8995 137.309 80.5511 134.236 79.9711"
        fill="#99F876" />
    <path
        d="M131.984 75.9512C129.111 78.1334 126.183 80.2322 123.26 82.3383C119.58 84.9157 115.932 87.6924 111.883 89.784C109.502 91.002 106.893 91.9481 104.621 93.2386C101.346 94.9677 98.9651 98.3352 95.0788 98.879L95.2778 96.7693C98.8276 97.9329 102.171 99.7055 105.116 101.993C106.499 102.997 107.906 104.538 109.158 105.531C109.824 105.991 110.707 106.288 111.463 106.698C115.183 108.797 119.442 111.49 123.111 113.734C126.176 115.655 129.241 117.573 132.259 119.574C129.002 117.993 125.792 116.322 122.579 114.662C118.802 112.708 114.391 110.247 110.649 108.336C109.802 107.923 108.938 107.666 108.094 107.115C106.582 106.017 105.402 104.686 103.875 103.639C101.064 101.558 97.9229 99.923 94.6048 98.8391L90.0527 97.3529L94.8038 96.7294C96.3959 96.5264 97.7746 95.5912 99.0772 94.6052C100.496 93.5068 102.005 92.2671 103.64 91.4442C106.9 89.7477 110.287 88.74 113.457 86.9783C119.605 83.5092 125.818 79.4021 131.984 75.9584V75.9512Z"
        fill="#21282B" />
    <path
        d="M134.057 77.7275C137.299 78.8549 140.382 80.4934 143.215 82.4907C145.976 84.5424 148.734 86.3984 151.77 87.9862C154.769 89.563 157.838 91.1145 160.877 92.6841C162.401 93.4634 163.91 94.2718 165.426 95.0657C166.196 95.4717 166.898 95.8559 167.55 96.0299C168.013 96.1604 168.458 96.164 169.001 96.4468C169.724 96.7767 170.227 97.759 170.144 98.5275C169.978 101.108 167.271 101.344 165.433 102.102C163.938 102.703 162.495 103.548 161.018 104.404C152.128 109.565 143.205 114.651 134.05 119.353C142.517 113.499 151.216 108.039 159.965 102.638C162.089 101.282 164.579 99.9557 167.065 99.2634C167.575 99.0567 167.988 98.8501 167.977 98.3426C167.977 98.3535 168.02 98.3825 167.991 98.3608C167.749 98.252 167.322 98.2121 166.974 98.1034C165.972 97.8134 165.176 97.3349 164.434 96.9434C162.929 96.1278 161.416 95.3267 159.918 94.5002C157.266 93.0248 153.51 91.013 150.937 89.4615C147.963 87.7397 145.151 85.5792 142.575 83.339C139.984 81.1531 137.111 79.3008 134.061 77.7348L134.057 77.7275Z"
        fill="#21282B" />
    <path
        d="M132.78 120.527C133.023 123.565 132.502 126.704 133.28 129.673L132.628 129.456L134.774 127.723C136.106 126.744 137.937 125.457 139.304 124.587C145.449 120.712 152.132 117.548 158.475 114.039C162.394 111.846 166.338 109.46 169.812 106.611L169.692 106.876C169.776 104.719 169.906 101.583 170.043 99.4482C170.221 101.569 170.279 104.712 170.394 106.876L170.402 107.021L170.275 107.137C166.953 110.276 163.06 112.875 159.134 115.191C152.099 119.309 144.537 122.731 137.618 127.034L135.349 128.52L133.139 130.09L132.617 130.46C131.767 127.172 132.636 123.833 132.777 120.524L132.78 120.527Z"
        fill="#21282B" />
    <path
        d="M92.5238 98.0449C93.5298 100.666 94.0943 103.461 94.2209 106.274L94.0327 105.933C98.1723 108.322 101.964 111.196 106.209 113.317C108.832 114.462 111.546 115.626 113.952 117.206C115.599 118.221 117.166 119.345 118.711 120.476C123.299 123.923 127.916 127.222 132.989 129.959C125.785 127.324 119.608 122.448 113.211 118.41C109.998 116.297 106.274 115.213 103.039 113.154C99.7138 111.044 96.591 108.71 93.3923 106.495C93.4719 103.66 93.1715 100.818 92.5166 98.0486L92.5238 98.0449Z"
        fill="#21282B" />
    <path
        d="M158.286 98.0119C167.367 92.0762 177.456 85.771 186.727 80.0564L186.718 81.0346C186.273 80.759 178.765 76.0316 178.559 75.9075C183.961 72.6247 191.075 68.3243 196.514 65.093L202.249 61.7012L202.258 62.4583C196.808 59.2451 190.887 55.6988 185.509 52.3857C191.096 55.3294 197.156 58.6394 202.695 61.6951L203.346 62.0525C203.198 62.1463 197.392 65.7683 197.053 65.9803C192.011 69.1117 185.088 73.3485 180.013 76.4284L180.022 75.4078L187.33 80.0625L188.118 80.5652L187.321 81.0406C177.971 86.6341 167.745 92.6849 158.283 98.0119H158.286Z"
        fill="#21282B" />
    <path
        d="M96.3171 114.742C94.9292 115.624 92.1218 117.376 90.7199 118.234L90.625 118.295L90.5161 118.237C84.8065 115.166 77.0519 110.897 71.3984 107.738C70.8187 107.415 64.4906 103.853 64.1252 103.651L65.0633 103.102C72.6177 98.7191 80.5831 94.1675 88.2006 89.8682V90.9514C83.2078 88.1054 75.5515 83.6581 70.657 80.7818L71.0646 80.7885L67.5334 82.5647C64.3782 84.1324 60.0634 86.2787 56.8906 87.8127C61.1878 85.3637 66.3318 82.484 70.6676 80.0989L70.8644 79.9912L71.0752 80.1056C76.068 82.7767 83.8578 87.1029 88.8717 89.8682L89.8274 90.3963C87.5998 91.7083 85.344 92.9934 83.1059 94.2818C77.5051 97.508 71.3352 101.023 65.7344 104.179V103.106C73.6085 107.674 82.9477 113.191 90.7199 117.915H90.5161C91.9497 117.104 94.873 115.529 96.3206 114.742H96.3171Z"
        fill="#21282B" />
    <path d="M277 69.6494L276.835 70.3062" stroke="#21282B" stroke-miterlimit="10" />
    <path
        d="M140.916 98.9597C141.981 98.1884 143.045 97.4162 144.11 96.6457C143.266 94.8566 141.943 93.2193 140.258 91.8768C139.873 91.5692 139.464 91.2741 139.002 91.0462C138.325 90.7121 137.552 90.5281 136.788 90.3487C136.356 90.247 135.92 90.1444 135.47 90.1081C135.197 90.0863 134.921 90.0886 134.646 90.1005C131.395 90.2433 128.331 91.7602 126.442 93.9144C125.731 94.7242 125.167 95.6316 124.921 96.6035C124.651 97.671 124.775 98.7933 125.225 99.8158C126.194 102.02 128.537 103.615 130.882 104.979C131.25 105.193 131.628 105.408 132.064 105.51C132.143 105.529 132.228 105.544 132.31 105.531C132.424 105.513 132.515 105.444 132.599 105.378C133.592 104.598 134.586 103.819 135.578 103.04C134.856 103.065 134.136 103.09 133.414 103.115C132.193 103.157 130.934 103.195 129.796 102.847C128.656 102.5 127.657 101.661 127.661 100.673C127.662 100.459 127.709 100.241 127.645 100.033C127.594 99.8727 127.478 99.7246 127.468 99.5581C127.458 99.3916 127.556 99.2337 127.652 99.0852C127.986 98.5656 128.319 98.0477 128.653 97.528C129.081 96.8625 129.515 96.1901 130.108 95.6132C130.725 95.0143 131.498 94.5351 132.264 94.0617C132.803 93.7294 133.343 93.3955 133.948 93.147C134.591 92.882 135.293 92.7215 135.999 92.6035C136.88 92.4565 137.795 92.3736 138.673 92.5193C139.552 92.6649 140.397 93.0618 140.838 93.6927C141.338 94.409 141.253 95.2867 141.223 96.1112C141.179 97.2912 141.223 98.6005 140.259 99.4918"
        fill="white" />
    <path
        d="M140.094 98.899C140.988 98.1904 142.257 97.1892 143.178 96.4847L143.12 96.6739C142.76 95.9755 142.33 95.3025 141.835 94.6651C141.345 94.0244 140.782 93.4227 140.17 92.8606C139.566 92.3186 138.912 91.7564 138.168 91.3558C137.442 90.9704 136.549 90.7759 135.638 90.5688C135.188 90.4676 134.77 90.3905 134.342 90.3893C134.029 90.3778 133.653 90.4143 133.332 90.4338C129.564 90.802 126.069 92.9064 124.606 95.7544C123.522 97.9158 124.404 100.366 126.268 102.048C126.872 102.625 127.572 103.134 128.299 103.611C129.026 104.086 129.799 104.534 130.573 104.949C130.765 105.047 130.957 105.134 131.153 105.194C131.233 105.224 131.354 105.247 131.429 105.259C131.461 105.262 131.464 105.259 131.465 105.257C131.469 105.254 131.488 105.246 131.517 105.226C132.132 104.718 133.874 103.306 134.519 102.782L134.8 103.316C132.968 103.35 130.786 103.664 129 103.19C127.687 102.844 126.48 101.926 126.401 100.749C126.373 100.458 126.47 100.206 126.327 99.968C126.269 99.8533 126.18 99.6478 126.191 99.4887C126.19 99.319 126.273 99.1287 126.352 98.9963L127.407 97.3477C127.925 96.5257 128.531 95.6331 129.375 94.9649C130.222 94.2943 131.152 93.7528 132.121 93.2053C133.104 92.6529 134.292 92.3571 135.461 92.2116C136.64 92.0542 137.932 92.0509 139.006 92.5318C140.701 93.272 140.792 94.5771 140.645 95.9478C140.565 96.8569 140.57 97.8276 140.128 98.6954C139.977 98.9846 139.767 99.256 139.502 99.4828L139.433 99.4345C139.667 99.1983 139.838 98.926 139.954 98.6421C140.311 97.768 140.22 96.8533 140.228 95.9383C140.232 95.0544 140.267 94.1408 139.523 93.4796C138.052 92.2225 135.292 92.735 133.528 93.3466C132.552 93.7346 131.7 94.3541 130.846 94.8982C129.643 95.6551 128.944 96.6149 128.27 97.7077L127.227 99.3289C127.183 99.4127 127.151 99.4553 127.164 99.5257C127.207 99.6471 127.297 99.798 127.337 99.9652C127.416 100.342 127.299 100.562 127.369 100.89C127.596 101.951 129.039 102.607 130.309 102.708C131.545 102.85 133.493 102.701 134.774 102.695L135.794 102.669L135.057 103.23C134.327 103.777 132.626 105.086 131.903 105.609C131.397 105.951 130.708 105.542 130.271 105.316C128.537 104.284 126.857 103.169 125.58 101.756C124.302 100.344 123.594 98.5573 123.919 96.7985C124.683 93.1413 129.053 90.0257 133.613 89.7536C134.358 89.6789 135.149 89.7645 135.86 89.947C136.795 90.1737 137.765 90.3838 138.59 90.846C140.157 91.7945 141.348 93.0729 142.325 94.4261C142.826 95.1398 143.233 95.892 143.565 96.6641L143.458 96.737C142.469 97.3949 141.138 98.3177 140.152 98.9514L140.092 98.8972L140.094 98.899Z"
        fill="#21282B" />
    <path
        d="M23.9329 157.255C20.5632 159.041 16.8519 160.936 14.954 164.4C13.5668 166.876 13.5849 169.983 14.7787 172.52C16.9124 176.861 21.8144 178.923 26.254 180.149C31.8571 181.593 37.8109 181.5 43.5349 180.752C49.0897 180.034 55.0434 177.873 57.978 172.798C59.8517 169.595 59.9424 165.187 57.5609 162.214C56.3792 160.733 54.6959 159.68 52.9521 158.826C51.1962 157.972 49.3496 157.282 47.4486 156.779C51.2264 157.539 55.4061 158.811 58.1291 161.732C61.6681 165.777 60.7373 172.123 57.2496 175.902C53.8376 179.768 48.7059 181.536 43.7434 182.211C37.8109 183.035 31.7272 183.089 25.8853 181.524C20.2368 179.959 13.6333 176.477 13.0077 169.958C12.3367 162.962 18.3267 159.507 23.9359 157.246L23.9329 157.255Z"
        fill="#21282B" />
    <path
        d="M47.2244 139.181C41.5033 141.984 34.5438 142.139 28.7035 139.592C27.8473 139.217 27.0034 138.785 26.3032 138.166C24.9425 136.969 24.2392 135.211 23.6582 133.499C24.3737 144.281 24.1169 155.096 24.0985 165.899C24.0985 166.637 24.0985 167.395 24.3737 168.081C25.0739 169.845 27.1869 170.475 28.783 171.511C29.5505 172.011 30.2446 172.644 31.0977 172.979C31.8469 173.275 32.6694 173.315 33.4767 173.354C36.2837 173.488 39.106 173.619 41.8916 173.26C44.6773 172.9 47.4537 172.017 49.6736 170.302C50.2974 169.82 50.8967 169.241 51.1291 168.492C51.2881 167.986 51.2667 167.444 51.2423 166.914C50.9028 158.938 50.7133 150.956 50.6735 142.971C50.6643 140.994 51.1138 138.401 50.6124 136.506C49.6522 137.667 48.5881 138.511 47.2213 139.181H47.2244Z"
        fill="#BAC3C8" />
    <path
        d="M23.8872 166.676C23.7845 169.522 26.855 170.879 29.0431 171.902C32.9417 173.531 37.342 173.867 41.4401 172.874C43.5768 172.323 45.7921 171.472 47.5117 170.095C48.4849 169.304 49.2374 168.275 49.6122 167.106L49.591 167.246L49.6031 158.469C49.6394 151.759 49.73 143.197 49.9144 136.531C49.9476 135.068 49.9869 133.606 50.0413 132.144C50.0927 133.606 50.135 135.068 50.1652 136.531C50.407 146.24 50.5279 157.645 50.4674 167.385C49.3492 170.821 45.8072 172.453 42.6007 173.401C38.0825 174.657 33.123 174.282 28.8738 172.286C26.6948 171.142 23.591 169.577 23.8902 166.676H23.8872Z"
        fill="#21282B" />
    <path
        d="M36.8859 141.039C37.5961 141.024 38.3003 140.936 39.0045 140.848C39.7086 140.76 40.4098 140.663 41.1109 140.56C42.5102 140.352 43.9125 140.067 45.1909 139.48C46.4753 138.901 47.6389 138.096 48.5184 137.021C48.9626 136.503 49.2799 135.91 49.4431 135.274C49.6063 134.638 49.6215 133.957 49.6275 133.252C49.6366 132.549 49.6275 131.868 49.3887 131.375C49.2739 131.126 49.1137 130.948 48.872 130.727C48.6362 130.515 48.328 130.279 48.0499 129.964C47.7809 129.664 47.5724 129.37 47.3639 129.137C47.1614 128.907 46.9438 128.723 46.6929 128.553C46.1943 128.211 45.5929 127.978 44.9552 127.769C42.3077 126.97 39.5817 126.258 36.9222 126.303C35.5864 126.322 34.2203 126.521 32.818 126.724C32.1108 126.83 31.455 126.912 30.8869 127.103C30.3368 127.281 29.7777 127.62 29.14 127.99C28.8227 128.171 28.4812 128.359 28.1034 128.511C28.0097 128.55 27.913 128.586 27.8163 128.62L27.5383 128.71C27.3811 128.756 27.227 128.807 27.0759 128.862C26.4714 129.083 25.9304 129.379 25.4711 129.797C25.0117 130.209 24.6037 130.751 24.2562 131.314C23.9298 131.847 23.7575 132.446 23.7635 133.082C23.7666 133.709 23.9328 134.372 24.2138 134.965C24.5009 135.565 24.8999 136.125 25.3744 136.625C25.8458 137.127 26.3808 137.578 26.9459 137.996C27.5141 138.414 28.0913 138.813 28.7139 139.143C31.1951 140.485 34.0602 141.102 36.892 141.042L36.8859 141.039ZM36.8859 141.039C34.0511 141.099 31.1921 140.576 28.593 139.365C27.9463 139.059 27.3176 138.701 26.7162 138.317C26.1118 137.932 25.5225 137.509 24.9845 137.012C24.4435 136.522 23.9509 135.958 23.5641 135.305C23.1802 134.644 22.9234 133.915 22.8448 133.125C22.7662 132.34 22.9264 131.502 23.283 130.79C23.6275 130.115 24.0144 129.461 24.5735 128.88C25.1235 128.299 25.8216 127.848 26.5288 127.533C26.7072 127.454 26.8824 127.381 27.0608 127.315L27.2814 127.227L27.4839 127.133C27.7559 126.994 28.0309 126.83 28.318 126.643C28.8892 126.276 29.5208 125.816 30.3126 125.519C31.0833 125.232 31.8419 125.108 32.534 124.989C33.9332 124.747 35.3809 124.517 36.8829 124.487C37.6354 124.481 38.3849 124.523 39.1223 124.614C39.8598 124.705 40.5881 124.844 41.3013 125.008C42.0176 125.171 42.7157 125.374 43.4078 125.586C44.1029 125.804 44.7678 126.028 45.469 126.294C46.1641 126.561 46.8773 126.903 47.521 127.409C47.8384 127.66 48.1436 127.963 48.3884 128.287C48.6302 128.604 48.8145 128.901 49.0049 129.146C49.1802 129.379 49.419 129.601 49.6879 129.885C49.9539 130.158 50.244 130.545 50.3861 130.966C50.6792 131.808 50.5795 132.595 50.5191 133.3C50.4495 134.009 50.377 134.76 50.1201 135.486C49.8693 136.213 49.428 136.861 48.9082 137.384C48.6453 137.651 48.3884 137.884 48.1043 138.123C47.8202 138.356 47.521 138.565 47.2128 138.756C46.5962 139.137 45.9434 139.443 45.2755 139.704C43.9337 140.23 42.5163 140.451 41.1109 140.621L38.9954 140.863C38.2912 140.945 37.584 141.027 36.8768 141.036L36.8859 141.039Z"
        fill="#21282B" />
    <path
        d="M41.3467 147.636C43.8339 147.26 46.1097 146.564 48.3884 145.498C46.8773 147.629 43.7826 148.565 41.3467 147.636Z"
        fill="#21282B" />
    <path
        d="M39.6357 151.212C42.4252 150.933 45.0515 150.4 47.7322 149.586C45.6408 151.557 42.3255 152.217 39.6357 151.212Z"
        fill="#21282B" />
    <path
        d="M38.3379 154.863C41.3601 155.117 44.2735 154.738 47.1385 153.736C44.8809 155.913 41.07 156.395 38.3379 154.863Z"
        fill="#21282B" />
    <path
        d="M33.2383 159.311C38.0466 159.011 43.0242 159.317 47.4305 157.013C43.6467 160.464 37.9529 160.298 33.2383 159.311Z"
        fill="#21282B" />
    <path
        d="M31.3232 163.246C36.7723 163.037 42.4691 163.424 47.1777 160.148C43.2549 164.511 36.6302 164.348 31.3232 163.246Z"
        fill="#21282B" />
    <path
        d="M30.0928 167.107C31.761 168.675 34.5717 168.039 36.657 167.927C38.9418 167.7 41.2024 167.282 43.4237 166.704C44.8985 166.311 46.3401 165.811 47.6487 164.951C45.1343 167.594 40.2534 168.506 36.7265 168.781C34.5656 168.814 31.4618 169.16 30.0928 167.107Z"
        fill="#21282B" />
    <path
        d="M22.6297 133.23C22.6901 134.659 22.7959 136.085 22.9802 137.502C23.1223 141.278 23.1948 145.053 23.2039 148.832C23.225 155.12 23.1465 161.405 22.7596 167.685C22.0947 156.207 22.2549 144.654 22.6297 133.23Z"
        fill="#21282B" />
</svg>