<svg width="23" height="21" viewBox="0 0 23 21" fill="none" xmlns="http://www.w3.org/2000/svg">
    <g id="Group 194">
        <g id="Layer_1">
            <path id="Vector"
                d="M0.451904 18.647V6.76453C0.451904 5.82949 1.20992 5.07324 2.14714 5.07324H2.59517C3.53239 5.07324 4.29041 5.82949 4.29041 6.76453V18.647C4.29041 19.582 3.53239 20.3383 2.59517 20.3383H2.14714C1.20992 20.3383 0.451904 19.5796 0.451904 18.647Z"
                fill="white" />
            <path id="Vector_2"
                d="M12.2034 18.6476V8.55066C12.2034 7.61562 12.9614 6.85938 13.8986 6.85938H14.3466C15.2839 6.85938 16.0419 7.61562 16.0419 8.55066V18.6476C16.0419 19.5827 15.2839 20.3389 14.3466 20.3389H13.8986C12.9614 20.3389 12.2034 19.5827 12.2034 18.6476Z"
                fill="white" />
            <path id="Vector_3"
                d="M17.175 18.6474V11.5175C17.175 10.5824 17.9331 9.82617 18.8703 9.82617H19.3183C20.2555 9.82617 21.0136 10.5824 21.0136 11.5175V18.6474C21.0136 19.5825 20.2555 20.3387 19.3183 20.3387H18.8703C17.9331 20.3387 17.175 19.5825 17.175 18.6474Z"
                fill="#99F876" />
            <path id="Vector_4"
                d="M5.42383 18.6476V1.69128C5.42383 0.756246 6.18184 0 7.11907 0H7.56709C8.50432 0 9.26233 0.756246 9.26233 1.69128V18.6476C9.26233 19.5827 8.50432 20.3389 7.56709 20.3389H7.11907C6.18184 20.3389 5.42383 19.5827 5.42383 18.6476Z"
                fill="#99F876" />
        </g>
        <path id="Vector_5"
            d="M0.340742 18.9347C0.152495 15.3002 0.0742627 11.5912 0.0204779 7.94954L0.0131436 7.40077C-0.109095 6.27915 0.631669 5.21529 1.80271 5.08051C2.26477 5.05403 2.61437 5.02996 3.04954 5.13346C3.9321 5.35008 4.59218 6.19972 4.58241 7.0975L4.56285 11.4901C4.54084 13.7983 4.50173 16.3135 4.44061 18.629C4.43327 18.7903 4.44061 19.043 4.40394 19.2067C4.24503 20.2609 3.17667 20.8915 2.15231 20.7374C1.16463 20.7736 0.267399 19.9047 0.338297 18.9323C0.370079 19.6712 0.934819 20.3186 1.62669 20.4607C2.28922 20.5593 3.09354 20.528 3.57272 20.013C3.94921 19.6423 4.03722 19.132 3.99077 18.6314L3.9761 18.0826L3.92965 15.8851C3.89543 14.4217 3.88809 12.9559 3.86853 11.4925L3.84898 7.0999C3.85876 6.52224 3.43581 5.96143 2.86129 5.81702C2.5777 5.73519 2.15965 5.76648 1.88828 5.7761C1.20863 5.8459 0.658561 6.45485 0.670785 7.13119L0.66834 7.40558L0.661006 7.95435C0.607221 11.596 0.528988 15.3026 0.340742 18.9371V18.9347Z"
            fill="#21282B" />
        <path id="Vector_6"
            d="M12.0786 18.9347C11.927 16.3015 11.8463 13.6683 11.7926 11.0352C11.7779 10.3781 11.7632 9.71861 11.7559 9.06153C11.7363 8.72215 11.7926 8.27447 11.971 7.95435C12.3035 7.28523 13.0369 6.83754 13.7948 6.84236C14.0222 6.84476 14.1933 6.83273 14.4574 6.85198C15.0637 6.91216 15.6308 7.24672 15.9682 7.74735C16.1931 8.07951 16.3154 8.47665 16.3203 8.87619L16.3007 12.8259C16.2811 14.1425 16.2738 15.4591 16.2396 16.7757L16.1931 18.7493C16.2298 19.4666 15.8338 20.2368 15.1639 20.5617C14.6725 20.8193 14.1298 20.7759 13.5968 20.7326C12.7167 20.6243 12.015 19.8036 12.0786 18.9371C12.1104 19.6014 12.57 20.1911 13.1641 20.3981C13.6066 20.5473 14.1224 20.504 14.5747 20.4269C15.3301 20.2368 15.8069 19.5075 15.714 18.7517L15.6675 16.7781C15.6333 15.4615 15.6259 14.1449 15.6064 12.8283L15.5868 8.8786C15.5966 8.35871 15.2592 7.85085 14.7678 7.65108C14.4598 7.5187 14.1469 7.54758 13.7973 7.54277C12.9709 7.52832 12.3255 8.25521 12.3989 9.06634C12.3475 12.359 12.2668 15.6492 12.0786 18.9395V18.9347Z"
            fill="#21282B" />
        <path id="Vector_7"
            d="M17.9286 18.9344C17.7624 16.5179 17.667 14.1109 17.6279 11.6896C17.6622 10.7196 18.5056 9.87479 19.4957 9.81221C20.1289 9.76889 20.767 9.78814 21.2902 10.1708C21.8329 10.5391 22.1703 11.1793 22.1703 11.8292L22.1507 15.04C22.1312 16.1111 22.1238 17.1798 22.0896 18.2508L22.0798 18.6528C22.1727 19.7335 21.3513 20.7709 20.2267 20.7901C19.9236 20.7853 19.6815 20.7853 19.3808 20.7396C18.5227 20.6024 17.8577 19.784 17.9311 18.9344C17.9898 19.8827 18.8723 20.5831 19.8087 20.4604C20.9064 20.5109 21.6667 19.7239 21.5322 18.6528L21.5224 18.2508C21.4882 17.1798 21.4809 16.1111 21.4613 15.04L21.4418 11.8292C21.4442 11.408 21.234 10.9916 20.8795 10.7437C20.6056 10.5415 20.2683 10.4789 19.9309 10.491C18.887 10.3802 18.1609 11.0782 18.2269 12.1108C18.1707 14.3853 18.0924 16.6599 17.9311 18.932L17.9286 18.9344Z"
            fill="#21282B" />
        <path id="Vector_8"
            d="M6.21873 18.9344C6.03782 14.2554 5.94736 9.47766 5.89847 4.79141L5.87646 1.94644C5.89358 1.37841 6.17717 0.824824 6.62456 0.466195C7.05973 0.105159 7.63914 -0.0248144 8.19654 0.00647538C9.39203 -0.087394 10.4677 0.8513 10.4604 2.04272C10.4457 5.3811 10.4408 10.0674 10.3797 13.3576C10.3528 15.247 10.321 17.1196 10.2697 19.0235C10.2208 19.8057 9.62918 20.4989 8.85908 20.6722C7.56091 20.9273 6.21629 20.3954 6.21873 18.9344C6.24318 19.8972 7.15752 20.6433 8.11587 20.523C9.02776 20.6024 9.91766 19.9261 9.91032 19.0066C9.84187 15.6586 9.76608 10.9964 9.74652 7.70136L9.72697 2.04513C9.73675 1.48191 9.34069 0.949983 8.79551 0.779093C8.55348 0.694851 8.26989 0.716513 8.01563 0.7117C7.27976 0.658748 6.59278 1.25085 6.56589 1.98014C6.51455 7.46548 6.43387 13.4852 6.21629 18.9344H6.21873Z"
            fill="#21282B" />
    </g>
</svg>