<svg width="41" height="20" viewBox="0 0 41 20" fill="none" xmlns="http://www.w3.org/2000/svg">
    <g clip-path="url(#clip0_1263_7656)">
        <path
            d="M3.63432 17.0547C8.45273 16.2718 13.4211 18.1599 18.2006 17.1437C18.1867 12.1644 18.2078 7.18454 18.2588 2.20417C15.635 2.76078 12.9834 3.1452 10.3187 3.35159C8.66205 3.47974 5.51559 1.7782 4.11215 2.99936C2.20173 4.67465 3.82366 17.0237 3.63432 17.0547Z"
            fill="#99F876" />
    </g>
    <path
        d="M5.02996 17.8986C9.8473 17.0519 14.8186 19.1192 19.5967 18.0179C19.5752 12.5861 19.5887 7.15369 19.6321 1.72077C17.0091 2.32396 14.358 2.73925 11.6936 2.96032C10.037 3.09759 6.8879 1.23659 5.4863 2.56658C3.57828 4.38514 5.21915 17.859 5.02985 17.8926L5.02996 17.8986Z"
        stroke="#21282B" stroke-width="1.48026" stroke-miterlimit="10" />
    <path
        d="M24.0543 17.2961C25.7493 17.2675 27.4443 17.239 29.1446 17.2162L39.4097 17.0433C39.449 11.8239 39.3876 6.60625 39.4269 1.38685C39.4138 3.12665 25.1986 2.18495 23.8662 2.03284C23.7077 7.09134 24.1754 12.2149 24.0543 17.2961Z"
        stroke="#21282B" stroke-width="1.48026" stroke-miterlimit="10" />
    <path
        d="M8.33304 13.7177C8.57522 11.5754 9.28445 9.52358 10.2094 7.57169C10.4112 7.16446 10.5756 6.75786 11.0035 6.42966C11.5162 6.05344 12.0664 5.99758 12.4943 5.9852C13.0087 6.02831 13.2579 5.88951 13.8206 6.25798C14.1245 6.51172 14.1719 6.78532 14.206 6.90383C14.2652 7.24453 14.3318 7.3832 14.4867 7.68605C15.5399 9.53733 16.3723 11.6201 16.6114 13.744C15.8203 12.5251 15.0991 11.3257 14.3304 10.1634C13.8902 9.44085 12.7866 8.09262 12.6601 7.25085C12.6539 7.20436 12.6448 7.2977 12.8024 7.44001C12.9865 7.57152 13.0769 7.53894 12.9968 7.54546C12.6968 7.52463 12.1081 7.51901 11.955 7.64584C11.8486 7.6787 11.6261 8.13287 11.553 8.23765C10.5021 10.0208 9.44827 11.9438 8.32225 13.7127L8.33304 13.7177Z"
        fill="#21282B" />
    <path
        d="M8.72982 10.5785C9.39849 9.58074 12.2528 9.36331 13.3288 10.2336C11.7485 10.6049 10.4234 10.7015 8.72982 10.5785Z"
        fill="#21282B" />
    <path
        d="M28.5974 14.3751C28.3219 12.6343 27.8593 9.82516 27.5383 8.11968C27.521 8.01052 27.5331 8.11977 27.5492 8.15982C27.7262 8.62345 28.3832 8.35316 28.4117 7.91488L27.7078 7.22394C29.1501 6.69273 30.4579 6.09466 32.089 6.11904C32.2277 6.13398 32.3972 6.15417 32.6198 6.27715C33.2197 6.57812 33.307 7.49834 33.1066 8.08353C32.7118 9.61096 31.0823 10.2893 29.9933 10.4805L29.7904 8.78455C30.8307 8.74399 31.8763 8.71487 32.9172 8.70886C33.603 8.63395 34.7005 8.94382 34.9061 9.88509C35.2237 11.389 34.4167 12.7966 33.3838 13.5802C31.9817 14.6695 30.1725 14.4235 28.5974 14.3751ZM28.5974 14.3751C30.404 13.8608 32.7907 13.6823 33.5699 11.5378C33.703 11.2188 33.775 10.6242 33.6731 10.3552C33.6363 10.3039 33.6729 10.3437 33.5541 10.2938C32.3691 10.2677 31.065 10.4797 29.8654 10.4999L29.6625 8.80398C30.5812 8.54657 31.3582 8.401 31.6927 7.55433C31.7073 7.508 31.7167 7.46175 31.7262 7.41551C31.7357 7.36926 31.7253 7.36368 31.7424 7.46132C31.7595 7.56472 31.8851 7.71814 31.947 7.74014C30.9609 7.64729 29.2307 8.13151 28.0153 8.43424L27.1167 8.66251L27.3114 7.74331C27.3351 7.6277 27.3474 7.44315 27.5904 7.25472C28.1235 6.94044 28.5728 7.43404 28.6174 7.95174C28.7713 10.0863 28.8027 12.2518 28.6077 14.3807L28.5974 14.3751Z"
        fill="#21282B" />
    <defs>
        <clipPath id="clip0_1263_7656">
            <rect width="39.135" height="15.1936" fill="white"
                transform="translate(0.30542 2.50684) rotate(-0.964636)" />
        </clipPath>
    </defs>
</svg>