<svg width="30" height="26" viewBox="0 0 30 26" fill="none" xmlns="http://www.w3.org/2000/svg">
    <g id="Layer_1">
        <path id="Vector"
            d="M8.48662 15.6512C7.52567 15.6006 6.56866 15.4745 5.63374 15.2776C5.25403 15.1973 4.87118 15.1028 4.54501 14.9184C3.96095 14.5898 3.6363 14.0233 3.33603 13.4835C3.07404 13.0108 2.80896 12.5288 2.74294 12.0091C2.67692 11.4894 2.84458 10.9175 3.32075 10.5884C3.95013 10.1528 5.0166 10.1789 5.36963 9.55529C5.46198 9.39268 5.48469 9.2086 5.49082 9.0278C5.51343 8.25588 5.23965 7.43758 5.62378 6.73669C5.93495 6.1684 6.63441 5.80924 7.35225 5.67469C8.07009 5.54014 8.81509 5.594 9.54652 5.6511C9.36371 5.06784 9.80158 4.47969 10.2677 4.02335C11.9507 2.37387 14.316 1.24241 16.8399 0.878288C17.481 0.786785 18.1452 0.742253 18.7731 0.883475C20.0213 1.16284 20.8895 2.09905 21.6652 2.97941C22.6466 4.09233 23.6824 5.39973 23.3398 6.76516C23.5379 6.41152 24.111 6.31741 24.5366 6.4618C24.9621 6.60619 25.2726 6.91652 25.5665 7.21755C26.1725 7.83834 26.816 8.62386 26.5019 9.38864C28.0896 10.0127 29.3209 11.4081 29.236 12.9004C29.1511 14.3927 27.4871 15.7748 25.7591 15.5495"
            fill="#99F876" />
        <path id="Vector_2"
            d="M6.37824 15.5102C5.61132 15.5493 4.83795 15.5365 4.06563 15.4656C3.26608 15.3902 2.35637 15.325 1.71285 14.7329C1.36766 14.4354 1.11256 14.0696 0.889393 13.7318C0.380981 13.0364 -0.0904848 12.0468 0.158912 11.1143C0.280107 10.5868 0.653864 10.1029 1.12471 9.86502C1.70824 9.55235 2.21259 9.54052 2.67857 9.26021C2.7732 9.19502 2.80604 9.14604 2.82523 9.0893C2.89684 8.78539 2.83236 8.46211 2.81312 8.12905C2.573 6.40672 3.43176 5.37359 5.04645 5.01349C5.89836 4.83545 6.71597 4.90445 7.47761 4.96131L6.93656 5.68073C6.83741 5.36559 6.85578 5.01337 6.94575 4.73917C7.18321 4.01743 7.70519 3.56065 8.22404 3.08974C9.4855 1.98585 10.9699 1.18669 12.5396 0.685487C13.3215 0.430982 14.1236 0.261193 14.9399 0.158878C15.7863 0.0500387 16.7184 0.0882687 17.5248 0.455989C18.3554 0.828234 19.0112 1.44077 19.5702 2.04777C20.4236 3.01397 21.3342 3.9577 21.7145 5.26398C21.8421 5.73136 21.8704 6.26554 21.746 6.76477L20.7776 6.34803C20.8849 6.15543 21.0393 6.01904 21.1897 5.92669C22.0976 5.38513 23.1438 5.90814 23.7732 6.62461C24.2544 7.12535 24.821 7.7213 24.9736 8.50284C25.0334 8.80571 25.0075 9.16428 24.88 9.46392L24.5812 8.73226C25.3888 9.05125 26.1237 9.55471 26.7271 10.2337C27.6579 11.2495 27.8654 13.046 26.9649 14.1423C26.1951 15.1559 24.8355 15.6869 23.6522 15.4086C25.092 15.4664 26.676 14.2782 26.7247 12.7925C26.7402 12.0851 26.3459 11.4972 25.9219 10.9725C25.4766 10.4227 24.8542 10.0221 24.2088 9.76156C23.9346 9.6537 23.7976 9.33414 23.9011 9.05041C24.1155 8.46874 23.4203 7.83765 23.0333 7.41161C22.6177 6.9858 22.1738 6.62151 21.6912 6.90352L20.7229 6.48678C20.7945 6.19072 20.7815 5.88119 20.6974 5.56278C20.3733 4.48868 19.5543 3.66053 18.809 2.8098C18.0382 1.96869 17.2264 1.30552 16.1353 1.21982C13.6292 1.15157 10.8228 2.26293 8.9088 3.93152C8.55491 4.25338 8.1138 4.62308 7.95427 5.07701C7.91451 5.2062 7.92565 5.27842 7.95057 5.3741C8.02538 5.66743 7.85708 5.96739 7.57527 6.04506C7.518 6.06123 7.45763 6.06642 7.40172 6.06215C6.64458 6.0021 5.91625 5.95441 5.26339 6.09473C4.62407 6.22708 4.01529 6.59339 3.89819 7.06584C3.74683 7.59829 3.95855 8.39979 3.90755 9.0179C3.89405 9.79603 3.26973 10.2992 2.61879 10.4898C1.98636 10.7306 1.37614 10.7228 1.18359 11.3939C1.11329 11.6726 1.17133 11.9457 1.28525 12.2198C1.40542 12.5207 1.55469 12.8716 1.72212 13.227C2.25933 14.5101 2.91937 14.7076 4.13924 15.0328C4.87328 15.2298 5.62216 15.392 6.38127 15.5118L6.37824 15.5102Z"
            fill="#21282B" />
        <path id="Vector_3"
            d="M17.5051 10.9935C17.4781 11.0157 17.4641 10.9624 17.473 10.9403C17.4759 10.9277 17.4863 10.9072 17.5104 10.9023C17.5346 10.8989 17.5467 10.9051 17.5634 10.9144C17.6211 10.958 17.6231 11.0224 17.6355 11.0632C17.8055 11.7456 17.9545 12.4391 18.0883 13.1281C18.1583 13.3837 18.1029 13.6435 18.1171 13.9027L18.1252 14.9369L18.1578 19.0704L17.6249 18.5244C17.8953 18.5333 18.0169 18.6298 18.1717 18.7197C18.2005 18.7384 18.2126 18.7351 18.1581 18.7198C18.146 18.7184 18.1278 18.7138 18.1067 18.714C18.0901 18.7141 18.1036 18.714 18.1082 18.714L18.2048 18.7132C19.3254 18.7075 21.4125 18.6863 22.5527 18.6789L22.3799 19.7475C22.0801 19.6508 21.9245 19.267 21.995 19.0055C22.0227 18.8811 22.0568 18.8023 22.1164 18.7043C22.5595 18.014 23.3326 17.5977 24.1378 17.6259C24.3689 17.6335 24.5605 17.797 24.6241 18.015C24.7343 18.3882 24.8068 18.7727 24.8446 19.1607C24.8592 19.4796 24.9485 19.8828 24.7442 20.2208C24.5242 20.6674 23.935 20.8386 23.5225 20.6124C22.9249 20.3012 22.8428 19.6543 22.6224 19.0917C22.8779 19.3113 23.1339 19.5985 23.3936 19.7882C23.5181 19.8737 23.6438 19.9151 23.7283 19.9003C23.8234 19.8964 23.8938 19.8283 23.8604 19.8034C23.8437 19.7925 23.8226 19.7943 23.8104 19.7818C23.7967 19.7693 23.7874 19.7411 23.7976 19.6939C23.8382 19.2802 23.7267 18.7467 23.6132 18.3342L24.0996 18.7233C23.6811 18.7062 23.2344 18.9407 23.0002 19.3104C23.0166 19.2788 23.0211 19.2741 23.0328 19.2252C23.0797 19.0535 22.9401 18.7702 22.7372 18.7089L22.5644 19.7775C21.3516 19.7808 19.2767 19.8097 18.0836 19.8128C17.8555 19.8052 17.6885 19.6965 17.5413 19.6065C17.5276 19.5971 17.5475 19.6206 17.6366 19.6214L17.1037 19.0755L17.0629 13.9063C17.0714 13.6453 17.0135 13.3864 17.0794 13.1313C17.2009 12.4403 17.3419 11.7445 17.5071 11.0611C17.5189 11.0185 17.5262 10.9855 17.5215 10.9651C17.5139 10.9573 17.5228 10.9431 17.5078 10.9526C17.4988 10.9605 17.4839 10.9905 17.5096 10.9887L17.5051 10.9935Z"
            fill="#21282B" />
        <path id="Vector_4"
            d="M14.8207 12.6349C15.0254 13.306 15.2018 14.0418 15.3507 14.7274C15.415 15.0224 15.3494 15.3263 15.3729 15.6263C15.3758 15.9957 15.384 17.0377 15.3871 17.4243L15.4249 22.2179C15.4273 22.5212 15.1921 22.7698 14.9007 22.7721C14.6438 22.7632 14.3648 22.8062 14.1586 22.8943C13.9583 22.9729 13.7306 23.2136 13.752 23.4319C13.7613 23.468 13.7752 23.4962 13.8269 23.5413C13.9364 23.6379 14.1968 23.727 14.4781 23.7751C14.6687 23.805 14.8079 23.8432 14.9389 23.7966C15.0167 23.697 15.0109 23.5383 15.0506 23.3997C15.1721 23.1048 15.3329 22.8096 15.2338 22.496C15.1577 22.2357 14.8245 22.1173 14.5996 22.3187C14.7185 21.8918 15.3329 21.8555 15.6252 22.1424C16.3627 22.7748 16.2599 24.4872 15.2734 24.8424C14.9527 24.9643 14.5717 24.9108 14.2934 24.8579C13.6582 24.7545 12.8901 24.4446 12.7224 23.6821C12.5827 23.0026 12.9479 22.393 13.4556 22.0369C13.8958 21.749 14.4267 21.6615 14.9086 21.6703L14.3662 22.2247C14.3559 20.9202 14.3241 16.8763 14.3143 15.6347C14.333 15.3343 14.2627 15.0315 14.3223 14.7356C14.4603 14.0476 14.6267 13.3091 14.8192 12.6349L14.8207 12.6349Z"
            fill="#21282B" />
        <path id="Vector_5"
            d="M11.526 11.3848C11.7228 12.2037 11.8834 13.0354 12.0288 13.861C12.1145 14.1904 12.0778 14.5176 12.082 14.8524L12.0859 15.349L12.1172 19.3175C12.1196 19.624 11.8799 19.8742 11.5869 19.8718L6.8353 19.8464C6.41533 19.8324 6.32612 19.437 6.07747 19.1231C6.0255 19.0449 5.9643 18.9448 5.91831 18.8587L5.91219 18.8478L5.91221 18.8509L5.91831 18.8587C5.94889 18.9056 5.97459 18.9086 5.94277 18.8962C5.77018 18.8426 5.2346 18.7242 5.07116 18.8748C4.88427 19.1152 4.96525 19.616 5.2019 19.7493C5.34924 19.855 5.60142 19.8498 5.76384 19.7621C5.85107 19.7159 5.91405 19.6588 5.94361 19.5768C6.0198 19.4709 6.10186 19.3429 6.15811 19.1979C6.22343 19.0543 6.34298 18.7013 6.3563 18.8584C6.37593 18.8582 6.37718 18.8252 6.37854 18.8064C6.3784 18.7891 6.39482 18.7638 6.36755 18.753C6.29347 18.7442 6.21148 18.88 6.25289 18.9598C6.29604 19.0695 6.52313 19.1384 6.66396 18.9943C6.51006 19.3963 5.86549 19.2458 5.9039 18.7551C5.90105 18.3936 6.28689 18.1014 6.62631 18.2417C6.92616 18.3447 7.13578 18.6888 7.06596 19.0273C7.06171 19.0635 7.06047 19.098 7.05771 19.1311C7.04568 19.3292 7.03993 19.5572 7.00226 19.7602C6.95128 20.1897 6.59472 20.5556 6.23374 20.7455C5.47582 21.1601 4.41761 20.8415 4.0727 20.0034C3.68733 19.2064 3.98881 17.9843 4.88867 17.7572C5.44504 17.6396 5.82466 17.7073 6.33948 17.8746C6.48192 17.9348 6.67463 18.0496 6.80621 18.2639L6.88125 18.3953L6.94702 18.5001C7.04486 18.6502 7.15628 18.7986 7.28173 19.002L6.83718 18.7446L11.5888 18.77L11.0585 19.3243L11.0272 15.3558C11.0144 15.0699 11.0367 14.6469 11.0058 14.3642C11.008 14.0703 11.1 13.6656 11.1414 13.3714C11.254 12.7088 11.3772 12.0461 11.5245 11.3848L11.526 11.3848Z"
            fill="#21282B" />
    </g>
</svg>