<svg width="35" height="25" viewBox="0 0 35 25" fill="none" xmlns="http://www.w3.org/2000/svg">
    <g id="Group 216">
        <path id="Vector"
            d="M9.35643 14.7661C7.37466 14.9172 5.35779 15.0289 3.37268 15.1266L2.77481 15.1571C1.99881 15.1768 1.20807 14.8133 0.758706 14.1718C0.454706 13.7485 0.28702 13.2313 0.279219 12.7152L0.507511 3.20147L0.521905 2.60882C0.506133 1.20303 1.71623 0.0179482 3.13396 0.0652327C3.38343 0.0694558 3.9201 0.0852439 4.17971 0.0906312C12.3868 0.28996 23.1399 0.551124 31.3488 0.750498C32.5309 0.717705 33.6338 1.55047 33.8961 2.70062C33.9549 2.94256 33.9728 3.1936 33.9631 3.44213C33.9135 5.86436 33.7998 9.89973 33.7471 12.3375C33.7351 12.6383 33.7317 13.1587 33.7198 13.4586C33.6909 14.5365 32.8977 15.5279 31.8475 15.8007C31.4043 15.9323 30.9407 15.8797 30.4859 15.8778C29.7086 15.9159 27.7143 15.6691 26.9081 15.5982C25.3184 15.4375 23.7299 15.2676 22.141 15.0757C23.7373 14.9621 25.3322 14.8687 26.9278 14.7853C27.3341 14.7667 29.5408 14.6413 29.9185 14.6532C30.3165 14.6703 30.7144 14.6909 31.1127 14.6969C31.8169 14.7397 32.478 14.1628 32.5181 13.4615L32.5768 11.1212C32.6185 9.09903 32.7363 5.16106 32.7623 3.17797C32.7079 2.44962 32.051 1.90308 31.3226 1.9423C29.1008 1.88926 20.8485 1.68791 18.4845 1.6305C14.8336 1.54183 6.83072 1.34746 3.25744 1.26067C2.60459 1.19524 1.97332 1.57372 1.78409 2.20986C1.73917 2.34647 1.72635 2.49395 1.72472 2.63711L1.71033 3.22977L1.48236 12.6921C1.48817 13.2522 1.89348 13.7284 2.39368 13.9517C2.61089 14.0662 3.15033 14.0821 3.40005 14.1138C5.38089 14.3061 7.38523 14.52 9.35925 14.7644L9.35643 14.7661Z"
            fill="#21282B" />
        <path id="Vector_2"
            d="M7.10971 6.44699C10.4433 6.16353 13.7766 6.16187 17.1146 6.231C20.452 6.32216 23.7813 6.48563 27.0971 6.93244C23.7644 7.21776 20.4302 7.2194 17.0923 7.14843C13.7549 7.05544 10.4256 6.89196 7.10971 6.44699Z"
            fill="#21282B" />
        <path id="Vector_3"
            d="M7.04086 9.29074C10.3745 9.00728 13.7077 9.00562 17.0457 9.07475C20.3832 9.16591 23.7124 9.32938 27.0283 9.77619C23.6955 10.0615 20.3614 10.0632 17.0234 9.99218C13.686 9.89919 10.3568 9.73571 7.04086 9.29074Z"
            fill="#21282B" />
        <path id="Vector_4"
            d="M15.7747 20.246C15.7403 20.2516 15.706 20.2562 15.6726 20.2618C14.978 21.0794 14.0982 21.7181 13.227 22.3477C12.8534 22.6177 12.4762 22.8895 12.0591 23.0868C11.945 23.1409 11.7368 23.1524 11.6111 23.1493L11.8715 12.4301C11.8837 11.9256 11.896 11.4219 11.9082 10.9173C11.9102 10.8375 11.9006 10.7381 11.8274 10.7061C11.8411 10.7495 11.9419 10.7116 11.9556 10.7551L20.7924 20.1549C20.7468 20.1684 20.7004 20.1756 20.654 20.1818C19.6952 20.3072 18.7314 20.0268 17.7652 20.0006C17.3754 19.9902 16.2705 19.9643 15.964 20.2138"
            fill="#99F876" />
        <path id="Vector_5"
            d="M16.4998 18.8171L16.3977 18.8357L16.4361 18.8146C15.9015 19.4763 15.2474 20.0323 14.5784 20.554C14.0192 20.9737 13.4802 21.4352 12.8485 21.7549C12.6269 21.8551 12.3758 21.8426 12.141 21.8451C12.1554 18.5114 12.1557 13.2478 12.1912 9.95961L12.1951 9.56957L12.1956 9.47228L12.1968 9.42365C12.1971 9.41172 12.1972 9.40805 12.1963 9.40436C12.1965 9.39886 12.1926 9.40427 12.2056 9.44314C12.2271 9.50884 12.2983 9.58125 12.3716 9.61149L12.9554 9.09325C12.917 8.96196 12.8031 8.85363 12.669 8.82192C12.6211 8.81158 12.6192 8.8152 12.6294 8.81453C12.6441 8.81581 12.6701 8.81368 12.7418 8.82828L12.7694 8.83537C12.9127 8.87373 13.0401 8.99341 13.0845 9.14137L12.9869 8.97376C15.92 12.0513 19.0983 15.1202 21.9523 18.2555L22.6537 19.0262C22.309 19.0986 21.5497 19.3032 21.213 19.3125C20.3909 19.3669 19.5106 19.1518 18.7334 19.0678C18.1624 19.0199 17.5055 18.9691 16.973 19.0847C16.9892 19.0676 17.0138 19.0425 17.0217 19.0207C17.0345 18.9898 17.0272 18.9878 17.024 19.0042C17.0014 19.2478 17.1163 19.5425 17.1995 19.8099C17.2643 19.9932 17.367 20.2949 17.4114 20.4842C17.7564 21.8071 18.1276 23.1178 18.4744 24.4435L18.3615 24.4848C17.7509 23.2528 17.2178 21.9868 16.7127 20.7096C16.5754 20.3106 16.3306 19.9246 16.1832 19.4061C15.9854 18.7201 16.2377 18.2682 16.9633 18.1151C18.016 17.8909 19.166 18.0033 20.1986 18.111C20.5879 18.1425 20.9565 18.1515 21.3315 18.0899L21.0625 19.0803C18.1118 16.0399 15.2402 12.6774 12.3534 9.56148L12.2557 9.39387C12.2951 9.5261 12.4098 9.63445 12.544 9.66525C12.5919 9.67467 12.5938 9.67105 12.5836 9.67172C12.5725 9.67145 12.4481 9.65833 12.4042 9.63615C12.2796 9.58998 12.1696 9.47715 12.1294 9.34399L11.8469 8.45312L12.7142 8.82485C12.9596 8.92169 13.0725 9.22002 13.0513 9.44349L13.0501 9.49211L13.0459 9.58931C12.9843 11.175 12.8673 13.8223 12.7977 15.4326L12.5114 21.665L12.332 21.478C12.4576 21.4811 12.5861 21.4805 12.7017 21.442C12.9409 21.3358 13.165 21.2054 13.3885 21.0621C14.0801 20.5979 14.7858 20.1212 15.4327 19.5944C15.7562 19.3287 16.0626 19.0442 16.3419 18.7334L16.359 18.7145L16.3804 18.7114L16.4814 18.6982L16.5008 18.8162L16.4998 18.8171Z"
            fill="#21282B" />
    </g>
</svg>