<svg width="24" height="24" viewBox="0 0 24 24" fill="none" xmlns="http://www.w3.org/2000/svg">
    <g id="Layer_1">
        <path id="Vector"
            d="M1.42158 1.17545C1.70799 4.05064 1.64654 7.07911 1.49294 9.89902C1.508 10.5678 1.59662 13.7409 1.6067 14.3354C1.65838 16.2504 0.949836 18.5144 1.89036 20.3143C1.95827 20.3988 2.03998 20.5525 2.12843 20.6244C3.89268 22.3277 6.81713 22.0329 9.37959 21.9206C12.2669 21.7971 15.2591 22.1336 18.1238 21.723C19.527 21.546 20.8965 21.2236 22.0776 20.6617L21.7904 21.0724C21.7716 16.5087 21.8179 10.2667 21.8677 5.70113L21.9294 0.578822L22.268 0.857494C19.9144 0.750723 17.5581 0.65362 15.1994 0.57577C14.02 0.538043 12.8408 0.507507 11.6588 0.481844L8.12169 0.402218C12.9586 0.228509 17.7993 0.193808 22.6346 0.291166C22.8305 5.12111 22.854 11.0734 22.9344 15.9328L22.9683 21.0574L22.9696 21.3283C18.8557 23.4205 13.9775 22.7271 9.42212 22.8332C7.24038 22.9041 4.67106 23.0934 2.67212 22.0896C1.98516 21.7268 1.33456 21.2742 0.986859 20.66C-0.0157394 18.6604 0.767717 16.4087 0.816295 14.34C0.830581 13.764 0.89004 10.5509 0.90245 9.90536C1.24774 7.00353 1.45247 4.08871 1.42158 1.17545Z"
            fill="#21282B" />
        <path id="Vector_2"
            d="M15.6072 10.4258C13.4899 10.582 11.1344 10.703 8.99981 10.8117C8.81407 10.8168 7.79318 10.8699 7.62346 10.8744C5.62713 11.0018 4.04435 8.99683 4.36769 7.08417C4.5577 5.45623 6.08948 4.14667 7.73949 4.24909L12.1465 4.14613C12.8704 4.13298 14.7539 4.10132 15.4523 4.09205C16.6547 3.99571 17.8534 4.59588 18.4393 5.64383C19.4716 7.31865 18.6412 9.79764 16.707 10.329C16.3477 10.4345 15.9698 10.4416 15.604 10.4259C17.9672 10.4739 19.3334 7.77919 18.0831 5.86109C17.5809 5.06643 16.6797 4.56686 15.742 4.61452C15.5789 4.62851 14.5542 4.65616 14.3654 4.66765L12.1627 4.74945L7.75663 4.88434C6.37286 4.79071 5.16646 5.80717 4.96609 7.17025C4.68911 8.66317 5.80318 10.2815 7.35728 10.3929C7.69752 10.4124 8.63271 10.3904 8.98852 10.3936C11.129 10.3837 13.4782 10.3874 15.6071 10.4226L15.6072 10.4258Z"
            fill="#21282B" />
        <g id="Group">
            <path id="Vector_3"
                d="M16.7722 18.0603L8.7629 18.2764C7.1713 18.3194 5.84411 16.9975 5.79888 15.3216C5.75365 13.6457 7.00762 12.2542 8.59922 12.2113L16.9255 11.9866C18.5171 11.9436 19.8443 13.2655 19.8895 14.9414C19.9348 16.6173 18.6808 18.0088 17.0892 18.0517L16.7722 18.0603Z"
                fill="#99F876" />
            <path id="Vector_4"
                d="M15.8023 17.7676C13.6849 17.9237 11.3295 18.0448 9.19488 18.1535C9.00914 18.1586 7.98825 18.2117 7.81852 18.2162C5.8222 18.3436 4.23942 16.3386 4.56276 14.426C4.75277 12.798 6.28455 11.4885 7.93456 11.5909L12.3415 11.4879C13.0654 11.4748 14.949 11.4431 15.6474 11.4339C16.8498 11.3375 18.0485 11.9377 18.6344 12.9856C19.6667 14.6604 18.8362 17.1394 16.9021 17.6708C16.5428 17.7763 16.1648 17.7833 15.7991 17.7677C18.1623 17.8157 19.5285 15.121 18.2781 13.2029C17.776 12.4082 16.8748 11.9087 15.9371 11.9563C15.774 11.9703 14.7492 11.998 14.5605 12.0094L12.3578 12.0913L7.9517 12.2261C6.56793 12.1325 5.36153 13.149 5.16116 14.512C4.88418 16.005 5.99825 17.6233 7.55235 17.7347C7.89258 17.7542 8.82778 17.7322 9.18359 17.7354C11.3241 17.7255 13.6733 17.7292 15.8022 17.7644L15.8023 17.7676Z"
                fill="#21282B" />
        </g>
        <circle id="Ellipse 36" cx="7.85524" cy="7.7009" r="1.9465"
            transform="rotate(-1.5459 7.85524 7.7009)" fill="#21282B" />
        <path id="Vector_5"
            d="M9.5971 7.55308C9.79567 9.44846 7.59282 10.3545 6.24217 9.1131C4.89817 7.88115 5.79358 5.55374 7.61965 5.53002C8.84298 5.497 9.62019 6.38966 9.5971 7.55308ZM9.5971 7.55308C9.53629 6.60595 8.54762 5.83401 7.62827 5.84924C6.68304 5.85558 5.86969 6.7113 5.91432 7.65247C5.92052 8.59469 6.77884 9.40529 7.72303 9.36064C8.63243 9.3329 9.59032 8.48926 9.5971 7.55308Z"
            fill="#21282B" />
        <circle id="Ellipse 35" cx="15.8355" cy="14.7878" r="1.9465"
            transform="rotate(-1.5459 15.8355 14.7878)" fill="white" />
        <path id="Vector_6"
            d="M17.8017 14.6791C18.0003 16.5744 15.7974 17.4804 14.4468 16.2391C13.1028 15.0071 13.9982 12.6797 15.8242 12.656C17.0476 12.623 17.8248 13.5156 17.8017 14.6791ZM17.8017 14.6791C17.7409 13.7319 16.7522 12.96 15.8329 12.9752C14.8876 12.9816 14.0743 13.8373 14.1189 14.7784C14.1251 15.7207 14.9834 16.5313 15.9276 16.4866C16.837 16.4589 17.7949 15.6152 17.8017 14.6791Z"
            fill="#21282B" />
    </g>
</svg>