<svg width="25" height="24" viewBox="0 0 25 24" fill="none" xmlns="http://www.w3.org/2000/svg">
    <g id="Group 399">
        <g id="Group">
            <path id="Vector"
                d="M3.60734 5.81357C4.42692 5.15397 5.24623 4.48984 6.0658 3.83024C7.40281 2.75071 8.77028 1.65128 10.3643 1.01061C10.5763 0.925822 10.8023 0.849299 11.0293 0.863454C11.2338 0.878905 11.4245 0.967727 11.6063 1.05707C14.272 2.36892 16.7401 4.07775 19.4661 5.26364C20.1023 5.54004 20.7645 5.7968 21.2552 6.28571C21.7459 6.77463 22.0025 7.58097 21.6491 8.17291C21.3207 8.72712 20.6168 8.90373 20.0674 9.24384C19.5575 9.56353 19.1704 10.044 18.7579 10.4806C17.0829 12.2555 14.8583 13.3906 12.6769 14.4916C11.9921 14.8349 11.1489 15.1783 10.5043 14.7618C10.3302 14.6493 10.1894 14.4896 10.0235 14.363C9.77244 14.1733 9.47188 14.0636 9.17609 13.9582C6.72914 13.0511 4.37512 11.8846 2.17398 10.478C1.34145 9.9452 -0.154091 8.7656 0.658644 7.61645C0.904419 7.2666 1.32616 7.21057 1.69657 7.05315C2.40216 6.75396 3.00728 6.28816 3.59806 5.80957L3.60734 5.81357Z"
                fill="#99F876" />
            <path id="Vector_2"
                d="M5.01526 5.73074C7.05965 4.15687 9.26509 1.95225 11.6247 0.881935C11.8714 0.772472 12.144 0.643369 12.4616 0.661376C12.7798 0.688424 13.0285 0.837422 13.275 0.950254C15.2619 1.87925 17.1485 3.01817 19.106 3.98515C20.5375 4.85087 22.6221 4.99852 23.4495 6.64751C24.1446 8.35401 22.8689 8.94913 21.6929 9.54758C21.3054 9.79671 20.9717 10.1879 20.5939 10.5998C19.0566 12.2579 17.0613 13.3707 15.0712 14.3427C14.0811 14.7988 12.7406 15.6699 11.6619 14.8791C11.3954 14.6586 11.2724 14.4933 11.0622 14.3829C10.3586 14.0378 9.54156 13.7627 8.82863 13.4136C6.82391 12.4902 4.90008 11.4079 3.10481 10.1321C2.4871 9.63694 1.74584 8.96739 1.82909 8.09614C1.89234 7.4937 2.4051 7.14664 2.94471 7.02031C3.71925 6.73983 4.38077 6.23451 5.01949 5.72596L5.01526 5.73074ZM5.01526 5.73074C4.38159 6.24807 3.72061 6.76244 2.95112 7.0517C2.42557 7.18629 1.91623 7.51501 1.87498 8.10711C1.82615 8.94916 2.56442 9.56898 3.17571 10.0328C5.00638 11.2203 6.98227 12.1908 8.99821 13.0001C10.003 13.464 11.196 13.5995 12.0254 14.3819C12.8651 14.8825 13.8943 14.0248 14.713 13.6511C16.623 12.6248 18.507 11.541 19.9328 9.98459C20.2987 9.60062 20.6782 9.14328 21.2182 8.79918C21.7549 8.47342 22.2791 8.31623 22.5515 8.0329C22.8419 7.74854 22.845 7.34916 22.6914 6.97694C22.2968 6.05608 21.1622 5.76302 20.2889 5.3052C18.8026 4.57874 17.3886 3.70295 15.9806 2.8495C14.8196 2.19504 13.6743 1.34915 12.4355 0.90331C12.2032 0.875854 11.9464 0.967753 11.6947 1.06843C10.1655 1.65999 8.85179 2.67465 7.57381 3.68271L5.01075 5.731L5.01526 5.73074Z"
                fill="#21282B" />
        </g>
        <path id="Vector_3"
            d="M3.79699 10.4959C3.53472 10.5722 3.08152 10.8609 3.01272 10.9211C2.89085 11.078 2.76404 11.151 2.6476 11.2467L2.66508 11.2364C2.2432 11.6729 2.34725 12.3639 2.75362 12.7376C5.00218 14.6774 7.63079 16.085 10.3959 17.1242C10.6659 17.1785 11.387 17.4447 11.7913 17.6314C11.8062 17.6539 12.2118 18.0136 12.241 18.0493L12.3029 18.1018L12.3338 18.1655C12.4054 18.3063 12.4582 18.3593 12.4436 18.3415C12.7594 18.4819 13.0222 18.4149 13.4413 18.3154L13.3616 18.3434C14.7746 17.7689 16.974 16.4228 17.8674 15.9303L18.0789 15.6839L18.1128 15.6445C19.059 14.9758 19.9085 14.2006 20.6202 13.3118C20.9603 13.0204 21.2655 12.8293 21.5322 12.5984C22.6102 11.9407 23.8828 11.5147 22.8905 10.0996C22.606 9.72339 22.2207 9.39992 21.8066 9.12493C22.7872 9.42264 23.9486 10.1775 23.8939 11.3971C23.8394 12.467 22.7436 12.9761 22.0174 13.3885L22.065 13.3529C21.7512 13.6288 21.4367 13.8157 21.2004 14.0262L21.2599 13.9618C20.6443 14.7935 19.2605 16.0166 18.7485 16.3041L18.537 16.5505C17.0101 17.5715 15.3574 18.4503 13.6755 19.2185C12.9872 19.4322 11.8997 19.4683 11.543 18.6332L11.6357 18.7493L11.2389 18.3844L11.3613 18.4661C9.16686 17.6739 6.99534 16.8102 4.98519 15.5393C4.17323 15.0351 3.40276 14.4677 2.65713 13.8614C2.28588 13.5464 1.85131 13.0013 1.80507 12.4473C1.7124 11.8727 1.96448 11.2403 2.44444 10.9453C2.59351 10.8663 2.74874 10.8151 2.85193 10.7248C3.16047 10.5896 3.4779 10.5288 3.79276 10.5008L3.79699 10.4959Z"
            fill="#21282B" />
        <path id="Vector_4"
            d="M21.842 13.2798C23.0487 13.4532 24.1752 14.4165 24.1497 15.6751C23.9817 16.054 23.7273 16.4294 23.3829 16.6599C23.056 16.8809 22.7446 17.058 22.4328 17.2265C22.1877 17.2968 21.9368 17.4231 21.7193 17.5775C21.3186 17.9315 20.5776 18.7389 19.9831 19.2631C19.4603 19.7745 18.518 20.3192 17.88 20.7215C16.4337 21.6349 14.8694 22.5466 13.1032 22.8009C12.494 22.8455 12.048 22.4298 11.685 22.1166L11.7561 22.1682C10.6875 21.5705 9.41843 21.2635 8.1649 20.7582C6.49952 19.9554 4.73679 19.1927 3.17972 18.0746C2.34278 17.7164 1.61419 16.3521 2.29015 15.364C2.84628 14.8035 3.59806 14.7935 4.29682 14.5764C3.76797 14.9079 3.00998 15.1199 2.69196 15.645L2.7208 15.5961C2.61979 15.9581 2.64523 16.3127 2.87191 16.6212C3.09859 16.9296 3.38572 17.1872 3.72378 17.3861C5.13027 18.4101 7.00066 19.2308 8.53554 19.9726C9.70575 20.4485 11.0433 20.7643 12.2529 21.4481C12.5145 21.6558 12.7492 21.9466 13.0483 21.9461L13.0031 21.9488C14.6107 21.6952 16.0212 20.8655 17.3802 20.0087L18.4382 19.35C19.4821 18.6834 20.2117 17.7608 21.1542 16.9115C21.4457 16.7055 21.7531 16.5373 22.1181 16.4256L22.0298 16.4652C22.5745 16.1713 23.0462 15.8689 23.4234 15.4262L23.3781 15.579C23.5838 14.6101 22.7856 13.679 21.851 13.2793L21.842 13.2798Z"
            fill="#21282B" />
    </g>
</svg>