<svg width="22" height="27" viewBox="0 0 22 27" fill="none" xmlns="http://www.w3.org/2000/svg">
    <g clip-path="url(#clip0_1263_7737)">
        <path
            d="M1.4866 0.747097C1.73054 4.13767 1.63144 7.76234 1.42562 11.0547C1.42562 11.8439 1.4523 15.5969 1.4523 16.2992C1.42943 17.0392 1.31127 18.7119 1.23886 19.467C1.18168 20.8565 1.02541 22.48 1.79534 23.6505C3.43047 25.6554 6.14426 25.3722 8.57981 25.3231C9.97482 25.2627 11.4461 25.4288 12.8487 25.4855C15.4977 25.5798 18.3563 25.5043 20.6966 24.2621L20.3154 24.8964C20.4641 17.0506 20.7576 8.50615 21.0549 0.694238L21.4779 1.14732C19.2253 0.932107 16.9727 0.728219 14.7125 0.550761C13.0202 0.422388 9.62416 0.161865 7.93186 0.0485938C12.4714 -0.0609014 17.0109 0.0183882 21.5465 0.248706L21.9582 0.27136L21.9658 0.705565C22.0535 6.53524 21.9544 13.0106 21.9125 18.8704L21.8172 24.9229L21.8095 25.3495C19.0691 26.992 15.8369 27.0939 12.7801 26.958C11.366 26.89 10.0282 26.7239 8.59887 26.7654C5.9575 26.8334 2.46997 26.8409 0.735738 24.3792C-0.228573 22.8651 -0.0151285 21.0264 0.118274 19.3726C0.194504 18.6552 0.41176 16.9675 0.446063 16.2765C0.476556 15.5969 0.64045 11.8023 0.674754 11.0434C1.0864 7.62264 1.39894 4.19431 1.4866 0.747097Z"
            fill="#21282B" />
        <path
            d="M5.74632 4.73785C4.77891 5.65328 4.29978 7.03541 4.49204 8.33676C4.55613 8.77653 4.69346 9.20433 4.83689 9.62914C4.94065 9.9313 5.04747 10.2364 5.22752 10.5027C5.50523 10.9096 5.92943 11.1968 6.34142 11.472C6.89685 11.8399 7.46448 12.2169 8.11145 12.3874C9.22841 12.6836 10.4247 12.3306 11.4471 11.7951C11.7766 11.6246 12.1001 11.4301 12.3687 11.1758C13.2873 10.3052 13.4032 8.92611 13.4612 7.67263C13.2354 7.55296 12.9943 7.82819 12.738 7.85212C12.2985 7.894 12.1459 7.24482 11.74 7.07729C11.4379 6.95165 11.0717 7.12815 10.7635 7.01148C10.4674 6.90079 10.3362 6.56273 10.2721 6.25759C10.208 5.95244 10.1653 5.61738 9.93947 5.399C9.85097 5.31224 9.73805 5.24941 9.64955 5.16266C9.26503 4.78871 9.56105 4.35492 9.39931 3.94208C9.24977 3.57112 8.84083 3.55915 8.48987 3.57411C7.47974 3.61599 6.4696 4.04978 5.74327 4.73785H5.74632Z"
            fill="#99F876" />
        <path
            d="M9.27057 12.754C8.49754 12.754 7.75475 12.5872 7.05947 12.2535C6.02733 11.7573 5.24999 11.0001 4.72313 9.98619C4.47697 9.51562 4.31719 9.01509 4.23081 8.4889C4.1574 8.03971 4.14444 7.59052 4.20058 7.13706C4.27832 6.49536 4.46402 5.88789 4.77495 5.31892C5.23272 4.48471 5.87187 3.8259 6.69671 3.34249C7.18039 3.06014 7.69429 2.86336 8.24275 2.75213C8.71347 2.65801 9.19283 2.61951 9.67219 2.66657C9.84925 2.68368 10.0263 2.70935 10.2034 2.73929C10.3329 2.76068 10.4193 2.83769 10.4538 2.96175C10.4884 3.07725 10.4625 3.1842 10.3761 3.26549C10.3329 3.30827 10.2725 3.33821 10.2206 3.36816C10.0479 3.47511 9.93994 3.62056 9.91403 3.82162C9.87516 4.10825 10.0306 4.37776 10.307 4.48899C10.3243 4.49754 10.3459 4.50182 10.3632 4.51038C10.5402 4.57455 10.618 4.71572 10.5791 4.8954C10.5143 5.19913 10.5445 5.49004 10.6957 5.75955C10.9375 6.18735 11.3089 6.41408 11.8012 6.43119C11.9006 6.43119 11.9999 6.41408 12.0992 6.39697C12.2806 6.36702 12.4231 6.43975 12.4879 6.61514C12.5483 6.78199 12.6477 6.91033 12.8075 6.99588C13.1184 7.15417 13.4855 7.03439 13.6539 6.72637C13.7014 6.63653 13.7619 6.55953 13.8612 6.52531C14.0253 6.47397 14.2067 6.55525 14.2542 6.71782C14.2887 6.83332 14.3103 6.95738 14.319 7.08145C14.3405 7.31246 14.3621 7.54774 14.3621 7.77876C14.3621 8.29639 14.2671 8.79692 14.103 9.28888C13.9303 9.80652 13.6798 10.2814 13.3473 10.7177C12.8679 11.3509 12.2676 11.8514 11.5508 12.2107C11.1491 12.4118 10.7259 12.5573 10.2897 12.6471C9.9529 12.7155 9.60741 12.754 9.26193 12.754H9.27057ZM13.7187 7.53919C13.6884 7.55202 13.6582 7.56486 13.6323 7.57769C13.3646 7.70603 13.0882 7.74025 12.8031 7.66753C12.4706 7.58197 12.2072 7.39802 12.0215 7.10711C11.9999 7.07289 11.9783 7.06005 11.9394 7.06433C11.7321 7.09 11.5249 7.06433 11.3262 7.00872C10.6741 6.82049 10.2379 6.40125 10.0047 5.77666C9.92699 5.56704 9.89244 5.34458 9.90971 5.12213C9.91403 5.04085 9.89676 4.99807 9.82766 4.95101C9.31807 4.60449 9.09782 3.93285 9.41308 3.34677C9.42172 3.33393 9.42603 3.3211 9.43467 3.29543C8.77393 3.26976 8.15206 3.37671 7.55178 3.62911C6.65784 4.0013 5.95392 4.60022 5.44865 5.42159C4.41219 7.10711 4.64108 9.26749 5.99278 10.7135C7.37472 12.1894 9.59446 12.5658 11.4039 11.5862C13.127 10.6493 13.8007 8.88675 13.7144 7.54347L13.7187 7.53919Z"
            fill="#21282B" />
        <path
            d="M8.63144 5.17806C8.63144 5.52458 8.3421 5.80693 7.99662 5.80693C7.64249 5.80693 7.35315 5.51602 7.35747 5.16523C7.35747 4.82727 7.65113 4.54492 7.99662 4.54492C8.3421 4.54492 8.63576 4.83155 8.63144 5.17806Z"
            fill="#21282B" />
        <path
            d="M7.35312 7.70211C7.35312 8.04862 7.0681 8.33097 6.7183 8.33097C6.36417 8.33097 6.07483 8.04434 6.07915 7.69355C6.07915 7.35559 6.37281 7.07324 6.7183 7.07324C7.0681 7.07324 7.35744 7.35987 7.35312 7.70638V7.70211Z"
            fill="#21282B" />
        <path
            d="M9.2666 10.2255C9.2666 9.88758 9.55594 9.60096 9.90143 9.59668C10.2512 9.59668 10.5406 9.87903 10.5406 10.2255C10.5406 10.5678 10.2556 10.8544 9.91007 10.8544C9.56026 10.8544 9.27092 10.5721 9.2666 10.2213V10.2255Z"
            fill="#21282B" />
        <path
            d="M9.90575 8.01872C9.90575 8.19412 9.75892 8.33529 9.58617 8.33529C9.40911 8.33529 9.2666 8.18984 9.2666 8.01444C9.2666 7.84332 9.41343 7.70215 9.58617 7.70215C9.75892 7.70215 9.90575 7.8476 9.90575 8.01872Z"
            fill="#21282B" />
        <path
            d="M12.4574 9.28016C12.4574 9.45556 12.3105 9.59673 12.1335 9.59673C11.9564 9.59673 11.8139 9.45128 11.8182 9.27588C11.8182 9.10476 11.965 8.96359 12.1421 8.96787C12.3148 8.96787 12.4574 9.11332 12.4574 9.28444V9.28016Z"
            fill="#21282B" />
        <path
            d="M7.99242 9.90897C7.99242 10.0844 7.8499 10.2255 7.67284 10.2255C7.49578 10.2255 7.35327 10.0801 7.35327 9.90897C7.35327 9.73785 7.5001 9.59668 7.67284 9.59668C7.84559 9.59668 7.99242 9.74213 7.99242 9.90897Z"
            fill="#21282B" />
        <path
            d="M5.54951 15.4619C5.55714 15.8055 5.62955 16.3454 6.05644 16.3605C6.49858 16.353 6.92928 15.7262 7.48576 15.8093C7.80211 15.8621 8.04986 16.0962 8.34334 16.1415C8.70163 16.2246 9.0904 16.1755 9.40675 16.0018L9.56684 15.9112L9.65069 16.0698C10.1919 16.6928 11.0076 15.8546 11.7394 15.8244C12.1968 15.7866 12.5208 16.0774 12.9438 16.0698C13.3669 16.0811 13.7824 15.8961 14.0835 15.6054L14.1711 15.7224C14.861 16.4889 16.2446 15.7753 16.9459 16.5682C16.5381 16.2284 15.9892 16.2812 15.4899 16.3039C14.9639 16.3228 14.3388 16.3454 13.9501 15.8999L14.1559 15.915C13.8395 16.2284 13.3936 16.4058 12.9438 16.4096C12.5398 16.4511 12.132 16.1717 11.7623 16.1944C11.4154 16.2171 11.08 16.4436 10.6531 16.5833C10.2072 16.7192 9.60114 16.7154 9.33052 16.2435L9.57446 16.3152C8.97606 16.6324 8.20613 16.5493 7.67633 16.168C7.09317 15.7753 6.65104 16.572 6.0412 16.504C5.53427 16.4323 5.49234 15.8546 5.5457 15.4619H5.54951Z"
            fill="#21282B" />
        <path
            d="M4.74902 18.9618C4.92054 18.5502 5.34743 18.2595 5.81243 18.2104C6.28125 18.1349 6.70814 18.437 7.08929 18.6333C7.87065 19.0033 8.77397 18.9165 9.60869 18.7541L9.7459 18.7239C9.90218 19.2601 10.5768 19.4904 11.1295 19.3242C11.7469 19.143 12.2729 18.6031 12.7608 18.1387L12.8218 18.4672C12.9018 18.8863 13.4507 19.1581 13.9195 19.0977C14.4188 19.0411 14.8838 18.7466 15.3298 18.4407L15.4746 18.3426L15.5203 18.5049C15.8596 19.4639 17.1478 19.2714 17.9406 18.9882C17.5023 19.1808 17.0411 19.3695 16.5342 19.3695C16.0196 19.3695 15.467 19.0939 15.2878 18.5804L15.4746 18.6408C15.0248 18.9807 14.5522 19.3393 13.9652 19.4262C13.3478 19.5092 12.6122 19.2072 12.4597 18.5427L12.7684 18.6371C12.1281 19.2865 11.221 20.0039 10.2414 19.6603C9.92123 19.5583 9.6125 19.3242 9.48291 18.9882L9.6773 19.0939C8.78922 19.2525 7.80585 19.2827 6.98638 18.8372C6.58617 18.6106 6.25838 18.3199 5.82387 18.3426C5.4046 18.3501 4.9739 18.5804 4.75284 18.9618H4.74902Z"
            fill="#21282B" />
        <path
            d="M4.6271 22.2881C4.90534 22.0012 5.25219 21.7746 5.62191 21.616C5.74768 21.567 5.87346 21.5065 6.03736 21.5065C6.21269 21.5065 6.35752 21.6387 6.43757 21.7406C6.66626 22.0653 7.00929 22.1409 7.39807 22.1409C8.96078 22.0767 10.5502 21.8501 12.0786 21.4839C12.414 21.4121 12.7189 21.3178 13.0581 21.2385C13.142 21.2196 13.2792 21.2385 13.3593 21.2989C13.5155 21.4197 13.5498 21.4914 13.6566 21.5405C14.0987 21.7595 14.6666 21.5518 15.1621 21.5745C15.711 21.5972 16.2484 21.7822 16.6676 22.1107C16.2026 21.8539 15.6767 21.7218 15.1621 21.7595C14.5294 21.8086 13.6985 22.1182 13.1877 21.5632C13.1572 21.5481 13.1534 21.5481 13.1077 21.5556C12.8028 21.6425 12.475 21.7482 12.1663 21.8275C10.6035 22.2315 9.01033 22.4542 7.38663 22.424C7.1122 22.4052 6.81491 22.3561 6.56335 22.1786C6.29654 22.0012 6.22412 21.6878 6.02211 21.684C5.52662 21.7067 5.02731 21.9936 4.62329 22.2806L4.6271 22.2881Z"
            fill="#21282B" />
    </g>
    <defs>
        <clipPath id="clip0_1263_7737">
            <rect width="22" height="27" fill="white" />
        </clipPath>
    </defs>
</svg>