<svg width="26" height="28" viewBox="0 0 26 28" fill="none" xmlns="http://www.w3.org/2000/svg">
    <g id="Group 581">
        <g id="Group 218">
            <rect id="Rectangle 103" x="0.442627" y="11.3145" width="24.7952" height="9.36832"
                rx="3" transform="rotate(1.68015 0.442627 11.3145)" fill="#99F876" />
            <g id="Layer_1">
                <path id="Vector"
                    d="M3.4554 20.9013C3.36915 22.154 3.53059 23.4016 3.73782 24.6351C3.7976 25.5156 4.83456 25.5729 5.54242 25.5978C6.26191 25.6127 7.00683 25.5345 7.74024 25.5673C8.25544 25.5845 8.77792 25.5998 9.2914 25.6056C10.1032 25.6377 10.9513 25.6997 11.7671 25.703C14.1415 25.7324 16.5187 25.601 18.8749 25.305C19.427 25.2263 19.9841 25.3272 20.5159 25.3408C20.7804 25.3578 21.1585 25.34 21.3211 25.2097C21.4055 25.1111 21.3876 24.9486 21.3782 24.8122C21.3736 24.7914 21.3528 24.4473 21.3487 24.4101C21.3097 23.7705 21.3053 23.1133 21.3509 22.4711C21.5163 19.9263 21.7922 15.689 21.9609 13.1051C22.0085 11.9369 22.2035 10.5986 22.0774 9.45007C22.0333 9.08778 21.9561 8.69564 21.754 8.41329C21.6796 8.31312 21.5256 8.1116 21.4502 8.01037C20.307 6.51119 19.0276 5.01317 18.2244 3.28158C18.098 3.01899 17.9853 2.74957 17.8703 2.48319C17.696 2.13358 17.3407 2.00867 16.892 1.86967C15.7269 1.57352 14.4991 1.48181 13.2862 1.41013C11.6435 1.32585 9.982 1.32352 8.34037 1.41564C7.93113 1.44283 7.52492 1.47218 7.12535 1.52131C6.52437 1.61508 5.92436 1.6408 5.63161 2.16236C5.47863 2.45492 5.42811 2.84125 5.38825 3.18045C5.23716 4.77988 4.9783 6.88876 4.83087 8.4687C4.73755 9.29419 4.70188 10.1234 4.61375 10.9481L4.46487 12.1907C4.09808 15.0256 3.5114 18.0428 3.45437 20.9013L3.4554 20.9013ZM3.4554 20.9013C3.55823 18.0638 3.5435 14.9794 3.56628 12.1282L3.58658 10.8736C3.60925 10.1357 3.74456 9.10932 3.80658 8.36646C3.93294 6.90658 4.19099 4.86059 4.33221 3.3867C4.39136 2.81187 4.44608 2.21216 4.72161 1.67978C5.15952 0.815915 6.13039 0.594789 7.00166 0.498638C8.27048 0.352263 9.54206 0.322519 10.8119 0.316448C12.5094 0.322921 14.1911 0.378436 15.8807 0.61881C16.7899 0.777501 17.8035 0.89181 18.5007 1.59712C18.686 1.78512 18.8116 2.04047 18.9085 2.28673C19.1429 2.84232 19.4128 3.38142 19.7225 3.89796C20.5462 5.28257 21.7235 6.60328 22.6657 7.92226C23.3474 9.0861 23.1345 10.6476 23.0703 11.9206C22.9192 14.1894 22.6501 18.4072 22.5014 20.6627C22.4593 21.3608 22.3738 22.4454 22.3514 23.1399C22.3409 23.6378 22.3589 24.1509 22.3978 24.6513C22.4236 24.9315 22.4324 25.1938 22.3353 25.4818C21.8543 26.725 20.273 26.3063 19.2601 26.3075C18.8634 26.3299 18.4548 26.4056 18.0609 26.4384C15.9666 26.6657 13.8587 26.7607 11.7522 26.736C10.4882 26.7196 9.22226 26.6969 7.97094 26.4931C7.81999 26.4701 7.50356 26.4278 7.3527 26.4017C6.21531 26.2167 3.45877 26.3071 3.50913 24.6604C3.46136 23.4409 3.36108 22.1125 3.45328 20.9033L3.4554 20.9013Z"
                    fill="#21282B" />
                <path id="Vector_2"
                    d="M16.5317 3.95199C16.7457 4.28626 16.9192 4.63171 17.079 4.98605C17.0798 5.59049 17.1149 6.46823 17.1258 7.08121C17.1358 7.23312 17.1184 7.50903 17.1693 7.63636C17.1763 7.64482 17.1633 7.63 17.1643 7.63312C17.2283 7.66491 17.3311 7.67824 17.4411 7.69075C17.9405 7.75284 18.427 7.76505 18.9369 7.75216C19.2775 7.74358 19.6245 7.72798 19.9746 7.71349C20.1521 7.78161 20.3316 7.85082 20.5097 7.93134C20.6654 8.00192 20.8955 8.10459 21.0436 8.19042C20.9016 8.2863 20.6816 8.39949 20.5306 8.4848C20.3598 8.57777 20.1892 8.66147 20.0186 8.74414C19.6706 8.75869 19.3195 8.7752 18.9613 8.78326C18.4235 8.7974 17.8598 8.78189 17.3192 8.71447C17.0828 8.6869 16.8333 8.64864 16.5966 8.49214C16.1177 8.1862 16.0968 7.59768 16.0977 7.10778C16.0817 6.49259 16.0651 5.61952 16.0395 5.01332C16.1822 4.65032 16.3369 4.29799 16.5337 3.95308L16.5317 3.95199Z"
                    fill="#21282B" />
                <path id="Vector_3"
                    d="M7.79829 4.06506C8.00683 3.81229 8.23144 3.6095 8.46275 3.42444C8.49224 3.40364 8.52507 3.40976 8.55798 3.41279C8.61878 3.41458 8.78063 3.38219 8.84477 3.37582C10.2438 3.18685 11.6607 3.12321 13.0708 3.18829C13.3198 3.35134 13.5642 3.52869 13.7991 3.75012C13.7326 3.79871 13.6665 3.83803 13.6013 3.88253L13.406 3.99954C13.2768 4.07929 13.1499 4.1488 13.0231 4.21832C12.7779 4.20803 12.5327 4.20083 12.2873 4.19673C11.3058 4.18341 10.3234 4.23505 9.34838 4.35085C9.10506 4.3829 8.86092 4.40772 8.6192 4.45529C8.34907 4.34629 8.05593 4.21289 7.79826 4.06609L7.79829 4.06506Z"
                    fill="#21282B" />
                <path id="Vector_4"
                    d="M7.06764 7.35795C7.27785 7.11864 7.5335 6.91264 7.79548 6.73673C8.06614 6.72198 8.33405 6.6958 8.60047 6.68505C9.13453 6.65739 9.66289 6.64814 10.1881 6.64188C10.96 6.62842 11.7351 6.64394 12.4911 6.57432C12.7079 6.67351 12.9185 6.80758 13.1523 6.85672C13.1841 6.85972 13.2203 6.85872 13.254 6.83289C13.3043 7.01693 13.1088 7.17725 12.996 7.29462C12.8677 7.41463 12.7329 7.50866 12.5983 7.5996C12.3148 7.62842 12.0453 7.64011 11.7779 7.64877C10.728 7.67883 9.69094 7.66078 8.65278 7.71491C8.39757 7.73011 8.14355 7.7402 7.89395 7.77516C7.62324 7.65067 7.33147 7.50597 7.06658 7.35895L7.06764 7.35795Z"
                    fill="#21282B" />
            </g>
            <path id="Vector (Stroke)" fill-rule="evenodd" clip-rule="evenodd"
                d="M8.06897 14.8C7.73973 14.8 7.42398 14.9264 7.19118 15.1515C6.95837 15.3765 6.82759 15.6817 6.82759 16C6.82759 16.3183 6.95837 16.6235 7.19118 16.8485C7.42398 17.0736 7.73973 17.2 8.06897 17.2H9.04586C9.27439 17.2 9.45966 17.3791 9.45966 17.6C9.45966 17.8209 9.27439 18 9.04586 18H8.06897C7.52024 18 6.99399 17.7893 6.60599 17.4142C6.21798 17.0391 6 16.5304 6 16C6 15.4696 6.21798 14.9609 6.60599 14.5858C6.99399 14.2107 7.52024 14 8.06897 14H9.02431C9.25284 14 9.4381 14.1791 9.4381 14.4C9.4381 14.6209 9.25284 14.8 9.02431 14.8H8.06897ZM10.5619 14.4C10.5619 14.1791 10.7472 14 10.9757 14H11.931C12.4798 14 13.006 14.2107 13.394 14.5858C13.782 14.9609 14 15.4696 14 16C14 16.5304 13.782 17.0391 13.394 17.4142C13.006 17.7893 12.4798 18 11.931 18H10.9541C10.7256 18 10.5403 17.8209 10.5403 17.6C10.5403 17.3791 10.7256 17.2 10.9541 17.2H11.931C12.2603 17.2 12.576 17.0736 12.8088 16.8485C13.0416 16.6235 13.1724 16.3183 13.1724 16C13.1724 15.6817 13.0416 15.3765 12.8088 15.1515C12.576 14.9264 12.2603 14.8 11.931 14.8H10.9757C10.7472 14.8 10.5619 14.6209 10.5619 14.4ZM8.08741 16C8.08741 15.7791 8.27268 15.6 8.50121 15.6H11.5333C11.7618 15.6 11.9471 15.7791 11.9471 16C11.9471 16.2209 11.7618 16.4 11.5333 16.4H8.50121C8.27268 16.4 8.08741 16.2209 8.08741 16Z"
                fill="#2D3748" />
        </g>
    </g>
</svg>