<svg width="39" height="30" viewBox="0 0 39 30" fill="none" xmlns="http://www.w3.org/2000/svg">
    <g id="Layer_1">
        <path id="Vector"
            d="M14.0338 3.93838C13.8416 4.5574 13.5315 5.12414 13.2931 5.72311C12.9776 6.51584 12.7884 7.36839 12.7352 8.23053C12.7135 8.57812 12.7234 8.95906 12.9199 9.23092C13.1569 9.55949 13.5957 9.62265 13.9686 9.53277C14.3415 9.4429 14.6811 9.23233 15.0436 9.10119C16.1166 8.71163 17.2751 9.04452 18.3884 9.23646C19.9498 9.50544 21.5398 9.49116 23.1213 9.47667C23.2338 9.47518 23.3617 9.46669 23.4337 9.36956C23.4869 9.29723 23.4912 9.19742 23.4934 9.10388C23.5585 6.2838 23.6245 3.46375 23.6896 0.643679C20.6611 0.706388 17.2843 0.118132 14.3131 0.574495C14.2228 1.71128 14.3819 2.82148 14.0338 3.93838Z"
            fill="#99F876" />
        <path id="Vector_2"
            d="M15.4694 4.04916C15.2531 4.73398 14.9347 5.39104 14.8146 6.11006C14.7026 6.77021 14.6677 7.51941 14.7363 8.16798C14.7617 8.30641 14.7717 8.41259 14.8396 8.50142C14.9144 8.57916 15.0436 8.6029 15.1591 8.601C15.5746 8.56882 15.8629 8.32169 16.2927 8.18672C16.7814 8.01754 17.2824 8.00242 17.7476 8.03988C18.6525 8.12543 19.4626 8.36809 20.3502 8.43635C21.2003 8.51777 22.0632 8.52637 22.9341 8.52109C23.0934 8.51743 23.3934 8.52091 23.5537 8.51446C23.5739 8.51495 23.5599 8.50429 23.5016 8.54602C23.4614 8.56661 23.4155 8.65645 23.4112 8.69197C23.4143 8.63579 23.4176 8.46336 23.4183 8.39869C23.4393 7.45789 23.5635 2.15903 23.5873 1.10204L24.0141 1.58016C21.9077 1.61849 19.8686 1.34342 17.7887 1.3655C17.1104 1.42885 16.4365 1.34324 15.7513 1.3408L15.9785 1.07532C15.7595 2.04697 15.762 3.09803 15.4685 4.05007L15.4694 4.04916ZM15.4694 4.04916C15.8049 2.99687 15.4754 1.90887 15.4457 0.833719C16.2059 0.591393 16.9993 0.373305 17.7852 0.426928C20.0093 0.404564 22.2414 0.712412 24.4415 0.633219L24.4298 1.11953L24.2942 6.95721L24.2607 8.41617L24.2563 8.59889C24.2765 9.12534 23.9886 9.46249 23.5109 9.45192C23.4645 9.45267 23.3136 9.45373 23.2639 9.4544C22.2708 9.46329 21.2787 9.46471 20.2737 9.36924C19.413 9.30632 18.5197 9.0551 17.6805 8.97394C17.2767 8.94077 16.886 8.95855 16.5358 9.08137C16.1295 9.22253 15.6414 9.53985 15.1737 9.53609C14.2678 9.56302 13.7299 8.76626 13.9369 7.80088C14.0735 6.92288 14.4351 6.08123 14.8583 5.34326C15.0909 4.92509 15.3251 4.51071 15.4686 4.0482L15.4694 4.04916Z"
            fill="#21282B" />
        <path id="Vector_3"
            d="M19.6633 9.82515C19.9367 10.1627 20.1634 10.5488 20.3492 10.9527C20.3707 11.0038 20.3702 11.0591 20.3731 11.1136C20.4191 11.4803 20.4686 11.8725 20.4909 12.2405C20.6224 14.3419 20.4509 16.4567 20.4038 18.5528C20.2675 18.963 20.1138 19.3943 19.9408 19.7896C19.8725 19.6154 19.7932 19.3388 19.736 19.1555C19.672 18.944 19.6172 18.7336 19.5616 18.5222L19.6036 17.2707C19.6304 16.4369 19.6624 15.5986 19.6849 14.7722C19.7056 13.9448 19.7077 13.1255 19.6512 12.3187C19.6222 11.9158 19.5846 11.5155 19.5106 11.1247C19.57 10.6873 19.6096 10.2692 19.6633 9.82421L19.6633 9.82515Z"
            fill="#21282B" />
        <path id="Vector_4"
            d="M4.4941 18.9237C4.51892 17.4383 4.58884 15.9005 4.6567 14.4133C5.05582 14.4652 5.53291 14.5338 5.93242 14.5697C6.78829 14.73 7.64894 14.7967 8.52092 14.813C14.3621 14.7418 22.1494 14.3585 28.0054 14.1939C29.5002 14.1418 31.0033 14.0608 32.5001 14.2422C32.9172 14.2832 33.3295 14.4525 33.7338 14.5691L33.6965 14.8917C33.5297 16.3577 33.4705 17.8367 33.4931 19.3148C33.3335 18.5891 33.2114 17.8529 33.1205 17.111C33.0255 16.3662 32.972 15.6149 32.9412 14.8613L33.2394 15.2875C32.6683 15.24 32.1104 15.13 31.5364 15.0974C29.8579 15.0064 27.9494 15.1535 26.2535 15.1924C21.0697 15.3347 13.6612 15.7038 8.50001 15.751C7.90021 15.7375 7.29754 15.7033 6.69568 15.6353L6.24349 15.5823C5.78579 15.5478 5.34629 15.3881 4.91066 15.2426L5.34607 14.9072C5.08569 16.2341 4.7921 17.6099 4.49326 18.9237L4.4941 18.9237Z"
            fill="#21282B" />
        <path id="Vector_5"
            d="M28.8218 27.9641C29.3513 27.6412 29.9075 27.4005 30.4907 27.228C31.2188 27.0233 31.9655 26.8519 32.7131 26.8212C34.0766 26.8297 35.4871 26.8843 36.8362 26.6889C36.871 26.6813 37.002 26.6657 37.0274 26.6589C37.041 26.6564 37.0343 26.6543 37.0035 26.6723C36.9728 26.6894 36.9277 26.7408 36.916 26.7724C36.9009 26.803 36.9032 26.8134 36.9043 26.8022C36.9062 26.7919 36.9086 26.7657 36.9104 26.7235C37.0118 25.4181 36.9033 24.1479 36.9427 22.8279C36.9554 22.3022 37.0204 21.7394 36.9595 21.2204C36.7271 20.8266 36.1338 21.1405 35.7669 21.2554C35.433 21.3645 35.0741 21.3925 34.7403 21.3572C33.987 21.2809 33.3354 20.9296 32.6072 20.8933C32.4887 20.8792 32.3154 20.9003 32.1966 20.9003C31.459 20.9369 30.5829 20.777 30.107 21.4978C29.7911 22.0171 29.7624 22.7524 29.6982 23.3903C29.6899 23.6291 29.6567 23.8871 29.6056 24.1193C29.354 25.3977 29.1181 26.6877 28.8218 27.9641ZM28.8218 27.9641C28.7979 26.6481 28.7915 25.3391 28.8013 24.0231C28.7927 23.7856 28.8233 23.5276 28.8585 23.2931C28.9417 22.4964 28.9775 21.6769 29.4195 20.9618C30.1191 19.8433 31.3546 19.9903 32.3989 19.9554C32.9465 19.9311 33.525 20.0951 34.0296 20.2469C34.6169 20.4279 35.1681 20.534 35.7338 20.2861C36.0578 20.1655 36.4196 20.0532 36.7799 20.105C37.3571 20.1836 37.8303 20.6591 37.8171 21.346C37.8375 21.6878 37.8282 22.0382 37.8049 22.378C37.721 23.832 37.8655 25.3196 37.751 26.785C37.7402 26.917 37.7343 27.0565 37.6589 27.2122C37.6126 27.3161 37.5155 27.4291 37.4197 27.4859C37.2785 27.5743 37.1772 27.5803 37.0578 27.6018C36.9462 27.616 36.8293 27.6404 36.7187 27.6509C35.8275 27.7663 34.9187 27.7725 34.0329 27.7699C33.7295 27.771 33.0133 27.7575 32.7194 27.7823C31.9974 27.7706 31.2781 27.6764 30.5556 27.7171C29.9769 27.7378 29.3858 27.8202 28.8218 27.965L28.8218 27.9641Z"
            fill="#21282B" />
        <path id="Vector_6"
            d="M15.1603 27.5464C16.2457 27.0343 17.3989 26.7096 18.5699 26.5616C18.8399 26.5127 19.1114 26.5446 19.381 26.5502C20.0946 26.5627 20.796 26.5927 21.4788 26.5538C22.1624 26.5206 22.8259 26.4063 23.4429 26.1642L23.1628 26.5916L23.3081 20.2469L23.8935 20.6829C22.6782 21.2387 21.3593 21.0906 20.0871 21.1022C19.3929 21.0883 18.6974 21.0584 18.0049 21.0108C17.4823 20.9766 16.9282 20.8133 16.4286 20.804C16.1152 20.8002 15.8705 20.844 15.735 21.0105C15.5904 21.4495 15.6177 21.9977 15.6101 22.4878C15.6045 22.8224 15.6395 23.157 15.6415 23.4918C15.605 24.1688 15.5817 24.8545 15.5407 25.5417C15.5024 25.9092 15.4656 27.4346 15.1604 27.5454L15.1603 27.5464ZM15.1603 27.5464C15.3992 27.3918 15.1156 25.9036 15.0815 25.569C14.984 24.8963 14.8805 24.2235 14.7899 23.5406C14.764 22.8322 14.7466 22.152 14.8002 21.4323C14.8384 21.1079 14.8596 20.7878 15.0501 20.4699C15.2429 20.167 15.6041 19.9713 15.903 19.9157C16.6459 19.762 17.3477 20.0218 18.0611 20.0774C19.0448 20.1442 20.031 20.1773 21.0164 20.1748C21.8628 20.168 22.8114 20.1862 23.5653 19.8237L24.1672 19.5363L24.1498 20.2606L24.005 26.6203L23.9973 26.9408L23.7242 27.0476C22.3106 27.6099 20.8058 27.5155 19.3626 27.4882C18.6639 27.5211 17.9775 27.3948 17.2768 27.408C16.5765 27.4005 15.8706 27.4547 15.1595 27.5463L15.1603 27.5464Z"
            fill="#21282B" />
        <path id="Vector_7"
            d="M8.70007 20.9923C8.72525 21.2414 9.08586 24.3262 9.10546 24.4926C9.17037 24.8767 9.14243 25.267 9.16173 25.6556C9.18046 26.1726 9.20342 26.6889 9.23144 27.2052L9.2617 27.7684C7.76945 27.5384 6.2589 27.5086 4.74074 27.6192C3.23709 27.7227 1.71723 27.9392 0.206904 28.1447C0.221559 27.6763 0.216472 27.1877 0.188437 26.707C0.138037 25.0904 -0.318289 21.2204 1.42061 20.5535C2.16335 20.2667 2.94554 20.3718 3.69406 20.4395C4.12294 20.4808 4.50662 20.5435 4.92844 20.5274C5.07955 20.5179 5.23213 20.5169 5.38165 20.5383C6.58089 20.6853 7.69931 20.8632 8.70011 20.9905L8.70007 20.9923ZM8.70007 20.9923C7.45615 21.1255 6.32819 21.3084 5.28273 21.4604C5.0028 21.4996 4.75663 21.4664 4.46271 21.4566C3.8956 21.4157 3.34981 21.3294 2.79572 21.3076C2.36098 21.3 1.93305 21.2897 1.55687 21.5103C0.777962 22.1788 0.947273 24.6674 0.980162 25.7163C1.01186 26.2899 1.05782 27.0411 1.05562 27.6223L0.584926 27.1478C3.3189 26.7759 6.09677 26.4012 8.86095 26.7697L8.38796 27.2655C8.34447 26.4816 8.31956 25.6963 8.28283 24.9116C8.35828 23.5989 8.50194 22.2889 8.69843 20.9904L8.70007 20.9923Z"
            fill="#21282B" />
    </g>
</svg>