<svg width="30" height="28" viewBox="0 0 30 28" fill="none" xmlns="http://www.w3.org/2000/svg">
    <g id="Group 212">
        <circle id="Ellipse 30" cx="22.459" cy="19.6978" r="7.26917"
            transform="rotate(0.556491 22.459 19.6978)" fill="#99F876" />
        <g id="Layer_1">
            <path id="Vector"
                d="M19.1862 12.5303C18.9797 10.8134 18.7943 9.09534 18.6177 7.37617C18.5662 7.02769 18.6182 6.68146 18.3261 6.44289C17.8094 5.96891 17.2617 5.47092 16.7526 4.98329C15.5761 3.73086 14.4174 2.44492 13.2132 1.22589L13.6082 1.39436L0.867529 1.27061L0.272649 1.26483C0.294384 0.953233 0.336668 0.323784 0.358403 0.0121833L1.4776 0.0978887C1.38767 1.13847 1.35875 2.18961 1.35221 3.24846C1.31965 9.04036 1.19448 19.7443 1.14347 25.6382L0.58771 25.0716C1.98948 25.0852 3.34375 25.3665 4.72543 25.3949C4.99851 25.4013 5.22929 25.3973 5.39562 25.3515C5.63329 25.2802 5.87557 25.1192 6.12202 25.043C6.45488 24.9303 6.78492 24.8512 7.1206 24.8345C7.76374 24.8794 8.69123 24.927 9.34177 24.9808C10.4486 25.0514 12.6795 25.224 13.785 25.3083C14.5253 25.3704 15.2656 25.4274 16.0058 25.4945C13.5458 25.6677 10.6882 25.8095 8.21995 25.9352C7.53473 25.9847 7.08875 25.9305 6.48584 26.1092C6.2118 26.2013 5.97448 26.3649 5.68317 26.4369C4.99195 26.5911 4.48643 26.5014 3.84188 26.4739C2.74139 26.3884 1.6593 26.2058 0.575561 26.194L0.0143532 26.1885L0.019792 25.6286C0.0712518 19.6884 0.195537 9.07559 0.228519 3.24004C0.236442 2.16749 0.264416 1.08515 0.358512 0.000959118L1.47771 0.0866645L1.43389 0.746032L0.879691 0.14696L13.6204 0.270709L13.8523 0.272962C15.1207 1.56745 16.3401 2.8889 17.5821 4.19935C17.9545 4.63576 18.3207 5.07585 18.6957 5.50855C18.9089 5.76755 19.1611 5.99825 19.2811 6.36236C19.3948 6.72143 19.3484 7.01034 19.3501 7.34711C19.3395 7.92324 19.3189 8.49926 19.3034 9.07409C19.2722 10.2262 19.2336 11.3771 19.1862 12.5303Z"
                fill="#21282B" />
            <path id="Vector_2"
                d="M3.4083 11.2681C3.69837 11.1961 3.99615 11.0992 4.25442 10.962L4.29185 10.9599C4.46205 10.9017 4.65723 10.8387 4.82986 10.7855C4.8899 10.7686 4.95001 10.743 5.00865 10.7411C6.2978 10.7935 8.69888 10.7794 10.0157 10.8047C10.5283 10.8097 13.1336 10.835 13.5925 10.8394L13.9504 10.8429C14.0103 10.8447 14.0703 10.8278 14.1289 10.8322C14.43 10.9099 14.7232 11.0263 15.0202 11.1339C15.2576 11.2223 15.4949 11.3156 15.7334 11.4215C15.2024 11.6358 14.6667 11.8352 14.119 11.9795C12.1327 11.9241 9.1442 11.93 7.14516 11.8993L5.7147 11.8854C5.60246 11.8843 5.29068 11.8813 5.17844 11.8802C5.05479 11.8977 4.9388 11.8978 4.82083 11.8443C4.64926 11.7878 4.45532 11.7223 4.28631 11.6595L4.32374 11.6574C3.99018 11.5856 3.6871 11.4566 3.40958 11.2656L3.4083 11.2681Z"
                fill="#21282B" />
            <path id="Vector_3"
                d="M3.64317 15.4786C4.10685 15.2523 4.56875 15.081 5.03175 14.9246C5.49306 14.9415 5.95334 14.9373 6.41475 14.9442C7.79408 14.9576 10.5664 14.9846 11.9445 14.9979L13.3276 15.0114C13.7849 15.1792 14.2658 15.3697 14.7052 15.586C14.2617 15.7937 13.7772 15.9749 13.3167 16.1338L11.9336 16.1204C10.5555 16.107 7.78068 16.08 6.40385 16.0667C5.94239 16.0647 5.48228 16.0515 5.02072 16.0595C4.56085 15.8941 4.10237 15.7138 3.64317 15.4786Z"
                fill="#21282B" />
            <path id="Vector_4"
                d="M3.60519 19.3837L3.53751 19.418L3.5382 19.3469C3.91918 19.1598 4.30108 19.0063 4.69534 18.8642C4.7504 18.8461 4.80555 18.8179 4.86042 18.8185C4.9153 18.819 4.97001 18.8357 5.0249 18.835L5.18952 18.8366C5.39405 18.8386 5.96399 18.8441 6.17725 18.8462C7.48923 18.859 10.1331 18.8846 11.4464 18.8974C11.8853 18.9029 12.3244 18.9022 12.7633 18.9139C13.1995 19.0803 13.6566 19.2706 14.0748 19.4842C13.6525 19.6896 13.1905 19.8722 12.7525 20.0289C12.3134 20.0308 11.8745 20.0216 11.4355 20.0198C10.121 20.007 7.47957 19.9814 6.16635 19.9686C5.95309 19.9666 5.38564 19.961 5.17862 19.959L5.014 19.9574C4.88541 19.9699 4.81167 19.9854 4.68507 19.9218C4.29363 19.7733 3.9148 19.6112 3.53752 19.4168L3.53821 19.3457L3.60522 19.3812L3.60519 19.3837Z"
                fill="#21282B" />
            <path id="Vector_5"
                d="M24.0511 15.4812C24.1258 15.8848 24.152 16.268 24.1621 16.6435C23.8767 17.2581 23.2156 18.8045 22.9312 19.4466C22.5294 20.3731 22.1476 21.2824 21.8701 22.2413C21.6345 22.4897 21.3331 22.8311 21.0887 23.0769C20.9426 22.71 20.8504 22.3187 20.7918 21.929C20.8899 21.5882 21.0017 21.2538 21.1209 20.9244C21.5298 19.7822 22.2382 18.2487 22.7193 17.1271C22.8533 16.8141 22.9972 16.5062 23.1225 16.1894C23.4056 15.9414 23.7035 15.7011 24.0511 15.4812Z"
                fill="#21282B" />
            <path id="Vector_6"
                d="M25.6486 17.6934C25.8165 17.4904 26.0918 17.3971 26.3525 17.3896C26.4386 17.393 26.5523 17.3704 26.5927 17.4493C27.3653 18.0318 27.4803 19.0307 27.8192 19.8435C27.3674 20.1285 26.9028 20.4495 26.5311 20.835C26.5059 20.8647 26.472 20.8868 26.4529 20.9241C26.4487 20.9739 26.3765 20.9595 26.324 20.9665C26.1068 20.9843 25.8808 21.0096 25.62 21.027C25.5689 20.7695 25.565 20.5288 25.581 20.2907C25.5878 20.2347 25.5748 20.1572 25.6298 20.1428C25.9988 19.7797 26.3888 19.4305 26.8281 19.1504L26.6096 19.8155C26.5233 19.584 26.4618 19.3676 26.3976 19.1749C26.2847 18.8508 26.1804 18.5417 25.9153 18.3595C25.8678 18.374 25.891 18.2932 25.8815 18.2419C25.8673 18.0422 25.7843 17.8468 25.6474 17.6921L25.6486 17.6934Z"
                fill="#21282B" />
            <path id="Vector_7"
                d="M19.0368 17.4418C19.0668 17.7015 19.0739 17.9884 19.064 18.2415C18.6961 18.6196 18.3351 19.0688 17.9981 19.4784C18.0057 19.466 18.0322 19.4301 18.0517 19.3455C18.0877 19.2361 18.0286 19.0334 17.9655 18.9792C18.1149 19.1328 18.4496 19.4753 18.6027 19.6315L19.0029 20.0407C19.0141 20.2965 19.0291 20.5486 19.0013 20.8427C18.7068 20.8635 18.455 20.8423 18.1995 20.8249L17.7994 20.4157L17.3992 20.0064L17.1992 19.8012C17.1177 19.7131 17.0768 19.689 16.9997 19.5336C16.9459 19.4283 16.9202 19.2447 16.9527 19.1153C16.9814 18.9834 17.032 18.9053 17.0662 18.8532C17.1244 18.7702 17.1369 18.7616 17.1837 18.7022C17.2393 18.6291 17.402 18.4374 17.4614 18.3631C17.7087 18.0612 17.9735 17.7744 18.227 17.4788C18.4831 17.4401 18.7726 17.4242 19.0356 17.443L19.0368 17.4418Z"
                fill="#21282B" />
        </g>
    </g>
</svg>