<svg width="37" height="28" viewBox="0 0 37 28" fill="none" xmlns="http://www.w3.org/2000/svg">
    <path
        d="M12.4241 24.5306C16.0655 24.5196 19.707 24.5107 23.3483 24.5037C23.7406 24.503 24.1329 24.5022 24.5273 24.5015L24.7531 12.1815L23.9834 11.3688C23.6702 11.0384 23.3343 10.6937 22.886 10.566C21.9435 10.2977 21.0652 11.0843 20.4262 11.7955C19.457 12.8731 18.4899 13.9528 17.5207 15.0304C16.741 15.8984 15.747 16.8521 14.5583 16.7028C13.7879 16.6071 13.203 16.0765 12.5879 15.5932L12.4241 24.5306Z"
        fill="#99F876" />
    <path
        d="M3.31131 1.36291C3.70762 1.48569 4.01731 1.89367 3.91563 2.31801C4.13278 4.13237 4.21652 6.39438 4.27654 8.35721C4.3842 14.4376 4.24341 20.5253 3.33161 26.5551C2.84653 22.5093 2.78092 18.4611 2.82612 14.4011C2.89419 10.3454 3.09141 6.30206 3.63059 2.27296L3.63541 2.2372L3.63549 2.23321C3.78288 1.93319 3.60003 1.54944 3.30922 1.36288L3.31131 1.36291Z"
        fill="#21282B" />
    <path
        d="M1.52058 3.06692C2.15847 1.96321 3.02344 0.993129 3.90645 0.0632127L4.04441 0.619459C4.27746 1.56585 5.03109 2.34451 5.85328 2.9113C4.70504 2.71498 3.71712 1.85435 3.43681 0.753723L3.97485 0.885084C3.2279 1.67807 2.43556 2.44234 1.5227 3.06497L1.52058 3.06692Z"
        fill="#21282B" />
    <path
        d="M33.0832 23.1407C33.7073 23.5863 34.3847 23.9692 35.1214 24.1918L35.8249 24.4059L35.1615 24.7363C34.3339 25.1474 33.6588 25.7804 33.0907 26.491C33.1966 25.4931 33.9531 24.6345 34.8854 24.2054L34.9255 24.7499C34.123 24.4723 33.4073 23.9015 33.0874 23.1387L33.0832 23.1407Z"
        fill="#21282B" />
    <path
        d="M4.04083 18.1242C5.01955 16.6405 6.13938 15.0857 7.86465 14.3107C8.95449 13.8228 10.3597 13.6633 11.5357 14.1629C12.2087 14.4461 12.7954 14.9985 13.2923 15.4358C13.8158 15.9055 14.5124 16.3843 15.1801 16.2671C15.6156 16.1894 16.0532 15.6557 16.3814 15.2814C17.6942 13.7818 19.0258 12.2886 20.3612 10.8094C20.6529 10.4941 20.9478 10.1172 21.4361 9.7716C22.9722 8.72827 24.2986 9.79419 25.1985 11.0156C25.7112 11.6225 27.099 13.4324 27.6267 14.0177C27.6698 14.0563 27.7008 14.0708 27.6966 14.0727C27.6924 14.0726 27.657 14.072 27.6443 14.0817C27.6295 14.0894 27.6525 14.0858 27.6949 14.0488C27.7374 14.0117 27.7927 13.953 27.8567 13.8765C30.1874 11.0373 32.7283 8.0009 35.1946 5.27577L35.289 5.36314L34.6009 5.78669L35.2073 5.26206L35.5572 4.95977C33.4725 8.15196 31.0891 11.4781 28.833 14.5715C28.036 15.7061 26.9452 15.3356 26.2449 14.3807L24.5167 12.3554C24.2714 12.0761 23.9206 11.6335 23.6731 11.3641C23.2243 10.9157 22.8479 10.5025 22.2899 10.8926C22.0384 11.0652 21.7697 11.383 21.463 11.7179C20.2704 13.0304 19.0696 14.3388 17.8585 15.637C16.9665 16.6026 16.0369 17.7944 14.485 17.4234C13.2212 17.1553 12.4568 16.0519 11.5791 15.3268C10.6208 14.5564 9.31079 14.5344 8.1288 14.927C6.45339 15.4858 5.2155 16.8791 4.03886 18.1182L4.04083 18.1242Z"
        fill="#21282B" />
    <path
        d="M0.0408716 24.2586C1.41511 24.0787 2.86127 23.9598 4.25192 23.9096C14.0802 23.5678 23.9412 23.7147 33.7226 24.7903C22.502 25.6144 11.2394 25.2028 0.0408716 24.2586Z"
        fill="#21282B" />
    <path d="M4.57172 18.833C4.43116 20.2406 4.48016 21.6656 4.72169 23.0603" stroke="#21282B"
        stroke-width="0.233871" stroke-miterlimit="10" />
    <path d="M6.3759 17.5705C6.2108 19.5195 6.04779 21.4684 5.88274 23.4154" stroke="#21282B"
        stroke-width="0.233871" stroke-miterlimit="10" />
    <path d="M7.86841 17.082L7.83617 23.2813" stroke="#21282B" stroke-width="0.233871"
        stroke-miterlimit="10" />
    <path d="M10.6515 16.3591C10.4927 18.537 10.3317 20.7169 10.1728 22.8948" stroke="#21282B"
        stroke-width="0.233871" stroke-miterlimit="10" />
    <path
        d="M12.7161 16.5693C12.6772 19.0322 12.6383 21.4952 12.5994 23.9581C12.6322 23.879 12.6649 23.7999 12.6976 23.7229"
        stroke="#21282B" stroke-width="0.233871" stroke-miterlimit="10" />
    <path d="M15.498 17.7393L15.3955 23.3343" stroke="#21282B" stroke-width="0.233871"
        stroke-miterlimit="10" />
    <path d="M18.583 15.8128C18.263 18.5833 18.1326 21.3731 18.1942 24.1605" stroke="#21282B"
        stroke-width="0.233871" stroke-miterlimit="10" />
    <path d="M20.6394 12.9238L20.4722 22.0483" stroke="#21282B" stroke-width="0.233871"
        stroke-miterlimit="10" />
    <path d="M23.2358 12.1123C23.2128 15.9876 23.1898 19.8628 23.1668 23.7361" stroke="#21282B"
        stroke-width="0.233871" stroke-miterlimit="10" />
    <path d="M25.3189 14.2174C25.1734 17.2599 25.2239 20.3119 25.4707 23.3497" stroke="#21282B"
        stroke-width="0.233871" stroke-miterlimit="10" />
    <path d="M28.4156 15.4713C28.1586 18.45 28.0599 21.4396 28.122 24.4282" stroke="#21282B"
        stroke-width="0.233871" stroke-miterlimit="10" />
    <path d="M26.9507 15.7969L26.9444 22.857" stroke="#21282B" stroke-width="0.233871"
        stroke-miterlimit="10" />
    <path d="M31.2251 12.2565L30.7849 22.8418" stroke="#21282B" stroke-width="0.233871"
        stroke-miterlimit="10" />
    <path d="M32.4895 10.2148C32.4987 14.9511 32.5058 19.6872 32.515 24.4235" stroke="#21282B"
        stroke-width="0.233871" stroke-miterlimit="10" />
</svg>