<svg width="103" height="77" viewBox="0 0 103 77" fill="none" xmlns="http://www.w3.org/2000/svg">
    <path
        d="M0 0H103V63.9845C103 65.4089 101.998 66.6369 100.603 66.9233L52.1031 76.8762C51.7052 76.9579 51.2948 76.9579 50.8969 76.8762L2.39692 66.9233C1.0016 66.6369 0 65.4089 0 63.9845V0Z"
        fill="#21282B" />
    <path
        d="M21.0131 27.3715C22.3551 26.0145 24.0564 25.336 26.1169 25.336C27.4183 25.336 29.0586 25.6192 31.0377 26.1858V29.7628H30.9157C29.3026 27.4045 27.8114 26.2253 26.4423 26.2253C25.3578 26.2253 24.436 26.8445 23.6768 28.083C22.9177 29.3083 22.5381 30.83 22.5381 32.6482C22.5381 34.4664 22.9245 36.0013 23.6972 37.253C24.4834 38.4914 25.4052 39.1107 26.4626 39.1107C27.7775 39.1107 29.2619 37.9183 30.9157 35.5336H31.0377V39.1304C29.0315 39.7101 27.3505 40 25.9949 40C24.0157 40 22.3551 39.3215 21.0131 37.9644C19.671 36.5942 19 34.8287 19 32.668C19 30.4941 19.671 28.7286 21.0131 27.3715Z"
        fill="#99F876" />
    <path
        d="M32.3641 36.8182C32.3641 35.7905 32.7843 35.0066 33.6248 34.4664C34.4652 33.913 35.4006 33.6364 36.4309 33.6364C36.6071 33.6364 36.7901 33.643 36.9799 33.6561C37.6035 33.6825 38.1525 33.7813 38.6269 33.9526V32.7866C38.6269 31.2978 38.2745 30.5534 37.5696 30.5534C37.0544 30.5534 36.2546 30.9157 35.1702 31.6403C34.0857 32.365 33.4418 32.8656 33.2384 33.1423H33.1368V30.415C34.899 29.9275 36.4376 29.6838 37.7526 29.6838C39.0404 29.6838 40.0029 29.9802 40.64 30.5731C41.2771 31.166 41.5957 31.9631 41.5957 32.9644V37.0553C41.5957 37.9513 41.8397 38.3992 42.3277 38.3992C42.4904 38.3992 42.6734 38.3531 42.8768 38.2609L42.9174 38.3202C42.8496 38.7813 42.6327 39.1634 42.2667 39.4664C41.9007 39.7563 41.433 39.9012 40.8637 39.9012C39.7385 39.9012 39.0268 39.3874 38.7286 38.3597C38.0373 39.4137 37.007 39.9407 35.6378 39.9407C34.6211 39.9407 33.8213 39.6311 33.2384 39.0119C32.6555 38.3794 32.3641 37.6482 32.3641 36.8182ZM35.4548 36.4229C35.4548 36.9895 35.6175 37.4572 35.9428 37.8261C36.2817 38.1818 36.7223 38.3597 37.2646 38.3597C37.7797 38.3597 38.2338 38.1555 38.6269 37.747V34.5455C38.4507 34.5455 38.3084 34.5389 38.1999 34.5257C38.0101 34.4993 37.8271 34.4862 37.6509 34.4862C37.0409 34.4862 36.519 34.6509 36.0852 34.9802C35.6649 35.3096 35.4548 35.7905 35.4548 36.4229Z"
        fill="#99F876" />
    <path
        d="M46.8824 29.8024V36.2253C46.8824 36.8709 47.0451 37.3452 47.3704 37.6482C47.6958 37.9513 48.116 38.1028 48.6311 38.1028C49.214 38.1028 49.8308 37.9051 50.4815 37.5099C50.4544 37.22 50.4408 37.0158 50.4408 36.8972V32.9249C50.4408 32.6219 50.4137 32.2859 50.3595 31.917C50.3053 31.5481 50.2443 31.2385 50.1765 30.9881C50.1223 30.7378 50.0613 30.5007 49.9935 30.2767C49.9393 30.0395 49.9122 29.9078 49.9122 29.8814V29.8024H53.3893V36.6403C53.3893 36.8906 53.4028 37.1607 53.43 37.4506C53.4706 37.7273 53.5181 37.9908 53.5723 38.2411C53.6265 38.4914 53.674 38.7088 53.7146 38.8933C53.7553 39.0646 53.8027 39.2358 53.857 39.4071L53.9383 39.6838V39.7628H51.1119C50.8543 39.2358 50.6713 38.6561 50.5629 38.0237C49.7224 39.3017 48.6243 39.9407 47.2687 39.9407C46.3063 39.9407 45.5065 39.6574 44.8693 39.0909C44.2322 38.5112 43.9136 37.6877 43.9136 36.6206V32.9249C43.9136 32.6219 43.8865 32.2859 43.8323 31.917C43.7781 31.5481 43.7171 31.2385 43.6493 30.9881C43.5951 30.7378 43.5341 30.5007 43.4663 30.2767C43.4121 30.0395 43.3849 29.9078 43.3849 29.8814V29.8024H46.8824Z"
        fill="#99F876" />
    <path
        d="M55.1042 32.7075C55.1042 31.7589 55.4905 31.0211 56.2632 30.4941C57.0359 29.9539 58.0662 29.6838 59.354 29.6838C60.5876 29.6838 61.8144 29.9275 63.0344 30.415V33.0632H62.9531C62.2346 32.2727 61.5636 31.6469 60.94 31.1858C60.33 30.7246 59.7064 30.4941 59.0693 30.4941C58.6626 30.4941 58.3102 30.5929 58.0119 30.7905C57.7273 30.975 57.5849 31.2451 57.5849 31.6008C57.5849 32.0092 57.7815 32.332 58.1746 32.5692C58.5677 32.7931 59.2252 33.0567 60.147 33.3597C60.2148 33.3729 60.2622 33.386 60.2893 33.3992C61.4552 33.7945 62.2821 34.2556 62.7701 34.7826C63.2581 35.3096 63.5021 35.942 63.5021 36.6798C63.5021 37.7602 63.1022 38.5771 62.3024 39.1304C61.5162 39.6838 60.5469 39.9605 59.3946 39.9605C58.2017 39.9605 56.8597 39.6772 55.3685 39.1107V36.3439H55.4498C55.4905 36.3966 55.6396 36.5481 55.8972 36.7984L56.4055 37.2727C56.4733 37.3518 56.6224 37.5033 56.8529 37.7273C57.0969 37.9381 57.2799 38.0896 57.4019 38.1818C57.5239 38.2609 57.6934 38.3794 57.9103 38.5375C58.1272 38.6825 58.3102 38.7879 58.4593 38.8538C58.622 38.9065 58.7982 38.9592 58.988 39.0119C59.1913 39.0646 59.3879 39.0909 59.5777 39.0909C60.0114 39.0909 60.3775 38.9855 60.6757 38.7747C60.9739 38.5639 61.123 38.2609 61.123 37.8656C61.123 37.6416 61.0688 37.4506 60.9604 37.2925C60.8655 37.1212 60.6757 36.9631 60.391 36.8182C60.1199 36.6601 59.8623 36.5349 59.6183 36.4427C59.3879 36.3505 59.0083 36.2121 58.4796 36.0277C57.3545 35.6324 56.5072 35.1713 55.9379 34.6443C55.3821 34.1173 55.1042 33.4717 55.1042 32.7075Z"
        fill="#99F876" />
    <path
        d="M64.6523 36.8182C64.6523 35.7905 65.0725 35.0066 65.913 34.4664C66.7534 33.913 67.6888 33.6364 68.7191 33.6364C68.8953 33.6364 69.0783 33.643 69.2681 33.6561C69.8917 33.6825 70.4407 33.7813 70.9151 33.9526V32.7866C70.9151 31.2978 70.5627 30.5534 69.8578 30.5534C69.3426 30.5534 68.5428 30.9157 67.4584 31.6403C66.3739 32.365 65.73 32.8656 65.5266 33.1423H65.425V30.415C67.1872 29.9275 68.7258 29.6838 70.0408 29.6838C71.3286 29.6838 72.2911 29.9802 72.9282 30.5731C73.5653 31.166 73.8839 31.9631 73.8839 32.9644V37.0553C73.8839 37.9513 74.1279 38.3992 74.6159 38.3992C74.7786 38.3992 74.9616 38.3531 75.165 38.2609L75.2056 38.3202C75.1378 38.7813 74.9209 39.1634 74.5549 39.4664C74.1889 39.7563 73.7212 39.9012 73.1519 39.9012C72.0267 39.9012 71.315 39.3874 71.0168 38.3597C70.3255 39.4137 69.2952 39.9407 67.926 39.9407C66.9093 39.9407 66.1095 39.6311 65.5266 39.0119C64.9437 38.3794 64.6523 37.6482 64.6523 36.8182ZM67.743 36.4229C67.743 36.9895 67.9057 37.4572 68.2311 37.8261C68.57 38.1818 69.0105 38.3597 69.5528 38.3597C70.0679 38.3597 70.522 38.1555 70.9151 37.747V34.5455C70.7389 34.5455 70.5966 34.5389 70.4881 34.5257C70.2983 34.4993 70.1153 34.4862 69.9391 34.4862C69.3291 34.4862 68.8072 34.6509 68.3734 34.9802C67.9532 35.3096 67.743 35.7905 67.743 36.4229Z"
        fill="#99F876" />
    <path
        d="M75.9129 25.3953L79.4713 25V36.6403C79.4713 36.9433 79.4984 37.2793 79.5527 37.6482C79.6069 38.0171 79.6611 38.3267 79.7153 38.5771C79.7831 38.8274 79.8441 39.0711 79.8983 39.3083C79.9661 39.5323 80 39.6574 80 39.6838V39.7628H75.9739V39.6838C75.9739 39.6574 76.001 39.5323 76.0552 39.3083C76.123 39.0711 76.184 38.8274 76.2382 38.5771C76.306 38.3267 76.367 38.0171 76.4212 37.6482C76.4754 37.2793 76.5026 36.9433 76.5026 36.6403V28.4585C76.5026 27.6153 76.306 26.6206 75.9129 25.4743V25.3953Z"
        fill="#99F876" />
</svg>