<svg width="344" height="323" viewBox="0 0 344 323" fill="none" xmlns="http://www.w3.org/2000/svg">
    <ellipse cx="173.748" cy="168.181" rx="170.004" ry="54.6765" fill="#99F876" />
    <path
        d="M55.0925 210.078C103.699 225.546 180.156 229.691 241.503 220.367C327.255 207.719 365.764 173.918 326.431 145.843C287.895 117.691 184.44 105.007 99.3347 118.057C37.4458 127.222 -3.29929 148.983 0.210236 171.297C1.49261 182.296 13.0248 193.099 32.8583 201.946C39.4468 204.888 46.8964 207.619 55.0925 210.078C6.08627 195.122 -11.2878 170.455 12.9442 149.968C36.117 129.382 97.6682 114.756 164.482 114.22C243.082 113.063 317.996 131.522 335.516 156.738C354.188 182.137 312.619 208.706 240.406 219.583C179.533 229.004 104.405 225.121 55.0894 210.079L55.0925 210.078Z"
        fill="#21282B" />
    <path
        d="M97.4907 176.915L99.1299 150.493L62.6356 139.06L83.0513 127.628L93.3419 120.653L98.4045 118.424L103.467 116.196L172.242 97.1729L241.244 107.499L282.371 120.279L239.09 142.81L240.2 162.602C240.2 162.602 217.453 176.767 203.735 180.86C187.966 185.565 171.926 199.444 171.926 199.444L133.593 186.976C133.593 186.976 121.43 184.959 114.218 182.938C107.331 181.009 97.4907 176.915 97.4907 176.915Z"
        fill="white" />
    <path
        d="M238.6 145.417C239.952 145.251 240.349 146.707 240.419 147.517L240.57 150.346C240.64 152.235 240.675 154.123 240.663 156.012C240.489 160.664 241.316 161.897 236.677 165.454C234.836 166.771 232.505 167.407 230.512 168.466L227.505 170.005C213.798 177.08 199.17 184.58 185.965 192.135C183.074 193.793 180.405 195.442 178.097 197.616C176.349 199.413 173.319 200.38 170.475 199.33C169.368 198.906 168.424 198.464 167.27 198.141C153.866 194.318 140.707 189.675 126.884 186.865C117.606 185.225 110.238 182.645 101.788 179.098C100.156 178.527 97.6736 178.518 96.7062 176.915C96.2516 174.427 96.7761 172.087 97.0209 169.637C98.4778 162.156 98.4778 158.905 99.0489 151.359C98.9907 158.905 99.2471 162.211 98.1631 169.719C97.9533 171.94 97.6503 174.39 97.9766 176.556C98.0582 176.749 98.4545 176.979 98.944 177.154C99.9347 177.504 101.077 177.67 102.301 178.002C104.515 178.785 104.634 179.946 106.883 180.637C113.492 182.82 120.38 183.999 127.385 185.317C141.371 188.072 154.577 192.632 168.132 196.428C170.055 196.916 172.002 198.372 174.1 197.847C175.731 197.478 177.072 195.608 178.995 194.336C180.802 193.028 182.748 191.849 184.706 190.753C200.954 181.567 218.728 172.796 235.873 164.735C238.426 162.892 239.393 164.331 239.661 161.65C239.999 157.891 240.186 154.123 240.232 150.346L240.256 147.517C240.279 146.707 239.929 145.316 238.612 145.408L238.6 145.417Z"
        fill="#21282B" />
    <path
        d="M68.011 136.25C65.8664 137.383 63.5121 138.747 60.9945 139.051C75.3539 141.262 88.0675 147.298 102.31 149.814C108.639 150.984 117.43 152.935 123.444 154.704C130.356 156.648 137.022 159.034 143.666 161.411L142.349 161.788C147.279 153.045 157.268 147.167 166.371 141.299C168.259 140.092 170.124 138.857 171.942 137.586C172.571 137.199 173.177 136.618 173.224 136.057L173.644 136.213C154.564 132.675 135.626 127.304 117.292 121.951C110.556 120.164 104.23 117.974 97.0389 119.365C94.6379 119.909 92.9725 121.729 91.2126 123.019C84.1611 128.39 76.0649 131.901 68.011 136.25ZM68.011 136.25C76.0299 131.865 84.0954 127.424 90.9838 121.951C92.7437 120.606 94.2356 118.911 96.6599 118.303C103.945 116.7 111.334 119.482 118.164 121.141C136.638 126.116 155.135 131.008 174.157 134.472L174.39 134.518C175.229 134.896 175.695 135.854 175.439 136.563C175.077 137.991 173.609 138.83 172.35 139.723C167.944 142.791 163.2 145.592 158.76 148.586C152.932 152.52 147.396 156.915 144.132 162.452L143.701 163.17L142.815 162.83C136.265 160.314 129.715 157.808 122.954 155.745C117.08 153.874 108.269 152.096 102.08 150.797C87.9068 147.95 75.3656 141.354 60.9712 139.106C63.1391 138.737 65.9131 137.457 67.9994 136.278L68.011 136.25Z"
        fill="#21282B" />
    <path
        d="M217.399 118.57C223.635 115.926 232.971 112.296 238.88 109.357C242.621 107.496 247.039 108.814 250.629 110.195C253.869 111.301 258.682 112.609 262.051 113.595C267.809 115.189 273.403 117.151 279.254 118.478C280.816 118.92 285.466 119.197 283.578 121.205C281.853 122.578 279.674 123.389 277.774 124.439C274.58 126.079 265.676 130.584 262.342 132.261C252.144 137.531 241.456 142.22 232.096 148.383C224.054 154.013 225.162 154.151 215.254 150.484C207.865 148.015 200.137 145.463 192.76 142.939C190.965 142.275 188.89 141.879 187.142 140.829C185.463 139.843 184.065 138.645 182.246 138.203C181.384 137.982 180.148 137.991 179.251 137.263C178.482 136.572 178.12 135.789 177.771 135.015L177.689 134.831L177.876 134.702C183.645 130.842 191.07 129.349 197.643 126.632C204.252 123.978 210.814 121.251 217.399 118.561V118.57ZM217.399 118.57C210.849 121.306 204.263 124.006 197.725 126.77C191.268 129.534 183.878 131.192 178.342 135.126L178.447 134.822C178.796 135.55 179.204 136.305 179.822 136.812C180.405 137.291 181.431 137.3 182.48 137.512C184.647 137.991 186.151 139.253 187.759 140.129C189.31 141.031 191.314 141.382 193.226 142.017L198.914 143.786C204.601 145.601 210.313 147.259 216.012 149.047C217.9 149.646 219.812 150.364 221.607 150.954C223.53 151.626 224.59 151.332 226.106 150.263C236.164 142.506 249.335 136.701 261.2 130.833C264.568 129.193 273.555 124.853 276.853 123.287C278.73 122.32 280.828 121.546 282.401 120.431C282.564 120.311 282.471 120.275 282.518 120.44C275.839 118.911 268.496 116.359 261.736 114.222C258.356 113.162 253.671 111.752 250.407 110.555C246.899 109.099 242.691 107.745 238.973 109.523C233.041 112.342 223.6 115.981 217.387 118.579L217.399 118.57Z"
        fill="#21282B" />
    <path
        d="M175.054 136.757C172.746 158.371 177.56 180.353 171.627 201.709C174.355 180.104 169.564 158.159 175.054 136.757Z"
        fill="#21282B" />
    <path
        d="M174.699 94.6893C163.583 100.866 150.253 103.15 137.827 106.688C126.898 109.577 111.365 114.143 100.382 117.333C115.237 111.231 130.838 106.491 146.7 102.643C155.896 100.466 166.152 98.3195 174.699 94.6951L174.699 94.6893Z"
        fill="#21282B" />
    <path
        d="M172.781 97.4424L108.692 117.234L108.179 117.673L175.833 133.98L238.813 108.404C238.813 108.404 209.243 102.013 207.198 101.781C205.154 101.549 172.781 97.4424 172.781 97.4424Z"
        fill="#E6E9EA" />
    <g clip-path="url(#clip0_86_8622)">
        <path
            d="M174.233 95.416C185.459 98.5216 196.887 100.639 208.426 101.42C212.774 101.781 217.165 101.627 221.459 102.627C224.314 103.213 226.945 104.833 229.751 105.49C232.558 106.153 235.497 105.993 238.351 106.419C239.797 106.614 241.232 107.004 242.545 107.685C241.184 107.129 239.755 106.851 238.319 106.732C235.423 106.496 232.51 106.821 229.613 106.253C228.146 105.987 226.753 105.425 225.387 104.916C219.998 102.603 214.145 103.065 208.352 102.603C196.78 101.781 185.262 99.4267 174.233 95.416Z"
            fill="#21282B" />
    </g>
    <path
        d="M179.829 145.542C178.981 147.755 177.51 149.733 175.427 151.447C176.274 149.235 177.756 147.256 179.829 145.542Z"
        fill="#BAC3C8" />
    <path
        d="M181.775 147.153C181.853 147.913 181.485 148.64 181.206 149.325C180.259 151.399 179.099 153.389 177.383 155.206C178.085 152.291 179.947 149.73 181.775 147.162V147.153Z"
        fill="#BAC3C8" />
    <path
        d="M184.72 149.837C182.451 154.579 180.044 159.175 177.383 163.795C178.645 158.843 181.158 154.085 184.72 149.837Z"
        fill="#BAC3C8" />
    <path
        d="M186.678 153.059C184.563 159.33 181.798 165.417 178.362 171.311C180.476 165.04 183.252 158.953 186.678 153.059Z"
        fill="#BAC3C8" />
    <path
        d="M191.08 154.669C188.21 163.792 183.39 172.557 176.894 180.438C182.158 172.047 186.907 163.434 191.08 154.669Z"
        fill="#BAC3C8" />
    <path
        d="M193.526 168.09C190.171 175.358 186.407 182.553 182.275 189.564C185.108 182.151 188.893 174.916 193.526 168.09Z"
        fill="#BAC3C8" />
    <path
        d="M196.951 170.237C195.327 176.117 192.506 181.782 188.635 186.88C191.298 181.255 194.04 175.771 196.951 170.237Z"
        fill="#BAC3C8" />
    <path
        d="M201.352 170.774C200.83 174.909 199.33 178.937 196.95 182.585C198.082 178.532 199.533 174.649 201.352 170.774Z"
        fill="#BAC3C8" />
    <path
        d="M219.823 145.288C221.291 145.712 221.897 145.951 223.214 146.615C221.921 147.352 219.893 146.541 219.823 145.288Z"
        fill="#BAC3C8" />
    <path
        d="M224.344 144.191C226.045 144.993 227.083 145.49 228.819 146.237C226.978 146.872 224.577 145.758 224.344 144.191Z"
        fill="#BAC3C8" />
    <path
        d="M140.362 157.534C141.261 155.394 142.727 153.53 144.711 152.022C143.812 154.161 142.341 156.018 140.362 157.534Z"
        fill="#BAC3C8" />
    <path
        d="M162.644 190.987C162.481 190.729 162.469 190.388 162.632 190.084C163.623 189.577 164.614 189.116 165.593 188.656L168.425 187.292L168.833 187.753C168.367 187.9 167.9 188.103 167.434 188.361C167.632 187.937 167.994 187.559 168.46 187.265L168.868 187.725C167.306 189.07 165.196 190.047 162.912 190.388L163.04 190.305C162.842 190.471 162.69 190.701 162.632 190.977L162.644 190.987Z"
        fill="#BAC3C8" />
    <path
        d="M165.373 192.396C167.145 190.968 169.149 190.019 171.585 189.494C170.047 191.079 167.867 192.092 165.373 192.396Z"
        fill="#BAC3C8" />
    <path
        d="M174.261 97.5C174.004 101.462 174.47 105.156 174.622 109.164C174.855 116.7 174.738 124.236 173.561 131.736C172.384 124.245 172.268 116.7 172.501 109.164C172.641 105.239 172.71 101.277 174.261 97.5Z"
        fill="#BAC3C8" />
    <path
        d="M188.146 167.017C184.202 175.079 180.705 183.762 176.406 191.712C179.465 183.27 182.87 174.765 188.146 167.017Z"
        fill="#BAC3C8" />
    <path
        d="M152.217 119.548C157.771 120.4 162.961 117.551 167.252 114.425C167.907 113.946 168.562 113.448 169.01 112.796C169.451 112.148 169.663 111.381 169.83 110.615C170.891 105.756 170.325 100.521 168.229 95.8036C167.676 94.5607 167.002 93.3256 165.994 92.3458C165.361 91.7272 164.607 91.2288 163.847 90.7578C162.404 89.865 160.901 89.0651 159.354 88.3641C156.668 87.1439 153.752 86.2072 150.841 86.3515C149.216 86.4342 147.647 86.8493 146.128 87.3439C144.671 87.8207 143.241 88.3746 141.917 89.102C135.907 92.4194 132.731 99.567 134.337 106.154C134.598 107.216 134.97 108.27 135.582 109.214C136.298 110.317 137.309 111.227 138.315 112.113C140.666 114.187 143.088 116.235 145.887 117.718C148.687 119.201 151.941 120.089 155.022 119.651"
        fill="#99F876" />
    <path
        d="M149.935 87.5545C149.789 88.4883 150.576 89.5082 151.527 89.6004C150.949 88.8195 150.55 88.3094 149.935 87.5545Z"
        fill="#21282B" />
    <path
        d="M147.643 88.4974C148.353 89.7122 149.607 90.616 150.994 90.8935C149.92 89.9518 148.882 89.214 147.643 88.4974Z"
        fill="#21282B" />
    <path
        d="M144.935 90.0954C146.441 91.759 148.544 92.946 150.761 93.3634C148.78 92.2484 146.916 91.2105 144.935 90.0954Z"
        fill="#21282B" />
    <path
        d="M142.722 91.8713C144.434 94.1101 147.298 95.6135 150.118 95.7389C147.401 94.8617 144.987 93.602 142.722 91.8713Z"
        fill="#21282B" />
    <path
        d="M140.452 94.8008C142.526 97.2479 145.439 99.0846 148.542 99.9003C145.68 98.3892 143.044 96.73 140.452 94.8008Z"
        fill="#21282B" />
    <path
        d="M138.215 98.2524C140.71 101.153 144.445 103.161 148.253 103.629C144.581 102.42 141.252 100.639 138.215 98.2524Z"
        fill="#21282B" />
    <path
        d="M136.994 102.558C139.301 104.83 142.408 106.406 145.606 106.931C142.578 105.694 139.776 104.273 136.994 102.558Z"
        fill="#21282B" />
    <path
        d="M137.306 107.113C139.856 109.315 142.969 110.941 146.245 111.763C143.206 110.256 140.282 108.741 137.306 107.113Z"
        fill="#21282B" />
    <path
        d="M139.203 111.714C141.98 113.613 145.237 114.895 148.569 115.387C145.396 114.196 142.334 113.003 139.203 111.714Z"
        fill="#21282B" />
    <path
        d="M141.389 115.626C143.685 116.378 145.751 118.102 148.253 117.996C145.889 117.397 143.879 115.7 141.389 115.626Z"
        fill="#21282B" />
    <path
        d="M168.812 103.853C169.06 112.796 161.534 120.033 152.52 119.42C143.974 119.06 136.507 111.349 136.492 102.939C136.144 94.5241 143.279 87.2288 151.819 87.3495C160.818 87.2488 168.67 94.9084 168.812 103.853ZM168.812 103.853C168.453 88.9562 150.234 80.7416 139.543 90.7736C132.725 97.1211 132.98 108.552 140.078 115.291C151.225 125.933 169.103 118.744 168.812 103.853Z"
        fill="#21282B" />
    <path
        d="M141.989 97.6752L128.728 82.2538L128.435 82.0049H128.034L73.1833 82.2538L128.028 83.6875L127.328 83.4441L140.188 99.2064L141.989 97.6752Z"
        fill="#21282B" />
    <g clip-path="url(#clip1_86_8622)">
        <path
            d="M76.018 47.923C76.301 51.8948 76.186 56.1409 75.9472 59.9977C75.9472 60.9221 75.9782 65.3185 75.9782 66.1412C75.9516 67.0081 75.8145 68.9675 75.7305 69.8521C75.6642 71.4797 75.4829 73.3816 76.3762 74.7527C78.2733 77.1013 81.4219 76.7696 84.2476 76.7121C85.8662 76.6413 87.5731 76.8359 89.2005 76.9023C92.2739 77.0129 95.5905 76.9244 98.3058 75.4692L97.8635 76.2123C98.036 67.0214 98.3765 57.0122 98.7215 47.8611L99.2123 48.3919C96.5988 48.1397 93.9853 47.9009 91.3629 47.693C89.3995 47.5426 85.4593 47.2375 83.4959 47.1048C88.7627 46.9765 94.0295 47.0694 99.2919 47.3392L99.7695 47.3657L99.7784 47.8744C99.8801 54.7034 99.7651 62.2888 99.7164 69.1532L99.6059 76.2433L99.597 76.7431C96.4175 78.667 92.6675 78.7865 89.1209 78.6272C87.4803 78.5476 85.9281 78.353 84.2698 78.4017C81.2052 78.4813 77.1589 78.4901 75.1468 75.6063C74.028 73.8327 74.2756 71.6788 74.4304 69.7415C74.5188 68.9011 74.7709 66.9241 74.8107 66.1147C74.8461 65.3185 75.0362 60.8735 75.076 59.9844C75.5536 55.9772 75.9163 51.9612 76.018 47.923Z"
            fill="#21282B" />
        <path
            d="M80.9601 52.5962C79.8377 53.6686 79.2818 55.2876 79.5049 56.8121C79.5792 57.3272 79.7385 57.8284 79.905 58.326C80.0253 58.68 80.1493 59.0374 80.3582 59.3493C80.6804 59.8259 81.1725 60.1624 81.6505 60.4848C82.295 60.9158 82.9535 61.3574 83.7042 61.5571C85.0001 61.9041 86.388 61.4905 87.5742 60.8632C87.9566 60.6635 88.3319 60.4357 88.6435 60.1378C89.7093 59.118 89.8438 57.5025 89.9111 56.0341C89.6491 55.8939 89.3693 56.2163 89.0719 56.2444C88.5621 56.2934 88.385 55.5329 87.9141 55.3367C87.5636 55.1895 87.1387 55.3963 86.7811 55.2596C86.4376 55.1299 86.2854 54.7339 86.211 54.3765C86.1367 54.019 86.0871 53.6265 85.8251 53.3707C85.7224 53.2691 85.5914 53.1955 85.4887 53.0938C85.0426 52.6558 85.386 52.1476 85.1984 51.664C85.0249 51.2295 84.5504 51.2154 84.1432 51.233C82.9712 51.282 81.7992 51.7902 80.9566 52.5962H80.9601Z"
            fill="#99F876" />
        <path
            d="M85.0491 61.9878C84.1523 61.9878 83.2905 61.7923 82.4838 61.4014C81.2863 60.8201 80.3844 59.9331 79.7731 58.7454C79.4875 58.1942 79.3021 57.6078 79.2019 56.9914C79.1168 56.4652 79.1017 55.9391 79.1669 55.4079C79.257 54.6562 79.4725 53.9445 79.8332 53.278C80.3644 52.3008 81.1059 51.5291 82.0629 50.9628C82.6241 50.632 83.2203 50.4015 83.8567 50.2712C84.4028 50.161 84.959 50.1159 85.5151 50.171C85.7206 50.191 85.926 50.2211 86.1314 50.2562C86.2817 50.2812 86.3819 50.3714 86.422 50.5168C86.4621 50.6521 86.432 50.7774 86.3318 50.8726C86.2817 50.9227 86.2116 50.9578 86.1515 50.9929C85.951 51.1181 85.8258 51.2885 85.7957 51.5241C85.7506 51.8598 85.931 52.1755 86.2517 52.3058C86.2717 52.3158 86.2968 52.3209 86.3168 52.3309C86.5222 52.4061 86.6124 52.5714 86.5673 52.7819C86.4922 53.1377 86.5272 53.4785 86.7026 53.7942C86.9832 54.2953 87.4141 54.5609 87.9853 54.581C88.1005 54.581 88.2158 54.5609 88.331 54.5409C88.5414 54.5058 88.7068 54.591 88.782 54.7965C88.8521 54.9919 88.9673 55.1423 89.1527 55.2425C89.5135 55.4279 89.9394 55.2876 90.1348 54.9268C90.1899 54.8215 90.26 54.7313 90.3753 54.6912C90.5657 54.6311 90.7761 54.7263 90.8312 54.9167C90.8713 55.052 90.8964 55.1974 90.9064 55.3427C90.9314 55.6133 90.9565 55.8889 90.9565 56.1596C90.9565 56.7659 90.8463 57.3523 90.6559 57.9286C90.4554 58.5349 90.1648 59.0912 89.779 59.6024C89.2229 60.344 88.5264 60.9304 87.6947 61.3513C87.2287 61.5869 86.7377 61.7572 86.2316 61.8625C85.8408 61.9427 85.44 61.9878 85.0391 61.9878H85.0491ZM90.2099 55.8789C90.1749 55.894 90.1398 55.909 90.1097 55.924C89.7991 56.0744 89.4784 56.1145 89.1477 56.0293C88.7619 55.929 88.4563 55.7135 88.2408 55.3728C88.2158 55.3327 88.1907 55.3176 88.1456 55.3227C87.9051 55.3527 87.6646 55.3227 87.4341 55.2575C86.6776 55.037 86.1715 54.5459 85.9009 53.8142C85.8107 53.5687 85.7707 53.3081 85.7907 53.0475C85.7957 52.9523 85.7757 52.9022 85.6955 52.8471C85.1043 52.4411 84.8487 51.6543 85.2145 50.9678C85.2245 50.9528 85.2295 50.9377 85.2395 50.9077C84.4729 50.8776 83.7514 51.0029 83.055 51.2985C82.0178 51.7345 81.2011 52.4361 80.6149 53.3983C79.4124 55.3728 79.6779 57.9035 81.2462 59.5973C82.8496 61.3263 85.4249 61.7673 87.5243 60.6197C89.5235 59.5222 90.3051 57.4575 90.2049 55.8839L90.2099 55.8789Z"
            fill="#21282B" />
        <path
            d="M84.3075 53.1128C84.3075 53.5187 83.9718 53.8494 83.571 53.8494C83.1601 53.8494 82.8244 53.5087 82.8294 53.0977C82.8294 52.7018 83.1701 52.3711 83.571 52.3711C83.9718 52.3711 84.3125 52.7069 84.3075 53.1128Z"
            fill="#21282B" />
        <path
            d="M82.8245 56.0697C82.8245 56.4756 82.4938 56.8063 82.0879 56.8063C81.6771 56.8063 81.3414 56.4706 81.3464 56.0597C81.3464 55.6638 81.6871 55.333 82.0879 55.333C82.4938 55.333 82.8295 55.6688 82.8245 56.0747V56.0697Z"
            fill="#21282B" />
        <path
            d="M85.0447 59.0257C85.0447 58.6298 85.3804 58.2941 85.7812 58.2891C86.1871 58.2891 86.5228 58.6198 86.5228 59.0257C86.5228 59.4266 86.1921 59.7624 85.7912 59.7624C85.3854 59.7624 85.0497 59.4317 85.0447 59.0207V59.0257Z"
            fill="#21282B" />
        <path
            d="M85.7862 56.4402C85.7862 56.6456 85.6159 56.811 85.4155 56.811C85.21 56.811 85.0447 56.6406 85.0447 56.4352C85.0447 56.2347 85.215 56.0693 85.4155 56.0693C85.6159 56.0693 85.7862 56.2397 85.7862 56.4402Z"
            fill="#21282B" />
        <path
            d="M88.7465 57.9187C88.7465 58.1241 88.5762 58.2895 88.3708 58.2895C88.1653 58.2895 88 58.1191 88.005 57.9137C88.005 57.7132 88.1753 57.5478 88.3808 57.5528C88.5812 57.5528 88.7465 57.7232 88.7465 57.9237V57.9187Z"
            fill="#21282B" />
        <path
            d="M83.5663 58.6549C83.5663 58.8604 83.4009 59.0257 83.1955 59.0257C82.9901 59.0257 82.8247 58.8553 82.8247 58.6549C82.8247 58.4544 82.9951 58.2891 83.1955 58.2891C83.3959 58.2891 83.5663 58.4594 83.5663 58.6549Z"
            fill="#21282B" />
        <path
            d="M80.7319 65.1592C80.7407 65.5617 80.8248 66.1942 81.3201 66.2118C81.833 66.203 82.3327 65.4688 82.9784 65.5661C83.3454 65.628 83.6329 65.9022 83.9734 65.9553C84.389 66.0526 84.8401 65.9951 85.2072 65.7917L85.3929 65.6855L85.4902 65.8713C86.1181 66.6011 87.0645 65.6192 87.9135 65.5838C88.4442 65.5396 88.8201 65.8801 89.3109 65.8713C89.8018 65.8845 90.2838 65.6678 90.6332 65.3273L90.7349 65.4644C91.5353 66.3622 93.1405 65.5263 93.9542 66.4551C93.4811 66.057 92.8443 66.119 92.265 66.1455C91.6547 66.1676 90.9295 66.1942 90.4784 65.6722L90.7172 65.6899C90.3502 66.057 89.8328 66.2649 89.3109 66.2693C88.8422 66.318 88.369 65.9907 87.9401 66.0172C87.5376 66.0438 87.1485 66.3091 86.6532 66.4728C86.1358 66.632 85.4327 66.6276 85.1187 66.0747L85.4017 66.1588C84.7074 66.5303 83.8142 66.433 83.1995 65.9863C82.5229 65.5263 82.0099 66.4595 81.3024 66.3799C80.7142 66.2959 80.6656 65.6192 80.7275 65.1592H80.7319Z"
            fill="#21282B" />
        <path
            d="M79.8032 69.2591C80.0022 68.777 80.4975 68.4365 81.037 68.379C81.5809 68.2905 82.0762 68.6443 82.5184 68.8743C83.425 69.3078 84.473 69.2061 85.4415 69.0159L85.6007 68.9805C85.782 69.6085 86.5647 69.8783 87.206 69.6837C87.9224 69.4714 88.5326 68.8389 89.0987 68.2949L89.1694 68.6797C89.2623 69.1707 89.8991 69.4891 90.443 69.4184C91.0223 69.352 91.5618 69.007 92.0792 68.6488L92.2472 68.5338L92.3003 68.7239C92.6939 69.8474 94.1886 69.6218 95.1084 69.2901C94.5998 69.5157 94.0648 69.7368 93.4766 69.7368C92.8796 69.7368 92.2384 69.4139 92.0306 68.8124L92.2472 68.8832C91.7254 69.2812 91.1771 69.7014 90.4961 69.8032C89.7797 69.9005 88.9262 69.5466 88.7493 68.7682L89.1075 68.8788C88.3646 69.6395 87.3121 70.4799 86.1756 70.0774C85.8041 69.958 85.4459 69.6837 85.2956 69.2901L85.5211 69.4139C84.4907 69.5997 83.3498 69.6351 82.399 69.1132C81.9347 68.8478 81.5544 68.5072 81.0503 68.5338C80.5638 68.5426 80.0641 68.8124 79.8076 69.2591H79.8032Z"
            fill="#21282B" />
        <path
            d="M79.6618 73.1558C79.9846 72.8196 80.387 72.5543 80.816 72.3685C80.9619 72.311 81.1078 72.2402 81.298 72.2402C81.5014 72.2402 81.6694 72.395 81.7623 72.5144C82.0276 72.8948 82.4256 72.9833 82.8767 72.9833C84.6898 72.9081 86.5338 72.6427 88.3071 72.2137C88.6963 72.1297 89.0501 72.0191 89.4436 71.9262C89.5409 71.9041 89.7001 71.9262 89.793 71.997C89.9743 72.1385 90.0141 72.2225 90.1379 72.28C90.6509 72.5366 91.3098 72.2933 91.8847 72.3198C92.5215 72.3464 93.145 72.5631 93.6314 72.9479C93.0919 72.6471 92.4817 72.4923 91.8847 72.5366C91.1506 72.5941 90.1866 72.9567 89.594 72.3066C89.5586 72.2889 89.5542 72.2889 89.5011 72.2977C89.1474 72.3995 88.767 72.5233 88.4088 72.6162C86.5958 73.0894 84.7473 73.3504 82.8634 73.315C82.545 73.2929 82.2001 73.2354 81.9082 73.0275C81.5987 72.8196 81.5147 72.4525 81.2803 72.4481C80.7054 72.4746 80.1261 72.8108 79.6573 73.1469L79.6618 73.1558Z"
            fill="#21282B" />
    </g>
    <path
        d="M201.009 85.0662C195.674 82.2874 189.623 83.0509 184.397 84.3934C183.599 84.6001 182.795 84.8236 182.155 85.2644C181.522 85.7032 181.085 86.3343 180.694 86.9811C178.21 91.0801 177.252 96.1102 177.984 101.212C178.178 102.557 178.496 103.938 179.223 105.203C179.679 106.001 180.292 106.731 180.919 107.438C182.11 108.779 183.387 110.056 184.738 111.258C187.084 113.347 189.743 115.257 192.712 116.169C194.37 116.676 196.069 116.857 197.74 116.946C199.344 117.029 200.944 117.032 202.487 116.836C209.499 115.935 214.777 110.484 215.083 103.834C215.13 102.761 215.063 101.656 214.723 100.565C214.325 99.2914 213.574 98.0896 212.82 96.9112C211.062 94.1551 209.223 91.3976 206.841 89.0253C204.458 86.6529 201.445 84.6664 198.219 83.9643"
        fill="#99F876" />
    <path
        d="M180.651 99.6627C181.557 108.48 189.393 116.151 197.601 116.173C205.411 116.412 211.297 109.313 210.244 101.007C209.497 92.7182 202.013 85.0155 194.178 84.5411C185.893 83.8159 179.647 90.8366 180.651 99.6627ZM180.651 99.6627C179.092 84.9717 194.797 78.1237 205.897 88.777C212.969 95.5214 214.185 106.795 208.514 112.959C199.617 122.696 182.271 114.352 180.651 99.6627Z"
        fill="#21282B" />
    <path
        d="M203.369 85.0215C204.276 87.3919 203.628 89.9951 201.742 91.5336C202.907 89.5282 203.446 87.3957 203.369 85.0215Z"
        fill="#21282B" />
    <path
        d="M205.428 86.0781C205.692 88.5871 205.153 93.4232 202.245 94.4552C203.68 93.5232 203.981 91.967 204.438 90.5452C204.869 89.0889 205.155 87.6007 205.428 86.0781Z"
        fill="#21282B" />
    <path
        d="M208.718 89.634C207.364 91.8534 207.283 94.4935 206.445 96.9212C205.688 99.3078 203.585 101.753 200.182 101.583C207.2 100.838 205.46 93.3365 208.718 89.634Z"
        fill="#21282B" />
    <path
        d="M209.961 93.0311C209.32 95.558 208.501 98.027 207.473 100.431C206.308 102.669 205.569 105.62 202.545 106.65C205.241 105.286 205.721 102.461 206.892 100.21C207.943 97.8294 208.867 95.4003 209.961 93.0311Z"
        fill="#21282B" />
    <path
        d="M211.21 97.2651C209.645 101.704 207.552 106.217 203.273 109.149C202.985 109.336 202.687 109.514 202.389 109.693C202.64 109.471 202.899 109.262 203.159 109.049C206.936 105.764 208.922 101.393 211.216 97.2673L211.21 97.2651Z"
        fill="#21282B" />
    <path
        d="M211.316 103.198C210.212 106.867 207.379 109.951 203.54 111.681C203.888 111.426 204.402 111.058 204.744 110.786C207.516 108.687 209.697 106.096 211.316 103.198Z"
        fill="#21282B" />
    <path
        d="M209.935 107.977C208.568 111.153 205.727 113.734 202.136 115.037C205.271 113.122 207.862 110.785 209.935 107.977Z"
        fill="#21282B" />
    <path
        d="M207.691 96.5419L221.689 83.1103L221.998 82.8936H222.421L270.948 83.1103L222.428 84.3591L223.167 84.147L209.592 97.8755L207.691 96.5419Z"
        fill="#21282B" />
    <path
        d="M245.64 47.9086C245.881 52.0318 245.716 56.3609 245.451 60.3881C245.448 61.3452 245.451 65.887 245.444 66.7377C245.444 69.4785 244.556 72.6893 245.585 75.2998C245.661 75.4233 245.751 75.6463 245.85 75.7526C247.833 78.2568 251.215 77.948 254.175 77.8863C257.51 77.8211 260.951 78.418 264.268 77.9412C265.893 77.7422 267.483 77.334 268.863 76.5759L268.518 77.1522C268.639 70.6243 268.887 61.6985 269.086 55.1706L269.317 47.8468L269.699 48.2585C266.987 48.0149 264.272 47.7851 261.553 47.5827C260.194 47.4832 258.835 47.394 257.472 47.3117L253.394 47.0613C258.979 46.9995 264.564 47.1368 270.139 47.4626C270.215 54.3782 270.057 62.8923 269.998 69.8456L269.878 77.1762L269.871 77.5638C265.06 80.3973 259.454 79.2173 254.196 79.1932C251.677 79.2104 248.707 79.3819 246.432 77.8691C245.651 77.3237 244.914 76.6514 244.532 75.7595C243.438 72.8608 244.412 69.6706 244.532 66.7137C244.567 65.8904 244.735 61.2972 244.77 60.3744C245.258 56.2374 245.585 52.0764 245.64 47.9086Z"
        fill="#21282B" />
    <path
        d="M249.567 69.9621C249.887 69.204 250.916 68.8369 251.663 69.2143C252.351 69.6156 253.053 69.9449 253.869 69.9209C254.43 69.9278 254.994 69.8557 255.548 69.7391C255.658 70.0821 255.937 70.336 256.295 70.4457C257.448 70.8025 258.381 69.8351 259.169 69.0873L259.224 69.3755C259.341 69.9586 260.056 70.2536 260.614 70.1782C261.23 70.1027 261.791 69.7357 262.328 69.3618L262.459 69.2726L262.5 69.4201C262.944 70.6138 264.482 70.3497 265.446 69.9929C264.916 70.2159 264.358 70.4389 263.752 70.432C263.147 70.4217 262.496 70.0959 262.29 69.4887L262.459 69.5436C261.922 69.9483 261.35 70.3771 260.655 70.4732C259.939 70.5692 259.086 70.2091 258.91 69.4441L259.179 69.5264C258.422 70.3017 257.355 71.1627 256.199 70.751C255.827 70.631 255.473 70.3634 255.318 69.9758L255.49 70.0684C254.43 70.2674 253.26 70.312 252.279 69.7803C251.804 69.5127 251.395 69.1594 250.861 69.1937C250.348 69.2108 249.832 69.4955 249.574 69.9621H249.567Z"
        fill="#21282B" />
    <path
        d="M249.423 73.9891C249.763 73.6495 250.18 73.3785 250.627 73.1967C250.778 73.1384 250.93 73.0664 251.119 73.0698C251.319 73.0698 251.481 73.2207 251.577 73.3442C251.852 73.7421 252.286 73.8519 252.757 73.8519C254.013 73.8108 255.29 73.6735 256.539 73.454C257.568 73.2859 258.57 73.0321 259.578 72.7645C259.674 72.7439 259.819 72.7645 259.908 72.8297C260.487 73.5055 261.326 73.1418 262.104 73.1521C262.761 73.1727 263.405 73.3854 263.914 73.773C263.363 73.4506 262.727 73.2825 262.104 73.3202C261.34 73.3682 260.363 73.7456 259.753 73.0698C259.647 73.0115 259.537 73.0835 259.413 73.111C258.491 73.3957 257.551 73.6187 256.598 73.7867C255.324 73.9994 254.051 74.1298 252.747 74.1092C252.42 74.0886 252.069 74.0337 251.776 73.8279C251.467 73.6289 251.377 73.2413 251.109 73.231C250.503 73.2653 249.908 73.6221 249.423 73.9823V73.9891Z"
        fill="#21282B" />
    <path
        d="M261.774 58.0382C259.495 58.1445 256.963 58.2063 254.667 58.2611C254.468 58.2611 253.37 58.2886 253.187 58.2886C251.04 58.3675 249.399 56.1686 249.801 54.1242C250.052 52.3815 251.735 51.0197 253.504 51.1775L258.239 51.1946C259.017 51.2015 261.041 51.2221 261.791 51.2324C263.085 51.1638 264.355 51.843 264.953 52.9853C266.013 54.8136 265.05 57.4516 262.957 57.9661C262.569 58.069 262.162 58.0656 261.77 58.0382C264.306 58.1582 265.852 55.3042 264.564 53.2083C264.048 52.3404 263.095 51.7778 262.087 51.8018C261.911 51.8121 260.81 51.8121 260.607 51.819L258.239 51.843L253.504 51.8601C252.021 51.7195 250.696 52.776 250.441 54.2339C250.101 55.829 251.25 57.5991 252.916 57.7637C253.28 57.7946 254.285 57.798 254.667 57.8118C256.966 57.8632 259.489 57.9353 261.774 58.0347V58.0382Z"
        fill="#21282B" />
    <path
        d="M262.802 66.2706H254.195C252.485 66.2706 251.098 64.8127 251.098 63.0117C251.098 61.2108 252.485 59.7529 254.195 59.7529H263.143C264.853 59.7529 266.24 61.2108 266.24 63.0117C266.24 64.8127 264.853 66.2706 263.143 66.2706H262.802Z"
        fill="#99F876" />
    <path
        d="M261.77 65.9278C259.492 66.0342 256.959 66.0959 254.664 66.1508C254.464 66.1508 253.366 66.1782 253.184 66.1782C251.036 66.2571 249.395 64.0583 249.797 62.0138C250.049 60.2712 251.732 58.9093 253.5 59.0671L258.236 59.0843C259.013 59.0912 261.037 59.1117 261.787 59.122C263.081 59.0534 264.351 59.7326 264.95 60.8749C266.01 62.7033 265.046 65.3412 262.954 65.8558C262.565 65.9587 262.159 65.9553 261.766 65.9278C264.303 66.0479 265.848 63.1938 264.561 61.0979C264.045 60.23 263.091 59.6674 262.083 59.6915C261.908 59.7018 260.806 59.7018 260.603 59.7086L258.236 59.7326L253.5 59.7498C252.017 59.6091 250.692 60.6657 250.438 62.1236C250.097 63.7187 251.246 65.4887 252.912 65.6534C253.277 65.6843 254.282 65.6877 254.664 65.7014C256.962 65.7529 259.485 65.8249 261.77 65.9244V65.9278Z"
        fill="#21282B" />
    <circle cx="253.529" cy="54.8878" r="2.09096" fill="#21282B" />
    <path
        d="M255.404 54.7797C255.562 56.8208 253.17 57.7298 251.756 56.3577C250.348 54.9959 251.377 52.5226 253.339 52.55C254.653 52.55 255.462 53.5311 255.404 54.7797ZM255.404 54.7797C255.366 53.7609 254.326 52.9034 253.339 52.8931C252.324 52.8725 251.425 53.7678 251.446 54.7797C251.425 55.7917 252.324 56.687 253.339 56.6664C254.316 56.663 255.369 55.7848 255.404 54.7797Z"
        fill="#21282B" />
    <circle cx="261.892" cy="62.7287" r="2.09096" fill="white" />
    <path
        d="M264.007 62.6694C264.165 64.7104 261.774 65.6195 260.359 64.2474C258.952 62.8855 259.981 60.4122 261.942 60.4397C263.257 60.4397 264.065 61.4208 264.007 62.6694ZM264.007 62.6694C263.969 61.6506 262.93 60.793 261.942 60.7827C260.927 60.7621 260.029 61.6574 260.049 62.6694C260.029 63.6813 260.927 64.5767 261.942 64.5561C262.92 64.5527 263.973 63.6745 264.007 62.6694Z"
        fill="#21282B" />
    <path
        d="M162.128 49.2501C156.396 50.1212 151.667 54.4133 147.89 58.6975C147.315 59.353 146.741 60.0266 146.404 60.7843C146.071 61.5365 145.991 62.3324 145.956 63.1141C145.726 68.072 147.199 72.8952 150.12 76.7613C150.891 77.7795 151.782 78.7535 152.964 79.3829C153.708 79.7812 154.552 80.0281 155.398 80.2469C157.003 80.6612 158.652 80.9689 160.329 81.1686C163.242 81.5182 166.336 81.5279 169.239 80.5073C170.858 79.9359 172.366 79.0638 173.807 78.1315C175.191 77.2348 176.534 76.2724 177.74 75.177C183.212 70.189 185.174 62.4061 182.422 56.6079C181.976 55.6735 181.42 54.7811 180.641 54.066C179.731 53.2304 178.558 52.6686 177.393 52.1283C174.671 50.862 171.882 49.6425 168.81 49.0764C165.739 48.5103 162.313 48.6499 159.29 50.0019"
        fill="#99F876" />
    <path
        d="M166.65 48.3405C166.748 49.2523 165.958 50.2722 165.055 50.3866C165.635 49.6064 166.035 49.0961 166.65 48.3405Z"
        fill="#21282B" />
    <path
        d="M168.939 49.283C168.198 50.478 166.944 51.3819 165.588 51.6799C166.67 50.7428 167.707 50.0046 168.939 49.283Z"
        fill="#21282B" />
    <path
        d="M171.646 50.8809C170.105 52.5185 168.001 53.7053 165.82 54.1489C167.802 53.034 169.665 51.9958 171.646 50.8809Z"
        fill="#21282B" />
    <path
        d="M173.861 52.6567C172.09 54.852 169.227 56.3551 166.465 56.5239C169.158 55.6294 171.572 54.3697 173.861 52.6567Z"
        fill="#21282B" />
    <path
        d="M176.131 55.5863C174.008 57.9988 171.095 59.8355 168.041 60.6857C170.89 59.1658 173.526 57.5065 176.131 55.5863Z"
        fill="#21282B" />
    <path
        d="M178.367 59.0378C175.805 61.8882 172.07 63.8963 168.329 64.4147C171.969 63.1812 175.298 61.3998 178.367 59.0378Z"
        fill="#21282B" />
    <path
        d="M179.587 63.3432C177.233 65.5796 174.126 67.1556 170.975 67.7158C173.99 66.4693 176.792 65.0486 179.587 63.3432Z"
        fill="#21282B" />
    <path
        d="M179.276 67.8995C176.688 70.0731 173.574 71.6984 170.337 72.5494C173.373 71.0395 176.297 69.5242 179.276 67.8995Z"
        fill="#21282B" />
    <path
        d="M177.378 72.4995C174.567 74.3731 171.309 75.6543 168.012 76.1724C171.182 74.9798 174.245 73.7862 177.378 72.4995Z"
        fill="#21282B" />
    <path
        d="M175.192 76.4106C172.898 77.1642 170.789 78.8588 168.329 78.7808C170.684 78.1756 172.736 76.508 175.192 76.4106Z"
        fill="#21282B" />
    <path
        d="M148.291 65.6684C147.718 74.3637 154.691 81.1796 163.391 80.3278C171.63 79.7346 179.107 72.0306 179.436 63.8595C180.086 55.6746 173.491 48.7904 165.266 49.1509C156.608 49.3094 148.763 56.9745 148.291 65.6684ZM148.291 65.6684C149.195 51.1856 167.039 42.6861 176.954 52.1278C183.28 58.1002 182.607 69.2125 175.521 75.9618C164.393 86.6179 147.453 80.1429 148.291 65.6684Z"
        fill="#21282B" />
    <path
        d="M181.067 63.1066C181.451 66.5978 180.325 70.4236 177.967 73.5889C179.655 70.1628 180.689 66.6872 181.067 63.1066Z"
        fill="#21282B" />
    <path
        d="M167.965 52.7148L181.963 35.3035L182.272 35.0225H182.695H233.448L182.702 36.9222L183.441 36.6473L169.866 54.4435L167.965 52.7148Z"
        fill="#21282B" />
    <path
        d="M207.922 15.8685C208.928 16.5941 210.106 15.8786 211.219 15.8382C211.979 15.8112 212.721 16.1081 213.47 16.3039C214.419 16.5503 215.384 16.6346 216.343 16.5536C216.845 12.8074 217.021 8.95659 216.866 5.1395C216.893 5.81449 209.373 4.21476 208.826 4.49151C207.871 4.97413 208.236 8.02172 208.202 9.22659C208.138 11.4439 208.043 13.6579 207.922 15.8685Z"
        fill="#99F876" />
    <path
        d="M207.399 14.8235C208.412 15.4243 209.461 14.7189 210.507 14.5738C211.614 14.3882 212.721 14.9113 213.737 15.0834C214.416 15.1982 215.111 15.2285 215.796 15.1712L215.489 15.4614C215.992 11.7017 216.164 7.89811 216.009 4.10465L216.684 4.07765C216.694 4.39152 216.397 4.54339 216.154 4.57039C213.764 4.64127 211.402 3.97977 209.036 3.77727C208.84 3.7604 208.631 3.74352 208.476 3.75365C208.445 3.75365 208.401 3.76715 208.455 3.75027C208.439 3.76715 208.418 3.78402 208.398 3.79752C208.125 4.08777 208.081 4.54677 208.023 5.00239C207.905 6.1735 208.074 7.47287 208 8.66423C208.034 9.48772 207.487 13.9258 207.402 14.8235H207.399ZM207.399 14.8235C207.308 12.4611 207.271 9.84209 207.335 7.44249C207.315 6.62237 207.271 5.79213 207.352 4.93489C207.409 4.31052 207.605 3.15966 208.425 3.08203C210.315 3.13941 212.127 3.57815 213.994 3.77727C214.696 3.84477 215.428 3.9899 216.12 3.88865C216.073 3.91227 215.998 4.0034 216.009 4.10465L216.684 4.07765C216.842 7.99936 216.657 11.9312 216.123 15.8192L215.853 15.8428C214.74 15.944 213.609 15.8023 212.539 15.5019C211.867 15.3163 211.246 15.0092 210.551 15.0362C209.535 15.0699 208.283 15.5829 207.402 14.8202L207.399 14.8235Z"
        fill="#21282B" />
    <path
        d="M226.732 15.5258C225.79 16.2109 224.585 15.5899 223.576 15.4718C222.884 15.384 222.239 15.6371 221.554 15.7654C220.373 15.9949 219.141 16.0151 217.957 15.7789C217.751 11.8605 217.899 7.92534 218.392 4.03062L219.06 4.115C219.081 4.01375 219.013 3.91587 218.969 3.88887C219.651 4.0475 220.393 3.96312 221.099 3.95637C222.975 3.91587 224.818 3.63238 226.705 3.73362C227.515 3.88212 227.612 5.04311 227.619 5.67086C227.626 6.53147 227.515 7.35497 227.423 8.16833C227.282 10.5646 227.025 13.17 226.735 15.519L226.732 15.5258ZM226.732 15.5258C226.721 14.5909 226.553 10.1731 226.657 9.33607C226.684 8.14133 226.961 6.86222 226.941 5.68436C226.921 5.22536 226.917 4.76636 226.667 4.45249C226.647 4.43899 226.63 4.42212 226.613 4.40187C226.667 4.42549 226.624 4.40862 226.593 4.40187C226.441 4.37824 226.229 4.37824 226.033 4.37824C223.66 4.37824 221.251 4.83724 218.875 4.56724C218.635 4.51999 218.348 4.34112 218.389 4.03062L219.057 4.115C218.581 7.87809 218.429 11.6851 218.615 15.4751L218.335 15.1579C219.013 15.2726 219.705 15.303 220.393 15.2423C221.419 15.1579 222.567 14.7293 223.654 15.006C224.683 15.2423 225.672 16.032 226.728 15.519L226.732 15.5258Z"
        fill="#21282B" />
    <path
        d="M209.552 12.5016C209.572 11.4519 209.805 10.4631 210.166 9.48771L211.101 6.57511L211.176 6.33887H211.419C211.79 6.35237 212.185 6.44349 212.431 6.73036C212.998 7.39523 213.282 8.26597 213.565 9.04222C213.987 10.0817 214.304 11.1684 214.203 12.3058C213.67 11.3169 213.275 10.3382 212.931 9.27171C212.65 8.51572 212.424 7.77323 211.918 7.16573C211.894 7.10161 211.597 7.00711 211.425 7.01386L211.743 6.78099L210.808 9.69359C210.531 10.6993 210.146 11.6376 209.552 12.5016Z"
        fill="#21282B" />
    <path
        d="M210.359 10.1898C210.352 10.2708 210.201 10.237 210.201 10.129C210.201 10.0109 210.288 9.95351 210.325 9.91301C210.474 9.68351 210.656 9.69026 210.899 9.64976C211.166 9.60589 211.432 9.56539 211.702 9.53501C212.091 9.48777 212.523 9.46077 212.917 9.44727C213.019 9.51139 213.086 9.58226 213.194 9.64301C213.262 9.67676 213.36 9.83539 213.258 9.86914C213.258 9.84214 213.235 9.84214 213.221 9.85226C213.133 9.89614 213.177 9.91976 213.127 9.96026L212.934 10.1223C212.161 10.1526 211.382 10.2303 210.626 10.3889C210.484 10.3045 210.396 10.3248 210.386 10.1695C210.352 10.0953 210.305 10.1931 210.352 10.1898H210.359Z"
        fill="#21282B" />
    <path
        d="M205.982 0.847795C206.218 4.90451 206.056 9.16372 205.796 13.1259C205.793 14.0675 205.796 18.536 205.79 19.373C205.79 22.0696 204.919 25.2286 205.928 27.7969C206.002 27.9184 206.09 28.1378 206.188 28.2424C208.132 30.7061 211.449 30.4024 214.352 30.3416C217.622 30.2775 220.997 30.8648 224.251 30.3956C225.844 30.1999 227.403 29.7983 228.756 29.0524L228.419 29.6194C228.537 23.1968 228.78 14.4152 228.976 7.9926L229.202 0.787046L229.576 1.19204C226.917 0.952419 224.254 0.726296 221.588 0.527173C220.255 0.429299 218.922 0.34155 217.585 0.260551L213.586 0.014178C219.063 -0.0465714 224.541 0.0884273 230.008 0.409049C230.083 7.21299 229.927 15.5897 229.87 22.4307L229.752 29.643L229.745 30.0244C225.027 32.8121 219.529 31.6511 214.372 31.6275C211.902 31.6444 208.989 31.8131 206.758 30.3248C205.992 29.7881 205.27 29.1267 204.895 28.2492C203.822 25.3973 204.777 22.2586 204.895 19.3494C204.929 18.5394 205.094 14.0203 205.128 13.1124C205.601 9.03884 205.921 4.94838 205.979 0.847795H205.982Z"
        fill="#21282B" />
    <path
        d="M209.833 22.5452C210.147 21.7994 211.156 21.4382 211.888 21.8095C212.563 22.2044 213.252 22.5284 214.052 22.5047C214.602 22.5115 215.155 22.4406 215.699 22.3259C215.807 22.6634 216.08 22.9131 216.431 23.0211C217.562 23.3721 218.476 22.4204 219.249 21.6846L219.303 21.9681C219.418 22.5419 220.12 22.8321 220.667 22.7579C221.271 22.6836 221.821 22.3225 222.347 21.9546L222.476 21.8669L222.516 22.012C222.952 23.1865 224.46 22.9266 225.405 22.5756C224.885 22.795 224.339 23.0144 223.745 23.0076C223.151 22.9975 222.513 22.6769 222.31 22.0795L222.476 22.1335C221.949 22.5317 221.389 22.9536 220.707 23.0481C220.005 23.1426 219.168 22.7882 218.996 22.0356L219.259 22.1166C218.517 22.8794 217.471 23.7265 216.337 23.3215C215.972 23.2034 215.624 22.9401 215.473 22.5587L215.641 22.6499C214.602 22.8456 213.454 22.8895 212.492 22.3664C212.027 22.1031 211.625 21.7555 211.102 21.7892C210.599 21.8061 210.093 22.0862 209.84 22.5452H209.833Z"
        fill="#21282B" />
    <path
        d="M209.692 26.5073C210.026 26.1732 210.434 25.9066 210.873 25.7277C211.021 25.6703 211.17 25.5995 211.356 25.6028C211.551 25.6028 211.71 25.7513 211.804 25.8728C212.074 26.2643 212.5 26.3723 212.962 26.3723C214.194 26.3318 215.446 26.1968 216.671 25.9808C217.68 25.8155 218.662 25.5657 219.651 25.3025C219.746 25.2822 219.887 25.3025 219.975 25.3666C220.542 26.0315 221.366 25.6737 222.128 25.6838C222.773 25.7041 223.404 25.9133 223.904 26.2947C223.364 25.9775 222.739 25.8121 222.128 25.8492C221.379 25.8965 220.421 26.2677 219.823 25.6028C219.719 25.5455 219.611 25.6163 219.489 25.6433C218.585 25.9235 217.663 26.1428 216.728 26.3082C215.48 26.5175 214.231 26.6457 212.952 26.6255C212.631 26.6052 212.287 26.5512 212 26.3487C211.696 26.153 211.609 25.7716 211.345 25.7615C210.751 25.7952 210.168 26.1462 209.692 26.5006V26.5073Z"
        fill="#21282B" />
    <path
        d="M221.238 7.31152C221.511 7.74352 221.565 8.16877 221.487 8.65814L221.4 9.98787L221.312 11.3176L221.268 11.9825C221.15 12.1951 221.038 12.4077 220.887 12.6203C220.765 12.3875 220.681 12.158 220.593 11.9285C220.62 11.5134 220.698 10.376 220.725 9.944L220.812 8.62101C220.799 8.12489 220.91 7.70977 221.238 7.3149V7.31152Z"
        fill="#21282B" />
    <path
        d="M220.576 7.31801C221.227 7.11551 221.899 6.79826 222.587 6.99401C222.766 7.05813 222.891 7.21338 222.945 7.31126C223.174 7.70613 223.323 8.13137 223.208 8.60724C223.103 9.08649 222.604 9.36999 222.209 9.50161L222.05 8.85024C223.245 8.71187 224.74 9.58261 224.831 10.8482C224.801 11.1216 224.666 11.2937 224.565 11.4253C224.15 11.9653 223.569 12.3535 222.938 12.5661C222.331 12.8023 221.588 12.6201 221.038 12.3163C221.5 12.3163 221.922 12.2218 222.331 12.0463C222.455 11.9721 222.594 11.9788 222.722 11.9248C223.286 11.7291 223.92 11.3173 224.16 10.7807C223.937 9.98086 222.941 9.41386 222.128 9.51849L219.506 9.80198L221.969 8.86712C222.648 8.66462 222.719 8.26637 222.374 7.66225C222.337 7.60488 222.337 7.615 222.344 7.61838C221.77 7.59475 221.17 7.40238 220.576 7.31126V7.31801Z"
        fill="#21282B" />
    <path
        d="M179.299 201.893C191.423 200.62 204.53 199 216.604 197.289C204.319 199.847 191.79 201.4 179.299 201.893Z"
        fill="#21282B" />
    <path
        d="M190.852 197.155C207.088 194.305 225.15 191.315 241.436 188.764C224.701 192.21 207.765 195.024 190.852 197.155Z"
        fill="#21282B" />
    <path
        d="M208.136 188.081C222.192 188.136 235.964 184.135 249.598 180.792L255.48 179.397C239.998 183.733 224.278 188.946 208.136 188.081Z"
        fill="#21282B" />
    <path
        d="M214.946 183.021C229.633 179.678 245.953 176.414 260.774 173.856C246.08 177.2 229.761 180.464 214.946 183.021Z"
        fill="#21282B" />
    <path
        d="M224.412 176.128C237.763 172.011 251.424 168.766 265.124 166.415C251.901 169.478 237.596 172.888 224.412 176.128Z"
        fill="#21282B" />
    <path
        d="M236.924 168.095C247.578 165.05 258.387 162.383 269.207 160.13C258.553 163.181 247.744 165.842 236.924 168.095Z"
        fill="#21282B" />
    <path
        d="M241.74 162.609C249.719 161.623 257.648 159.96 265.406 157.683C257.854 160.77 249.802 162.451 241.74 162.609Z"
        fill="#21282B" />
    <path
        d="M244.449 158.742C251.773 157.676 259.031 155.989 266.128 153.736C259.253 156.787 251.862 158.498 244.449 158.742Z"
        fill="#21282B" />
    <path
        d="M249.87 153.115C247.545 153.243 245.381 153.462 243.072 153.785C245.142 152.64 247.645 152.396 249.87 153.115Z"
        fill="#21282B" />
    <path
        d="M243.427 156.446C247.045 156.032 250.669 156.025 254.287 156.446C250.669 156.866 247.045 156.86 243.427 156.446Z"
        fill="#21282B" />
    <path
        d="M241.392 150.862C242.401 150.448 243.434 150.442 244.443 150.862C243.434 151.282 242.401 151.276 241.392 150.862Z"
        fill="#21282B" />
    <path
        d="M119.773 165.437C120.006 164.456 120.239 163.476 120.471 162.494C119.045 161.546 117.415 160.898 115.722 160.607C115.333 160.54 114.939 160.492 114.546 160.513C113.972 160.543 113.419 160.721 112.873 160.897C112.564 160.997 112.253 161.098 111.968 161.251C111.794 161.345 111.632 161.456 111.476 161.575C109.621 162.979 108.588 165.296 108.581 167.601C108.578 168.467 108.713 169.346 109.069 170.142C109.461 171.018 110.114 171.776 110.909 172.331C112.623 173.529 114.838 173.738 116.934 173.779C117.263 173.786 117.598 173.788 117.91 173.687C117.966 173.669 118.025 173.646 118.066 173.604C118.124 173.545 118.142 173.459 118.159 173.379C118.345 172.42 118.53 171.463 118.717 170.505C118.302 170.812 117.887 171.118 117.472 171.426C116.771 171.944 116.043 172.475 115.188 172.681C114.332 172.887 113.306 172.685 112.798 171.973C112.688 171.818 112.603 171.642 112.457 171.519C112.345 171.424 112.199 171.364 112.108 171.248C112.015 171.133 111.992 170.98 111.972 170.835C111.901 170.328 111.831 169.822 111.761 169.315C111.67 168.665 111.58 168.009 111.634 167.356C111.69 166.678 111.902 166.025 112.111 165.378C112.258 164.924 112.407 164.467 112.636 164.047C112.881 163.599 113.214 163.202 113.572 162.835C114.019 162.377 114.518 161.952 115.114 161.704C115.711 161.457 116.418 161.405 117.005 161.682C117.672 161.996 118.076 162.661 118.484 163.266C119.068 164.132 119.77 165.056 119.659 166.082"
        fill="#99F876" />
    <path
        d="M128.547 175.225C128.268 175.239 127.947 175.237 127.764 175.029C127.614 174.86 127.614 174.614 127.625 174.391C127.679 173.31 127.826 172.232 128.067 171.177C128.262 170.323 128.519 169.469 128.478 168.593C128.468 168.387 128.44 168.174 128.332 167.995C128.151 167.697 127.794 167.56 127.489 167.383C127.212 167.221 126.964 167.014 126.686 166.857C126.187 166.574 125.613 166.462 125.049 166.353C124.128 166.174 123.142 165.99 122.217 166.224C121.619 166.375 121.644 166.601 121.501 167.158C121.354 167.736 121.197 168.311 121.028 168.883C121.38 168.373 122.016 168.142 122.61 167.941C123.499 167.641 124.425 167.336 125.364 167.439C125.492 167.453 125.631 167.481 125.718 167.576C125.799 167.664 125.816 167.791 125.827 167.91C125.901 168.763 125.832 169.628 125.621 170.457C125.032 170.101 124.355 169.888 123.667 169.841C123.24 169.812 122.812 169.846 122.387 169.88C122.06 169.905 121.729 169.932 121.426 170.049C121.008 170.21 120.676 170.527 120.377 170.854C120.194 171.054 120.015 171.265 119.911 171.514C119.74 171.927 119.792 172.394 119.848 172.838C119.892 173.196 119.938 173.561 120.093 173.889C120.17 174.052 120.273 174.203 120.39 174.342C120.924 174.972 121.762 175.326 122.594 175.337C123.427 175.349 124.244 175.035 124.89 174.528C124.816 174.773 125.214 174.899 125.312 175.138C125.344 175.217 125.341 175.305 125.361 175.387C125.417 175.619 125.644 175.771 125.864 175.873C126.379 176.112 126.964 176.204 127.527 176.135C127.783 176.104 128.042 176.037 128.246 175.883C128.45 175.73 128.59 175.476 128.549 175.225L128.547 175.225ZM125.381 171.68C125.222 172.381 125.011 173.07 124.749 173.739C124.708 173.843 124.664 173.95 124.583 174.027C124.522 174.086 124.444 174.125 124.363 174.151C124.05 174.253 123.697 174.179 123.411 174.016C123.124 173.852 122.897 173.606 122.694 173.348C122.576 173.198 122.462 173.037 122.427 172.851C122.392 172.66 122.444 172.466 122.496 172.28L122.69 171.581C122.738 171.409 122.79 171.231 122.91 171.098C123.168 170.81 123.628 170.837 124.02 170.889C124.397 170.938 124.794 170.958 125.165 171.038C125.594 171.131 125.471 171.284 125.381 171.68Z"
        fill="#99F876" />
    <path
        d="M130.041 172.832C129.981 173.172 129.921 173.512 129.861 173.851C129.754 174.455 129.648 175.084 129.82 175.676C130.064 176.515 130.849 177.136 131.708 177.369C131.924 177.428 132.147 177.465 132.371 177.467C132.718 177.47 133.057 177.386 133.392 177.305C133.834 177.196 134.283 177.084 134.668 176.85C134.905 176.706 135.113 176.517 135.278 176.298C135.154 176.855 135.246 177.457 135.532 177.957C136.359 178.189 137.205 178.354 138.059 178.448C137.591 177.786 137.732 176.902 137.892 176.118C138.332 173.968 138.771 171.818 139.211 169.667C138.237 169.441 137.279 169.152 136.343 168.802C136.21 169.036 136.249 169.322 136.266 169.59C136.299 170.115 136.233 170.641 136.168 171.162C136.1 171.697 136.034 172.233 135.966 172.768C135.85 173.694 135.731 174.631 135.381 175.497C135.336 175.609 135.282 175.725 135.178 175.79C135.109 175.833 135.026 175.847 134.944 175.859C134.408 175.938 133.861 175.949 133.321 175.89C133.168 175.873 133.007 175.849 132.884 175.757C132.779 175.678 132.714 175.559 132.664 175.44C132.373 174.743 132.514 173.956 132.659 173.219C132.859 172.207 133.059 171.193 133.259 170.18C133.365 169.639 133.473 169.091 133.443 168.539C133.436 168.421 131.489 168.023 131.288 167.991C130.739 167.905 130.637 168.206 130.589 168.689C130.452 170.084 130.284 171.453 130.04 172.834L130.041 172.832Z"
        fill="#99F876" />
    <path
        d="M147.055 174.179C147.291 173.424 147.441 172.644 147.501 171.856C147.036 171.8 146.631 171.528 146.22 171.304C145.598 170.967 144.925 170.732 144.255 170.499C144.026 170.42 143.794 170.339 143.552 170.322C143.318 170.306 143.084 170.35 142.854 170.397C142.541 170.459 142.229 170.526 141.919 170.597C141.61 170.668 141.297 170.743 141.024 170.899C140.259 171.336 139.978 172.339 140.186 173.187C140.394 174.035 140.995 174.743 141.661 175.325C141.992 175.615 142.345 175.881 142.695 176.149C142.847 176.265 142.74 176.257 142.95 176.341C143.134 176.414 143.34 176.399 143.527 176.495C143.819 176.644 144.012 176.956 144.228 177.191C144.444 177.425 144.499 177.603 144.44 177.931C144.329 178.539 143.816 179.042 143.154 178.951C142.688 178.886 142.287 178.589 141.962 178.254C141.638 177.918 141.366 177.535 141.022 177.217C140.79 177.003 140.526 176.82 140.322 176.581C140.117 176.341 139.976 176.021 140.051 175.72C139.656 176.485 139.403 177.322 139.306 178.177C139.502 178.197 139.644 178.362 139.782 178.499C140.441 179.156 141.409 179.39 142.324 179.596C142.835 179.71 143.355 179.826 143.877 179.793C144.45 179.756 144.992 179.543 145.523 179.331C145.775 179.231 146.046 179.115 146.182 178.883C146.304 178.674 146.289 178.415 146.362 178.184C146.426 177.982 146.555 177.807 146.638 177.612C146.861 177.096 146.744 176.489 146.49 175.984C146.32 175.646 146.093 175.338 145.83 175.062C145.629 174.85 145.407 174.656 145.169 174.486C144.697 174.147 144.123 173.92 143.683 173.542C143.558 173.434 143.469 173.286 143.336 173.188C143.132 173.039 142.844 173.023 142.654 172.855C142.515 172.732 142.48 172.527 142.52 172.35C142.575 172.098 142.712 171.808 142.803 171.564C142.827 171.501 142.857 171.438 142.91 171.395C143.002 171.321 143.135 171.327 143.254 171.338C143.655 171.378 144.054 171.445 144.446 171.539C144.903 171.647 145.292 172.018 145.568 172.373C145.686 172.524 145.762 172.712 145.885 172.851C146.067 173.059 146.273 173.191 146.407 173.447C146.581 173.779 146.755 174.027 147.069 174.248C147.163 173.738 147.323 173.24 147.542 172.769"
        fill="#99F876" />
    <path
        d="M156.763 180.988C156.66 180.896 156.616 180.771 156.581 180.653C156.385 180.005 156.319 179.344 156.386 178.712C156.43 178.285 156.536 177.869 156.525 177.432C156.516 177.096 156.437 176.749 156.481 176.421C156.513 176.184 156.609 175.962 156.597 175.717C156.587 175.516 156.503 175.314 156.411 175.119C156.078 174.416 155.585 173.726 154.872 173.26C154.258 172.86 153.53 172.655 152.817 172.527C151.379 172.267 149.928 172.283 148.596 172.57C148.635 173.307 148.61 174.038 148.52 174.754C149.511 174.077 150.723 173.634 152.032 173.469C152.357 173.428 152.71 173.408 153.033 173.547C153.613 173.798 153.831 174.446 153.809 174.971C153.786 175.496 153.609 176.005 153.744 176.539C153.086 176.234 152.414 175.925 151.71 175.798C150.958 175.662 150.216 175.743 149.509 175.866C149.059 175.944 148.604 176.044 148.255 176.278C147.759 176.61 147.536 177.188 147.552 177.776C147.568 178.364 147.8 178.963 148.104 179.529C148.176 179.662 148.254 179.797 148.371 179.909C148.505 180.037 148.678 180.124 148.848 180.207C149.307 180.436 149.765 180.663 150.223 180.891C150.423 180.99 150.627 181.091 150.844 181.132C151.142 181.188 151.431 181.125 151.706 181.062C152.129 180.964 152.551 180.868 152.973 180.77C153.231 180.711 153.536 180.593 153.505 180.349C153.841 180.741 153.874 181.262 154.233 181.639C154.583 182.006 155.146 182.137 155.655 182.192C156.164 182.247 156.723 182.236 157.04 181.937C157.304 181.688 157.342 181.291 157.605 181.042C157.339 181.126 156.99 181.192 156.766 180.99L156.763 180.988ZM153.227 179.863C152.959 180.066 152.514 179.984 152.13 179.892C151.63 179.773 151.075 179.62 150.769 179.234C150.537 178.942 150.508 178.583 150.538 178.26C150.588 177.693 150.838 177.105 151.431 176.921C151.771 176.815 152.17 176.86 152.553 176.906C153.088 177.016 153.632 176.851 153.615 177.448C153.599 178.031 153.525 178.611 153.48 179.19C153.461 179.44 153.431 179.71 153.227 179.864L153.227 179.863Z"
        fill="#99F876" />
    <path
        d="M149.1 172.655C149.242 172.616 149.386 172.582 149.531 172.551C149.529 172.496 149.526 172.441 149.523 172.386L149.1 172.655Z"
        fill="#99F876" />
    <path
        d="M162.884 170.112C162.743 170.561 162.603 171.011 162.463 171.461C162.346 171.832 162.231 172.204 162.164 172.587C162.083 173.047 162.075 173.518 162.028 173.984C161.983 174.437 161.901 174.885 161.819 175.332C161.387 177.689 160.956 180.046 160.524 182.403C160.468 182.71 160.462 183.116 160.757 183.237C160.039 183.004 159.307 182.768 158.552 182.743C158.1 182.728 157.641 182.789 157.199 182.693C157.145 182.682 157.084 182.663 157.057 182.614C157.023 182.553 157.06 182.479 157.095 182.42C157.966 180.965 158.539 179.338 158.767 177.663C158.842 177.118 158.88 176.568 158.955 176.023C159.131 174.734 159.502 173.48 159.673 172.19C159.747 171.633 159.622 170.932 159.786 170.404C159.912 170.003 160.316 169.928 160.695 169.874C161.428 169.769 162.188 169.849 162.883 170.111L162.884 170.112Z"
        fill="#99F876" />
    <path
        d="M120.022 169.101C120.092 168.606 120.187 167.903 120.272 167.411L120.348 167.528C118.915 166.336 117.373 165.201 115.802 164.185C115.035 163.692 114.227 163.183 113.47 162.793C112.729 162.415 112.028 162.184 111.312 161.942C110.958 161.823 110.635 161.725 110.359 161.688C110.151 161.653 109.943 161.654 109.753 161.643C107.647 161.641 106.97 163.094 108.091 165.303C108.954 166.976 111.243 169.038 113.604 170.557C115.18 171.588 116.791 172.457 118.354 173.267C118.629 173.405 118.897 173.531 119.129 173.597C119.21 173.618 119.183 173.553 119.194 173.51C119.203 173.382 119.228 173.132 119.237 173L119.348 171.839L119.782 172.197C118.666 172.075 117.526 172.154 116.089 171.63C115.129 171.28 113.917 170.575 113.043 169.724C112.795 169.494 112.578 169.19 112.372 168.985C112.157 168.794 111.835 168.542 111.708 168.333C111.601 168.207 111.143 167.001 111.081 166.866C110.913 166.452 110.745 166.029 110.664 165.642C110.537 165.064 110.704 164.652 110.887 164.27C111.051 163.873 111.315 163.521 111.875 163.431C112.422 163.333 113.048 163.295 113.905 163.532C114.769 163.767 115.957 164.397 116.84 165.212C117.408 165.729 117.823 166.24 118.24 166.742C119.021 167.699 120.046 168.833 120.045 169.513L119.984 169.478C119.889 168.753 118.857 167.672 118.03 166.71C117.413 165.993 116.776 165.237 115.829 164.633C114.238 163.631 113.091 163.667 112.333 163.848C111.822 163.948 111.615 164.284 111.476 164.673C111.318 165.044 111.16 165.432 111.29 165.973C111.37 166.329 111.538 166.736 111.702 167.148C111.73 167.2 112.218 168.471 112.261 168.496C112.285 168.531 112.297 168.545 112.33 168.577C112.447 168.684 112.609 168.81 112.749 168.946C113.051 169.245 113.147 169.428 113.422 169.696C114.352 170.609 115.746 171.269 116.639 171.458C117.14 171.577 117.594 171.624 118.049 171.668C118.392 171.7 119.582 171.813 119.905 171.844C119.814 172.38 119.69 173.315 119.585 173.839C119.574 173.865 119.556 173.892 119.512 173.904C119.435 173.927 119.302 173.882 119.182 173.838C118.936 173.746 118.662 173.613 118.407 173.48C117 172.726 115.589 171.944 114.177 171.04C113.792 170.796 113.354 170.504 112.975 170.242C112.878 170.174 112.626 169.993 112.531 169.926C112.436 169.859 112.19 169.673 112.092 169.603C110.638 168.513 109.311 167.266 108.452 166.11C106.369 163.233 106.925 161.085 109.558 161.23C109.967 161.23 110.509 161.358 111.076 161.56C111.813 161.815 112.561 162.06 113.395 162.494C114.63 163.155 115.854 163.967 117.057 164.809C118.277 165.67 119.46 166.597 120.562 167.549C120.414 168.024 120.242 168.68 120.082 169.139L120.022 169.101L120.022 169.101Z"
        fill="#21282B" />
    <path
        d="M119.992 167.394C119.999 167.387 120.001 167.376 120.004 167.369C120.016 167.345 120.064 167.343 120.097 167.335C120.477 167.268 121.122 167.468 121.709 167.642C122.395 167.849 123.098 168.071 123.87 168.418C124.374 168.659 125.194 169.005 125.427 169.45C125.623 169.892 125.697 170.267 125.722 170.623C125.734 170.875 125.69 171.102 125.632 171.314C124.102 170.097 123.009 169.541 121.413 168.814C120.737 168.489 120.247 168.389 119.844 168.424C119.64 168.44 119.434 168.455 119.312 168.527C119.058 168.681 119.273 169.143 119.423 169.533C119.509 169.741 119.614 169.957 119.805 170.196C120.599 171.183 122.188 172.242 123.432 172.716C124.199 173.018 124.836 173.116 125.356 173.114L125.347 173.321C125.348 173.354 125.394 173.393 125.454 173.45C125.595 173.577 125.813 173.755 125.916 173.901C126.009 174.033 125.988 174.094 126.121 174.227C126.25 174.359 126.455 174.511 126.673 174.66C127.313 175.099 128.025 175.484 128.633 175.706C128.966 175.832 129.268 175.842 129.176 175.626L129.484 175.891C128.957 175.656 128.297 175.261 128.082 174.836C127.936 174.515 127.967 174.348 127.924 174.093C127.881 173.652 127.883 173.234 127.942 172.85C128.017 172.281 128.305 171.854 128.002 171.097C127.889 170.854 127.606 170.642 127.254 170.372C127.062 170.228 126.836 170.053 126.645 169.895C126.451 169.735 126.271 169.582 126.091 169.44C125.359 168.858 124.499 168.366 123.689 167.876C122.862 167.381 122.021 166.894 121.225 166.56C120.954 166.452 120.659 166.319 120.519 166.36C120.402 166.42 120.408 166.588 120.344 166.69C120.233 166.93 120.092 167.134 119.992 167.395L119.992 167.394ZM119.974 167.411C120.048 167.131 120.075 166.786 120.148 166.493C120.179 166.375 120.152 166.226 120.266 166.158C120.417 166.077 120.811 166.228 121.118 166.344C121.947 166.666 122.845 167.163 123.71 167.664C124.584 168.177 125.484 168.676 126.317 169.326C126.526 169.489 126.716 169.647 126.901 169.795C128.015 170.663 128.556 170.963 128.714 171.738C128.849 172.34 128.639 172.747 128.565 173.223C128.484 173.684 128.469 174.186 128.535 174.731C128.554 175.195 128.822 175.31 129.624 175.692C129.691 175.837 129.768 176.015 129.698 176.083C129.524 176.343 128.733 176.038 128.074 175.704C127.396 175.365 126.079 174.57 125.711 174.031C125.652 173.945 125.641 173.871 125.602 173.806C125.524 173.698 125.393 173.598 125.252 173.462C125.123 173.345 124.995 173.182 125.035 173.119L125.304 173.336C124.064 173.256 121.984 172.317 120.431 170.951C119.802 170.41 119.393 169.884 119.213 169.441C119.028 169.003 118.764 168.51 119.018 168.305C119.143 168.208 119.343 168.179 119.545 168.148C119.842 168.102 120.257 168.12 120.776 168.313C121.112 168.435 121.46 168.595 121.807 168.751C122.676 169.135 123.595 169.605 124.48 170.201C124.837 170.44 125.184 170.691 125.516 170.951L125.156 170.847C125.245 170.537 125.244 170.171 125.153 169.758C125.118 169.613 125.077 169.443 125.01 169.287C124.986 169.241 124.964 169.214 124.936 169.189C124.832 169.1 124.635 168.997 124.497 168.921C124.315 168.823 124.133 168.73 123.951 168.645C123.211 168.296 122.511 168.052 121.824 167.817C121.183 167.6 120.5 167.353 120.083 167.406C120.06 167.412 120.009 167.413 119.973 167.409L119.974 167.411Z"
        fill="#21282B" />
    <path
        d="M123.556 171.427C122.924 171.057 122.352 170.819 122.387 171.207C122.386 171.446 122.249 171.614 122.202 171.82C122.196 171.99 122.458 172.278 122.698 172.543C123.033 172.904 123.514 173.306 123.982 173.536C124.162 173.628 124.394 173.711 124.483 173.693C124.514 173.684 124.537 173.654 124.559 173.608C124.748 173.246 124.831 172.769 125.028 172.415L125.033 172.405C125.033 172.403 125.036 172.403 125.037 172.401C125.037 172.402 125.041 172.404 125.045 172.407C125.047 172.41 125.055 172.414 125.056 172.416C125.076 172.43 125.058 172.406 125.016 172.372C124.568 172.026 124.034 171.707 123.555 171.426L123.556 171.427ZM123.555 171.397C123.936 171.618 124.313 171.802 124.693 171.999C125.003 172.157 125.452 172.406 125.525 172.669C125.577 173.171 125.417 173.534 125.177 173.847C125.084 173.939 125.076 174.059 124.854 174.062C124.162 173.979 123.164 173.146 122.57 172.541C122.258 172.225 121.877 171.878 121.782 171.604C121.688 171.28 121.808 171.093 121.915 170.894C122.107 170.563 122.802 170.952 123.555 171.397L123.555 171.397Z"
        fill="#21282B" />
    <path
        d="M129.353 170.371C129.352 170.968 129.009 171.554 129.94 172.558C130.522 173.197 131.416 173.859 132.274 174.335C132.71 174.577 133.106 174.732 133.507 174.874C134.298 175.158 135.112 175.454 135.519 175.305L136.102 175.112L136.002 175.647C135.957 175.909 136.13 176.303 136.487 176.735L136.314 176.588C137.268 177.191 138.23 177.768 139.195 178.31L139.039 178.397C138.878 178.218 138.754 178.046 138.668 177.891C138.418 177.441 138.445 177.112 138.498 176.824C138.707 175.905 138.881 174.945 139.014 173.979L139.091 173.395L139.19 173.506C138.62 173.164 138.052 172.815 137.486 172.457C136.92 172.1 136.357 171.735 135.797 171.364L135.999 171.427C135.92 171.485 135.982 171.649 136.048 171.826C136.115 172.006 136.154 172.175 136.179 172.334C136.25 172.937 136.245 173.518 136.268 174.095C136.271 174.53 136.235 174.954 136.005 175.252C135.894 175.418 135.567 175.293 135.139 175.102C134.692 174.908 134.235 174.688 133.774 174.445C133.416 174.255 133.008 174.047 132.702 173.755C131.872 172.901 131.965 172.284 132.035 171.83C132.12 171.311 132.192 170.784 132.289 170.272C132.333 170.015 132.377 169.764 132.306 169.458L132.299 169.429L132.295 169.414L132.293 169.407C132.29 169.398 132.295 169.42 132.311 169.443C132.329 169.469 132.336 169.476 132.345 169.487C132.387 169.53 132.388 169.527 132.395 169.534C131.911 169.199 131.374 168.876 130.867 168.56C130.626 168.413 130.232 168.167 129.995 168.028C129.478 167.715 129.448 167.874 129.447 168.078C129.448 168.209 129.442 168.578 129.441 168.715C129.429 169.277 129.412 169.836 129.354 170.372L129.353 170.371ZM129.295 170.337C129.34 169.794 129.338 169.225 129.285 168.628L129.242 168.178C129.232 168.044 129.183 167.839 129.224 167.73C129.269 167.556 129.62 167.659 129.999 167.877C130.264 168.021 130.632 168.245 130.897 168.396C131.452 168.727 132.011 169.037 132.557 169.408C132.62 169.459 132.625 169.454 132.702 169.533C132.715 169.547 132.725 169.557 132.744 169.587C132.761 169.612 132.768 169.637 132.766 169.631L132.769 169.639C132.897 170.019 132.878 170.323 132.847 170.601C132.795 171.14 132.719 171.665 132.656 172.197C132.624 172.462 132.585 172.716 132.672 173.023C132.734 173.223 132.857 173.495 133.092 173.74C133.159 173.802 133.23 173.847 133.326 173.904C133.596 174.059 133.886 174.212 134.157 174.349C134.551 174.546 134.98 174.751 135.351 174.895C135.379 174.904 135.38 174.903 135.399 174.901C135.698 174.66 135.712 174.218 135.737 173.796L135.751 172.952C135.749 172.527 135.816 172.146 135.669 171.648C135.614 171.468 135.543 171.263 135.675 171.183L135.735 171.148C136.876 171.933 138.039 172.691 139.212 173.414L139.318 173.48L139.31 173.525C139.254 173.806 139.157 174.379 139.109 174.666C138.984 175.431 138.889 176.216 138.815 177.011C138.791 177.383 138.796 177.831 139.363 178.439L139.692 178.789L139.207 178.526C138.182 177.974 137.15 177.371 136.134 176.729C135.657 176.172 135.413 175.662 135.49 175.338L135.972 175.679C135.733 175.753 135.367 175.723 134.942 175.602C134.522 175.484 134.088 175.315 133.663 175.151C133.228 174.985 132.744 174.779 132.271 174.499C131.33 173.947 130.404 173.225 129.808 172.538C129.196 171.843 129.177 171.353 129.231 170.951L129.296 170.337L129.295 170.337Z"
        fill="#21282B" />
    <path
        d="M147.519 176.598C147.633 176.188 147.655 175.717 147.577 175.191L147.713 175.337C147.125 175.001 146.583 174.543 146.055 174.133C145.543 173.736 145.011 173.352 144.472 172.975C143.967 172.632 143.392 172.199 142.896 171.92C142.473 171.69 141.797 171.45 141.378 171.276C140.856 171.067 140.349 170.858 140.036 170.856C139.71 170.844 139.546 171.001 139.529 171.249C139.488 172.075 140.923 173.525 142.215 174.711C142.299 174.792 142.989 175.407 143.038 175.474C143.082 175.524 143.041 175.481 143.062 175.502C143.079 175.515 143.109 175.539 143.139 175.561C143.297 175.681 143.434 175.755 143.63 175.884C143.937 176.082 144.215 176.353 144.427 176.584C144.718 176.919 145.164 177.315 145.2 177.581C145.272 178 144.847 178.166 144.098 177.815C143.214 177.392 142.402 176.596 141.803 175.955C141.392 175.514 140.988 175.099 140.499 174.664C140.008 174.223 139.47 173.649 139.528 173.357L139.812 173.559C139.493 173.862 139.355 174.301 139.395 174.838L139.178 174.604C139.448 174.757 139.677 174.977 139.873 175.17C140.132 175.425 140.412 175.67 140.72 175.91C141.464 176.491 142.303 177.019 143.102 177.526C144.32 178.312 145.062 178.676 146.114 178.977C146.47 179.067 147.026 179.309 147.012 179.041C147.02 178.95 147.013 178.801 147.073 178.729C147.158 178.611 147.322 178.569 147.328 178.403C147.336 177.764 146.177 176.532 145.128 175.627C144.613 175.186 143.955 174.696 143.413 174.187C143.259 174.05 143.064 173.819 142.945 173.714C142.724 173.524 142.425 173.35 142.159 173.112C141.888 172.876 141.743 172.629 141.743 172.477C141.749 172.291 141.887 172.177 141.965 172.055C141.999 171.999 142.048 171.952 142.17 171.969C142.355 171.994 142.611 172.147 142.827 172.275C143.291 172.55 143.751 172.835 144.212 173.142C144.776 173.527 145.249 173.991 145.635 174.422C145.785 174.585 145.899 174.753 146.03 174.91C146.166 175.069 146.321 175.212 146.484 175.38C146.709 175.601 146.85 175.826 147.023 176.04C147.187 176.245 147.386 176.452 147.618 176.657L147.478 176.615C147.528 176.325 147.657 176.085 147.866 175.906L147.924 175.95C147.768 176.163 147.681 176.425 147.67 176.734L147.667 176.807L147.529 176.691C147.27 176.473 147.03 176.237 146.838 176.012C146.65 175.797 146.529 175.606 146.301 175.388C146.142 175.231 145.937 175.046 145.791 174.881C145.647 174.718 145.532 174.557 145.384 174.404C145.105 174.104 144.771 173.78 144.414 173.508C144.169 173.32 143.906 173.168 143.65 173.008C143.379 172.842 143.108 172.681 142.839 172.526C142.7 172.446 142.568 172.371 142.522 172.358C142.498 172.351 142.503 172.353 142.492 172.356C142.475 172.363 142.464 172.391 142.455 172.405C142.394 172.512 142.321 172.604 142.29 172.712C142.268 172.773 142.269 172.865 142.386 172.985C142.622 173.203 142.93 173.363 143.22 173.621C143.463 173.835 143.54 173.949 143.732 174.124C144.238 174.586 144.803 175 145.402 175.505C146.943 176.804 148.568 178.69 147.741 179.121C147.637 179.187 147.649 179.292 147.634 179.431C147.628 179.711 147.234 179.679 146.772 179.529C146.148 179.339 145.508 179.147 144.79 178.793C144.212 178.51 143.625 178.141 143.054 177.775C142.204 177.226 141.36 176.687 140.544 176.035C140.151 175.727 139.755 175.352 139.441 175.03C139.277 174.862 139.146 174.8 138.972 174.695C138.954 174.11 139.142 173.645 139.531 173.341L140.003 172.968L139.815 173.543C139.748 173.85 140.469 174.495 140.969 174.963C141.931 175.865 142.734 177.04 144.048 177.691C144.562 177.931 144.905 177.879 144.966 177.653C144.993 177.544 144.996 177.407 144.836 177.212C144.676 177.023 144.42 176.774 144.238 176.576C144.035 176.366 143.819 176.162 143.59 176.02C143.401 175.901 143.131 175.749 142.925 175.582C142.85 175.526 142.793 175.452 142.731 175.397L142.373 175.082C140.778 173.697 138.92 171.918 138.985 170.917C139 170.571 139.274 170.368 139.813 170.454C140.202 170.509 140.726 170.731 141.193 170.92C142.855 171.599 142.828 171.566 144.559 172.816C145.104 173.209 145.651 173.611 146.178 174.036C146.68 174.44 147.164 174.867 147.704 175.194L147.838 175.275L147.84 175.341C147.863 175.843 147.777 176.281 147.575 176.637L147.515 176.596L147.519 176.598Z"
        fill="#21282B" />
    <path
        d="M148.591 172.13C148.699 172.64 148.711 173.101 148.644 173.515L148.402 173.325C148.944 173.366 149.556 173.478 150.223 173.662C150.722 173.798 151.251 173.975 151.799 174.187C152.19 174.342 152.579 174.489 153.018 174.76C153.976 175.356 154.306 176.075 154.215 176.419C154.18 176.653 154.043 176.856 154.158 177.157L154.267 177.445C153.492 176.872 152.676 176.246 151.878 175.763C151.228 175.37 150.555 175.058 149.901 174.79C149.266 174.533 148.585 174.25 148.142 174.249C147.231 174.264 147.62 175.235 148.277 176.139C148.362 176.254 148.473 176.365 148.617 176.481C149.079 176.84 149.584 177.206 150.061 177.563C150.388 177.802 150.707 178.058 151.004 178.215C151.308 178.378 151.613 178.472 151.932 178.581L152.882 178.903C153.086 178.968 153.459 179.115 153.454 179.001L153.377 178.625L153.837 179.136C154.324 179.672 154.27 180.071 155.065 180.608C155.628 180.987 156.546 181.489 157.002 181.563C157.378 181.601 157.332 181.343 157.682 181.327L158.048 181.741C157.417 181.563 156.731 181.159 156.549 180.662C156.365 180.248 156.29 179.881 156.312 179.57C156.328 179.304 156.445 179.117 156.472 178.869C156.492 178.706 156.429 178.507 156.422 178.322C156.395 178.135 156.536 178.011 156.559 177.866C156.556 177.635 156.261 177.24 156.028 176.911C155.217 175.802 153.953 174.946 152.424 174.081C150.968 173.253 149.498 172.566 148.132 172.076L148.107 172.036C149.756 172.544 151.685 173.429 153.558 174.558C154.796 175.298 155.821 176.153 156.483 177.027C156.791 177.446 157.136 177.894 157.143 178.199C157.135 178.348 157.048 178.412 157.026 178.534C157.007 178.648 157.04 178.782 157.066 178.929C157.108 179.132 157.091 179.322 157.045 179.475C156.884 179.886 156.87 180.383 157.201 181.049C157.251 181.117 157.267 181.126 157.363 181.18C157.472 181.239 157.625 181.296 157.771 181.34L159.031 181.73L158.137 181.754C157.942 181.757 157.853 181.922 157.666 181.963C157.445 182.031 156.971 181.887 156.555 181.692C155.743 181.304 154.74 180.757 154.166 180.102C153.832 179.712 153.801 179.435 153.5 179.082L153.883 179.217C153.93 179.476 153.388 179.292 153.03 179.154C152.688 179.027 151.904 178.746 151.564 178.615C150.96 178.391 150.507 178.041 149.962 177.617C149.643 177.372 149.324 177.127 149.003 176.884C148.764 176.7 148.487 176.503 148.287 176.299C147.984 175.968 147.84 175.679 147.674 175.39C147.434 174.937 147.323 174.525 147.494 174.286C147.773 173.858 148.697 174.147 149.787 174.573C151.392 175.175 152.442 175.829 153.992 176.978L153.648 176.93C153.461 176.453 153.758 176.25 153.689 175.862C153.528 175.232 152.893 174.843 151.943 174.477C150.709 173.982 149.563 173.657 148.595 173.532L148.301 173.494C148.386 173.262 148.457 173.014 148.491 172.75C148.52 172.543 148.531 172.325 148.528 172.099L148.586 172.129L148.591 172.13Z"
        fill="#21282B" />
    <path
        d="M152.635 177.801C151.478 177.124 151.079 177.219 150.813 177.573C150.476 177.952 150.761 178.456 152.055 179.207C152.442 179.427 152.951 179.751 153.188 179.725C153.269 179.71 153.293 179.622 153.303 179.513C153.317 179.278 153.37 179.059 153.432 178.855C153.464 178.752 153.51 178.66 153.555 178.565C153.575 178.523 153.592 178.481 153.571 178.432C153.503 178.26 152.872 177.958 152.635 177.801ZM152.637 177.772C152.893 177.929 153.122 178.027 153.381 178.167C153.53 178.246 153.716 178.38 153.806 178.5C153.908 178.63 153.93 178.719 153.95 178.798C154.025 179.089 154.011 179.331 153.982 179.561C153.949 179.736 153.949 179.921 153.852 180.058C153.679 180.304 153.034 180.045 152.386 179.599C151.425 178.948 150.53 178.315 150.358 177.66C150.21 177.186 150.388 176.815 151.111 177.01C151.57 177.133 152.126 177.484 152.637 177.772L152.637 177.772Z"
        fill="#21282B" />
    <path
        d="M163.098 172.639L162.976 173.253C162.897 173.673 162.754 174.039 162.738 174.498C162.721 174.952 162.856 175.509 162.866 175.988C162.875 176.234 162.868 176.467 162.857 176.696C162.772 178.496 162.466 180.205 162.203 181.87C162.207 182.191 161.883 182.761 162.513 183.316L162.464 183.408C161.335 182.498 160.182 181.59 159.069 180.945C158.524 180.622 157.951 180.315 157.383 179.88C157.064 179.623 156.98 179.373 157.105 179.302C157.879 178.641 158.34 177.689 158.394 176.444C158.428 175.787 158.32 175.027 158.366 174.372C158.42 173.513 158.67 172.665 158.718 171.804C158.763 171.411 158.593 170.904 158.584 170.441C158.564 169.972 158.798 169.811 159.584 170.214C160.724 170.797 161.963 171.632 163.097 172.639L163.098 172.639ZM163.039 172.622C161.928 171.757 160.764 171.007 159.728 170.54C159.147 170.273 159.065 170.412 159.11 170.796C159.144 171.141 159.286 171.57 159.34 171.97C159.365 172.163 159.356 172.335 159.355 172.511C159.318 173.683 159.043 174.671 159.133 175.932C159.231 177.647 158.756 178.997 157.581 179.681L157.537 179.709C157.524 179.716 157.515 179.723 157.51 179.729C157.505 179.735 157.506 179.74 157.503 179.731C157.501 179.722 157.487 179.7 157.474 179.687C157.936 180.055 158.515 180.399 159.021 180.715C159.604 181.075 160.204 181.501 160.786 181.946C161.366 182.39 161.938 182.852 162.504 183.309L162.456 183.401C162.34 183.302 162.232 183.187 162.155 183.08C161.938 182.78 161.902 182.545 161.9 182.36L161.939 181.68C162.007 180.317 161.977 178.883 162.117 177.572C162.152 177.114 162.302 176.066 162.311 175.605C162.325 175.146 162.243 174.616 162.311 174.188C162.438 173.561 162.773 173.137 163.04 172.623L163.039 172.622Z"
        fill="#21282B" />
    <defs>
        <clipPath id="clip0_86_8622">
            <rect width="68.3175" height="12.2687" fill="white"
                transform="translate(174.233 95.416)" />
        </clipPath>
        <clipPath id="clip1_86_8622">
            <rect width="25.5248" height="31.6286" fill="white"
                transform="translate(74.2932 47.0469)" />
        </clipPath>
    </defs>
</svg>