<svg width="686" height="642" viewBox="0 0 686 642" fill="none" xmlns="http://www.w3.org/2000/svg">
    <rect width="686" height="642" rx="20" fill="#F3F3F3" />
    <g filter="url(#filter0_d_529_5395)">
        <rect x="62.9385" y="97.8516" width="271.515" height="76.9837" rx="7"
            transform="rotate(1.39129 62.9385 97.8516)" fill="white" />
    </g>
    <text transform="translate(84.584 140) rotate(1.39129)" fill="#21282B" xml:space="preserve"
        style="white-space: pre" font-family="Inter" font-size="16" letter-spacing="0em"><tspan x="0" y="17.8182">Define a feature in Causal</tspan></text>
    <path
        d="M101.901 118.248C98.1098 118.537 94.2516 118.75 90.4542 118.937L89.3106 118.996C87.8261 119.033 86.3135 118.338 85.4538 117.111C84.8723 116.301 84.5515 115.312 84.5366 114.325L84.9733 96.1252L85.0009 94.9915C84.9707 92.3023 87.2855 90.0353 89.9976 90.1258C90.4748 90.1338 91.5014 90.164 91.998 90.1743C107.698 90.5557 128.268 91.0552 143.971 91.4366C146.232 91.3739 148.342 92.9669 148.844 95.1671C148.956 95.6299 148.991 96.1102 148.972 96.5856C148.877 101.219 148.66 108.939 148.559 113.602C148.536 114.177 148.53 115.173 148.507 115.747C148.451 117.809 146.934 119.705 144.925 120.227C144.077 120.479 143.19 120.378 142.321 120.374C140.833 120.447 137.018 119.975 135.476 119.839C132.435 119.532 129.397 119.207 126.357 118.84C129.411 118.623 132.462 118.444 135.514 118.285C136.291 118.249 140.512 118.009 141.235 118.032C141.996 118.064 142.758 118.104 143.519 118.115C144.867 118.197 146.131 117.094 146.208 115.752L146.32 111.275C146.4 107.407 146.625 99.8738 146.675 96.0803C146.571 94.687 145.314 93.6415 143.921 93.7165C139.671 93.615 123.885 93.2299 119.362 93.12C112.378 92.9504 97.0693 92.5786 90.2338 92.4126C88.9849 92.2874 87.7773 93.0114 87.4153 94.2283C87.3294 94.4897 87.3049 94.7718 87.3018 95.0456L87.2742 96.1794L86.8382 114.28C86.8493 115.352 87.6246 116.263 88.5815 116.69C88.997 116.909 90.0289 116.939 90.5066 117C94.2958 117.368 98.13 117.777 101.906 118.244L101.901 118.248Z"
        fill="#21282B" />
    <path
        d="M97.6037 102.334C103.981 101.791 110.357 101.788 116.742 101.92C123.127 102.095 129.496 102.407 135.839 103.262C129.463 103.808 123.085 103.811 116.7 103.675C110.316 103.497 103.947 103.185 97.6037 102.334Z"
        fill="#21282B" />
    <path
        d="M97.4709 107.774C103.848 107.232 110.224 107.229 116.61 107.361C122.994 107.535 129.363 107.848 135.706 108.703C129.33 109.248 122.952 109.252 116.567 109.116C110.183 108.938 103.814 108.625 97.4709 107.774Z"
        fill="#21282B" />
    <path
        d="M114.179 128.73C114.113 128.741 114.048 128.749 113.984 128.76C112.655 130.324 110.972 131.546 109.305 132.75C108.591 133.267 107.869 133.787 107.071 134.164C106.853 134.268 106.455 134.29 106.214 134.284L106.712 113.779C106.736 112.813 106.759 111.85 106.783 110.885C106.786 110.732 106.768 110.542 106.628 110.48C106.654 110.564 106.847 110.491 106.873 110.574L123.778 128.556C123.69 128.582 123.602 128.595 123.513 128.607C121.679 128.847 119.835 128.311 117.987 128.26C117.241 128.241 115.127 128.191 114.541 128.668"
        fill="#99F876" />
    <path
        d="M115.566 125.998L115.37 126.033L115.444 125.993C114.421 127.259 113.17 128.322 111.89 129.32C110.82 130.123 109.789 131.006 108.581 131.618C108.157 131.809 107.677 131.785 107.228 131.79C107.255 125.413 107.256 115.344 107.324 109.054L107.331 108.308L107.332 108.121L107.334 108.028C107.335 108.006 107.335 107.999 107.333 107.992C107.334 107.981 107.326 107.991 107.351 108.066C107.392 108.191 107.529 108.33 107.669 108.388L108.785 107.396C108.712 107.145 108.494 106.938 108.238 106.877C108.146 106.858 108.142 106.865 108.162 106.863C108.19 106.866 108.24 106.862 108.377 106.89L108.43 106.903C108.704 106.976 108.947 107.205 109.033 107.488L108.846 107.168C114.457 113.055 120.537 118.926 125.996 124.923L127.338 126.398C126.678 126.536 125.226 126.928 124.582 126.945C123.009 127.049 121.325 126.638 119.839 126.477C118.746 126.386 117.49 126.288 116.471 126.509C116.502 126.477 116.549 126.429 116.564 126.387C116.589 126.328 116.575 126.324 116.569 126.356C116.525 126.822 116.745 127.385 116.904 127.897C117.028 128.247 117.225 128.825 117.31 129.187C117.97 131.717 118.68 134.225 119.343 136.761L119.127 136.84C117.959 134.483 116.939 132.061 115.973 129.618C115.71 128.855 115.242 128.116 114.96 127.124C114.582 125.812 115.064 124.948 116.452 124.655C118.466 124.226 120.666 124.441 122.641 124.647C123.386 124.707 124.091 124.724 124.809 124.607L124.294 126.501C118.65 120.685 113.156 114.253 107.634 108.292L107.447 107.971C107.522 108.224 107.742 108.432 107.999 108.491C108.09 108.509 108.094 108.502 108.074 108.503C108.053 108.502 107.815 108.477 107.731 108.435C107.493 108.347 107.282 108.131 107.205 107.876L106.665 106.172L108.324 106.883C108.793 107.068 109.009 107.639 108.969 108.066L108.967 108.159L108.959 108.345C108.841 111.379 108.617 116.443 108.484 119.523L107.936 131.446L107.593 131.088C107.833 131.094 108.079 131.093 108.3 131.019C108.758 130.816 109.186 130.566 109.614 130.292C110.937 129.404 112.287 128.492 113.524 127.485C114.143 126.976 114.729 126.432 115.264 125.837L115.296 125.801L115.337 125.795L115.531 125.77L115.568 125.996L115.566 125.998Z"
        fill="#21282B" />
    <g filter="url(#filter1_d_529_5395)">
        <rect x="62.9385" y="201.223" width="261.966" height="101.055" rx="7"
            transform="rotate(1.39129 62.9385 201.223)" fill="white" />
    </g>
    <text transform="translate(84.5859 243.371) rotate(1.39129)" fill="#21282B" xml:space="preserve"
        style="white-space: pre" font-family="Inter" font-size="16" letter-spacing="0em"><tspan x="0" y="17.8182">Manage Causal-defined </tspan><tspan x="0" y="41.8182">features without code</tspan></text>
    <path
        d="M121.777 195.073C121.424 196.21 120.855 197.252 120.417 198.352C119.837 199.808 119.49 201.374 119.392 202.958C119.352 203.596 119.37 204.296 119.731 204.795C120.167 205.399 120.973 205.515 121.658 205.35C122.343 205.184 122.967 204.798 123.632 204.557C125.603 203.841 127.731 204.453 129.776 204.805C132.644 205.299 135.565 205.273 138.47 205.247C138.677 205.244 138.912 205.228 139.044 205.05C139.142 204.917 139.149 204.734 139.154 204.562C139.273 199.382 139.394 194.202 139.514 189.021C133.951 189.137 127.748 188.056 122.29 188.894C122.125 190.983 122.417 193.022 121.777 195.073Z"
        fill="#99F876" />
    <path
        d="M124.415 195.276C124.017 196.534 123.432 197.741 123.212 199.061C123.006 200.274 122.942 201.65 123.068 202.841C123.115 203.096 123.133 203.291 123.258 203.454C123.395 203.597 123.633 203.64 123.845 203.637C124.608 203.578 125.137 203.124 125.927 202.876C126.825 202.565 127.745 202.537 128.599 202.606C130.262 202.763 131.75 203.209 133.38 203.334C134.942 203.484 136.527 203.5 138.126 203.49C138.419 203.483 138.97 203.49 139.264 203.478C139.302 203.479 139.276 203.459 139.169 203.536C139.095 203.574 139.01 203.739 139.003 203.804C139.008 203.701 139.014 203.384 139.016 203.265C139.054 201.537 139.283 191.804 139.326 189.862L140.11 190.74C136.241 190.811 132.495 190.306 128.675 190.346C127.429 190.463 126.191 190.305 124.932 190.301L125.35 189.813C124.948 191.598 124.952 193.529 124.413 195.277L124.415 195.276ZM124.415 195.276C125.031 193.343 124.426 191.344 124.371 189.369C125.768 188.924 127.225 188.524 128.668 188.622C132.754 188.581 136.854 189.146 140.895 189.001L140.874 189.894L140.625 200.617L140.563 203.297L140.555 203.633C140.592 204.6 140.063 205.219 139.186 205.2C139.101 205.201 138.823 205.203 138.732 205.204C136.908 205.221 135.086 205.223 133.24 205.048C131.658 204.932 130.018 204.471 128.476 204.322C127.734 204.261 127.017 204.294 126.373 204.519C125.627 204.778 124.731 205.361 123.871 205.354C122.207 205.404 121.219 203.94 121.6 202.167C121.851 200.554 122.515 199.008 123.292 197.653C123.719 196.885 124.15 196.123 124.413 195.274L124.415 195.276Z"
        fill="#21282B" />
    <path
        d="M132.118 205.886C132.62 206.506 133.037 207.215 133.378 207.957C133.418 208.051 133.417 208.153 133.422 208.253C133.507 208.926 133.598 209.647 133.639 210.323C133.88 214.183 133.565 218.067 133.479 221.918C133.228 222.671 132.946 223.463 132.628 224.189C132.503 223.869 132.357 223.361 132.252 223.025C132.134 222.636 132.034 222.25 131.932 221.861L132.009 219.562C132.058 218.031 132.117 216.491 132.158 214.973C132.196 213.453 132.2 211.948 132.096 210.466C132.043 209.726 131.974 208.991 131.838 208.273C131.947 207.47 132.02 206.702 132.118 205.884L132.118 205.886Z"
        fill="#21282B" />
    <path
        d="M104.254 222.599C104.3 219.87 104.428 217.046 104.553 214.314C105.286 214.409 106.162 214.535 106.896 214.601C108.468 214.895 110.049 215.018 111.651 215.048C122.38 214.917 136.685 214.213 147.441 213.911C150.187 213.815 152.948 213.666 155.698 213.999C156.464 214.075 157.221 214.386 157.964 214.6L157.895 215.192C157.589 217.885 157.48 220.602 157.522 223.317C157.229 221.984 157.004 220.632 156.837 219.269C156.663 217.901 156.564 216.521 156.508 215.137L157.056 215.92C156.007 215.832 154.982 215.63 153.927 215.57C150.844 215.403 147.339 215.673 144.223 215.745C134.702 216.006 121.093 216.684 111.613 216.771C110.511 216.746 109.404 216.683 108.298 216.558L107.468 216.461C106.627 216.398 105.82 216.104 105.019 215.837L105.819 215.221C105.341 217.658 104.802 220.185 104.253 222.599L104.254 222.599Z"
        fill="#21282B" />
    <path
        d="M148.942 239.205C149.914 238.612 150.936 238.169 152.007 237.853C153.345 237.477 154.716 237.162 156.089 237.105C158.594 237.121 161.185 237.221 163.663 236.862C163.727 236.848 163.967 236.82 164.014 236.807C164.039 236.803 164.027 236.799 163.97 236.832C163.914 236.863 163.831 236.958 163.809 237.016C163.782 237.072 163.786 237.091 163.788 237.07C163.792 237.051 163.796 237.003 163.799 236.926C163.986 234.528 163.786 232.195 163.859 229.77C163.882 228.805 164.001 227.771 163.89 226.817C163.463 226.094 162.373 226.671 161.699 226.882C161.085 227.082 160.426 227.133 159.813 227.069C158.429 226.929 157.233 226.283 155.895 226.217C155.677 226.191 155.359 226.229 155.141 226.229C153.786 226.297 152.176 226.003 151.302 227.327C150.722 228.281 150.669 229.631 150.551 230.803C150.536 231.242 150.475 231.716 150.381 232.142C149.919 234.491 149.486 236.86 148.942 239.205ZM148.942 239.205C148.898 236.787 148.886 234.383 148.904 231.965C148.888 231.529 148.944 231.055 149.009 230.625C149.162 229.161 149.228 227.656 150.039 226.342C151.324 224.288 153.594 224.558 155.512 224.494C156.518 224.449 157.581 224.75 158.508 225.029C159.586 225.362 160.599 225.557 161.638 225.101C162.233 224.88 162.898 224.673 163.56 224.769C164.62 224.913 165.489 225.786 165.465 227.048C165.502 227.676 165.485 228.32 165.442 228.944C165.288 231.615 165.554 234.347 165.343 237.039C165.323 237.281 165.313 237.538 165.174 237.824C165.089 238.014 164.911 238.222 164.735 238.326C164.475 238.489 164.289 238.5 164.07 238.539C163.865 238.565 163.65 238.61 163.447 238.629C161.81 238.841 160.141 238.853 158.514 238.848C157.956 238.85 156.641 238.825 156.101 238.871C154.775 238.849 153.453 238.676 152.126 238.751C151.063 238.789 149.978 238.94 148.942 239.206L148.942 239.205Z"
        fill="#21282B" />
    <path
        d="M123.847 238.438C125.84 237.497 127.959 236.901 130.11 236.629C130.606 236.539 131.104 236.598 131.6 236.608C132.91 236.631 134.199 236.686 135.453 236.615C136.709 236.554 137.928 236.344 139.061 235.899L138.546 236.684L138.813 225.03L139.889 225.831C137.656 226.851 135.233 226.58 132.897 226.601C131.622 226.575 130.344 226.52 129.072 226.433C128.112 226.37 127.094 226.07 126.177 226.053C125.601 226.046 125.151 226.127 124.902 226.432C124.637 227.239 124.687 228.246 124.673 229.146C124.663 229.761 124.727 230.375 124.731 230.99C124.664 232.234 124.621 233.493 124.546 234.755C124.475 235.431 124.408 238.233 123.847 238.436L123.847 238.438ZM123.847 238.438C124.286 238.154 123.765 235.42 123.702 234.806C123.523 233.57 123.333 232.334 123.166 231.08C123.119 229.778 123.087 228.529 123.185 227.207C123.255 226.611 123.294 226.023 123.644 225.439C123.998 224.883 124.662 224.523 125.211 224.421C126.576 224.139 127.865 224.616 129.175 224.718C130.982 224.841 132.794 224.902 134.604 224.897C136.158 224.885 137.901 224.918 139.286 224.252L140.391 223.724L140.359 225.055L140.093 236.737L140.079 237.325L139.577 237.522C136.981 238.554 134.217 238.381 131.566 238.331C130.283 238.391 129.022 238.16 127.734 238.184C126.448 238.17 125.151 238.269 123.845 238.438L123.847 238.438Z"
        fill="#21282B" />
    <path
        d="M111.98 226.399C112.027 226.856 112.689 232.523 112.725 232.828C112.844 233.534 112.793 234.251 112.828 234.965C112.863 235.914 112.905 236.863 112.957 237.811L113.012 238.846C110.271 238.423 107.496 238.368 104.708 238.572C101.946 238.762 99.1539 239.159 96.3796 239.537C96.4066 238.676 96.3972 237.779 96.3457 236.896C96.2531 233.926 95.4149 226.818 98.6091 225.593C99.9734 225.066 101.41 225.259 102.785 225.383C103.573 225.459 104.278 225.574 105.052 225.545C105.33 225.527 105.61 225.526 105.885 225.565C108.088 225.835 110.142 226.162 111.981 226.395L111.98 226.399ZM111.98 226.399C109.696 226.643 107.624 226.979 105.703 227.259C105.189 227.331 104.737 227.27 104.197 227.252C103.155 227.177 102.153 227.018 101.135 226.978C100.336 226.964 99.5503 226.945 98.8593 227.35C97.4286 228.578 97.7396 233.149 97.8 235.076C97.8582 236.13 97.9427 237.51 97.9386 238.577L97.074 237.706C102.096 237.022 107.199 236.334 112.276 237.011L111.407 237.922C111.327 236.482 111.282 235.039 111.214 233.598C111.353 231.187 111.617 228.78 111.977 226.395L111.98 226.399Z"
        fill="#21282B" />
    <g filter="url(#filter2_d_529_5395)">
        <rect x="62.9385" y="336.817" width="261.966" height="82.4232" rx="7"
            transform="rotate(1.39129 62.9385 336.817)" fill="white" />
    </g>
    <text transform="translate(84.585 378.966) rotate(1.39129)" fill="#21282B" xml:space="preserve"
        style="white-space: pre" font-family="Inter" font-size="16" letter-spacing="0em"><tspan x="0" y="17.8182">Set up an experiment</tspan></text>
    <g clip-path="url(#clip0_529_5395)">
        <path
            d="M92.246 363.624C102.711 361.924 113.503 366.025 123.883 363.817C123.853 353.003 123.899 342.186 124.01 331.369C118.311 332.578 112.552 333.413 106.764 333.861C103.166 334.14 96.3321 330.444 93.2839 333.096C89.1345 336.735 92.6573 363.557 92.246 363.624Z"
            fill="#99F876" />
    </g>
    <path
        d="M95.2779 365.456C105.741 363.617 116.539 368.107 126.917 365.715C126.87 353.918 126.899 342.119 126.993 330.318C121.296 331.629 115.538 332.531 109.751 333.011C106.153 333.309 99.3134 329.267 96.2691 332.156C92.125 336.105 95.6889 365.37 95.2777 365.443L95.2779 365.456Z"
        stroke="#21282B" stroke-width="1.48026" stroke-miterlimit="10" />
    <path
        d="M136.599 364.149C140.28 364.087 143.961 364.025 147.655 363.975L169.95 363.6C170.035 352.264 169.902 340.931 169.987 329.595C169.959 333.373 139.084 331.328 136.19 330.998C135.846 341.985 136.862 353.113 136.599 364.149Z"
        stroke="#21282B" stroke-width="1.48026" stroke-miterlimit="10" />
    <path
        d="M102.452 356.376C102.978 351.723 104.518 347.266 106.527 343.027C106.966 342.142 107.323 341.259 108.252 340.546C109.366 339.729 110.561 339.608 111.49 339.581C112.607 339.675 113.148 339.373 114.371 340.173C115.031 340.725 115.134 341.319 115.208 341.576C115.336 342.316 115.481 342.617 115.817 343.275C118.105 347.296 119.913 351.82 120.432 356.433C118.714 353.785 117.148 351.181 115.478 348.656C114.522 347.087 112.125 344.158 111.85 342.33C111.837 342.229 111.817 342.432 112.159 342.741C112.559 343.026 112.755 342.956 112.581 342.97C111.93 342.925 110.651 342.912 110.319 343.188C110.087 343.259 109.604 344.246 109.445 344.473C107.163 348.346 104.874 352.523 102.428 356.365L102.452 356.376Z"
        fill="#21282B" />
    <path
        d="M103.313 349.557C104.765 347.39 110.965 346.918 113.302 348.808C109.87 349.615 106.992 349.825 103.313 349.557Z"
        fill="#21282B" />
    <path
        d="M146.465 357.803C145.867 354.023 144.862 347.921 144.165 344.217C144.128 343.98 144.154 344.217 144.189 344.304C144.573 345.311 146 344.724 146.062 343.772L144.533 342.271C147.666 341.118 150.506 339.819 154.049 339.872C154.35 339.904 154.719 339.948 155.202 340.215C156.505 340.869 156.695 342.867 156.259 344.138C155.402 347.456 151.863 348.929 149.497 349.345L149.056 345.661C151.316 345.573 153.587 345.51 155.848 345.497C157.337 345.334 159.721 346.007 160.168 348.051C160.858 351.318 159.105 354.375 156.861 356.077C153.816 358.443 149.886 357.909 146.465 357.803ZM146.465 357.803C150.389 356.686 155.573 356.299 157.265 351.641C157.555 350.948 157.711 349.657 157.49 349.072C157.41 348.961 157.489 349.047 157.231 348.939C154.657 348.882 151.825 349.343 149.219 349.387L148.779 345.703C150.774 345.144 152.462 344.828 153.188 342.989C153.22 342.888 153.24 342.788 153.261 342.687C153.282 342.587 153.259 342.575 153.296 342.787C153.333 343.012 153.606 343.345 153.741 343.393C151.599 343.191 147.841 344.243 145.201 344.9L143.249 345.396L143.672 343.399C143.724 343.148 143.75 342.748 144.278 342.338C145.436 341.656 146.412 342.728 146.509 343.852C146.843 348.488 146.911 353.192 146.488 357.816L146.465 357.803Z"
        fill="#21282B" />
    <g filter="url(#filter3_d_529_5395)">
        <rect x="62.9385" y="470.817" width="261.966" height="106.831" rx="7"
            transform="rotate(1.39129 62.9385 470.817)" fill="white" />
    </g>
    <text transform="translate(84.585 512.966) rotate(1.39129)" fill="#21282B" xml:space="preserve"
        style="white-space: pre" font-family="Inter" font-size="16" letter-spacing="0em"><tspan x="0" y="17.8182">View Causal data in a data </tspan><tspan x="0" y="41.8182">warehouse</tspan></text>
    <path
        d="M109.08 490.653C107.26 490.558 105.446 490.319 103.675 489.946C102.955 489.793 102.23 489.615 101.612 489.265C100.505 488.642 99.8903 487.569 99.3213 486.546C98.8249 485.651 98.3227 484.737 98.1976 483.753C98.0725 482.768 98.3901 481.684 99.2924 481.061C100.485 480.235 102.506 480.285 103.174 479.103C103.349 478.795 103.393 478.446 103.404 478.104C103.447 476.641 102.928 475.091 103.656 473.763C104.246 472.686 105.571 472.005 106.931 471.751C108.291 471.496 109.703 471.598 111.089 471.706C110.742 470.601 111.572 469.486 112.455 468.622C115.644 465.496 120.126 463.352 124.908 462.663C126.123 462.489 127.381 462.405 128.571 462.672C130.936 463.202 132.581 464.976 134.051 466.644C135.91 468.752 137.873 471.23 137.223 473.817C137.599 473.147 138.685 472.968 139.491 473.242C140.297 473.516 140.886 474.104 141.443 474.674C142.591 475.85 143.81 477.339 143.215 478.788C146.223 479.97 148.556 482.614 148.395 485.441C148.235 488.269 145.082 490.888 141.807 490.461"
        fill="#99F876" />
    <path
        d="M105.085 490.388C103.632 490.462 102.167 490.438 100.703 490.303C99.1884 490.16 97.4647 490.037 96.2454 488.915C95.5914 488.351 95.108 487.658 94.6852 487.018C93.7219 485.701 92.8286 483.825 93.3011 482.059C93.5307 481.059 94.2389 480.142 95.131 479.691C96.2367 479.099 97.1923 479.077 98.0752 478.546C98.2545 478.422 98.3167 478.329 98.3531 478.222C98.4888 477.646 98.3666 477.033 98.3302 476.402C97.8752 473.139 99.5023 471.181 102.562 470.499C104.176 470.162 105.725 470.292 107.168 470.4L106.143 471.763C105.955 471.166 105.99 470.499 106.16 469.979C106.61 468.612 107.599 467.746 108.583 466.854C110.973 464.762 113.785 463.248 116.759 462.299C118.241 461.816 119.761 461.495 121.307 461.301C122.911 461.095 124.677 461.167 126.205 461.864C127.779 462.569 129.021 463.73 130.081 464.88C131.698 466.71 133.423 468.499 134.144 470.974C134.385 471.859 134.439 472.871 134.203 473.817L132.368 473.028C132.572 472.663 132.864 472.404 133.149 472.229C134.869 471.203 136.852 472.194 138.044 473.552C138.956 474.501 140.03 475.63 140.319 477.11C140.432 477.684 140.383 478.364 140.141 478.932L139.575 477.545C141.105 478.15 142.498 479.104 143.641 480.39C145.405 482.315 145.798 485.719 144.092 487.796C142.633 489.716 140.057 490.722 137.815 490.195C140.543 490.305 143.544 488.053 143.637 485.238C143.666 483.898 142.919 482.784 142.116 481.79C141.272 480.748 140.093 479.989 138.87 479.495C138.35 479.291 138.091 478.686 138.287 478.148C138.693 477.046 137.376 475.85 136.642 475.043C135.855 474.236 135.014 473.546 134.099 474.08L132.265 473.291C132.4 472.73 132.376 472.143 132.216 471.54C131.602 469.505 130.05 467.936 128.638 466.324C127.178 464.73 125.64 463.473 123.572 463.311C118.824 463.182 113.506 465.287 109.88 468.449C109.209 469.059 108.374 469.759 108.071 470.619C107.996 470.864 108.017 471.001 108.064 471.182C108.206 471.738 107.887 472.306 107.353 472.454C107.245 472.484 107.13 472.494 107.024 472.486C105.59 472.372 104.21 472.282 102.973 472.548C101.761 472.799 100.608 473.493 100.386 474.388C100.099 475.397 100.5 476.915 100.404 478.086C100.378 479.561 99.1953 480.514 97.962 480.875C96.7637 481.331 95.6074 481.317 95.2426 482.588C95.1094 483.116 95.2194 483.634 95.4352 484.153C95.6629 484.723 95.9458 485.388 96.263 486.062C97.2809 488.493 98.5315 488.867 100.843 489.483C102.234 489.856 103.653 490.164 105.091 490.391L105.085 490.388Z"
        fill="#21282B" />
    <path
        d="M126.167 481.829C126.116 481.871 126.09 481.77 126.107 481.728C126.112 481.705 126.132 481.666 126.178 481.656C126.223 481.65 126.246 481.662 126.278 481.679C126.387 481.762 126.391 481.884 126.415 481.961C126.737 483.254 127.019 484.568 127.272 485.874C127.405 486.358 127.3 486.85 127.327 487.342L127.342 489.301L127.404 497.133L126.394 496.099C126.907 496.115 127.137 496.298 127.43 496.469C127.485 496.504 127.508 496.498 127.405 496.469C127.382 496.466 127.347 496.457 127.307 496.458C127.276 496.458 127.302 496.458 127.31 496.458L127.493 496.456C129.617 496.445 133.571 496.405 135.731 496.391L135.404 498.416C134.836 498.233 134.541 497.505 134.675 497.01C134.727 496.774 134.792 496.625 134.905 496.439C135.744 495.131 137.209 494.343 138.735 494.396C139.173 494.41 139.536 494.72 139.656 495.133C139.865 495.84 140.002 496.569 140.074 497.304C140.102 497.908 140.271 498.672 139.884 499.313C139.467 500.159 138.351 500.483 137.569 500.055C136.437 499.465 136.281 498.239 135.863 497.173C136.348 497.589 136.833 498.134 137.325 498.493C137.561 498.655 137.799 498.734 137.959 498.705C138.139 498.698 138.273 498.569 138.209 498.522C138.178 498.501 138.138 498.505 138.114 498.481C138.089 498.457 138.071 498.404 138.09 498.314C138.167 497.53 137.956 496.52 137.741 495.738L138.662 496.475C137.869 496.443 137.023 496.887 136.579 497.588C136.61 497.528 136.619 497.519 136.641 497.426C136.73 497.101 136.465 496.564 136.081 496.448L135.754 498.473C133.456 498.479 129.524 498.534 127.264 498.54C126.831 498.525 126.515 498.319 126.236 498.149C126.21 498.131 126.248 498.175 126.417 498.177L125.407 497.143L125.33 487.348C125.346 486.854 125.236 486.363 125.361 485.88C125.591 484.571 125.858 483.252 126.171 481.957C126.194 481.877 126.207 481.814 126.199 481.775C126.184 481.761 126.201 481.734 126.173 481.752C126.156 481.767 126.127 481.824 126.176 481.82L126.167 481.829Z"
        fill="#21282B" />
    <path
        d="M121.082 484.941C121.47 486.212 121.804 487.606 122.086 488.905C122.208 489.464 122.084 490.04 122.128 490.609C122.134 491.308 122.149 493.283 122.155 494.015L122.227 503.098C122.231 503.673 121.786 504.144 121.233 504.148C120.747 504.131 120.218 504.213 119.827 504.38C119.448 504.529 119.016 504.985 119.057 505.398C119.075 505.467 119.101 505.52 119.199 505.606C119.406 505.789 119.9 505.957 120.433 506.049C120.794 506.105 121.058 506.178 121.306 506.089C121.453 505.9 121.442 505.6 121.517 505.337C121.748 504.778 122.052 504.219 121.864 503.625C121.72 503.132 121.089 502.907 120.663 503.289C120.888 502.48 122.052 502.411 122.606 502.955C124.003 504.153 123.809 507.398 121.94 508.071C121.332 508.302 120.61 508.2 120.083 508.1C118.879 507.904 117.424 507.317 117.106 505.872C116.841 504.585 117.533 503.43 118.495 502.755C119.329 502.21 120.335 502.044 121.248 502.06L120.221 503.111C120.201 500.639 120.141 492.977 120.122 490.624C120.158 490.055 120.025 489.482 120.137 488.921C120.399 487.617 120.714 486.218 121.079 484.941L121.082 484.941Z"
        fill="#21282B" />
    <path
        d="M114.839 482.571C115.212 484.122 115.516 485.698 115.792 487.263C115.954 487.887 115.885 488.507 115.892 489.141L115.9 490.082L115.959 497.601C115.964 498.182 115.51 498.656 114.954 498.652L105.951 498.604C105.156 498.577 104.987 497.828 104.515 497.233C104.417 497.085 104.301 496.895 104.214 496.732L104.202 496.711L104.202 496.717L104.214 496.732C104.272 496.821 104.32 496.827 104.26 496.803C103.933 496.702 102.918 496.477 102.609 496.763C102.255 497.218 102.408 498.167 102.856 498.419C103.136 498.62 103.613 498.61 103.921 498.444C104.086 498.356 104.206 498.248 104.262 498.093C104.406 497.892 104.562 497.65 104.668 497.375C104.792 497.103 105.018 496.434 105.044 496.731C105.081 496.731 105.083 496.669 105.086 496.633C105.086 496.6 105.117 496.552 105.065 496.532C104.925 496.515 104.769 496.772 104.848 496.924C104.93 497.131 105.36 497.262 105.627 496.989C105.335 497.751 104.114 497.465 104.187 496.536C104.181 495.851 104.912 495.297 105.555 495.563C106.123 495.758 106.521 496.41 106.388 497.051C106.38 497.12 106.378 497.186 106.373 497.248C106.35 497.624 106.339 498.055 106.268 498.44C106.171 499.254 105.495 499.947 104.811 500.307C103.375 501.093 101.37 500.489 100.717 498.901C99.9867 497.391 100.558 495.075 102.263 494.645C103.317 494.422 104.036 494.551 105.012 494.867C105.282 494.981 105.647 495.199 105.896 495.605L106.038 495.854L106.163 496.053C106.348 496.337 106.559 496.618 106.797 497.004L105.955 496.516L114.958 496.564L113.953 497.614L113.894 490.095C113.87 489.553 113.912 488.752 113.853 488.216C113.858 487.659 114.032 486.892 114.11 486.335C114.324 485.079 114.557 483.824 114.836 482.571L114.839 482.571Z"
        fill="#21282B" />
    <g filter="url(#filter4_d_529_5395)">
        <rect x="362.455" y="259.138" width="261.966" height="101.055" rx="7"
            transform="rotate(1.39129 362.455 259.138)" fill="white" />
    </g>
    <text transform="translate(384.102 301.286) rotate(1.39129)" fill="#21282B" xml:space="preserve"
        style="white-space: pre" font-family="Inter" font-size="16" letter-spacing="0em"><tspan x="0" y="17.8182">Track user impressions and </tspan><tspan x="0" y="41.8182">events in Causal</tspan></text>
    <path
        d="M406.241 283.83C412.76 283.81 419.279 283.794 425.798 283.782C426.5 283.78 427.203 283.779 427.909 283.778L428.313 261.722L426.935 260.267C426.374 259.676 425.773 259.059 424.97 258.83C423.283 258.35 421.711 259.758 420.567 261.031C418.832 262.96 417.1 264.893 415.365 266.822C413.97 268.376 412.19 270.084 410.062 269.816C408.683 269.645 407.635 268.695 406.534 267.83L406.241 283.83Z"
        fill="#99F876" />
    <path
        d="M389.927 242.354C390.637 242.574 391.191 243.304 391.009 244.064C391.398 247.312 391.548 251.361 391.655 254.875C391.848 265.76 391.596 276.659 389.964 287.454C389.095 280.211 388.978 272.964 389.059 265.695C389.181 258.434 389.534 251.196 390.499 243.983L390.508 243.919L390.508 243.912C390.772 243.375 390.444 242.688 389.924 242.354L389.927 242.354Z"
        fill="#21282B" />
    <path
        d="M386.722 245.404C387.864 243.428 389.413 241.691 390.994 240.027L391.241 241.022C391.658 242.717 393.007 244.111 394.479 245.125C392.423 244.774 390.655 243.233 390.153 241.263L391.116 241.498C389.779 242.918 388.36 244.286 386.726 245.4L386.722 245.404Z"
        fill="#21282B" />
    <path
        d="M443.226 281.341C444.344 282.139 445.556 282.825 446.875 283.223L448.135 283.607L446.947 284.198C445.466 284.934 444.257 286.067 443.24 287.339C443.429 285.553 444.784 284.016 446.453 283.248L446.525 284.222C445.088 283.725 443.807 282.704 443.234 281.338L443.226 281.341Z"
        fill="#21282B" />
    <path
        d="M391.233 272.36C392.985 269.704 394.99 266.92 398.078 265.533C400.029 264.659 402.545 264.374 404.65 265.268C405.855 265.775 406.905 266.764 407.795 267.547C408.732 268.388 409.979 269.245 411.175 269.035C411.954 268.896 412.738 267.941 413.325 267.271C415.675 264.586 418.059 261.913 420.45 259.265C420.972 258.7 421.5 258.025 422.374 257.407C425.124 255.539 427.499 257.447 429.11 259.634C430.028 260.72 432.512 263.96 433.457 265.008C433.534 265.077 433.589 265.103 433.582 265.107C433.574 265.107 433.511 265.105 433.488 265.123C433.462 265.137 433.503 265.13 433.579 265.064C433.655 264.998 433.754 264.892 433.869 264.755C438.041 259.673 442.59 254.237 447.005 249.358L447.174 249.515L445.942 250.273L447.028 249.334L447.654 248.793C443.922 254.507 439.655 260.462 435.616 266C434.19 268.031 432.237 267.368 430.983 265.658L427.889 262.032C427.45 261.532 426.822 260.74 426.379 260.258C425.575 259.455 424.902 258.715 423.903 259.414C423.452 259.723 422.971 260.291 422.422 260.891C420.287 263.241 418.138 265.583 415.969 267.907C414.373 269.636 412.708 271.77 409.93 271.105C407.668 270.625 406.299 268.65 404.728 267.352C403.012 265.973 400.667 265.933 398.551 266.636C395.552 267.636 393.336 270.131 391.229 272.349L391.233 272.36Z"
        fill="#21282B" />
    <path
        d="M384.074 283.342C386.534 283.02 389.123 282.807 391.612 282.717C409.207 282.105 426.861 282.368 444.372 284.294C424.284 285.769 404.122 285.032 384.074 283.342Z"
        fill="#21282B" />
    <path d="M392.185 273.629C391.933 276.149 392.021 278.7 392.453 281.197" stroke="#21282B"
        stroke-width="0.233871" stroke-miterlimit="10" />
    <path d="M395.414 271.369C395.118 274.858 394.826 278.347 394.531 281.833" stroke="#21282B"
        stroke-width="0.233871" stroke-miterlimit="10" />
    <path d="M398.086 270.495L398.028 281.593" stroke="#21282B" stroke-width="0.233871"
        stroke-miterlimit="10" />
    <path d="M403.068 269.2C402.784 273.099 402.496 277.002 402.211 280.901" stroke="#21282B"
        stroke-width="0.233871" stroke-miterlimit="10" />
    <path
        d="M406.764 269.577C406.694 273.986 406.624 278.395 406.555 282.805C406.613 282.663 406.672 282.522 406.731 282.384"
        stroke="#21282B" stroke-width="0.233871" stroke-miterlimit="10" />
    <path d="M411.744 271.672L411.561 281.688" stroke="#21282B" stroke-width="0.233871"
        stroke-miterlimit="10" />
    <path d="M417.267 268.222C416.694 273.182 416.46 278.176 416.571 283.167" stroke="#21282B"
        stroke-width="0.233871" stroke-miterlimit="10" />
    <path d="M420.949 263.051L420.65 279.386" stroke="#21282B" stroke-width="0.233871"
        stroke-miterlimit="10" />
    <path d="M425.598 261.598C425.556 268.535 425.515 275.473 425.474 282.407" stroke="#21282B"
        stroke-width="0.233871" stroke-miterlimit="10" />
    <path d="M429.327 265.366C429.066 270.813 429.156 276.277 429.598 281.715" stroke="#21282B"
        stroke-width="0.233871" stroke-miterlimit="10" />
    <path d="M434.869 267.612C434.409 272.944 434.233 278.296 434.344 283.647" stroke="#21282B"
        stroke-width="0.233871" stroke-miterlimit="10" />
    <path d="M432.248 268.194L432.237 280.834" stroke="#21282B" stroke-width="0.233871"
        stroke-miterlimit="10" />
    <path d="M439.9 261.857L439.112 280.807" stroke="#21282B" stroke-width="0.233871"
        stroke-miterlimit="10" />
    <path d="M442.164 258.201C442.18 266.68 442.193 275.159 442.21 283.638" stroke="#21282B"
        stroke-width="0.233871" stroke-miterlimit="10" />
    <g filter="url(#filter5_d_529_5395)">
        <rect x="362.455" y="407.138" width="276.359" height="101.055" rx="7"
            transform="rotate(1.39129 362.455 407.138)" fill="white" />
    </g>
    <text transform="translate(384.102 449.286) rotate(1.39129)" fill="#21282B" xml:space="preserve"
        style="white-space: pre" font-family="Inter" font-size="16" letter-spacing="0em"><tspan x="0" y="17.8182">Link a Sagemaker model using </tspan><tspan x="0" y="41.8182">Causal-defined features</tspan></text>
    <rect x="383.822" y="420.991" width="46" height="17.3801" rx="3"
        transform="rotate(1.68015 383.822 420.991)" fill="#99F876" />
    <path
        d="M389.41 438.776C389.25 441.1 389.55 443.414 389.934 445.703C390.045 447.336 391.969 447.442 393.282 447.489C394.617 447.516 395.999 447.371 397.359 447.432C398.315 447.464 399.285 447.492 400.237 447.503C401.743 447.563 403.317 447.678 404.83 447.684C409.235 447.738 413.645 447.495 418.016 446.945C419.041 446.799 420.074 446.987 421.061 447.012C421.552 447.043 422.253 447.01 422.555 446.769C422.711 446.586 422.678 446.284 422.66 446.031C422.652 445.993 422.613 445.354 422.606 445.285C422.533 444.099 422.525 442.88 422.61 441.688C422.917 436.967 423.429 429.106 423.741 424.312C423.83 422.145 424.192 419.662 423.958 417.531C423.876 416.859 423.733 416.132 423.358 415.608C423.22 415.422 422.934 415.048 422.794 414.86C420.673 412.079 418.3 409.3 416.81 406.088C416.575 405.6 416.366 405.101 416.153 404.606C415.829 403.958 415.17 403.726 414.338 403.468C412.176 402.919 409.898 402.749 407.648 402.616C404.601 402.459 401.518 402.455 398.473 402.626C397.714 402.676 396.96 402.731 396.219 402.822C395.104 402.996 393.991 403.044 393.447 404.011C393.164 404.554 393.07 405.271 392.996 405.9C392.716 408.867 392.235 412.78 391.962 415.711C391.789 417.242 391.723 418.781 391.559 420.31L391.283 422.616C390.602 427.875 389.514 433.473 389.408 438.776L389.41 438.776ZM389.41 438.776C389.601 433.512 389.574 427.789 389.616 422.5L389.654 420.172C389.696 418.803 389.947 416.899 390.062 415.521C390.296 412.813 390.775 409.017 391.037 406.283C391.147 405.216 391.248 404.104 391.759 403.116C392.572 401.513 394.373 401.103 395.989 400.925C398.343 400.653 400.702 400.598 403.058 400.587C406.207 400.599 409.327 400.702 412.462 401.148C414.148 401.442 416.029 401.654 417.322 402.963C417.666 403.311 417.899 403.785 418.079 404.242C418.514 405.273 419.014 406.273 419.589 407.231C421.117 409.8 423.301 412.25 425.049 414.697C426.314 416.856 425.919 419.753 425.8 422.115C425.519 426.324 425.02 434.149 424.744 438.333C424.666 439.628 424.508 441.64 424.466 442.929C424.447 443.852 424.48 444.804 424.552 445.733C424.6 446.253 424.616 446.739 424.436 447.273C423.544 449.58 420.61 448.803 418.731 448.805C417.995 448.847 417.237 448.987 416.506 449.048C412.621 449.47 408.71 449.646 404.802 449.6C402.457 449.57 400.109 449.528 397.787 449.15C397.507 449.107 396.92 449.029 396.64 448.98C394.53 448.637 389.416 448.805 389.51 445.75C389.421 443.487 389.235 441.023 389.406 438.779L389.41 438.776Z"
        fill="#21282B" />
    <path
        d="M413.669 407.332C414.066 407.952 414.388 408.593 414.684 409.25C414.686 410.371 414.751 412 414.771 413.137C414.79 413.419 414.758 413.931 414.852 414.167C414.865 414.183 414.841 414.155 414.843 414.161C414.961 414.22 415.152 414.245 415.356 414.268C416.283 414.383 417.185 414.406 418.131 414.382C418.763 414.366 419.407 414.337 420.056 414.31C420.386 414.436 420.719 414.565 421.049 414.714C421.338 414.845 421.765 415.036 422.04 415.195C421.776 415.373 421.368 415.583 421.088 415.741C420.771 415.913 420.454 416.069 420.138 416.222C419.492 416.249 418.841 416.28 418.176 416.295C417.179 416.321 416.133 416.292 415.13 416.167C414.692 416.116 414.229 416.045 413.789 415.755C412.901 415.187 412.862 414.095 412.864 413.186C412.834 412.045 412.803 410.425 412.756 409.301C413.021 408.627 413.308 407.974 413.673 407.334L413.669 407.332Z"
        fill="#21282B" />
    <path
        d="M397.467 407.541C397.854 407.072 398.271 406.696 398.7 406.352C398.755 406.314 398.815 406.325 398.877 406.331C398.989 406.334 399.29 406.274 399.409 406.262C402.004 405.912 404.633 405.794 407.249 405.914C407.711 406.217 408.164 406.546 408.6 406.957C408.477 407.047 408.354 407.12 408.233 407.202L407.871 407.419C407.631 407.567 407.396 407.696 407.16 407.825C406.705 407.806 406.25 407.793 405.795 407.785C403.974 407.761 402.152 407.856 400.343 408.071C399.891 408.131 399.439 408.177 398.99 408.265C398.489 408.063 397.945 407.815 397.467 407.543L397.467 407.541Z"
        fill="#21282B" />
    <path
        d="M396.111 413.65C396.501 413.206 396.975 412.824 397.461 412.497C397.963 412.47 398.46 412.421 398.955 412.401C399.945 412.35 400.926 412.333 401.9 412.321C403.332 412.296 404.77 412.325 406.173 412.196C406.575 412.38 406.965 412.629 407.399 412.72C407.458 412.726 407.525 412.724 407.588 412.676C407.681 413.017 407.318 413.315 407.109 413.532C406.871 413.755 406.621 413.929 406.371 414.098C405.845 414.152 405.345 414.173 404.849 414.189C402.902 414.245 400.978 414.212 399.052 414.312C398.578 414.34 398.107 414.359 397.644 414.424C397.142 414.193 396.6 413.924 396.109 413.652L396.111 413.65Z"
        fill="#21282B" />
    <path fill-rule="evenodd" clip-rule="evenodd"
        d="M397.362 428.2C396.827 428.2 396.314 428.39 395.936 428.727C395.557 429.065 395.345 429.523 395.345 430C395.345 430.477 395.557 430.935 395.936 431.273C396.314 431.61 396.827 431.8 397.362 431.8H398.95C399.321 431.8 399.622 432.069 399.622 432.4C399.622 432.731 399.321 433 398.95 433H397.362C396.47 433 395.615 432.684 394.985 432.121C394.354 431.559 394 430.796 394 430C394 429.204 394.354 428.441 394.985 427.879C395.615 427.316 396.47 427 397.362 427H398.915C399.286 427 399.587 427.269 399.587 427.6C399.587 427.931 399.286 428.2 398.915 428.2H397.362ZM401.413 427.6C401.413 427.269 401.714 427 402.085 427H403.638C404.53 427 405.385 427.316 406.015 427.879C406.646 428.441 407 429.204 407 430C407 430.796 406.646 431.559 406.015 432.121C405.385 432.684 404.53 433 403.638 433H402.05C401.679 433 401.378 432.731 401.378 432.4C401.378 432.069 401.679 431.8 402.05 431.8H403.638C404.173 431.8 404.686 431.61 405.064 431.273C405.443 430.935 405.655 430.477 405.655 430C405.655 429.523 405.443 429.065 405.064 428.727C404.686 428.39 404.173 428.2 403.638 428.2H402.085C401.714 428.2 401.413 427.931 401.413 427.6ZM397.392 430C397.392 429.669 397.693 429.4 398.064 429.4H402.992C403.363 429.4 403.664 429.669 403.664 430C403.664 430.331 403.363 430.6 402.992 430.6H398.064C397.693 430.6 397.392 430.331 397.392 430Z"
        fill="#2D3748" />
    <g filter="url(#filter6_d_529_5395)">
        <rect x="359.869" y="102.385" width="290.323" height="102.486" rx="7"
            transform="rotate(1.39129 359.869 102.385)" fill="white" />
    </g>
    <text transform="translate(381.514 144.533) rotate(1.39129)" fill="#21282B" xml:space="preserve"
        style="white-space: pre" font-family="Inter" font-size="16" letter-spacing="0em"><tspan x="0" y="17.8182">Use a Causal-defined feature </tspan><tspan x="0" y="41.8182">in React</tspan></text>
    <circle cx="428.62" cy="124.873" r="12.5" transform="rotate(0.556491 428.62 124.873)"
        fill="#99F876" />
    <path
        d="M422.993 112.547C422.638 109.595 422.319 106.64 422.015 103.684C421.927 103.085 422.016 102.489 421.514 102.079C420.625 101.264 419.684 100.408 418.808 99.5692C416.785 97.4156 414.793 95.2043 412.722 93.108L413.401 93.3977L391.492 93.1849L390.469 93.175C390.507 92.6392 390.58 91.5568 390.617 91.021L392.541 91.1683C392.387 92.9577 392.337 94.7652 392.326 96.586C392.27 106.546 392.055 124.952 391.967 135.087L391.011 134.113C393.422 134.136 395.75 134.62 398.126 134.669C398.596 134.68 398.993 134.673 399.279 134.594C399.688 134.472 400.104 134.195 400.528 134.064C401.1 133.87 401.668 133.734 402.245 133.705C403.351 133.782 404.946 133.864 406.065 133.957C407.968 134.078 411.804 134.375 413.705 134.52C414.978 134.627 416.251 134.725 417.524 134.84C413.294 135.138 408.38 135.382 404.136 135.598C402.957 135.683 402.19 135.59 401.154 135.897C400.682 136.056 400.274 136.337 399.773 136.461C398.585 136.726 397.715 136.572 396.607 136.524C394.715 136.377 392.854 136.063 390.99 136.043L390.025 136.034L390.035 135.071C390.123 124.856 390.337 106.606 390.394 96.5715C390.407 94.7272 390.455 92.866 390.617 91.0016L392.542 91.149L392.466 92.2829L391.513 91.2527L413.422 91.4655L413.821 91.4694C416.002 93.6954 418.099 95.9677 420.235 98.2212C420.875 98.9716 421.505 99.7284 422.149 100.472C422.516 100.918 422.95 101.315 423.156 101.941C423.352 102.558 423.272 103.055 423.275 103.634C423.257 104.625 423.221 105.615 423.194 106.604C423.141 108.585 423.075 110.564 422.993 112.547Z"
        fill="#21282B" />
    <path
        d="M395.862 110.377C396.361 110.253 396.873 110.087 397.317 109.851L397.381 109.847C397.674 109.747 398.01 109.639 398.307 109.547C398.41 109.518 398.513 109.474 398.614 109.471C400.831 109.561 404.96 109.537 407.224 109.58C408.106 109.589 412.585 109.632 413.375 109.64L413.99 109.646C414.093 109.649 414.196 109.62 414.297 109.628C414.815 109.761 415.319 109.961 415.83 110.147C416.238 110.298 416.646 110.459 417.056 110.641C416.143 111.01 415.222 111.352 414.28 111.601C410.864 111.505 405.725 111.515 402.288 111.463L399.828 111.439C399.635 111.437 399.099 111.432 398.906 111.43C398.693 111.46 398.494 111.46 398.291 111.368C397.996 111.271 397.662 111.158 397.372 111.05L397.436 111.047C396.863 110.923 396.341 110.701 395.864 110.373L395.862 110.377Z"
        fill="#21282B" />
    <path
        d="M396.266 117.617C397.063 117.228 397.858 116.934 398.654 116.665C399.447 116.694 400.238 116.687 401.032 116.699C403.404 116.722 408.171 116.768 410.541 116.791L412.919 116.814C413.706 117.103 414.532 117.43 415.288 117.802C414.525 118.159 413.692 118.471 412.9 118.744L410.522 118.721C408.152 118.698 403.381 118.652 401.013 118.629C400.22 118.625 399.428 118.603 398.635 118.616C397.844 118.332 397.056 118.022 396.266 117.617Z"
        fill="#21282B" />
    <path
        d="M396.2 124.332L396.084 124.391L396.085 124.269C396.74 123.947 397.397 123.683 398.075 123.439C398.169 123.407 398.264 123.359 398.358 123.36C398.453 123.361 398.547 123.39 398.641 123.388L398.924 123.391C399.276 123.395 400.256 123.404 400.623 123.408C402.879 123.43 407.425 123.474 409.684 123.496C410.438 123.505 411.193 123.504 411.948 123.524C412.698 123.81 413.484 124.137 414.203 124.505C413.477 124.858 412.683 125.172 411.929 125.441C411.174 125.445 410.42 125.429 409.665 125.426C407.404 125.404 402.862 125.36 400.604 125.338C400.237 125.334 399.262 125.325 398.906 125.321L398.622 125.318C398.401 125.34 398.275 125.367 398.057 125.257C397.384 125.002 396.732 124.723 396.084 124.389L396.085 124.266L396.2 124.328L396.2 124.332Z"
        fill="#21282B" />
    <path
        d="M431.36 117.622C431.488 118.316 431.533 118.975 431.551 119.62C431.06 120.677 429.923 123.336 429.434 124.441C428.743 126.034 428.086 127.597 427.609 129.246C427.204 129.674 426.686 130.26 426.266 130.683C426.014 130.052 425.856 129.379 425.755 128.709C425.924 128.123 426.116 127.548 426.321 126.982C427.024 125.018 428.242 122.381 429.07 120.452C429.3 119.914 429.547 119.384 429.763 118.839C430.25 118.413 430.762 118 431.36 117.622Z"
        fill="#21282B" />
    <path
        d="M434.106 121.425C434.394 121.076 434.868 120.916 435.316 120.903C435.464 120.909 435.66 120.87 435.729 121.005C437.058 122.007 437.256 123.725 437.838 125.122C437.061 125.612 436.262 126.164 435.623 126.827C435.58 126.878 435.522 126.917 435.489 126.981C435.482 127.066 435.357 127.041 435.267 127.053C434.894 127.084 434.505 127.128 434.057 127.158C433.969 126.715 433.962 126.301 433.989 125.891C434.001 125.795 433.979 125.662 434.073 125.637C434.708 125.013 435.379 124.412 436.134 123.931L435.758 125.074C435.61 124.676 435.504 124.304 435.394 123.973C435.2 123.415 435.02 122.884 434.564 122.571C434.483 122.595 434.523 122.456 434.506 122.368C434.482 122.025 434.339 121.689 434.104 121.423L434.106 121.425Z"
        fill="#21282B" />
    <path
        d="M422.736 120.993C422.788 121.439 422.8 121.933 422.783 122.368C422.15 123.018 421.53 123.791 420.95 124.495C420.963 124.474 421.009 124.412 421.042 124.266C421.104 124.078 421.003 123.73 420.894 123.637C421.151 123.901 421.726 124.49 421.99 124.758L422.678 125.462C422.697 125.902 422.723 126.335 422.675 126.841C422.169 126.877 421.736 126.84 421.296 126.81L420.608 126.107L419.92 125.403L419.576 125.05C419.436 124.899 419.366 124.857 419.233 124.59C419.141 124.409 419.097 124.093 419.152 123.871C419.202 123.644 419.289 123.509 419.348 123.42C419.448 123.277 419.469 123.262 419.55 123.16C419.645 123.035 419.925 122.705 420.027 122.577C420.453 122.058 420.908 121.565 421.344 121.056C421.784 120.99 422.282 120.963 422.734 120.995L422.736 120.993Z"
        fill="#21282B" />
    <defs>
        <filter id="filter0_d_529_5395" x="16.2373" y="76.0195" width="344.969" height="155.218"
            filterUnits="userSpaceOnUse" color-interpolation-filters="sRGB">
            <feFlood flood-opacity="0" result="BackgroundImageFix" />
            <feColorMatrix in="SourceAlpha" type="matrix"
                values="0 0 0 0 0 0 0 0 0 0 0 0 0 0 0 0 0 0 127 0" result="hardAlpha" />
            <feOffset dx="-9" dy="14" />
            <feGaussianBlur stdDeviation="18" />
            <feComposite in2="hardAlpha" operator="out" />
            <feColorMatrix type="matrix" values="0 0 0 0 0 0 0 0 0 0 0 0 0 0 0 0 0 0 0.12 0" />
            <feBlend mode="normal" in2="BackgroundImageFix" result="effect1_dropShadow_529_5395" />
            <feBlend mode="normal" in="SourceGraphic" in2="effect1_dropShadow_529_5395"
                result="shape" />
        </filter>
        <filter id="filter1_d_529_5395" x="15.6523" y="179.391" width="336.008" height="179.05"
            filterUnits="userSpaceOnUse" color-interpolation-filters="sRGB">
            <feFlood flood-opacity="0" result="BackgroundImageFix" />
            <feColorMatrix in="SourceAlpha" type="matrix"
                values="0 0 0 0 0 0 0 0 0 0 0 0 0 0 0 0 0 0 127 0" result="hardAlpha" />
            <feOffset dx="-9" dy="14" />
            <feGaussianBlur stdDeviation="18" />
            <feComposite in2="hardAlpha" operator="out" />
            <feColorMatrix type="matrix" values="0 0 0 0 0 0 0 0 0 0 0 0 0 0 0 0 0 0 0.12 0" />
            <feBlend mode="normal" in2="BackgroundImageFix" result="effect1_dropShadow_529_5395" />
            <feBlend mode="normal" in="SourceGraphic" in2="effect1_dropShadow_529_5395"
                result="shape" />
        </filter>
        <filter id="filter2_d_529_5395" x="16.1055" y="314.985" width="335.555" height="160.424"
            filterUnits="userSpaceOnUse" color-interpolation-filters="sRGB">
            <feFlood flood-opacity="0" result="BackgroundImageFix" />
            <feColorMatrix in="SourceAlpha" type="matrix"
                values="0 0 0 0 0 0 0 0 0 0 0 0 0 0 0 0 0 0 127 0" result="hardAlpha" />
            <feOffset dx="-9" dy="14" />
            <feGaussianBlur stdDeviation="18" />
            <feComposite in2="hardAlpha" operator="out" />
            <feColorMatrix type="matrix" values="0 0 0 0 0 0 0 0 0 0 0 0 0 0 0 0 0 0 0.12 0" />
            <feBlend mode="normal" in2="BackgroundImageFix" result="effect1_dropShadow_529_5395" />
            <feBlend mode="normal" in="SourceGraphic" in2="effect1_dropShadow_529_5395"
                result="shape" />
        </filter>
        <filter id="filter3_d_529_5395" x="15.5127" y="448.985" width="336.147" height="184.824"
            filterUnits="userSpaceOnUse" color-interpolation-filters="sRGB">
            <feFlood flood-opacity="0" result="BackgroundImageFix" />
            <feColorMatrix in="SourceAlpha" type="matrix"
                values="0 0 0 0 0 0 0 0 0 0 0 0 0 0 0 0 0 0 127 0" result="hardAlpha" />
            <feOffset dx="-9" dy="14" />
            <feGaussianBlur stdDeviation="18" />
            <feComposite in2="hardAlpha" operator="out" />
            <feColorMatrix type="matrix" values="0 0 0 0 0 0 0 0 0 0 0 0 0 0 0 0 0 0 0.12 0" />
            <feBlend mode="normal" in2="BackgroundImageFix" result="effect1_dropShadow_529_5395" />
            <feBlend mode="normal" in="SourceGraphic" in2="effect1_dropShadow_529_5395"
                result="shape" />
        </filter>
        <filter id="filter4_d_529_5395" x="315.17" y="237.306" width="336.006" height="179.05"
            filterUnits="userSpaceOnUse" color-interpolation-filters="sRGB">
            <feFlood flood-opacity="0" result="BackgroundImageFix" />
            <feColorMatrix in="SourceAlpha" type="matrix"
                values="0 0 0 0 0 0 0 0 0 0 0 0 0 0 0 0 0 0 127 0" result="hardAlpha" />
            <feOffset dx="-9" dy="14" />
            <feGaussianBlur stdDeviation="18" />
            <feComposite in2="hardAlpha" operator="out" />
            <feColorMatrix type="matrix" values="0 0 0 0 0 0 0 0 0 0 0 0 0 0 0 0 0 0 0.12 0" />
            <feBlend mode="normal" in2="BackgroundImageFix" result="effect1_dropShadow_529_5395" />
            <feBlend mode="normal" in="SourceGraphic" in2="effect1_dropShadow_529_5395"
                result="shape" />
        </filter>
        <filter id="filter5_d_529_5395" x="315.17" y="385.306" width="350.395" height="179.399"
            filterUnits="userSpaceOnUse" color-interpolation-filters="sRGB">
            <feFlood flood-opacity="0" result="BackgroundImageFix" />
            <feColorMatrix in="SourceAlpha" type="matrix"
                values="0 0 0 0 0 0 0 0 0 0 0 0 0 0 0 0 0 0 127 0" result="hardAlpha" />
            <feOffset dx="-9" dy="14" />
            <feGaussianBlur stdDeviation="18" />
            <feComposite in2="hardAlpha" operator="out" />
            <feColorMatrix type="matrix" values="0 0 0 0 0 0 0 0 0 0 0 0 0 0 0 0 0 0 0.12 0" />
            <feBlend mode="normal" in2="BackgroundImageFix" result="effect1_dropShadow_529_5395" />
            <feBlend mode="normal" in="SourceGraphic" in2="effect1_dropShadow_529_5395"
                result="shape" />
        </filter>
        <filter id="filter6_d_529_5395" x="312.549" y="80.5527" width="364.391" height="181.169"
            filterUnits="userSpaceOnUse" color-interpolation-filters="sRGB">
            <feFlood flood-opacity="0" result="BackgroundImageFix" />
            <feColorMatrix in="SourceAlpha" type="matrix"
                values="0 0 0 0 0 0 0 0 0 0 0 0 0 0 0 0 0 0 127 0" result="hardAlpha" />
            <feOffset dx="-9" dy="14" />
            <feGaussianBlur stdDeviation="18" />
            <feComposite in2="hardAlpha" operator="out" />
            <feColorMatrix type="matrix" values="0 0 0 0 0 0 0 0 0 0 0 0 0 0 0 0 0 0 0.12 0" />
            <feBlend mode="normal" in2="BackgroundImageFix" result="effect1_dropShadow_529_5395" />
            <feBlend mode="normal" in="SourceGraphic" in2="effect1_dropShadow_529_5395"
                result="shape" />
        </filter>
        <clipPath id="clip0_529_5395">
            <rect width="85" height="33" fill="white"
                transform="translate(85.0156 332.025) rotate(-0.964636)" />
        </clipPath>
    </defs>
</svg>