<svg width="24" height="21" viewBox="0 0 24 21" fill="none" xmlns="http://www.w3.org/2000/svg">
    <path
        d="M15.0705 19.1894C10.0605 19.8468 5.02417 19.9548 0.0128891 19.514C0.0638478 14.1663 0.162869 8.81756 0.308766 3.47284C0.315179 3.23882 0.326332 2.9842 0.428103 2.8065C0.528713 2.63224 0.688005 2.5844 0.836037 2.5433C3.1033 1.93777 5.39184 1.32907 7.68488 1.48645C9.60172 1.61653 11.5104 2.28185 13.4238 1.99531C14.0161 1.90666 14.6307 1.73051 15.1899 2.03219C15.5816 2.24388 15.9056 2.66985 16.214 3.09735C17.9821 5.54591 19.5787 8.28486 20.969 11.2569C19.7485 13.8437 18.1458 16.0055 16.3214 17.5274"
        fill="#99F876" />
    <path
        d="M16.9059 18.6968C14.7791 18.6432 12.4219 19.2018 10.3056 19.0347C9.39364 18.959 8.43325 19.0876 7.49514 19.0495C7.03035 19.0469 6.08639 19.0294 5.62177 19.013C4.37307 18.9726 2.76069 18.2673 1.51401 18.1581L2.0346 19.0204C2.07626 14.64 2.15031 10.2601 2.25565 5.88053C2.28332 5.04602 2.29989 3.60888 2.34187 2.79177C2.34191 2.78833 2.33945 2.80551 2.32788 2.83634C2.3163 2.86718 2.29232 2.90646 2.27645 2.92346C2.24135 2.95915 2.19619 2.56781 2.25004 2.5513C4.12824 2.0474 6.46286 1.52537 8.34636 1.47083C10.844 1.36407 13.5612 2.14842 16.0783 1.57197C17.0093 1.38791 17.1898 2.5436 17.8401 3.4851C18.4842 4.38692 19.1032 5.32973 19.6971 6.31009C20.1729 7.09438 20.6328 7.89912 21.0745 8.72772C21.4129 9.34151 21.6978 10.02 22.0521 10.6134L22.3939 11.2255L22.3968 10.3149C21.8677 11.6386 21.2338 12.8646 20.5297 13.9897C19.8176 15.1183 19.021 16.1407 18.1556 17.0365C19.1147 16.4104 20.0316 15.591 20.8824 14.6123C21.7411 13.6321 22.5193 12.4837 23.2107 11.219L23.4271 10.8224C23.063 9.95526 22.732 9.03515 22.2828 8.2667C21.2679 6.32547 20.1737 4.47444 18.9936 2.77032C18.4076 1.96049 17.8625 0.999713 17.0636 0.657035C16.2433 0.326126 15.5507 0.659621 14.7647 0.695817C13.3767 0.798157 11.989 0.446056 10.5881 0.250429C8.06269 -0.163033 5.48276 0.42636 3.00463 1.09283C2.84981 1.14072 2.62911 1.18431 2.4529 1.24398C1.90113 1.39857 1.57706 2.0846 1.58573 2.95918C1.4329 8.57751 1.33121 14.2154 1.28117 19.8351C3.0199 19.999 4.79297 20.1014 6.53788 20.1345C7.01152 20.1442 7.9579 20.1479 8.4317 20.1455C9.06329 20.1245 9.69481 20.1948 10.3254 20.0774C12.4985 19.7563 14.7591 19.3143 16.9059 18.6968Z"
        fill="#21282B" />
</svg>