<svg width="604" height="324" viewBox="0 0 604 324" fill="none" xmlns="http://www.w3.org/2000/svg">
    <g clip-path="url(#clip0_543_5400)">
        <g filter="url(#filter0_d_543_5400)">
            <rect width="604" height="324" fill="white" />
            <rect x="0.5" y="0.5" width="603" height="323" stroke="#E2E8F0" />
        </g>
        <text fill="#191919" xml:space="preserve" style="white-space: pre" font-family="Inter"
            font-size="20" font-weight="bold" letter-spacing="0em"><tspan x="33" y="110.273">Watch how to do it...</tspan></text>
        <circle cx="39.0316" cy="286.031" r="16.8681" transform="rotate(0.556491 39.0316 286.031)"
            fill="#191919" />
        <path d="M50 285.236L34.25 276.143V294.33L50 285.236Z" fill="#99F876" />
        <ellipse cx="407.748" cy="201.181" rx="170.004" ry="54.6765" fill="#99F876" />
        <path
            d="M289.093 243.078C337.699 258.546 414.156 262.691 475.503 253.367C561.255 240.719 599.764 206.918 560.431 178.843C521.895 150.691 418.44 138.007 333.335 151.057C271.446 160.222 230.701 181.983 234.21 204.297C235.493 215.296 247.025 226.099 266.858 234.946C273.447 237.888 280.896 240.619 289.093 243.078C240.086 228.122 222.712 203.455 246.944 182.968C270.117 162.382 331.668 147.756 398.482 147.22C477.082 146.063 551.996 164.522 569.516 189.738C588.188 215.137 546.619 241.706 474.406 252.583C413.533 262.004 338.405 258.121 289.089 243.079L289.093 243.078Z"
            fill="#21282B" />
        <path
            d="M331.491 209.915L333.13 183.493L296.635 172.06L317.051 160.628L327.342 153.653L332.404 151.424L337.467 149.196L406.242 130.173L475.244 140.499L516.371 153.279L473.09 175.81L474.2 195.602C474.2 195.602 451.453 209.767 437.735 213.86C421.966 218.565 405.926 232.444 405.926 232.444L367.593 219.976C367.593 219.976 355.43 217.959 348.218 215.938C341.331 214.009 331.491 209.915 331.491 209.915Z"
            fill="white" />
        <path
            d="M472.6 178.417C473.952 178.251 474.349 179.707 474.419 180.517L474.57 183.346C474.64 185.235 474.675 187.123 474.663 189.012C474.488 193.664 475.316 194.897 470.677 198.454C468.836 199.771 466.505 200.407 464.511 201.466L461.504 203.005C447.798 210.08 433.17 217.58 419.965 225.135C417.074 226.793 414.405 228.442 412.097 230.616C410.349 232.413 407.319 233.38 404.475 232.33C403.367 231.906 402.423 231.464 401.27 231.141C387.866 227.318 374.707 222.675 360.884 219.865C351.606 218.225 344.238 215.645 335.788 212.098C334.156 211.527 331.673 211.518 330.706 209.915C330.252 207.427 330.776 205.087 331.021 202.637C332.478 195.156 332.478 191.905 333.049 184.359C332.991 191.905 333.247 195.211 332.163 202.719C331.953 204.94 331.65 207.39 331.977 209.556C332.058 209.749 332.454 209.979 332.944 210.154C333.935 210.504 335.077 210.67 336.301 211.002C338.515 211.785 338.634 212.946 340.883 213.637C347.492 215.82 354.38 216.999 361.385 218.317C375.371 221.072 388.577 225.632 402.132 229.428C404.055 229.916 406.002 231.372 408.1 230.847C409.731 230.478 411.072 228.608 412.995 227.336C414.801 226.028 416.748 224.849 418.706 223.753C434.954 214.567 452.728 205.796 469.873 197.735C472.425 195.892 473.393 197.331 473.661 194.65C473.999 190.891 474.185 187.123 474.232 183.346L474.255 180.517C474.279 179.707 473.929 178.316 472.612 178.408L472.6 178.417Z"
            fill="#21282B" />
        <path
            d="M302.011 169.25C299.866 170.383 297.512 171.747 294.995 172.051C309.354 174.262 322.067 180.298 336.31 182.814C342.639 183.984 351.43 185.935 357.444 187.704C364.356 189.648 371.022 192.034 377.666 194.411L376.349 194.788C381.279 186.045 391.268 180.167 400.371 174.299C402.259 173.092 404.124 171.857 405.942 170.586C406.571 170.199 407.177 169.618 407.224 169.057L407.644 169.213C388.564 165.675 369.626 160.304 351.292 154.951C344.556 153.164 338.23 150.974 331.039 152.365C328.638 152.909 326.973 154.729 325.213 156.019C318.161 161.39 310.065 164.901 302.011 169.25ZM302.011 169.25C310.03 164.865 318.095 160.424 324.984 154.951C326.744 153.606 328.236 151.911 330.66 151.303C337.945 149.7 345.334 152.482 352.164 154.141C370.638 159.116 389.135 164.008 408.157 167.472L408.39 167.518C409.229 167.896 409.695 168.854 409.439 169.563C409.077 170.991 407.609 171.83 406.35 172.723C401.944 175.791 397.2 178.592 392.76 181.586C386.932 185.52 381.396 189.915 378.132 195.452L377.701 196.17L376.815 195.83C370.265 193.314 363.715 190.808 356.954 188.745C351.08 186.874 342.269 185.096 336.08 183.797C321.907 180.95 309.366 174.354 294.971 172.106C297.139 171.737 299.913 170.457 301.999 169.278L302.011 169.25Z"
            fill="#21282B" />
        <path
            d="M451.399 151.57C457.635 148.926 466.971 145.296 472.88 142.357C476.621 140.496 481.039 141.814 484.629 143.195C487.869 144.301 492.682 145.609 496.051 146.595C501.809 148.189 507.403 150.151 513.254 151.478C514.816 151.92 519.466 152.197 517.578 154.205C515.853 155.578 513.674 156.389 511.774 157.439C508.58 159.079 499.676 163.584 496.342 165.261C486.144 170.531 475.456 175.22 466.096 181.383C458.054 187.013 459.162 187.151 449.254 183.484C441.865 181.015 434.137 178.463 426.76 175.939C424.965 175.275 422.89 174.879 421.142 173.829C419.463 172.843 418.065 171.645 416.246 171.203C415.384 170.982 414.148 170.991 413.251 170.263C412.482 169.572 412.12 168.789 411.771 168.015L411.689 167.831L411.876 167.702C417.645 163.842 425.07 162.349 431.643 159.632C438.252 156.978 444.814 154.251 451.399 151.561V151.57ZM451.399 151.57C444.849 154.306 438.263 157.006 431.725 159.77C425.268 162.534 417.878 164.192 412.342 168.126L412.447 167.822C412.796 168.55 413.204 169.305 413.822 169.812C414.405 170.291 415.431 170.3 416.48 170.512C418.647 170.991 420.151 172.253 421.759 173.129C423.31 174.031 425.314 174.382 427.226 175.017L432.914 176.786C438.601 178.601 444.313 180.259 450.012 182.047C451.9 182.646 453.812 183.364 455.607 183.954C457.53 184.626 458.59 184.332 460.106 183.263C470.164 175.506 483.335 169.701 495.2 163.833C498.568 162.193 507.555 157.853 510.853 156.287C512.73 155.32 514.828 154.546 516.401 153.431C516.564 153.311 516.471 153.275 516.518 153.44C509.839 151.911 502.496 149.359 495.736 147.222C492.356 146.162 487.671 144.752 484.407 143.555C480.899 142.099 476.691 140.745 472.973 142.523C467.041 145.342 457.6 148.981 451.387 151.579L451.399 151.57Z"
            fill="#21282B" />
        <path
            d="M409.054 169.757C406.746 191.371 411.56 213.353 405.627 234.709C408.355 213.104 403.564 191.159 409.054 169.757Z"
            fill="#21282B" />
        <path
            d="M408.699 127.689C397.584 133.866 384.253 136.15 371.827 139.688C360.898 142.577 345.365 147.143 334.382 150.333C349.237 144.231 364.838 139.491 380.7 135.643C389.896 133.466 400.152 131.32 408.699 127.695L408.699 127.689Z"
            fill="#21282B" />
        <path
            d="M406.781 130.442L342.692 150.234L342.179 150.673L409.833 166.98L472.813 141.404C472.813 141.404 443.243 135.013 441.198 134.781C439.154 134.549 406.781 130.442 406.781 130.442Z"
            fill="#E6E9EA" />
        <g clip-path="url(#clip1_543_5400)">
            <path
                d="M408.233 128.416C419.459 131.522 430.887 133.639 442.426 134.42C446.774 134.781 451.165 134.627 455.459 135.627C458.314 136.213 460.945 137.833 463.751 138.49C466.558 139.153 469.497 138.993 472.351 139.419C473.797 139.614 475.232 140.004 476.545 140.685C475.184 140.129 473.755 139.851 472.319 139.732C469.423 139.496 466.51 139.821 463.613 139.253C462.146 138.987 460.753 138.425 459.387 137.916C453.998 135.603 448.145 136.065 442.352 135.603C430.78 134.781 419.262 132.427 408.233 128.416Z"
                fill="#21282B" />
        </g>
        <path
            d="M413.829 178.542C412.981 180.755 411.51 182.733 409.427 184.447C410.274 182.235 411.755 180.256 413.829 178.542Z"
            fill="#BAC3C8" />
        <path
            d="M415.775 180.153C415.853 180.913 415.485 181.64 415.206 182.325C414.259 184.399 413.099 186.389 411.383 188.206C412.085 185.291 413.947 182.73 415.775 180.162V180.153Z"
            fill="#BAC3C8" />
        <path
            d="M418.72 182.837C416.451 187.579 414.044 192.175 411.383 196.795C412.645 191.843 415.158 187.085 418.72 182.837Z"
            fill="#BAC3C8" />
        <path
            d="M420.678 186.059C418.563 192.33 415.798 198.417 412.362 204.311C414.476 198.04 417.252 191.953 420.678 186.059Z"
            fill="#BAC3C8" />
        <path
            d="M425.08 187.669C422.21 196.792 417.39 205.557 410.894 213.438C416.158 205.047 420.907 196.434 425.08 187.669Z"
            fill="#BAC3C8" />
        <path
            d="M427.526 201.09C424.172 208.358 420.408 215.553 416.275 222.564C419.109 215.151 422.893 207.916 427.526 201.09Z"
            fill="#BAC3C8" />
        <path
            d="M430.951 203.237C429.327 209.117 426.506 214.782 422.635 219.88C425.298 214.255 428.04 208.771 430.951 203.237Z"
            fill="#BAC3C8" />
        <path
            d="M435.352 203.774C434.83 207.909 433.33 211.937 430.95 215.585C432.082 211.532 433.533 207.649 435.352 203.774Z"
            fill="#BAC3C8" />
        <path
            d="M453.823 178.288C455.291 178.712 455.897 178.951 457.214 179.615C455.921 180.352 453.893 179.541 453.823 178.288Z"
            fill="#BAC3C8" />
        <path
            d="M458.344 177.191C460.045 177.993 461.083 178.49 462.819 179.237C460.978 179.872 458.577 178.758 458.344 177.191Z"
            fill="#BAC3C8" />
        <path
            d="M374.361 190.534C375.261 188.394 376.727 186.53 378.711 185.022C377.812 187.161 376.341 189.018 374.361 190.534Z"
            fill="#BAC3C8" />
        <path
            d="M396.644 223.987C396.481 223.729 396.469 223.388 396.632 223.084C397.623 222.577 398.614 222.116 399.593 221.656L402.425 220.292L402.833 220.753C402.367 220.9 401.9 221.103 401.434 221.361C401.632 220.937 401.994 220.559 402.46 220.265L402.868 220.725C401.306 222.07 399.196 223.047 396.912 223.388L397.04 223.305C396.842 223.471 396.69 223.701 396.632 223.977L396.644 223.987Z"
            fill="#BAC3C8" />
        <path
            d="M399.373 225.396C401.145 223.968 403.149 223.019 405.585 222.494C404.047 224.079 401.867 225.092 399.373 225.396Z"
            fill="#BAC3C8" />
        <path
            d="M408.261 130.5C408.004 134.462 408.471 138.156 408.622 142.164C408.855 149.7 408.739 157.236 407.561 164.736C406.384 157.245 406.268 149.7 406.501 142.164C406.641 138.239 406.711 134.277 408.261 130.5Z"
            fill="#BAC3C8" />
        <path
            d="M422.146 200.017C418.202 208.079 414.705 216.762 410.406 224.712C413.465 216.27 416.87 207.765 422.146 200.017Z"
            fill="#BAC3C8" />
        <path
            d="M386.217 152.548C391.77 153.4 396.961 150.551 401.252 147.425C401.907 146.946 402.562 146.448 403.009 145.796C403.451 145.148 403.663 144.381 403.829 143.615C404.891 138.756 404.324 133.521 402.229 128.804C401.675 127.561 401.001 126.326 399.994 125.346C399.361 124.727 398.607 124.229 397.846 123.758C396.403 122.865 394.901 122.065 393.354 121.364C390.667 120.144 387.752 119.207 384.84 119.352C383.216 119.434 381.646 119.849 380.128 120.344C378.671 120.821 377.24 121.375 375.917 122.102C369.906 125.419 366.73 132.567 368.337 139.154C368.598 140.216 368.969 141.27 369.582 142.214C370.298 143.317 371.308 144.227 372.315 145.113C374.665 147.187 377.087 149.235 379.887 150.718C382.687 152.201 385.941 153.089 389.021 152.651"
            fill="#99F876" />
        <path
            d="M383.934 120.555C383.788 121.488 384.576 122.508 385.526 122.6C384.949 121.819 384.549 121.309 383.934 120.555Z"
            fill="#21282B" />
        <path
            d="M381.643 121.497C382.353 122.712 383.607 123.616 384.994 123.894C383.919 122.952 382.882 122.214 381.643 121.497Z"
            fill="#21282B" />
        <path
            d="M378.934 123.095C380.441 124.759 382.544 125.946 384.761 126.363C382.78 125.248 380.915 124.21 378.934 123.095Z"
            fill="#21282B" />
        <path
            d="M376.721 124.871C378.434 127.11 381.297 128.613 384.118 128.739C381.401 127.862 378.987 126.602 376.721 124.871Z"
            fill="#21282B" />
        <path
            d="M374.451 127.801C376.525 130.248 379.439 132.085 382.542 132.9C379.68 131.389 377.044 129.73 374.451 127.801Z"
            fill="#21282B" />
        <path
            d="M372.215 131.252C374.71 134.153 378.444 136.161 382.253 136.629C378.581 135.42 375.251 133.639 372.215 131.252Z"
            fill="#21282B" />
        <path
            d="M370.994 135.558C373.3 137.83 376.408 139.406 379.606 139.931C376.578 138.694 373.776 137.273 370.994 135.558Z"
            fill="#21282B" />
        <path
            d="M371.305 140.113C373.856 142.315 376.969 143.941 380.245 144.763C377.205 143.256 374.281 141.741 371.305 140.113Z"
            fill="#21282B" />
        <path
            d="M373.202 144.714C375.979 146.613 379.237 147.895 382.569 148.387C379.396 147.196 376.333 146.003 373.202 144.714Z"
            fill="#21282B" />
        <path
            d="M375.389 148.626C377.685 149.378 379.751 151.102 382.253 150.996C379.888 150.397 377.878 148.7 375.389 148.626Z"
            fill="#21282B" />
        <path
            d="M402.812 136.853C403.06 145.796 395.534 153.033 386.52 152.42C377.974 152.06 370.507 144.349 370.492 135.939C370.144 127.524 377.279 120.229 385.819 120.35C394.818 120.249 402.669 127.908 402.812 136.853ZM402.812 136.853C402.453 121.956 384.233 113.742 373.543 123.774C366.725 130.121 366.979 141.552 374.078 148.291C385.225 158.933 403.103 151.744 402.812 136.853Z"
            fill="#21282B" />
        <path
            d="M375.989 130.675L362.728 115.254L362.435 115.005H362.034L307.183 115.254L362.028 116.688L361.328 116.444L374.188 132.206L375.989 130.675Z"
            fill="#21282B" />
        <g clip-path="url(#clip2_543_5400)">
            <path
                d="M310.018 80.923C310.301 84.8948 310.186 89.1409 309.947 92.9977C309.947 93.9221 309.978 98.3185 309.978 99.1412C309.952 100.008 309.815 101.967 309.731 102.852C309.664 104.48 309.483 106.382 310.376 107.753C312.273 110.101 315.422 109.77 318.248 109.712C319.866 109.641 321.573 109.836 323.2 109.902C326.274 110.013 329.591 109.924 332.306 108.469L331.864 109.212C332.036 100.021 332.377 90.0122 332.721 80.8611L333.212 81.3919C330.599 81.1397 327.985 80.9009 325.363 80.693C323.399 80.5426 319.459 80.2375 317.496 80.1048C322.763 79.9765 328.03 80.0694 333.292 80.3392L333.77 80.3657L333.778 80.8744C333.88 87.7034 333.765 95.2888 333.716 102.153L333.606 109.243L333.597 109.743C330.417 111.667 326.667 111.786 323.121 111.627C321.48 111.548 319.928 111.353 318.27 111.402C315.205 111.481 311.159 111.49 309.147 108.606C308.028 106.833 308.276 104.679 308.43 102.742C308.519 101.901 308.771 99.9241 308.811 99.1147C308.846 98.3185 309.036 93.8735 309.076 92.9844C309.554 88.9772 309.916 84.9612 310.018 80.923Z"
                fill="#21282B" />
            <path
                d="M314.96 85.5962C313.838 86.6686 313.282 88.2876 313.505 89.8121C313.579 90.3272 313.739 90.8284 313.905 91.326C314.025 91.68 314.149 92.0374 314.358 92.3493C314.68 92.8259 315.173 93.1624 315.651 93.4848C316.295 93.9158 316.954 94.3574 317.704 94.5571C319 94.9041 320.388 94.4905 321.574 93.8632C321.957 93.6635 322.332 93.4357 322.643 93.1378C323.709 92.118 323.844 90.5025 323.911 89.0341C323.649 88.8939 323.369 89.2163 323.072 89.2444C322.562 89.2934 322.385 88.5329 321.914 88.3367C321.564 88.1895 321.139 88.3963 320.781 88.2596C320.438 88.1299 320.285 87.7339 320.211 87.3765C320.137 87.019 320.087 86.6265 319.825 86.3707C319.722 86.2691 319.591 86.1955 319.489 86.0938C319.043 85.6558 319.386 85.1476 319.198 84.664C319.025 84.2295 318.55 84.2154 318.143 84.233C316.971 84.282 315.799 84.7902 314.957 85.5962H314.96Z"
                fill="#99F876" />
            <path
                d="M319.049 94.9878C318.152 94.9878 317.29 94.7923 316.484 94.4014C315.286 93.8201 314.384 92.9331 313.773 91.7454C313.488 91.1942 313.302 90.6078 313.202 89.9914C313.117 89.4652 313.102 88.9391 313.167 88.4079C313.257 87.6562 313.472 86.9445 313.833 86.278C314.364 85.3008 315.106 84.5291 316.063 83.9628C316.624 83.632 317.22 83.4015 317.857 83.2712C318.403 83.161 318.959 83.1159 319.515 83.171C319.721 83.191 319.926 83.2211 320.131 83.2562C320.282 83.2812 320.382 83.3714 320.422 83.5168C320.462 83.6521 320.432 83.7774 320.332 83.8726C320.282 83.9227 320.212 83.9578 320.151 83.9929C319.951 84.1181 319.826 84.2885 319.796 84.5241C319.751 84.8598 319.931 85.1755 320.252 85.3058C320.272 85.3158 320.297 85.3209 320.317 85.3309C320.522 85.4061 320.612 85.5714 320.567 85.7819C320.492 86.1377 320.527 86.4785 320.703 86.7942C320.983 87.2953 321.414 87.5609 321.985 87.581C322.101 87.581 322.216 87.5609 322.331 87.5409C322.541 87.5058 322.707 87.591 322.782 87.7965C322.852 87.9919 322.967 88.1423 323.153 88.2425C323.513 88.4279 323.939 88.2876 324.135 87.9268C324.19 87.8215 324.26 87.7313 324.375 87.6912C324.566 87.6311 324.776 87.7263 324.831 87.9167C324.871 88.052 324.896 88.1974 324.906 88.3427C324.931 88.6133 324.956 88.8889 324.956 89.1596C324.956 89.7659 324.846 90.3523 324.656 90.9286C324.455 91.5349 324.165 92.0912 323.779 92.6024C323.223 93.344 322.526 93.9304 321.695 94.3513C321.229 94.5869 320.738 94.7572 320.232 94.8625C319.841 94.9427 319.44 94.9878 319.039 94.9878H319.049ZM324.21 88.8789C324.175 88.894 324.14 88.909 324.11 88.924C323.799 89.0744 323.478 89.1145 323.148 89.0293C322.762 88.929 322.456 88.7135 322.241 88.3728C322.216 88.3327 322.191 88.3176 322.146 88.3227C321.905 88.3527 321.665 88.3227 321.434 88.2575C320.678 88.037 320.171 87.5459 319.901 86.8142C319.811 86.5687 319.771 86.3081 319.791 86.0475C319.796 85.9523 319.776 85.9022 319.696 85.8471C319.104 85.4411 318.849 84.6543 319.214 83.9678C319.225 83.9528 319.23 83.9377 319.24 83.9077C318.473 83.8776 317.751 84.0029 317.055 84.2985C316.018 84.7345 315.201 85.4361 314.615 86.3983C313.412 88.3728 313.678 90.9035 315.246 92.5973C316.85 94.3263 319.425 94.7673 321.524 93.6197C323.524 92.5222 324.305 90.4575 324.205 88.8839L324.21 88.8789Z"
                fill="#21282B" />
            <path
                d="M318.307 86.1128C318.307 86.5187 317.972 86.8494 317.571 86.8494C317.16 86.8494 316.824 86.5087 316.829 86.0977C316.829 85.7018 317.17 85.3711 317.571 85.3711C317.972 85.3711 318.313 85.7069 318.307 86.1128Z"
                fill="#21282B" />
            <path
                d="M316.825 89.0697C316.825 89.4756 316.494 89.8063 316.088 89.8063C315.677 89.8063 315.341 89.4706 315.346 89.0597C315.346 88.6638 315.687 88.333 316.088 88.333C316.494 88.333 316.83 88.6688 316.825 89.0747V89.0697Z"
                fill="#21282B" />
            <path
                d="M319.045 92.0257C319.045 91.6298 319.38 91.2941 319.781 91.2891C320.187 91.2891 320.523 91.6198 320.523 92.0257C320.523 92.4266 320.192 92.7624 319.791 92.7624C319.385 92.7624 319.05 92.4317 319.045 92.0207V92.0257Z"
                fill="#21282B" />
            <path
                d="M319.786 89.4402C319.786 89.6456 319.616 89.811 319.415 89.811C319.21 89.811 319.045 89.6406 319.045 89.4352C319.045 89.2347 319.215 89.0693 319.415 89.0693C319.616 89.0693 319.786 89.2397 319.786 89.4402Z"
                fill="#21282B" />
            <path
                d="M322.747 90.9187C322.747 91.1241 322.576 91.2895 322.371 91.2895C322.165 91.2895 322 91.1191 322.005 90.9137C322.005 90.7132 322.175 90.5478 322.381 90.5528C322.581 90.5528 322.747 90.7232 322.747 90.9237V90.9187Z"
                fill="#21282B" />
            <path
                d="M317.566 91.6549C317.566 91.8604 317.401 92.0257 317.195 92.0257C316.99 92.0257 316.825 91.8553 316.825 91.6549C316.825 91.4544 316.995 91.2891 317.195 91.2891C317.396 91.2891 317.566 91.4594 317.566 91.6549Z"
                fill="#21282B" />
            <path
                d="M314.732 98.1592C314.741 98.5617 314.825 99.1942 315.32 99.2118C315.833 99.203 316.333 98.4688 316.978 98.5661C317.345 98.628 317.633 98.9022 317.973 98.9553C318.389 99.0526 318.84 98.9951 319.207 98.7917L319.393 98.6855L319.49 98.8713C320.118 99.6011 321.064 98.6192 321.914 98.5838C322.444 98.5396 322.82 98.8801 323.311 98.8713C323.802 98.8845 324.284 98.6678 324.633 98.3273L324.735 98.4644C325.535 99.3622 327.141 98.5263 327.954 99.4551C327.481 99.057 326.844 99.119 326.265 99.1455C325.655 99.1676 324.929 99.1942 324.478 98.6722L324.717 98.6899C324.35 99.057 323.833 99.2649 323.311 99.2693C322.842 99.318 322.369 98.9907 321.94 99.0172C321.538 99.0438 321.148 99.3091 320.653 99.4728C320.136 99.632 319.433 99.6276 319.119 99.0747L319.402 99.1588C318.707 99.5303 317.814 99.433 317.199 98.9863C316.523 98.5263 316.01 99.4595 315.302 99.3799C314.714 99.2959 314.666 98.6192 314.727 98.1592H314.732Z"
                fill="#21282B" />
            <path
                d="M313.803 102.259C314.002 101.777 314.498 101.436 315.037 101.379C315.581 101.29 316.076 101.644 316.518 101.874C317.425 102.308 318.473 102.206 319.442 102.016L319.601 101.98C319.782 102.609 320.565 102.878 321.206 102.684C321.922 102.471 322.533 101.839 323.099 101.295L323.169 101.68C323.262 102.171 323.899 102.489 324.443 102.418C325.022 102.352 325.562 102.007 326.079 101.649L326.247 101.534L326.3 101.724C326.694 102.847 328.189 102.622 329.108 102.29C328.6 102.516 328.065 102.737 327.477 102.737C326.88 102.737 326.238 102.414 326.031 101.812L326.247 101.883C325.725 102.281 325.177 102.701 324.496 102.803C323.78 102.9 322.926 102.547 322.749 101.768L323.107 101.879C322.365 102.64 321.312 103.48 320.176 103.077C319.804 102.958 319.446 102.684 319.296 102.29L319.521 102.414C318.491 102.6 317.35 102.635 316.399 102.113C315.935 101.848 315.554 101.507 315.05 101.534C314.564 101.543 314.064 101.812 313.808 102.259H313.803Z"
                fill="#21282B" />
            <path
                d="M313.662 106.156C313.984 105.82 314.387 105.554 314.816 105.368C314.962 105.311 315.108 105.24 315.298 105.24C315.501 105.24 315.669 105.395 315.762 105.514C316.028 105.895 316.426 105.983 316.877 105.983C318.69 105.908 320.534 105.643 322.307 105.214C322.696 105.13 323.05 105.019 323.444 104.926C323.541 104.904 323.7 104.926 323.793 104.997C323.974 105.138 324.014 105.223 324.138 105.28C324.651 105.537 325.31 105.293 325.885 105.32C326.521 105.346 327.145 105.563 327.631 105.948C327.092 105.647 326.482 105.492 325.885 105.537C325.15 105.594 324.186 105.957 323.594 105.307C323.558 105.289 323.554 105.289 323.501 105.298C323.147 105.399 322.767 105.523 322.409 105.616C320.596 106.089 318.747 106.35 316.863 106.315C316.545 106.293 316.2 106.235 315.908 106.028C315.599 105.82 315.515 105.453 315.28 105.448C314.705 105.475 314.126 105.811 313.657 106.147L313.662 106.156Z"
                fill="#21282B" />
        </g>
        <path
            d="M435.009 118.066C429.674 115.287 423.623 116.051 418.397 117.393C417.599 117.6 416.795 117.824 416.155 118.264C415.522 118.703 415.085 119.334 414.694 119.981C412.21 124.08 411.252 129.11 411.984 134.212C412.178 135.557 412.496 136.938 413.223 138.203C413.679 139.001 414.292 139.731 414.919 140.438C416.11 141.779 417.387 143.056 418.738 144.258C421.084 146.347 423.743 148.257 426.712 149.169C428.37 149.676 430.069 149.857 431.74 149.946C433.344 150.029 434.944 150.032 436.487 149.836C443.499 148.935 448.777 143.484 449.083 136.834C449.13 135.761 449.063 134.656 448.723 133.565C448.325 132.291 447.574 131.09 446.82 129.911C445.062 127.155 443.223 124.398 440.841 122.025C438.458 119.653 435.445 117.666 432.219 116.964"
            fill="#99F876" />
        <path
            d="M414.651 132.663C415.557 141.48 423.393 149.151 431.601 149.173C439.411 149.412 445.297 142.313 444.244 134.007C443.497 125.718 436.013 118.016 428.178 117.541C419.894 116.816 413.647 123.837 414.651 132.663ZM414.651 132.663C413.092 117.972 428.798 111.124 439.897 121.777C446.969 128.521 448.185 139.795 442.514 145.959C433.617 155.696 416.272 147.352 414.651 132.663Z"
            fill="#21282B" />
        <path
            d="M437.369 118.021C438.276 120.392 437.629 122.995 435.742 124.534C436.907 122.528 437.446 120.396 437.369 118.021Z"
            fill="#21282B" />
        <path
            d="M439.428 119.078C439.692 121.587 439.153 126.423 436.245 127.455C437.68 126.523 437.981 124.967 438.438 123.545C438.869 122.089 439.155 120.601 439.428 119.078Z"
            fill="#21282B" />
        <path
            d="M442.718 122.634C441.365 124.853 441.283 127.493 440.445 129.921C439.688 132.308 437.585 134.753 434.182 134.583C441.2 133.838 439.46 126.337 442.718 122.634Z"
            fill="#21282B" />
        <path
            d="M443.961 126.031C443.32 128.558 442.502 131.027 441.474 133.431C440.308 135.669 439.569 138.62 436.545 139.65C439.241 138.286 439.721 135.461 440.892 133.21C441.943 130.829 442.867 128.4 443.961 126.031Z"
            fill="#21282B" />
        <path
            d="M445.21 130.265C443.645 134.704 441.552 139.217 437.273 142.149C436.985 142.336 436.687 142.514 436.389 142.693C436.64 142.471 436.899 142.262 437.159 142.049C440.936 138.764 442.922 134.393 445.216 130.267L445.21 130.265Z"
            fill="#21282B" />
        <path
            d="M445.316 136.198C444.212 139.867 441.379 142.951 437.54 144.681C437.888 144.426 438.402 144.058 438.744 143.786C441.516 141.687 443.697 139.096 445.316 136.198Z"
            fill="#21282B" />
        <path
            d="M443.935 140.977C442.568 144.153 439.727 146.734 436.136 148.037C439.271 146.122 441.862 143.785 443.935 140.977Z"
            fill="#21282B" />
        <path
            d="M441.691 129.542L455.689 116.11L455.998 115.894H456.421L504.948 116.11L456.428 117.359L457.167 117.147L443.592 130.876L441.691 129.542Z"
            fill="#21282B" />
        <path
            d="M479.64 80.9086C479.881 85.0318 479.716 89.3609 479.451 93.3881C479.448 94.3452 479.451 98.887 479.444 99.7377C479.444 102.479 478.556 105.689 479.585 108.3C479.661 108.423 479.751 108.646 479.85 108.753C481.833 111.257 485.215 110.948 488.175 110.886C491.51 110.821 494.951 111.418 498.268 110.941C499.893 110.742 501.483 110.334 502.863 109.576L502.518 110.152C502.639 103.624 502.887 94.6985 503.086 88.1706L503.317 80.8468L503.699 81.2585C500.987 81.0149 498.272 80.7851 495.553 80.5827C494.194 80.4832 492.835 80.394 491.472 80.3117L487.394 80.0613C492.979 79.9995 498.564 80.1368 504.139 80.4626C504.215 87.3782 504.057 95.8923 503.998 102.846L503.878 110.176L503.871 110.564C499.06 113.397 493.454 112.217 488.196 112.193C485.677 112.21 482.707 112.382 480.432 110.869C479.651 110.324 478.914 109.651 478.532 108.759C477.438 105.861 478.412 102.671 478.532 99.7137C478.567 98.8904 478.735 94.2972 478.77 93.3744C479.258 89.2374 479.585 85.0764 479.64 80.9086Z"
            fill="#21282B" />
        <path
            d="M483.567 102.962C483.887 102.204 484.916 101.837 485.663 102.214C486.351 102.616 487.053 102.945 487.869 102.921C488.43 102.928 488.994 102.856 489.548 102.739C489.659 103.082 489.937 103.336 490.295 103.446C491.448 103.802 492.381 102.835 493.169 102.087L493.224 102.375C493.341 102.959 494.057 103.254 494.614 103.178C495.23 103.103 495.791 102.736 496.328 102.362L496.459 102.273L496.5 102.42C496.944 103.614 498.482 103.35 499.446 102.993C498.916 103.216 498.358 103.439 497.753 103.432C497.147 103.422 496.496 103.096 496.29 102.489L496.459 102.544C495.922 102.948 495.351 103.377 494.655 103.473C493.94 103.569 493.086 103.209 492.911 102.444L493.179 102.526C492.422 103.302 491.355 104.163 490.199 103.751C489.827 103.631 489.473 103.363 489.318 102.976L489.49 103.068C488.43 103.267 487.26 103.312 486.279 102.78C485.804 102.513 485.395 102.159 484.861 102.194C484.349 102.211 483.832 102.496 483.574 102.962H483.567Z"
            fill="#21282B" />
        <path
            d="M483.423 106.989C483.763 106.65 484.18 106.379 484.627 106.197C484.778 106.138 484.93 106.066 485.119 106.07C485.319 106.07 485.481 106.221 485.577 106.344C485.852 106.742 486.286 106.852 486.757 106.852C488.013 106.811 489.29 106.674 490.539 106.454C491.568 106.286 492.57 106.032 493.578 105.765C493.674 105.744 493.819 105.765 493.908 105.83C494.487 106.505 495.326 106.142 496.104 106.152C496.761 106.173 497.405 106.385 497.914 106.773C497.363 106.451 496.727 106.282 496.104 106.32C495.34 106.368 494.363 106.746 493.753 106.07C493.647 106.011 493.537 106.084 493.413 106.111C492.491 106.396 491.551 106.619 490.598 106.787C489.324 106.999 488.051 107.13 486.747 107.109C486.42 107.089 486.069 107.034 485.776 106.828C485.467 106.629 485.377 106.241 485.109 106.231C484.503 106.265 483.908 106.622 483.423 106.982V106.989Z"
            fill="#21282B" />
        <path
            d="M495.774 91.0382C493.496 91.1445 490.963 91.2063 488.667 91.2611C488.468 91.2611 487.37 91.2886 487.188 91.2886C485.04 91.3675 483.399 89.1686 483.801 87.1242C484.052 85.3815 485.735 84.0197 487.504 84.1775L492.239 84.1946C493.017 84.2015 495.041 84.2221 495.791 84.2324C497.085 84.1638 498.355 84.843 498.953 85.9853C500.013 87.8136 499.05 90.4516 496.958 90.9661C496.569 91.069 496.163 91.0656 495.77 91.0382C498.307 91.1582 499.852 88.3042 498.565 86.2083C498.048 85.3404 497.095 84.7778 496.087 84.8018C495.911 84.8121 494.81 84.8121 494.607 84.819L492.239 84.843L487.504 84.8601C486.021 84.7195 484.696 85.776 484.441 87.2339C484.101 88.829 485.25 90.5991 486.916 90.7637C487.28 90.7946 488.285 90.798 488.667 90.8118C490.966 90.8632 493.489 90.9353 495.774 91.0347V91.0382Z"
            fill="#21282B" />
        <path
            d="M496.802 99.2706H488.195C486.485 99.2706 485.098 97.8127 485.098 96.0117C485.098 94.2108 486.485 92.7529 488.195 92.7529H497.143C498.853 92.7529 500.24 94.2108 500.24 96.0117C500.24 97.8127 498.853 99.2706 497.143 99.2706H496.802Z"
            fill="#99F876" />
        <path
            d="M495.77 98.9278C493.492 99.0342 490.959 99.0959 488.663 99.1508C488.464 99.1508 487.366 99.1782 487.184 99.1782C485.036 99.2571 483.395 97.0583 483.797 95.0138C484.049 93.2712 485.731 91.9093 487.5 92.0671L492.236 92.0843C493.013 92.0912 495.037 92.1117 495.787 92.122C497.081 92.0534 498.351 92.7326 498.95 93.8749C500.01 95.7033 499.046 98.3412 496.954 98.8558C496.565 98.9587 496.159 98.9553 495.766 98.9278C498.303 99.0479 499.848 96.1938 498.561 94.0979C498.044 93.23 497.091 92.6674 496.083 92.6915C495.907 92.7018 494.806 92.7018 494.603 92.7086L492.236 92.7326L487.5 92.7498C486.017 92.6091 484.692 93.6657 484.437 95.1236C484.097 96.7187 485.246 98.4887 486.912 98.6534C487.277 98.6843 488.281 98.6877 488.663 98.7014C490.962 98.7529 493.485 98.8249 495.77 98.9244V98.9278Z"
            fill="#21282B" />
        <circle cx="487.528" cy="87.8878" r="2.09096" fill="#21282B" />
        <path
            d="M489.404 87.7797C489.562 89.8208 487.17 90.7298 485.756 89.3577C484.348 87.9959 485.377 85.5226 487.339 85.55C488.653 85.55 489.462 86.5311 489.404 87.7797ZM489.404 87.7797C489.366 86.7609 488.326 85.9034 487.339 85.8931C486.324 85.8725 485.425 86.7678 485.446 87.7797C485.425 88.7917 486.324 89.687 487.339 89.6664C488.316 89.663 489.369 88.7848 489.404 87.7797Z"
            fill="#21282B" />
        <circle cx="495.892" cy="95.7287" r="2.09096" fill="white" />
        <path
            d="M498.007 95.6694C498.165 97.7104 495.773 98.6195 494.359 97.2474C492.952 95.8855 493.98 93.4122 495.942 93.4397C497.257 93.4397 498.065 94.4208 498.007 95.6694ZM498.007 95.6694C497.969 94.6506 496.93 93.793 495.942 93.7827C494.927 93.7621 494.029 94.6574 494.049 95.6694C494.029 96.6813 494.927 97.5767 495.942 97.5561C496.919 97.5527 497.972 96.6745 498.007 95.6694Z"
            fill="#21282B" />
        <path
            d="M396.128 82.2501C390.396 83.1212 385.667 87.4133 381.89 91.6975C381.315 92.353 380.741 93.0266 380.404 93.7843C380.071 94.5365 379.991 95.3324 379.955 96.1141C379.726 101.072 381.198 105.895 384.12 109.761C384.891 110.779 385.782 111.754 386.964 112.383C387.708 112.781 388.552 113.028 389.398 113.247C391.003 113.661 392.652 113.969 394.329 114.169C397.242 114.518 400.336 114.528 403.239 113.507C404.858 112.936 406.365 112.064 407.807 111.132C409.19 110.235 410.534 109.272 411.739 108.177C417.212 103.189 419.173 95.4061 416.422 89.6079C415.976 88.6735 415.42 87.7811 414.641 87.066C413.731 86.2304 412.558 85.6686 411.392 85.1283C408.671 83.862 405.882 82.6425 402.81 82.0764C399.738 81.5103 396.313 81.6499 393.29 83.0019"
            fill="#99F876" />
        <path
            d="M400.65 81.3405C400.748 82.2523 399.958 83.2722 399.055 83.3866C399.635 82.6064 400.035 82.0961 400.65 81.3405Z"
            fill="#21282B" />
        <path
            d="M402.939 82.283C402.198 83.478 400.944 84.3819 399.588 84.6799C400.67 83.7428 401.707 83.0046 402.939 82.283Z"
            fill="#21282B" />
        <path
            d="M405.646 83.8809C404.105 85.5185 402.002 86.7053 399.821 87.1489C401.802 86.034 403.665 84.9958 405.646 83.8809Z"
            fill="#21282B" />
        <path
            d="M407.861 85.6567C406.09 87.852 403.227 89.3551 400.465 89.5239C403.158 88.6294 405.572 87.3697 407.861 85.6567Z"
            fill="#21282B" />
        <path
            d="M410.131 88.5863C408.008 90.9988 405.095 92.8355 402.041 93.6857C404.89 92.1658 407.526 90.5065 410.131 88.5863Z"
            fill="#21282B" />
        <path
            d="M412.367 92.0378C409.805 94.8882 406.07 96.8963 402.329 97.4147C405.969 96.1812 409.298 94.3998 412.367 92.0378Z"
            fill="#21282B" />
        <path
            d="M413.587 96.3432C411.233 98.5796 408.126 100.156 404.975 100.716C407.99 99.4693 410.792 98.0486 413.587 96.3432Z"
            fill="#21282B" />
        <path
            d="M413.276 100.899C410.688 103.073 407.574 104.698 404.337 105.549C407.373 104.04 410.297 102.524 413.276 100.899Z"
            fill="#21282B" />
        <path
            d="M411.378 105.499C408.567 107.373 405.31 108.654 402.012 109.172C405.183 107.98 408.245 106.786 411.378 105.499Z"
            fill="#21282B" />
        <path
            d="M409.192 109.411C406.898 110.164 404.789 111.859 402.329 111.781C404.684 111.176 406.737 109.508 409.192 109.411Z"
            fill="#21282B" />
        <path
            d="M382.291 98.6684C381.717 107.364 388.691 114.18 397.391 113.328C405.63 112.735 413.107 105.031 413.436 96.8595C414.086 88.6746 407.491 81.7904 399.266 82.1509C390.608 82.3094 382.763 89.9745 382.291 98.6684ZM382.291 98.6684C383.194 84.1856 401.039 75.6861 410.954 85.1278C417.279 91.1002 416.607 102.212 409.521 108.962C398.393 119.618 381.453 113.143 382.291 98.6684Z"
            fill="#21282B" />
        <path
            d="M415.067 96.1066C415.451 99.5978 414.325 103.424 411.967 106.589C413.655 103.163 414.689 99.6872 415.067 96.1066Z"
            fill="#21282B" />
        <path
            d="M401.965 85.7148L415.963 68.3035L416.272 68.0225H416.695H467.448L416.702 69.9222L417.441 69.6473L403.866 87.4435L401.965 85.7148Z"
            fill="#21282B" />
        <path
            d="M441.922 48.8685C442.928 49.5941 444.106 48.8786 445.219 48.8382C445.979 48.8112 446.721 49.1081 447.471 49.3039C448.419 49.5503 449.384 49.6346 450.343 49.5536C450.846 45.8074 451.021 41.9566 450.866 38.1395C450.893 38.8145 443.373 37.2148 442.827 37.4915C441.871 37.9741 442.236 41.0217 442.202 42.2266C442.138 44.4439 442.044 46.6579 441.922 48.8685Z"
            fill="#99F876" />
        <path
            d="M441.399 47.8235C442.412 48.4243 443.461 47.7189 444.507 47.5738C445.614 47.3882 446.721 47.9113 447.737 48.0834C448.416 48.1982 449.111 48.2285 449.796 48.1712L449.489 48.4614C449.992 44.7017 450.164 40.8981 450.009 37.1046L450.684 37.0776C450.694 37.3915 450.397 37.5434 450.154 37.5704C447.764 37.6413 445.402 36.9798 443.036 36.7773C442.84 36.7604 442.631 36.7435 442.476 36.7536C442.445 36.7536 442.401 36.7671 442.455 36.7503C442.439 36.7671 442.418 36.784 442.398 36.7975C442.125 37.0878 442.081 37.5468 442.023 38.0024C441.905 39.1735 442.074 40.4729 442 41.6642C442.034 42.4877 441.487 46.9258 441.402 47.8235H441.399ZM441.399 47.8235C441.308 45.4611 441.271 42.8421 441.335 40.4425C441.315 39.6224 441.271 38.7921 441.352 37.9349C441.409 37.3105 441.605 36.1597 442.425 36.082C444.315 36.1394 446.127 36.5782 447.994 36.7773C448.696 36.8448 449.428 36.9899 450.12 36.8886C450.073 36.9123 449.998 37.0034 450.009 37.1046L450.684 37.0776C450.842 40.9994 450.657 44.9312 450.123 48.8192L449.853 48.8428C448.74 48.944 447.609 48.8023 446.539 48.5019C445.867 48.3163 445.246 48.0092 444.551 48.0362C443.535 48.0699 442.283 48.5829 441.402 47.8202L441.399 47.8235Z"
            fill="#21282B" />
        <path
            d="M460.732 48.5258C459.79 49.2109 458.585 48.5899 457.576 48.4718C456.884 48.384 456.239 48.6371 455.554 48.7654C454.373 48.9949 453.141 49.0151 451.957 48.7789C451.751 44.8605 451.899 40.9253 452.392 37.0306L453.06 37.115C453.081 37.0137 453.013 36.9159 452.969 36.8889C453.651 37.0475 454.393 36.9631 455.099 36.9564C456.975 36.9159 458.818 36.6324 460.705 36.7336C461.515 36.8821 461.612 38.0431 461.619 38.6709C461.626 39.5315 461.515 40.355 461.423 41.1683C461.282 43.5646 461.025 46.17 460.735 48.519L460.732 48.5258ZM460.732 48.5258C460.721 47.5909 460.553 43.1731 460.657 42.3361C460.684 41.1413 460.961 39.8622 460.941 38.6844C460.921 38.2254 460.917 37.7664 460.667 37.4525C460.647 37.439 460.63 37.4221 460.613 37.4019C460.667 37.4255 460.624 37.4086 460.593 37.4019C460.441 37.3782 460.229 37.3782 460.033 37.3782C457.66 37.3782 455.251 37.8372 452.875 37.5672C452.635 37.52 452.348 37.3411 452.389 37.0306L453.057 37.115C452.581 40.8781 452.429 44.685 452.615 48.4751L452.335 48.1579C453.013 48.2726 453.705 48.303 454.393 48.2423C455.419 48.1579 456.567 47.7293 457.654 48.006C458.683 48.2423 459.672 49.032 460.728 48.519L460.732 48.5258Z"
            fill="#21282B" />
        <path
            d="M443.552 45.5016C443.572 44.4519 443.805 43.4631 444.166 42.4877L445.101 39.5751L445.176 39.3389H445.419C445.79 39.3524 446.185 39.4435 446.431 39.7304C446.998 40.3952 447.282 41.266 447.565 42.0422C447.987 43.0817 448.304 44.1684 448.203 45.3058C447.67 44.3169 447.275 43.3382 446.931 42.2717C446.65 41.5157 446.424 40.7732 445.918 40.1657C445.894 40.1016 445.597 40.0071 445.425 40.0139L445.743 39.781L444.808 42.6936C444.531 43.6993 444.146 44.6376 443.552 45.5016Z"
            fill="#21282B" />
        <path
            d="M444.359 43.1898C444.352 43.2708 444.2 43.237 444.2 43.129C444.2 43.0109 444.288 42.9535 444.325 42.913C444.474 42.6835 444.656 42.6903 444.899 42.6498C445.166 42.6059 445.432 42.5654 445.702 42.535C446.09 42.4878 446.522 42.4608 446.917 42.4473C447.019 42.5114 447.086 42.5823 447.194 42.643C447.262 42.6768 447.359 42.8354 447.258 42.8691C447.258 42.8421 447.235 42.8421 447.221 42.8523C447.133 42.8961 447.177 42.9198 447.127 42.9603L446.934 43.1223C446.161 43.1526 445.382 43.2303 444.626 43.3889C444.484 43.3045 444.396 43.3248 444.386 43.1695C444.352 43.0953 444.305 43.1931 444.352 43.1898H444.359Z"
            fill="#21282B" />
        <path
            d="M439.982 33.8478C440.218 37.9045 440.056 42.1637 439.796 46.1259C439.793 47.0675 439.796 51.536 439.79 52.373C439.79 55.0696 438.919 58.2286 439.928 60.7969C440.002 60.9184 440.09 61.1378 440.188 61.2424C442.132 63.7061 445.449 63.4024 448.352 63.3416C451.622 63.2775 454.997 63.8648 458.251 63.3956C459.844 63.1999 461.403 62.7983 462.756 62.0524L462.419 62.6194C462.537 56.1968 462.78 47.4152 462.976 40.9926L463.202 33.787L463.576 34.192C460.917 33.9524 458.254 33.7263 455.588 33.5272C454.255 33.4293 452.922 33.3415 451.585 33.2606L447.586 33.0142C453.063 32.9534 458.541 33.0884 464.008 33.409C464.083 40.213 463.927 48.5897 463.87 55.4307L463.752 62.643L463.745 63.0244C459.027 65.8121 453.529 64.6511 448.372 64.6275C445.902 64.6444 442.989 64.8131 440.758 63.3248C439.992 62.7881 439.27 62.1267 438.895 61.2492C437.822 58.3973 438.777 55.2586 438.895 52.3494C438.929 51.5394 439.094 47.0203 439.128 46.1124C439.601 42.0388 439.921 37.9484 439.979 33.8478H439.982Z"
            fill="#21282B" />
        <path
            d="M443.833 55.5452C444.147 54.7994 445.156 54.4382 445.888 54.8095C446.563 55.2044 447.252 55.5284 448.052 55.5047C448.602 55.5115 449.155 55.4406 449.699 55.3259C449.807 55.6634 450.08 55.9131 450.431 56.0211C451.562 56.3721 452.476 55.4204 453.249 54.6846L453.303 54.9681C453.418 55.5419 454.12 55.8321 454.667 55.7579C455.271 55.6836 455.821 55.3225 456.347 54.9546L456.476 54.8669L456.516 55.012C456.952 56.1865 458.46 55.9266 459.405 55.5756C458.885 55.795 458.339 56.0144 457.745 56.0076C457.151 55.9975 456.513 55.6769 456.31 55.0795L456.476 55.1335C455.949 55.5317 455.389 55.9536 454.707 56.0481C454.005 56.1426 453.168 55.7882 452.996 55.0356L453.259 55.1166C452.517 55.8794 451.471 56.7265 450.337 56.3215C449.972 56.2034 449.624 55.9401 449.473 55.5587L449.641 55.6499C448.602 55.8456 447.454 55.8895 446.492 55.3664C446.027 55.1031 445.625 54.7555 445.102 54.7892C444.599 54.8061 444.093 55.0862 443.84 55.5452H443.833Z"
            fill="#21282B" />
        <path
            d="M443.692 59.5073C444.026 59.1732 444.434 58.9066 444.873 58.7277C445.021 58.6703 445.17 58.5995 445.356 58.6028C445.551 58.6028 445.71 58.7513 445.804 58.8728C446.074 59.2643 446.5 59.3723 446.962 59.3723C448.194 59.3318 449.446 59.1968 450.671 58.9808C451.68 58.8155 452.662 58.5657 453.651 58.3025C453.746 58.2822 453.887 58.3025 453.975 58.3666C454.542 59.0315 455.366 58.6737 456.128 58.6838C456.773 58.7041 457.404 58.9133 457.904 59.2947C457.364 58.9775 456.739 58.8121 456.128 58.8492C455.379 58.8965 454.421 59.2677 453.823 58.6028C453.719 58.5455 453.611 58.6163 453.489 58.6433C452.585 58.9235 451.663 59.1428 450.728 59.3082C449.48 59.5175 448.231 59.6457 446.952 59.6255C446.631 59.6052 446.287 59.5512 446 59.3487C445.696 59.153 445.609 58.7716 445.345 58.7615C444.751 58.7952 444.168 59.1462 443.692 59.5006V59.5073Z"
            fill="#21282B" />
        <path
            d="M455.238 40.3115C455.511 40.7435 455.565 41.1688 455.487 41.6581L455.4 42.9879L455.312 44.3176L455.268 44.9825C455.15 45.1951 455.039 45.4077 454.887 45.6203C454.765 45.3875 454.681 45.158 454.593 44.9285C454.62 44.5134 454.698 43.376 454.725 42.944L454.812 41.621C454.799 41.1249 454.91 40.7098 455.238 40.3149V40.3115Z"
            fill="#21282B" />
        <path
            d="M454.576 40.318C455.227 40.1155 455.899 39.7983 456.587 39.994C456.766 40.0581 456.891 40.2134 456.945 40.3113C457.174 40.7061 457.323 41.1314 457.208 41.6072C457.104 42.0865 456.604 42.37 456.209 42.5016L456.051 41.8502C457.245 41.7119 458.74 42.5826 458.832 43.8482C458.801 44.1216 458.666 44.2937 458.565 44.4253C458.15 44.9653 457.569 45.3535 456.938 45.5661C456.331 45.8023 455.588 45.6201 455.038 45.3163C455.5 45.3163 455.922 45.2218 456.331 45.0463C456.456 44.9721 456.594 44.9788 456.722 44.9248C457.286 44.7291 457.92 44.3173 458.16 43.7807C457.937 42.9809 456.942 42.4139 456.128 42.5185L453.506 42.802L455.97 41.8671C456.648 41.6646 456.719 41.2664 456.375 40.6623C456.337 40.6049 456.337 40.615 456.344 40.6184C455.77 40.5948 455.17 40.4024 454.576 40.3113V40.318Z"
            fill="#21282B" />
        <path
            d="M413.299 234.893C425.423 233.62 438.53 232 450.604 230.289C438.319 232.847 425.79 234.4 413.299 234.893Z"
            fill="#21282B" />
        <path
            d="M424.852 230.155C441.088 227.305 459.15 224.315 475.436 221.764C458.7 225.21 441.765 228.024 424.852 230.155Z"
            fill="#21282B" />
        <path
            d="M442.136 221.081C456.192 221.136 469.964 217.135 483.597 213.792L489.479 212.397C473.998 216.733 458.278 221.946 442.136 221.081Z"
            fill="#21282B" />
        <path
            d="M448.945 216.021C463.633 212.678 479.952 209.414 494.774 206.856C480.08 210.2 463.761 213.464 448.945 216.021Z"
            fill="#21282B" />
        <path
            d="M458.412 209.128C471.762 205.011 485.424 201.766 499.124 199.415C485.901 202.478 471.596 205.888 458.412 209.128Z"
            fill="#21282B" />
        <path
            d="M470.924 201.095C481.578 198.05 492.387 195.383 503.207 193.13C492.553 196.181 481.744 198.842 470.924 201.095Z"
            fill="#21282B" />
        <path
            d="M475.74 195.609C483.719 194.623 491.648 192.96 499.405 190.683C491.853 193.77 483.802 195.451 475.74 195.609Z"
            fill="#21282B" />
        <path
            d="M478.448 191.742C485.773 190.676 493.031 188.989 500.128 186.736C493.253 189.787 485.862 191.498 478.448 191.742Z"
            fill="#21282B" />
        <path
            d="M483.87 186.115C481.545 186.243 479.381 186.462 477.072 186.785C479.142 185.64 481.645 185.396 483.87 186.115Z"
            fill="#21282B" />
        <path
            d="M477.427 189.446C481.045 189.032 484.669 189.025 488.286 189.446C484.669 189.866 481.045 189.86 477.427 189.446Z"
            fill="#21282B" />
        <path
            d="M475.391 183.862C476.401 183.448 477.433 183.442 478.443 183.862C477.433 184.282 476.401 184.276 475.391 183.862Z"
            fill="#21282B" />
        <path
            d="M353.773 198.437C354.006 197.456 354.238 196.476 354.47 195.494C353.045 194.546 351.414 193.898 349.722 193.607C349.333 193.54 348.939 193.492 348.546 193.513C347.972 193.543 347.418 193.721 346.873 193.897C346.564 193.997 346.252 194.098 345.968 194.251C345.794 194.345 345.631 194.456 345.475 194.575C343.621 195.979 342.588 198.296 342.58 200.601C342.577 201.467 342.713 202.346 343.069 203.142C343.46 204.018 344.114 204.776 344.909 205.331C346.623 206.529 348.837 206.738 350.934 206.779C351.263 206.786 351.598 206.788 351.909 206.687C351.966 206.669 352.025 206.646 352.066 206.604C352.124 206.545 352.142 206.459 352.158 206.379C352.344 205.42 352.53 204.463 352.717 203.505C352.302 203.812 351.887 204.118 351.472 204.426C350.771 204.944 350.043 205.475 349.187 205.681C348.332 205.887 347.306 205.685 346.798 204.973C346.687 204.818 346.602 204.642 346.457 204.519C346.344 204.424 346.199 204.364 346.107 204.248C346.015 204.133 345.992 203.98 345.971 203.835C345.901 203.328 345.831 202.822 345.76 202.315C345.67 201.665 345.579 201.009 345.634 200.356C345.69 199.678 345.901 199.025 346.111 198.378C346.258 197.924 346.406 197.467 346.636 197.047C346.881 196.599 347.214 196.202 347.572 195.835C348.018 195.377 348.518 194.952 349.114 194.704C349.711 194.457 350.418 194.405 351.005 194.682C351.672 194.996 352.076 195.661 352.483 196.266C353.068 197.132 353.77 198.056 353.659 199.082"
            fill="#99F876" />
        <path
            d="M362.547 208.225C362.268 208.239 361.947 208.237 361.764 208.029C361.614 207.86 361.614 207.614 361.625 207.391C361.678 206.31 361.826 205.232 362.067 204.177C362.261 203.323 362.519 202.469 362.478 201.593C362.468 201.387 362.44 201.174 362.332 200.995C362.151 200.697 361.794 200.56 361.489 200.383C361.212 200.221 360.964 200.014 360.685 199.857C360.187 199.574 359.612 199.462 359.049 199.353C358.128 199.174 357.142 198.99 356.217 199.224C355.619 199.375 355.643 199.601 355.501 200.158C355.353 200.736 355.197 201.311 355.028 201.883C355.38 201.373 356.016 201.142 356.61 200.941C357.499 200.641 358.425 200.336 359.363 200.439C359.492 200.453 359.631 200.481 359.718 200.576C359.799 200.664 359.815 200.791 359.826 200.91C359.901 201.763 359.831 202.628 359.621 203.457C359.032 203.101 358.354 202.888 357.666 202.841C357.24 202.812 356.812 202.846 356.386 202.88C356.06 202.905 355.729 202.932 355.426 203.049C355.008 203.21 354.676 203.527 354.377 203.854C354.194 204.054 354.015 204.265 353.911 204.514C353.739 204.927 353.792 205.394 353.847 205.838C353.892 206.196 353.938 206.561 354.093 206.889C354.17 207.052 354.272 207.203 354.39 207.342C354.924 207.972 355.762 208.326 356.594 208.337C357.426 208.349 358.244 208.035 358.89 207.528C358.816 207.773 359.213 207.899 359.311 208.138C359.344 208.217 359.34 208.305 359.361 208.387C359.417 208.619 359.644 208.771 359.864 208.873C360.379 209.112 360.963 209.204 361.526 209.135C361.783 209.104 362.042 209.037 362.246 208.883C362.45 208.73 362.59 208.476 362.549 208.225L362.547 208.225ZM359.381 204.68C359.222 205.381 359.01 206.07 358.749 206.739C358.708 206.843 358.664 206.95 358.583 207.027C358.522 207.086 358.444 207.125 358.363 207.151C358.05 207.253 357.696 207.179 357.41 207.016C357.124 206.852 356.897 206.606 356.694 206.348C356.576 206.198 356.462 206.037 356.427 205.851C356.392 205.66 356.444 205.466 356.496 205.28L356.69 204.581C356.738 204.409 356.79 204.231 356.909 204.098C357.168 203.81 357.628 203.837 358.02 203.889C358.397 203.938 358.793 203.958 359.165 204.038C359.594 204.131 359.471 204.284 359.381 204.68Z"
            fill="#99F876" />
        <path
            d="M364.041 205.832C363.98 206.172 363.921 206.512 363.861 206.851C363.754 207.455 363.648 208.084 363.82 208.676C364.064 209.515 364.849 210.136 365.708 210.369C365.924 210.428 366.147 210.465 366.371 210.467C366.717 210.47 367.057 210.386 367.392 210.305C367.834 210.196 368.283 210.084 368.668 209.85C368.905 209.706 369.113 209.517 369.278 209.298C369.154 209.855 369.245 210.457 369.532 210.957C370.359 211.189 371.205 211.354 372.058 211.448C371.591 210.786 371.732 209.902 371.892 209.118C372.332 206.968 372.771 204.818 373.21 202.667C372.237 202.441 371.278 202.152 370.342 201.802C370.21 202.036 370.249 202.322 370.265 202.59C370.298 203.115 370.233 203.641 370.168 204.162C370.1 204.697 370.034 205.233 369.966 205.768C369.85 206.694 369.731 207.631 369.381 208.497C369.336 208.609 369.282 208.725 369.178 208.79C369.109 208.833 369.026 208.847 368.944 208.859C368.408 208.938 367.861 208.949 367.32 208.89C367.168 208.873 367.007 208.849 366.884 208.757C366.779 208.678 366.714 208.559 366.664 208.44C366.373 207.743 366.514 206.956 366.659 206.219C366.859 205.207 367.059 204.193 367.259 203.18C367.365 202.639 367.473 202.091 367.443 201.539C367.436 201.421 365.489 201.023 365.288 200.991C364.739 200.905 364.637 201.206 364.589 201.689C364.451 203.084 364.284 204.453 364.04 205.834L364.041 205.832Z"
            fill="#99F876" />
        <path
            d="M381.055 207.179C381.291 206.424 381.441 205.644 381.501 204.856C381.036 204.8 380.631 204.528 380.22 204.304C379.598 203.967 378.924 203.732 378.255 203.499C378.026 203.42 377.794 203.339 377.552 203.322C377.317 203.306 377.084 203.35 376.854 203.397C376.541 203.459 376.229 203.526 375.919 203.597C375.609 203.668 375.296 203.743 375.023 203.899C374.259 204.336 373.978 205.339 374.186 206.187C374.394 207.035 374.995 207.743 375.661 208.325C375.992 208.615 376.345 208.881 376.694 209.149C376.846 209.265 376.74 209.257 376.95 209.341C377.134 209.414 377.339 209.399 377.527 209.495C377.818 209.644 378.012 209.956 378.228 210.191C378.443 210.425 378.499 210.603 378.439 210.931C378.328 211.539 377.816 212.042 377.154 211.951C376.688 211.886 376.286 211.589 375.962 211.254C375.637 210.918 375.366 210.535 375.022 210.217C374.789 210.003 374.526 209.82 374.321 209.581C374.117 209.341 373.976 209.021 374.051 208.72C373.656 209.485 373.403 210.322 373.306 211.177C373.501 211.197 373.643 211.362 373.782 211.499C374.441 212.156 375.409 212.39 376.323 212.596C376.834 212.71 377.355 212.826 377.877 212.793C378.45 212.756 378.992 212.543 379.522 212.331C379.775 212.231 380.046 212.115 380.181 211.883C380.304 211.674 380.289 211.415 380.362 211.184C380.426 210.982 380.555 210.807 380.638 210.612C380.861 210.096 380.744 209.489 380.489 208.984C380.32 208.646 380.092 208.338 379.83 208.062C379.629 207.85 379.407 207.656 379.169 207.486C378.697 207.147 378.123 206.92 377.683 206.542C377.558 206.434 377.469 206.286 377.335 206.188C377.131 206.039 376.844 206.023 376.653 205.855C376.515 205.732 376.48 205.527 376.519 205.35C376.574 205.098 376.711 204.808 376.803 204.564C376.826 204.501 376.856 204.438 376.909 204.395C377.002 204.321 377.135 204.327 377.254 204.338C377.655 204.378 378.054 204.445 378.446 204.539C378.903 204.647 379.291 205.018 379.568 205.373C379.685 205.524 379.762 205.712 379.884 205.851C380.066 206.059 380.273 206.191 380.407 206.447C380.581 206.779 380.755 207.027 381.069 207.248C381.163 206.738 381.323 206.24 381.542 205.769"
            fill="#99F876" />
        <path
            d="M390.763 213.988C390.66 213.896 390.616 213.771 390.58 213.653C390.385 213.005 390.319 212.344 390.385 211.712C390.43 211.285 390.536 210.869 390.524 210.432C390.516 210.096 390.437 209.749 390.481 209.421C390.513 209.184 390.608 208.962 390.597 208.717C390.587 208.516 390.503 208.314 390.411 208.119C390.078 207.416 389.585 206.726 388.871 206.26C388.258 205.86 387.53 205.655 386.816 205.527C385.379 205.267 383.928 205.283 382.595 205.57C382.635 206.307 382.609 207.038 382.519 207.754C383.511 207.077 384.723 206.634 386.031 206.469C386.356 206.428 386.71 206.408 387.032 206.547C387.613 206.798 387.831 207.446 387.809 207.971C387.785 208.496 387.608 209.005 387.744 209.539C387.086 209.234 386.414 208.925 385.71 208.798C384.958 208.662 384.216 208.743 383.509 208.866C383.059 208.944 382.604 209.044 382.255 209.278C381.759 209.61 381.535 210.188 381.551 210.776C381.567 211.364 381.8 211.963 382.104 212.529C382.176 212.662 382.254 212.797 382.371 212.909C382.504 213.037 382.678 213.124 382.848 213.207C383.306 213.436 383.764 213.663 384.223 213.891C384.423 213.99 384.627 214.091 384.844 214.132C385.142 214.188 385.431 214.125 385.706 214.062C386.128 213.964 386.55 213.868 386.973 213.77C387.231 213.711 387.535 213.593 387.505 213.349C387.841 213.741 387.873 214.262 388.233 214.639C388.583 215.006 389.146 215.137 389.655 215.192C390.164 215.247 390.723 215.236 391.04 214.937C391.304 214.688 391.342 214.291 391.605 214.042C391.339 214.126 390.99 214.192 390.765 213.99L390.763 213.988ZM387.227 212.863C386.959 213.066 386.514 212.984 386.13 212.892C385.63 212.773 385.074 212.62 384.768 212.234C384.537 211.942 384.508 211.583 384.537 211.26C384.588 210.693 384.838 210.105 385.43 209.921C385.771 209.815 386.169 209.86 386.553 209.906C387.088 210.016 387.632 209.851 387.615 210.448C387.599 211.031 387.525 211.611 387.48 212.19C387.46 212.44 387.43 212.71 387.227 212.864L387.227 212.863Z"
            fill="#99F876" />
        <path
            d="M383.1 205.655C383.242 205.616 383.386 205.582 383.531 205.551C383.529 205.496 383.526 205.441 383.523 205.386L383.1 205.655Z"
            fill="#99F876" />
        <path
            d="M396.884 203.112C396.743 203.561 396.603 204.011 396.462 204.461C396.346 204.832 396.23 205.204 396.163 205.587C396.083 206.047 396.075 206.518 396.028 206.984C395.982 207.437 395.901 207.885 395.819 208.332C395.387 210.689 394.955 213.046 394.524 215.403C394.468 215.71 394.462 216.116 394.757 216.237C394.038 216.004 393.307 215.768 392.552 215.743C392.099 215.728 391.641 215.789 391.199 215.693C391.144 215.682 391.083 215.663 391.057 215.614C391.023 215.553 391.06 215.479 391.095 215.42C391.966 213.965 392.539 212.338 392.767 210.663C392.842 210.118 392.88 209.568 392.955 209.023C393.131 207.734 393.502 206.48 393.673 205.19C393.747 204.633 393.622 203.932 393.786 203.404C393.911 203.003 394.316 202.928 394.694 202.874C395.428 202.769 396.188 202.849 396.883 203.111L396.884 203.112Z"
            fill="#99F876" />
        <path
            d="M354.022 202.101C354.092 201.606 354.187 200.903 354.271 200.411L354.348 200.528C352.915 199.336 351.373 198.201 349.802 197.185C349.034 196.692 348.227 196.183 347.47 195.793C346.729 195.415 346.027 195.184 345.312 194.942C344.958 194.823 344.635 194.725 344.359 194.688C344.151 194.653 343.942 194.654 343.752 194.643C341.647 194.641 340.97 196.094 342.091 198.303C342.954 199.976 345.243 202.038 347.604 203.557C349.18 204.588 350.791 205.457 352.353 206.267C352.628 206.405 352.897 206.531 353.129 206.597C353.21 206.618 353.183 206.553 353.194 206.51C353.203 206.382 353.228 206.132 353.237 206L353.347 204.839L353.782 205.197C352.666 205.075 351.526 205.154 350.089 204.63C349.129 204.28 347.917 203.575 347.043 202.724C346.795 202.494 346.578 202.19 346.372 201.985C346.157 201.794 345.835 201.542 345.708 201.333C345.6 201.207 345.143 200.001 345.081 199.866C344.913 199.452 344.745 199.029 344.664 198.642C344.537 198.064 344.704 197.652 344.887 197.27C345.05 196.873 345.315 196.521 345.875 196.431C346.422 196.333 347.048 196.295 347.905 196.532C348.769 196.767 349.957 197.397 350.84 198.212C351.408 198.729 351.823 199.24 352.24 199.742C353.021 200.699 354.046 201.833 354.044 202.513L353.984 202.478C353.889 201.753 352.856 200.672 352.03 199.71C351.413 198.993 350.775 198.237 349.829 197.633C348.238 196.631 347.091 196.667 346.332 196.848C345.821 196.948 345.615 197.284 345.476 197.673C345.317 198.044 345.16 198.432 345.29 198.973C345.37 199.329 345.537 199.736 345.702 200.148C345.73 200.2 346.217 201.471 346.261 201.496C346.285 201.531 346.297 201.545 346.33 201.577C346.447 201.684 346.608 201.81 346.748 201.946C347.051 202.245 347.147 202.428 347.422 202.696C348.352 203.609 349.745 204.269 350.639 204.458C351.139 204.577 351.593 204.624 352.049 204.668C352.392 204.7 353.582 204.813 353.905 204.844C353.814 205.38 353.69 206.315 353.585 206.839C353.574 206.865 353.556 206.892 353.512 206.904C353.435 206.927 353.302 206.882 353.182 206.838C352.935 206.746 352.662 206.613 352.407 206.48C350.999 205.726 349.588 204.944 348.176 204.04C347.792 203.796 347.354 203.504 346.975 203.242C346.877 203.174 346.626 202.993 346.531 202.926C346.436 202.859 346.19 202.673 346.092 202.603C344.638 201.513 343.311 200.266 342.452 199.11C340.369 196.233 340.925 194.085 343.557 194.23C343.967 194.23 344.509 194.358 345.076 194.56C345.813 194.815 346.561 195.06 347.395 195.494C348.629 196.155 349.854 196.967 351.056 197.809C352.277 198.67 353.459 199.597 354.562 200.549C354.414 201.024 354.241 201.68 354.082 202.139L354.022 202.101L354.022 202.101Z"
            fill="#21282B" />
        <path
            d="M353.991 200.394C353.999 200.387 354.001 200.376 354.003 200.369C354.016 200.345 354.064 200.343 354.097 200.335C354.476 200.268 355.122 200.468 355.709 200.642C356.395 200.849 357.098 201.071 357.87 201.418C358.374 201.659 359.194 202.005 359.427 202.45C359.623 202.892 359.697 203.267 359.722 203.623C359.734 203.875 359.69 204.102 359.631 204.314C358.102 203.097 357.009 202.541 355.413 201.814C354.736 201.489 354.246 201.389 353.844 201.424C353.64 201.44 353.433 201.455 353.312 201.527C353.058 201.681 353.273 202.143 353.422 202.533C353.509 202.741 353.614 202.957 353.805 203.196C354.599 204.183 356.188 205.242 357.432 205.716C358.199 206.018 358.835 206.116 359.355 206.114L359.346 206.321C359.347 206.354 359.394 206.393 359.454 206.45C359.595 206.577 359.813 206.755 359.916 206.901C360.009 207.033 359.988 207.094 360.121 207.227C360.25 207.359 360.454 207.511 360.673 207.66C361.313 208.099 362.025 208.484 362.633 208.706C362.966 208.832 363.268 208.842 363.176 208.626L363.484 208.891C362.957 208.656 362.297 208.261 362.082 207.836C361.935 207.515 361.966 207.348 361.924 207.093C361.88 206.652 361.883 206.234 361.942 205.85C362.016 205.281 362.305 204.854 362.002 204.097C361.889 203.854 361.606 203.642 361.254 203.372C361.062 203.228 360.836 203.053 360.645 202.895C360.45 202.735 360.27 202.582 360.091 202.44C359.359 201.858 358.499 201.366 357.689 200.876C356.862 200.381 356.021 199.894 355.225 199.56C354.954 199.452 354.659 199.319 354.519 199.36C354.401 199.42 354.408 199.588 354.344 199.69C354.232 199.93 354.091 200.134 353.992 200.395L353.991 200.394ZM353.973 200.411C354.048 200.131 354.075 199.786 354.148 199.493C354.179 199.375 354.152 199.226 354.266 199.158C354.416 199.077 354.81 199.228 355.118 199.344C355.946 199.666 356.844 200.163 357.709 200.664C358.584 201.177 359.484 201.676 360.317 202.326C360.525 202.489 360.716 202.647 360.901 202.795C362.015 203.663 362.556 203.963 362.714 204.738C362.849 205.34 362.639 205.747 362.564 206.223C362.484 206.684 362.468 207.186 362.535 207.731C362.553 208.195 362.822 208.31 363.624 208.692C363.691 208.837 363.767 209.015 363.698 209.083C363.524 209.343 362.733 209.038 362.074 208.704C361.396 208.365 360.079 207.57 359.711 207.031C359.651 206.945 359.64 206.871 359.602 206.806C359.523 206.698 359.393 206.598 359.252 206.462C359.123 206.345 358.995 206.182 359.035 206.119L359.304 206.336C358.064 206.256 355.984 205.317 354.43 203.951C353.801 203.41 353.393 202.884 353.213 202.441C353.028 202.003 352.764 201.51 353.018 201.305C353.142 201.208 353.343 201.179 353.545 201.148C353.842 201.102 354.257 201.12 354.776 201.313C355.112 201.435 355.46 201.595 355.807 201.751C356.676 202.135 357.595 202.605 358.48 203.201C358.836 203.44 359.184 203.691 359.516 203.951L359.156 203.847C359.245 203.537 359.243 203.171 359.153 202.758C359.118 202.613 359.076 202.443 359.009 202.287C358.986 202.241 358.964 202.214 358.936 202.189C358.832 202.1 358.635 201.997 358.497 201.921C358.315 201.823 358.132 201.73 357.951 201.645C357.211 201.296 356.511 201.052 355.823 200.817C355.183 200.6 354.499 200.353 354.083 200.406C354.059 200.412 354.009 200.413 353.973 200.409L353.973 200.411Z"
            fill="#21282B" />
        <path
            d="M357.555 204.427C356.924 204.057 356.352 203.819 356.386 204.207C356.385 204.446 356.249 204.614 356.202 204.82C356.196 204.99 356.458 205.278 356.698 205.543C357.032 205.904 357.513 206.306 357.981 206.536C358.162 206.628 358.394 206.711 358.483 206.693C358.514 206.684 358.537 206.654 358.558 206.608C358.747 206.246 358.831 205.769 359.028 205.415L359.033 205.405C359.033 205.403 359.036 205.403 359.037 205.401C359.037 205.402 359.041 205.404 359.045 205.407C359.046 205.41 359.054 205.414 359.056 205.416C359.076 205.43 359.058 205.406 359.015 205.372C358.568 205.026 358.034 204.707 357.554 204.426L357.555 204.427ZM357.555 204.397C357.936 204.618 358.312 204.802 358.693 204.999C359.003 205.157 359.452 205.406 359.525 205.669C359.576 206.171 359.417 206.534 359.177 206.847C359.084 206.939 359.076 207.059 358.853 207.062C358.162 206.979 357.163 206.146 356.57 205.541C356.258 205.225 355.877 204.878 355.782 204.604C355.688 204.28 355.807 204.093 355.915 203.894C356.106 203.563 356.802 203.952 357.555 204.397L357.555 204.397Z"
            fill="#21282B" />
        <path
            d="M363.353 203.371C363.351 203.968 363.009 204.554 363.939 205.558C364.522 206.197 365.416 206.859 366.274 207.335C366.71 207.577 367.106 207.732 367.507 207.874C368.297 208.158 369.112 208.454 369.519 208.305L370.102 208.112L370.002 208.647C369.957 208.909 370.13 209.303 370.486 209.735L370.314 209.588C371.268 210.191 372.23 210.768 373.195 211.31L373.038 211.397C372.878 211.218 372.754 211.046 372.668 210.891C372.418 210.441 372.445 210.112 372.498 209.824C372.707 208.905 372.881 207.945 373.014 206.979L373.091 206.395L373.189 206.506C372.62 206.164 372.052 205.815 371.486 205.457C370.92 205.1 370.357 204.735 369.797 204.364L369.999 204.427C369.92 204.485 369.982 204.649 370.048 204.826C370.114 205.006 370.154 205.175 370.179 205.334C370.25 205.937 370.245 206.518 370.268 207.095C370.271 207.53 370.234 207.954 370.005 208.252C369.894 208.418 369.567 208.293 369.139 208.102C368.692 207.908 368.235 207.688 367.774 207.445C367.416 207.255 367.008 207.047 366.702 206.755C365.871 205.901 365.965 205.284 366.035 204.83C366.12 204.311 366.192 203.784 366.289 203.272C366.332 203.015 366.377 202.764 366.306 202.458L366.299 202.429L366.295 202.414L366.293 202.407C366.29 202.398 366.295 202.42 366.31 202.443C366.328 202.469 366.336 202.476 366.345 202.487C366.387 202.53 366.388 202.527 366.395 202.534C365.911 202.199 365.374 201.876 364.867 201.56C364.626 201.413 364.232 201.167 363.995 201.028C363.478 200.715 363.448 200.874 363.447 201.078C363.448 201.209 363.442 201.578 363.441 201.715C363.429 202.277 363.412 202.836 363.354 203.372L363.353 203.371ZM363.295 203.337C363.339 202.794 363.337 202.225 363.285 201.628L363.242 201.178C363.232 201.044 363.183 200.839 363.224 200.73C363.268 200.556 363.62 200.659 363.999 200.877C364.264 201.021 364.632 201.245 364.897 201.396C365.452 201.727 366.011 202.037 366.557 202.408C366.62 202.459 366.625 202.454 366.702 202.533C366.715 202.547 366.725 202.557 366.744 202.587C366.761 202.612 366.768 202.637 366.766 202.631L366.768 202.639C366.897 203.019 366.878 203.323 366.846 203.601C366.795 204.14 366.719 204.665 366.656 205.197C366.623 205.462 366.585 205.716 366.672 206.023C366.734 206.223 366.857 206.495 367.091 206.74C367.159 206.802 367.23 206.847 367.326 206.904C367.596 207.059 367.886 207.212 368.157 207.349C368.551 207.546 368.98 207.751 369.35 207.895C369.379 207.904 369.38 207.903 369.399 207.901C369.697 207.66 369.712 207.218 369.737 206.796L369.75 205.952C369.749 205.527 369.816 205.146 369.668 204.648C369.614 204.468 369.543 204.263 369.675 204.183L369.735 204.148C370.876 204.933 372.039 205.691 373.212 206.414L373.318 206.48L373.31 206.525C373.253 206.806 373.157 207.379 373.109 207.666C372.983 208.431 372.889 209.216 372.815 210.011C372.791 210.383 372.796 210.831 373.363 211.439L373.692 211.789L373.207 211.526C372.182 210.974 371.15 210.371 370.134 209.729C369.657 209.172 369.413 208.662 369.49 208.338L369.972 208.679C369.733 208.753 369.367 208.723 368.942 208.602C368.522 208.484 368.088 208.315 367.663 208.151C367.228 207.985 366.744 207.779 366.271 207.499C365.33 206.947 364.404 206.225 363.808 205.538C363.196 204.843 363.177 204.353 363.231 203.951L363.296 203.337L363.295 203.337Z"
            fill="#21282B" />
        <path
            d="M381.519 209.598C381.633 209.188 381.655 208.717 381.576 208.191L381.713 208.337C381.124 208.001 380.582 207.543 380.055 207.133C379.543 206.736 379.011 206.352 378.471 205.975C377.967 205.632 377.392 205.199 376.895 204.92C376.473 204.69 375.797 204.45 375.378 204.276C374.856 204.067 374.349 203.858 374.036 203.856C373.71 203.844 373.545 204.001 373.529 204.249C373.488 205.075 374.923 206.525 376.215 207.711C376.299 207.792 376.989 208.407 377.038 208.474C377.082 208.524 377.041 208.481 377.062 208.502C377.078 208.515 377.109 208.539 377.138 208.561C377.297 208.681 377.434 208.755 377.629 208.884C377.936 209.082 378.215 209.353 378.427 209.584C378.717 209.919 379.163 210.315 379.2 210.581C379.271 211 378.847 211.166 378.098 210.815C377.214 210.392 376.402 209.596 375.803 208.955C375.392 208.514 374.988 208.099 374.498 207.664C374.007 207.223 373.47 206.649 373.528 206.357L373.811 206.559C373.493 206.862 373.355 207.301 373.395 207.838L373.178 207.604C373.448 207.757 373.677 207.977 373.872 208.17C374.131 208.425 374.412 208.67 374.72 208.91C375.464 209.491 376.302 210.019 377.101 210.526C378.32 211.312 379.062 211.676 380.114 211.977C380.47 212.067 381.026 212.309 381.012 212.041C381.02 211.95 381.013 211.801 381.073 211.729C381.157 211.611 381.322 211.569 381.328 211.403C381.336 210.764 380.176 209.532 379.128 208.627C378.613 208.186 377.955 207.696 377.412 207.187C377.259 207.05 377.063 206.819 376.944 206.714C376.723 206.524 376.425 206.35 376.158 206.112C375.888 205.876 375.743 205.629 375.742 205.477C375.749 205.291 375.887 205.177 375.965 205.055C375.998 204.999 376.048 204.952 376.17 204.969C376.354 204.994 376.61 205.147 376.827 205.275C377.29 205.55 377.751 205.835 378.211 206.142C378.776 206.527 379.249 206.991 379.635 207.422C379.784 207.585 379.898 207.753 380.03 207.91C380.165 208.069 380.321 208.212 380.484 208.38C380.708 208.601 380.85 208.826 381.023 209.04C381.186 209.245 381.386 209.452 381.618 209.657L381.478 209.615C381.528 209.325 381.657 209.085 381.866 208.906L381.924 208.95C381.768 209.163 381.68 209.425 381.669 209.734L381.666 209.807L381.528 209.691C381.27 209.473 381.03 209.237 380.838 209.012C380.649 208.797 380.529 208.606 380.3 208.388C380.141 208.231 379.937 208.046 379.791 207.881C379.647 207.718 379.531 207.557 379.384 207.404C379.105 207.104 378.771 206.78 378.414 206.508C378.168 206.32 377.906 206.168 377.65 206.008C377.379 205.842 377.108 205.681 376.838 205.526C376.7 205.446 376.567 205.371 376.522 205.358C376.498 205.351 376.503 205.353 376.491 205.356C376.475 205.363 376.464 205.391 376.455 205.405C376.393 205.512 376.321 205.604 376.289 205.712C376.267 205.773 376.269 205.865 376.385 205.985C376.622 206.203 376.929 206.363 377.22 206.621C377.462 206.835 377.54 206.949 377.731 207.124C378.237 207.586 378.803 208 379.402 208.505C380.943 209.804 382.568 211.69 381.741 212.121C381.636 212.187 381.649 212.292 381.633 212.431C381.628 212.711 381.233 212.679 380.772 212.529C380.148 212.339 379.508 212.147 378.79 211.793C378.212 211.51 377.625 211.141 377.054 210.775C376.204 210.226 375.359 209.687 374.544 209.035C374.151 208.727 373.754 208.352 373.441 208.03C373.276 207.862 373.146 207.8 372.972 207.695C372.954 207.11 373.141 206.645 373.531 206.341L374.003 205.968L373.815 206.543C373.748 206.85 374.469 207.495 374.969 207.963C375.93 208.865 376.734 210.04 378.047 210.691C378.562 210.931 378.904 210.879 378.965 210.653C378.993 210.544 378.996 210.407 378.836 210.212C378.675 210.023 378.42 209.774 378.237 209.576C378.035 209.366 377.819 209.162 377.59 209.02C377.4 208.901 377.13 208.749 376.924 208.582C376.849 208.526 376.793 208.452 376.731 208.397L376.372 208.082C374.778 206.697 372.919 204.918 372.985 203.917C373 203.571 373.273 203.368 373.813 203.454C374.202 203.509 374.726 203.731 375.192 203.92C376.854 204.599 376.828 204.566 378.559 205.816C379.103 206.209 379.651 206.611 380.177 207.036C380.68 207.44 381.164 207.867 381.704 208.194L381.837 208.275L381.84 208.341C381.863 208.843 381.777 209.281 381.574 209.637L381.515 209.596L381.519 209.598Z"
            fill="#21282B" />
        <path
            d="M382.591 205.13C382.699 205.64 382.711 206.101 382.643 206.515L382.402 206.325C382.944 206.366 383.556 206.478 384.222 206.662C384.722 206.798 385.251 206.975 385.799 207.187C386.19 207.342 386.579 207.489 387.017 207.76C387.976 208.356 388.306 209.075 388.215 209.419C388.179 209.653 388.043 209.856 388.158 210.157L388.266 210.445C387.492 209.872 386.676 209.246 385.878 208.763C385.228 208.37 384.554 208.058 383.9 207.79C383.266 207.533 382.585 207.25 382.141 207.249C381.231 207.264 381.62 208.235 382.277 209.139C382.362 209.254 382.472 209.365 382.617 209.481C383.079 209.84 383.584 210.206 384.06 210.563C384.388 210.802 384.707 211.058 385.004 211.215C385.308 211.378 385.613 211.472 385.932 211.581L386.882 211.903C387.086 211.968 387.459 212.115 387.454 212.001L387.376 211.625L387.836 212.136C388.324 212.672 388.27 213.071 389.065 213.608C389.628 213.987 390.546 214.489 391.002 214.563C391.378 214.601 391.332 214.343 391.682 214.327L392.048 214.741C391.417 214.563 390.731 214.159 390.549 213.662C390.365 213.248 390.29 212.881 390.312 212.57C390.328 212.304 390.445 212.117 390.472 211.869C390.491 211.706 390.429 211.507 390.422 211.322C390.395 211.135 390.535 211.011 390.559 210.866C390.555 210.635 390.261 210.24 390.028 209.911C389.217 208.802 387.953 207.946 386.424 207.081C384.968 206.253 383.498 205.566 382.132 205.076L382.107 205.036C383.756 205.544 385.685 206.429 387.558 207.558C388.796 208.298 389.821 209.153 390.483 210.027C390.791 210.446 391.136 210.894 391.142 211.199C391.134 211.348 391.048 211.412 391.025 211.534C391.006 211.648 391.04 211.782 391.065 211.929C391.108 212.132 391.091 212.322 391.044 212.475C390.884 212.886 390.869 213.383 391.201 214.049C391.25 214.117 391.267 214.126 391.363 214.18C391.472 214.239 391.625 214.296 391.771 214.34L393.031 214.73L392.137 214.754C391.942 214.757 391.853 214.922 391.665 214.963C391.445 215.031 390.971 214.887 390.555 214.692C389.743 214.304 388.74 213.757 388.166 213.102C387.832 212.712 387.801 212.435 387.5 212.082L387.882 212.217C387.93 212.476 387.388 212.292 387.03 212.154C386.688 212.027 385.904 211.746 385.564 211.615C384.96 211.391 384.507 211.041 383.962 210.617C383.643 210.372 383.324 210.127 383.003 209.884C382.763 209.7 382.487 209.503 382.287 209.299C381.984 208.968 381.84 208.679 381.674 208.39C381.434 207.937 381.323 207.525 381.494 207.286C381.773 206.858 382.696 207.147 383.787 207.573C385.392 208.175 386.441 208.829 387.992 209.978L387.648 209.93C387.46 209.453 387.757 209.25 387.689 208.862C387.527 208.232 386.893 207.843 385.943 207.477C384.709 206.982 383.563 206.657 382.594 206.532L382.301 206.494C382.386 206.262 382.457 206.014 382.49 205.75C382.519 205.543 382.531 205.325 382.528 205.099L382.586 205.129L382.591 205.13Z"
            fill="#21282B" />
        <path
            d="M386.635 210.801C385.478 210.124 385.079 210.219 384.813 210.573C384.476 210.952 384.761 211.456 386.055 212.207C386.442 212.427 386.951 212.751 387.188 212.725C387.269 212.71 387.293 212.622 387.303 212.513C387.317 212.278 387.37 212.059 387.431 211.855C387.464 211.752 387.51 211.66 387.555 211.565C387.575 211.523 387.592 211.481 387.571 211.432C387.502 211.26 386.872 210.958 386.635 210.801ZM386.637 210.772C386.893 210.929 387.122 211.027 387.381 211.167C387.53 211.246 387.716 211.38 387.806 211.5C387.908 211.63 387.929 211.719 387.95 211.798C388.024 212.089 388.011 212.331 387.981 212.561C387.949 212.736 387.949 212.921 387.851 213.058C387.678 213.304 387.034 213.045 386.386 212.599C385.425 211.948 384.529 211.315 384.358 210.66C384.21 210.186 384.388 209.815 385.111 210.01C385.57 210.133 386.126 210.484 386.637 210.772L386.637 210.772Z"
            fill="#21282B" />
        <path
            d="M397.098 205.639L396.976 206.253C396.897 206.673 396.754 207.039 396.738 207.498C396.721 207.952 396.855 208.509 396.866 208.988C396.875 209.234 396.868 209.467 396.857 209.696C396.772 211.496 396.466 213.205 396.203 214.87C396.207 215.191 395.882 215.761 396.512 216.316L396.464 216.408C395.335 215.498 394.182 214.59 393.069 213.945C392.523 213.622 391.951 213.315 391.383 212.88C391.064 212.623 390.979 212.373 391.105 212.302C391.878 211.641 392.34 210.689 392.394 209.444C392.428 208.787 392.32 208.027 392.366 207.372C392.42 206.513 392.669 205.665 392.718 204.804C392.763 204.411 392.593 203.904 392.584 203.441C392.564 202.972 392.798 202.811 393.584 203.214C394.723 203.797 395.963 204.632 397.096 205.639L397.098 205.639ZM397.039 205.622C395.928 204.757 394.764 204.007 393.728 203.54C393.147 203.273 393.065 203.412 393.11 203.796C393.144 204.141 393.285 204.57 393.34 204.97C393.365 205.163 393.355 205.335 393.355 205.511C393.318 206.683 393.042 207.671 393.132 208.932C393.23 210.647 392.756 211.997 391.581 212.681L391.536 212.709C391.524 212.716 391.515 212.723 391.51 212.729C391.505 212.735 391.506 212.74 391.503 212.731C391.5 212.722 391.487 212.7 391.474 212.687C391.936 213.055 392.515 213.399 393.021 213.715C393.603 214.075 394.204 214.501 394.785 214.946C395.366 215.39 395.937 215.852 396.504 216.309L396.456 216.401C396.34 216.302 396.232 216.187 396.155 216.08C395.937 215.78 395.902 215.545 395.9 215.36L395.939 214.68C396.007 213.317 395.977 211.883 396.117 210.572C396.151 210.114 396.302 209.066 396.311 208.605C396.325 208.146 396.243 207.616 396.311 207.188C396.437 206.561 396.773 206.137 397.04 205.623L397.039 205.622Z"
            fill="#21282B" />
        <path
            d="M38 0H141V63.9845C141 65.4089 139.998 66.6369 138.603 66.9233L90.1031 76.8762C89.7052 76.9579 89.2948 76.9579 88.8969 76.8762L40.3969 66.9233C39.0016 66.6369 38 65.4089 38 63.9845V0Z"
            fill="#21282B" />
        <path
            d="M59.0131 27.3715C60.3551 26.0145 62.0564 25.336 64.1169 25.336C65.4183 25.336 67.0586 25.6192 69.0377 26.1858V29.7628H68.9157C67.3026 27.4045 65.8114 26.2253 64.4423 26.2253C63.3578 26.2253 62.436 26.8445 61.6768 28.083C60.9177 29.3083 60.5381 30.83 60.5381 32.6482C60.5381 34.4664 60.9245 36.0013 61.6972 37.253C62.4834 38.4914 63.4052 39.1107 64.4626 39.1107C65.7775 39.1107 67.2619 37.9183 68.9157 35.5336H69.0377V39.1304C67.0315 39.7101 65.3505 40 63.9949 40C62.0157 40 60.3551 39.3215 59.0131 37.9644C57.671 36.5942 57 34.8287 57 32.668C57 30.4941 57.671 28.7286 59.0131 27.3715Z"
            fill="#99F876" />
        <path
            d="M70.3641 36.8182C70.3641 35.7905 70.7843 35.0066 71.6248 34.4664C72.4652 33.913 73.4006 33.6364 74.4309 33.6364C74.6071 33.6364 74.7901 33.643 74.9799 33.6561C75.6035 33.6825 76.1525 33.7813 76.6269 33.9526V32.7866C76.6269 31.2978 76.2745 30.5534 75.5696 30.5534C75.0544 30.5534 74.2546 30.9157 73.1702 31.6403C72.0857 32.365 71.4418 32.8656 71.2384 33.1423H71.1368V30.415C72.899 29.9275 74.4376 29.6838 75.7526 29.6838C77.0404 29.6838 78.0029 29.9802 78.64 30.5731C79.2771 31.166 79.5957 31.9631 79.5957 32.9644V37.0553C79.5957 37.9513 79.8397 38.3992 80.3277 38.3992C80.4904 38.3992 80.6734 38.3531 80.8768 38.2609L80.9174 38.3202C80.8496 38.7813 80.6327 39.1634 80.2667 39.4664C79.9007 39.7563 79.433 39.9012 78.8637 39.9012C77.7385 39.9012 77.0268 39.3874 76.7286 38.3597C76.0373 39.4137 75.007 39.9407 73.6378 39.9407C72.6211 39.9407 71.8213 39.6311 71.2384 39.0119C70.6555 38.3794 70.3641 37.6482 70.3641 36.8182ZM73.4548 36.4229C73.4548 36.9895 73.6175 37.4572 73.9428 37.8261C74.2817 38.1818 74.7223 38.3597 75.2646 38.3597C75.7797 38.3597 76.2338 38.1555 76.6269 37.747V34.5455C76.4507 34.5455 76.3084 34.5389 76.1999 34.5257C76.0101 34.4993 75.8271 34.4862 75.6509 34.4862C75.0409 34.4862 74.519 34.6509 74.0852 34.9802C73.6649 35.3096 73.4548 35.7905 73.4548 36.4229Z"
            fill="#99F876" />
        <path
            d="M84.8824 29.8024V36.2253C84.8824 36.8709 85.0451 37.3452 85.3704 37.6482C85.6958 37.9513 86.116 38.1028 86.6311 38.1028C87.214 38.1028 87.8308 37.9051 88.4815 37.5099C88.4544 37.22 88.4408 37.0158 88.4408 36.8972V32.9249C88.4408 32.6219 88.4137 32.2859 88.3595 31.917C88.3053 31.5481 88.2443 31.2385 88.1765 30.9881C88.1223 30.7378 88.0613 30.5007 87.9935 30.2767C87.9393 30.0395 87.9122 29.9078 87.9122 29.8814V29.8024H91.3893V36.6403C91.3893 36.8906 91.4028 37.1607 91.4299 37.4506C91.4706 37.7273 91.5181 37.9908 91.5723 38.2411C91.6265 38.4914 91.674 38.7088 91.7146 38.8933C91.7553 39.0646 91.8027 39.2358 91.857 39.4071L91.9383 39.6838V39.7628H89.1119C88.8543 39.2358 88.6713 38.6561 88.5629 38.0237C87.7224 39.3017 86.6243 39.9407 85.2687 39.9407C84.3063 39.9407 83.5065 39.6574 82.8693 39.0909C82.2322 38.5112 81.9136 37.6877 81.9136 36.6206V32.9249C81.9136 32.6219 81.8865 32.2859 81.8323 31.917C81.7781 31.5481 81.7171 31.2385 81.6493 30.9881C81.5951 30.7378 81.5341 30.5007 81.4663 30.2767C81.4121 30.0395 81.3849 29.9078 81.3849 29.8814V29.8024H84.8824Z"
            fill="#99F876" />
        <path
            d="M93.1042 32.7075C93.1042 31.7589 93.4905 31.0211 94.2632 30.4941C95.0359 29.9539 96.0662 29.6838 97.354 29.6838C98.5876 29.6838 99.8144 29.9275 101.034 30.415V33.0632H100.953C100.235 32.2727 99.5636 31.6469 98.94 31.1858C98.33 30.7246 97.7064 30.4941 97.0693 30.4941C96.6626 30.4941 96.3102 30.5929 96.0119 30.7905C95.7273 30.975 95.5849 31.2451 95.5849 31.6008C95.5849 32.0092 95.7815 32.332 96.1746 32.5692C96.5677 32.7931 97.2252 33.0567 98.147 33.3597C98.2148 33.3729 98.2622 33.386 98.2893 33.3992C99.4552 33.7945 100.282 34.2556 100.77 34.7826C101.258 35.3096 101.502 35.942 101.502 36.6798C101.502 37.7602 101.102 38.5771 100.302 39.1304C99.5162 39.6838 98.5469 39.9605 97.3946 39.9605C96.2017 39.9605 94.8597 39.6772 93.3685 39.1107V36.3439H93.4498C93.4905 36.3966 93.6396 36.5481 93.8972 36.7984L94.4055 37.2727C94.4733 37.3518 94.6224 37.5033 94.8529 37.7273C95.0969 37.9381 95.2799 38.0896 95.4019 38.1818C95.5239 38.2609 95.6934 38.3794 95.9103 38.5375C96.1272 38.6825 96.3102 38.7879 96.4593 38.8538C96.622 38.9065 96.7982 38.9592 96.988 39.0119C97.1913 39.0646 97.3879 39.0909 97.5777 39.0909C98.0114 39.0909 98.3775 38.9855 98.6757 38.7747C98.9739 38.5639 99.123 38.2609 99.123 37.8656C99.123 37.6416 99.0688 37.4506 98.9604 37.2925C98.8655 37.1212 98.6757 36.9631 98.391 36.8182C98.1199 36.6601 97.8623 36.5349 97.6183 36.4427C97.3879 36.3505 97.0083 36.2121 96.4796 36.0277C95.3545 35.6324 94.5072 35.1713 93.9379 34.6443C93.3821 34.1173 93.1042 33.4717 93.1042 32.7075Z"
            fill="#99F876" />
        <path
            d="M102.652 36.8182C102.652 35.7905 103.073 35.0066 103.913 34.4664C104.753 33.913 105.689 33.6364 106.719 33.6364C106.895 33.6364 107.078 33.643 107.268 33.6561C107.892 33.6825 108.441 33.7813 108.915 33.9526V32.7866C108.915 31.2978 108.563 30.5534 107.858 30.5534C107.343 30.5534 106.543 30.9157 105.458 31.6403C104.374 32.365 103.73 32.8656 103.527 33.1423H103.425V30.415C105.187 29.9275 106.726 29.6838 108.041 29.6838C109.329 29.6838 110.291 29.9802 110.928 30.5731C111.565 31.166 111.884 31.9631 111.884 32.9644V37.0553C111.884 37.9513 112.128 38.3992 112.616 38.3992C112.779 38.3992 112.962 38.3531 113.165 38.2609L113.206 38.3202C113.138 38.7813 112.921 39.1634 112.555 39.4664C112.189 39.7563 111.721 39.9012 111.152 39.9012C110.027 39.9012 109.315 39.3874 109.017 38.3597C108.325 39.4137 107.295 39.9407 105.926 39.9407C104.909 39.9407 104.11 39.6311 103.527 39.0119C102.944 38.3794 102.652 37.6482 102.652 36.8182ZM105.743 36.4229C105.743 36.9895 105.906 37.4572 106.231 37.8261C106.57 38.1818 107.011 38.3597 107.553 38.3597C108.068 38.3597 108.522 38.1555 108.915 37.747V34.5455C108.739 34.5455 108.597 34.5389 108.488 34.5257C108.298 34.4993 108.115 34.4862 107.939 34.4862C107.329 34.4862 106.807 34.6509 106.373 34.9802C105.953 35.3096 105.743 35.7905 105.743 36.4229Z"
            fill="#99F876" />
        <path
            d="M113.913 25.3953L117.471 25V36.6403C117.471 36.9433 117.498 37.2793 117.553 37.6482C117.607 38.0171 117.661 38.3267 117.715 38.5771C117.783 38.8274 117.844 39.0711 117.898 39.3083C117.966 39.5323 118 39.6574 118 39.6838V39.7628H113.974V39.6838C113.974 39.6574 114.001 39.5323 114.055 39.3083C114.123 39.0711 114.184 38.8274 114.238 38.5771C114.306 38.3267 114.367 38.0171 114.421 37.6482C114.475 37.2793 114.503 36.9433 114.503 36.6403V28.4585C114.503 27.6153 114.306 26.6206 113.913 25.4743V25.3953Z"
            fill="#99F876" />
    </g>
    <defs>
        <filter id="filter0_d_543_5400" x="-4" y="0" width="612" height="332"
            filterUnits="userSpaceOnUse" color-interpolation-filters="sRGB">
            <feFlood flood-opacity="0" result="BackgroundImageFix" />
            <feColorMatrix in="SourceAlpha" type="matrix"
                values="0 0 0 0 0 0 0 0 0 0 0 0 0 0 0 0 0 0 127 0" result="hardAlpha" />
            <feOffset dy="4" />
            <feGaussianBlur stdDeviation="2" />
            <feComposite in2="hardAlpha" operator="out" />
            <feColorMatrix type="matrix" values="0 0 0 0 0 0 0 0 0 0 0 0 0 0 0 0 0 0 0.25 0" />
            <feBlend mode="normal" in2="BackgroundImageFix" result="effect1_dropShadow_543_5400" />
            <feBlend mode="normal" in="SourceGraphic" in2="effect1_dropShadow_543_5400"
                result="shape" />
        </filter>
        <clipPath id="clip0_543_5400">
            <rect width="604" height="324" fill="white" />
        </clipPath>
        <clipPath id="clip1_543_5400">
            <rect width="68.3175" height="12.2687" fill="white"
                transform="translate(408.233 128.416)" />
        </clipPath>
        <clipPath id="clip2_543_5400">
            <rect width="25.5248" height="31.6286" fill="white"
                transform="translate(308.293 80.0469)" />
        </clipPath>
    </defs>
</svg>