<svg width="348" height="156" viewBox="0 0 348 156" fill="none" xmlns="http://www.w3.org/2000/svg">
    <g filter="url(#filter0_d_91_13252)">
        <rect x="46.9385" y="21.8516" width="271.515" height="76.9837" rx="7"
            transform="rotate(1.39129 46.9385 21.8516)" fill="white" />
    </g>
    <text transform="translate(68.584 64) rotate(1.39129)" fill="#21282B" xml:space="preserve"
        style="white-space: pre" font-family="Inter" font-size="16" letter-spacing="0em"><tspan x="0" y="17.8182">Define a feature in Causal</tspan></text>
    <path
        d="M85.9009 42.2478C82.1098 42.5368 78.2516 42.7504 74.4542 42.9374L73.3106 42.9957C71.8261 43.0334 70.3135 42.3381 69.4538 41.1109C68.8723 40.3013 68.5515 39.3118 68.5366 38.3246L68.9733 20.1252L69.0009 18.9915C68.9707 16.3023 71.2855 14.0353 73.9976 14.1258C74.4748 14.1338 75.5014 14.164 75.998 14.1743C91.6978 14.5557 112.268 15.0552 127.971 15.4366C130.232 15.3739 132.342 16.9669 132.844 19.1671C132.956 19.6299 132.991 20.1102 132.972 20.5856C132.877 25.2192 132.66 32.9387 132.559 37.602C132.536 38.1774 132.53 39.1729 132.507 39.7466C132.451 41.8085 130.934 43.7051 128.925 44.227C128.077 44.4786 127.19 44.378 126.321 44.3745C124.833 44.4472 121.018 43.9753 119.476 43.8395C116.435 43.5321 113.397 43.2071 110.357 42.8401C113.411 42.6227 116.462 42.444 119.514 42.2845C120.291 42.249 124.512 42.0091 125.235 42.0319C125.996 42.0644 126.758 42.104 127.519 42.1155C128.867 42.1974 130.131 41.0937 130.208 39.7522L130.32 35.2753C130.4 31.407 130.625 23.8738 130.675 20.0803C130.571 18.687 129.314 17.6415 127.921 17.7165C123.671 17.615 107.885 17.2299 103.362 17.12C96.3785 16.9504 81.0693 16.5786 74.2338 16.4126C72.9849 16.2874 71.7773 17.0114 71.4153 18.2283C71.3294 18.4897 71.3049 18.7718 71.3018 19.0456L71.2742 20.1794L70.8382 38.2804C70.8493 39.3518 71.6246 40.2627 72.5815 40.6899C72.997 40.9089 74.0289 40.9392 74.5066 41C78.2958 41.3677 82.13 41.777 85.9062 42.2445L85.9009 42.2478Z"
        fill="#21282B" />
    <path
        d="M81.6037 26.3335C87.9807 25.7913 94.3571 25.7881 100.742 25.9204C107.127 26.0947 113.496 26.4075 119.839 27.2622C113.463 27.808 107.085 27.8111 100.7 27.6754C94.3155 27.4975 87.9469 27.1848 81.6037 26.3335Z"
        fill="#21282B" />
    <path
        d="M81.4709 31.774C87.8479 31.2317 94.2242 31.2285 100.61 31.3608C106.994 31.5352 113.363 31.8479 119.706 32.7026C113.33 33.2484 106.952 33.2516 100.567 33.1158C94.1827 32.9379 87.8141 32.6252 81.4709 31.774Z"
        fill="#21282B" />
    <path
        d="M98.1789 52.7298C98.1132 52.7405 98.0476 52.7495 97.9836 52.7602C96.6548 54.3242 94.9719 55.5459 93.3052 56.7504C92.5907 57.2669 91.869 57.7867 91.0712 58.1642C90.853 58.2678 90.4546 58.2897 90.2143 58.2839L90.7123 37.7786C90.7357 36.8133 90.7591 35.8498 90.7826 34.8846C90.7863 34.7319 90.7679 34.5418 90.6279 34.4805C90.6542 34.5636 90.8469 34.4911 90.8732 34.5742L107.778 52.5556C107.69 52.5815 107.602 52.5952 107.513 52.6071C105.679 52.847 103.835 52.3105 101.987 52.2604C101.241 52.2405 99.1274 52.1909 98.5411 52.6684"
        fill="#99F876" />
    <path
        d="M99.5658 49.9976L99.3704 50.0332L99.4439 49.9929C98.4212 51.2587 97.1699 52.3223 95.8903 53.3203C94.8204 54.1231 93.7893 55.0059 92.5809 55.6175C92.1572 55.8092 91.6768 55.7852 91.2276 55.7901C91.2551 49.4129 91.2557 39.3439 91.3236 33.0537L91.3311 32.3076L91.3321 32.1215L91.3343 32.0284C91.3349 32.0056 91.335 31.9986 91.3334 31.9915C91.3337 31.981 91.3264 31.9914 91.3511 32.0657C91.3922 32.1914 91.5286 32.3299 91.6686 32.3878L92.7855 31.3964C92.712 31.1453 92.4942 30.938 92.2375 30.8774C92.1461 30.8576 92.1424 30.8645 92.1619 30.8632C92.1901 30.8657 92.2397 30.8616 92.3769 30.8895L92.4297 30.9031C92.7037 30.9765 92.9475 31.2054 93.0326 31.4884L92.8458 31.1678C98.4567 37.0551 104.537 42.9256 109.996 48.9233L111.338 50.3976C110.678 50.5361 109.226 50.9276 108.582 50.9453C107.009 51.0493 105.325 50.6379 103.839 50.4771C102.746 50.3856 101.49 50.2884 100.471 50.5095C100.502 50.4769 100.549 50.4288 100.564 50.3871C100.589 50.328 100.575 50.3241 100.569 50.3556C100.525 50.8216 100.745 51.3854 100.904 51.8967C101.028 52.2474 101.225 52.8247 101.31 53.1867C101.97 55.7174 102.68 58.2247 103.343 60.7607L103.127 60.8397C101.959 58.4828 100.939 56.0611 99.9729 53.6178C99.7103 52.8546 99.242 52.1162 98.9602 51.1243C98.5818 49.8121 99.0643 48.9476 100.452 48.6547C102.466 48.2259 104.666 48.4409 106.641 48.6469C107.386 48.7072 108.091 48.7243 108.809 48.6065L108.294 50.5011C102.65 44.685 97.1562 38.2527 91.6338 32.2921L91.4471 31.9715C91.5223 32.2244 91.7418 32.4317 91.9986 32.4906C92.0901 32.5086 92.0938 32.5017 92.0743 32.503C92.0531 32.5025 91.815 32.4774 91.7311 32.4349C91.4928 32.3466 91.2823 32.1308 91.2054 31.876L90.665 30.1719L92.3241 30.883C92.7934 31.0682 93.0094 31.6389 92.969 32.0664L92.9667 32.1594L92.9587 32.3453C92.8408 35.3786 92.617 40.4429 92.4839 43.5232L91.9361 55.4456L91.593 55.0878C91.8333 55.0936 92.0791 55.0926 92.3002 55.0189C92.7578 54.8158 93.1864 54.5663 93.6139 54.2922C94.9369 53.4042 96.287 52.4923 97.5245 51.4845C98.1433 50.9762 98.7295 50.4321 99.2638 49.8375L99.2965 49.8014L99.3373 49.7953L99.5306 49.7702L99.5676 49.9959L99.5658 49.9976Z"
        fill="#21282B" />
    <defs>
        <filter id="filter0_d_91_13252" x="0.237305" y="0.0195312" width="344.969" height="155.218"
            filterUnits="userSpaceOnUse" color-interpolation-filters="sRGB">
            <feFlood flood-opacity="0" result="BackgroundImageFix" />
            <feColorMatrix in="SourceAlpha" type="matrix"
                values="0 0 0 0 0 0 0 0 0 0 0 0 0 0 0 0 0 0 127 0" result="hardAlpha" />
            <feOffset dx="-9" dy="14" />
            <feGaussianBlur stdDeviation="18" />
            <feComposite in2="hardAlpha" operator="out" />
            <feColorMatrix type="matrix" values="0 0 0 0 0 0 0 0 0 0 0 0 0 0 0 0 0 0 0.12 0" />
            <feBlend mode="normal" in2="BackgroundImageFix" result="effect1_dropShadow_91_13252" />
            <feBlend mode="normal" in="SourceGraphic" in2="effect1_dropShadow_91_13252"
                result="shape" />
        </filter>
    </defs>
</svg>