<svg width="365" height="182" viewBox="0 0 365 182" fill="none" xmlns="http://www.w3.org/2000/svg">
    <g filter="url(#filter0_d_91_13261)">
        <rect x="47.8691" y="22.3848" width="290.323" height="102.486" rx="7"
            transform="rotate(1.39129 47.8691 22.3848)" fill="white" />
    </g>
    <text transform="translate(69.5137 64.5332) rotate(1.39129)" fill="#21282B" xml:space="preserve"
        style="white-space: pre" font-family="Inter" font-size="16" letter-spacing="0em"><tspan x="0" y="17.8182">Use a Causal-defined feature </tspan><tspan x="0" y="41.8182">in React</tspan></text>
    <circle cx="116.62" cy="44.8728" r="12.5" transform="rotate(0.556491 116.62 44.8728)"
        fill="#99F876" />
    <path
        d="M110.993 32.547C110.638 29.5945 110.319 26.6403 110.015 23.684C109.927 23.0847 110.016 22.4894 109.514 22.0791C108.625 21.2641 107.684 20.4078 106.808 19.5692C104.785 17.4156 102.793 15.2043 100.722 13.108L101.401 13.3977L79.4924 13.1849L78.4694 13.175C78.5068 12.6392 78.5795 11.5568 78.6169 11.021L80.5414 11.1683C80.3868 12.9577 80.3371 14.7652 80.3258 16.586C80.2698 26.5457 80.0546 44.9521 79.9669 55.0873L79.0112 54.1129C81.4217 54.1363 83.7505 54.62 86.1264 54.6689C86.596 54.6798 86.9928 54.673 87.2788 54.5943C87.6875 54.4717 88.1042 54.1948 88.5279 54.0638C89.1003 53.8699 89.6679 53.7338 90.2451 53.7051C91.351 53.7823 92.9459 53.8643 94.0646 53.9567C95.968 54.0781 99.8042 54.3749 101.705 54.5199C102.978 54.6266 104.251 54.7248 105.524 54.8401C101.294 55.1379 96.38 55.3819 92.1355 55.598C90.9572 55.6831 90.1903 55.5898 89.1536 55.8972C88.6823 56.0556 88.2742 56.3369 87.7733 56.4607C86.5847 56.7258 85.7154 56.5715 84.607 56.5243C82.7146 56.3773 80.8539 56.0632 78.9903 56.043L78.0253 56.0336L78.0346 55.0707C78.1231 44.8561 78.3368 26.6063 78.3935 16.5715C78.4072 14.7272 78.4553 12.866 78.6171 11.0016L80.5416 11.149L80.4663 12.2829L79.5133 11.2527L101.422 11.4655L101.821 11.4694C104.002 13.6954 106.099 15.9677 108.235 18.2212C108.875 18.9716 109.505 19.7284 110.149 20.4725C110.516 20.9178 110.95 21.3145 111.156 21.9407C111.352 22.5581 111.272 23.0549 111.275 23.634C111.257 24.6247 111.221 25.6153 111.194 26.6037C111.141 28.585 111.075 30.5639 110.993 32.547Z"
        fill="#21282B" />
    <path
        d="M83.862 30.3772C84.3608 30.2534 84.8729 30.0868 85.317 29.8509L85.3814 29.8472C85.674 29.7471 86.0097 29.6388 86.3065 29.5473C86.4098 29.5183 86.5131 29.4743 86.614 29.471C88.8308 29.5611 92.9597 29.5369 95.2241 29.5803C96.1055 29.5889 100.585 29.6324 101.375 29.6401L101.99 29.6461C102.093 29.6492 102.196 29.6202 102.297 29.6276C102.815 29.7613 103.319 29.9614 103.83 30.1465C104.238 30.2985 104.646 30.459 105.056 30.641C104.143 31.0096 103.222 31.3524 102.28 31.6006C98.8644 31.5052 93.7254 31.5154 90.2879 31.4627L87.8281 31.4388C87.6351 31.4369 87.0989 31.4317 86.9059 31.4298C86.6933 31.4599 86.4939 31.4601 86.291 31.3681C85.996 31.2709 85.6625 31.1582 85.3718 31.0503L85.4362 31.0467C84.8626 30.9231 84.3415 30.7014 83.8642 30.3729L83.862 30.3772Z"
        fill="#21282B" />
    <path
        d="M84.2659 37.6174C85.0633 37.2283 85.8575 36.9336 86.6537 36.6647C87.447 36.6939 88.2385 36.6865 89.0319 36.6985C91.4038 36.7216 96.1711 36.7679 98.5408 36.7909L100.919 36.814C101.706 37.1026 102.532 37.4302 103.288 37.8021C102.525 38.1593 101.692 38.4708 100.9 38.7441L98.5221 38.721C96.1524 38.698 91.3807 38.6516 89.0132 38.6286C88.2196 38.6252 87.4284 38.6025 86.6347 38.6162C85.8439 38.3319 85.0555 38.0218 84.2659 37.6174Z"
        fill="#21282B" />
    <path
        d="M84.1999 44.3319L84.0835 44.3909L84.0847 44.2686C84.7398 43.9468 85.3966 43.683 86.0745 43.4386C86.1692 43.4074 86.264 43.359 86.3584 43.3599C86.4528 43.3608 86.5468 43.3896 86.6412 43.3884L86.9243 43.3911C87.276 43.3945 88.2561 43.4041 88.6228 43.4076C90.8789 43.4295 95.4253 43.4737 97.6835 43.4956C98.4384 43.5051 99.1934 43.5039 99.9481 43.5241C100.698 43.8102 101.484 44.1374 102.203 44.5047C101.477 44.8579 100.683 45.1719 99.9295 45.4413C99.1745 45.4447 98.4197 45.4288 97.6648 45.4257C95.4044 45.4038 90.8623 45.3596 88.604 45.3377C88.2373 45.3342 87.2616 45.3247 86.9056 45.3212L86.6225 45.3185C86.4014 45.3399 86.2746 45.3666 86.0569 45.2572C85.3837 45.0019 84.7323 44.7232 84.0835 44.3887L84.0847 44.2665L84.2 44.3277L84.1999 44.3319Z"
        fill="#21282B" />
    <path
        d="M119.36 37.6217C119.488 38.3157 119.533 38.9746 119.551 39.6204C119.06 40.6773 117.923 43.3364 117.434 44.4405C116.743 46.0338 116.086 47.5974 115.609 49.2463C115.204 49.6735 114.686 50.2604 114.266 50.6832C114.014 50.0523 113.856 49.3794 113.755 48.7093C113.924 48.1233 114.116 47.5482 114.321 46.9818C115.024 45.0176 116.242 42.3807 117.07 40.452C117.3 39.9138 117.547 39.3843 117.763 38.8395C118.25 38.4131 118.762 37.9999 119.36 37.6217Z"
        fill="#21282B" />
    <path
        d="M122.106 41.4251C122.394 41.0761 122.868 40.9156 123.316 40.9028C123.464 40.9085 123.66 40.8697 123.729 41.0055C125.058 42.0071 125.256 43.7248 125.838 45.1224C125.061 45.6125 124.262 46.1645 123.623 46.8274C123.58 46.8785 123.522 46.9165 123.489 46.9806C123.482 47.0663 123.357 47.0415 123.267 47.0535C122.894 47.0842 122.505 47.1276 122.057 47.1575C121.969 46.7149 121.962 46.3009 121.989 45.8915C122.001 45.7951 121.979 45.6619 122.073 45.6371C122.708 45.0127 123.379 44.4122 124.134 43.9305L123.758 45.0743C123.61 44.6761 123.504 44.304 123.394 43.9727C123.2 43.4153 123.02 42.8838 122.564 42.5705C122.483 42.5955 122.523 42.4565 122.506 42.3684C122.482 42.025 122.339 41.689 122.104 41.4229L122.106 41.4251Z"
        fill="#21282B" />
    <path
        d="M110.736 40.9928C110.788 41.4394 110.8 41.9328 110.783 42.368C110.15 43.0182 109.53 43.7907 108.95 44.495C108.963 44.4737 109.009 44.4119 109.042 44.2664C109.104 44.0783 109.003 43.7298 108.894 43.6365C109.151 43.9007 109.726 44.4897 109.99 44.7582L110.678 45.4619C110.697 45.9018 110.723 46.3353 110.675 46.841C110.169 46.8768 109.736 46.8404 109.296 46.8104L108.608 46.1067L107.92 45.4029L107.576 45.05C107.436 44.8985 107.366 44.8571 107.233 44.5898C107.141 44.4088 107.097 44.0931 107.152 43.8706C107.202 43.6437 107.289 43.5094 107.348 43.4199C107.448 43.2772 107.469 43.2624 107.55 43.1602C107.645 43.0346 107.925 42.7049 108.027 42.5772C108.453 42.058 108.908 41.5648 109.344 41.0565C109.784 40.99 110.282 40.9626 110.734 40.9949L110.736 40.9928Z"
        fill="#21282B" />
    <defs>
        <filter id="filter0_d_91_13261" x="0.548828" y="0.552734" width="364.391" height="181.169"
            filterUnits="userSpaceOnUse" color-interpolation-filters="sRGB">
            <feFlood flood-opacity="0" result="BackgroundImageFix" />
            <feColorMatrix in="SourceAlpha" type="matrix"
                values="0 0 0 0 0 0 0 0 0 0 0 0 0 0 0 0 0 0 127 0" result="hardAlpha" />
            <feOffset dx="-9" dy="14" />
            <feGaussianBlur stdDeviation="18" />
            <feComposite in2="hardAlpha" operator="out" />
            <feColorMatrix type="matrix" values="0 0 0 0 0 0 0 0 0 0 0 0 0 0 0 0 0 0 0.12 0" />
            <feBlend mode="normal" in2="BackgroundImageFix" result="effect1_dropShadow_91_13261" />
            <feBlend mode="normal" in="SourceGraphic" in2="effect1_dropShadow_91_13261"
                result="shape" />
        </filter>
    </defs>
</svg>