<svg width="351" height="180" viewBox="0 0 351 180" fill="none" xmlns="http://www.w3.org/2000/svg">
    <g filter="url(#filter0_d_91_13393)">
        <rect x="47.4551" y="22.1377" width="276.359" height="101.055" rx="7"
            transform="rotate(1.39129 47.4551 22.1377)" fill="white" />
    </g>
    <text transform="translate(69.1016 64.2861) rotate(1.39129)" fill="#21282B" xml:space="preserve"
        style="white-space: pre" font-family="Inter" font-size="16" letter-spacing="0em"><tspan x="0" y="17.8182">Link a Sagemaker model using </tspan><tspan x="0" y="41.8182">Causal-defined features</tspan></text>
    <rect x="68.8223" y="35.9912" width="46" height="17.3801" rx="3"
        transform="rotate(1.68015 68.8223 35.9912)" fill="#99F876" />
    <path
        d="M74.4102 53.7758C74.2501 56.0998 74.5496 58.4143 74.9341 60.7027C75.045 62.3362 76.9688 62.4424 78.282 62.4886C79.6168 62.5162 80.9988 62.3712 82.3594 62.4321C83.3152 62.464 84.2845 62.4924 85.2371 62.5031C86.7432 62.5626 88.3165 62.6777 89.8299 62.6838C94.2351 62.7384 98.6452 62.4946 103.016 61.9455C104.041 61.7995 105.074 61.9867 106.061 62.0118C106.552 62.0434 107.253 62.0104 107.555 61.7686C107.711 61.5857 107.678 61.2843 107.66 61.0312C107.652 60.9927 107.613 60.3543 107.606 60.2852C107.533 59.0986 107.525 57.8795 107.61 56.688C107.917 51.9668 108.429 44.1059 108.741 39.3122C108.83 37.1449 109.192 34.6622 108.958 32.5314C108.876 31.8593 108.733 31.1318 108.358 30.608C108.22 30.4221 107.934 30.0483 107.794 29.8605C105.673 27.0792 103.3 24.3001 101.81 21.0876C101.575 20.6004 101.366 20.1006 101.153 19.6064C100.829 18.9578 100.17 18.7261 99.3377 18.4682C97.1762 17.9188 94.8984 17.7487 92.6482 17.6157C89.6008 17.4593 86.5183 17.455 83.4728 17.6259C82.7135 17.6764 81.9599 17.7308 81.2186 17.822C80.1037 17.9959 78.9906 18.0436 78.4475 19.0112C78.1637 19.554 78.0699 20.2707 77.996 20.9C77.7157 23.8673 77.2354 27.7797 76.9619 30.7108C76.7888 32.2422 76.7226 33.7806 76.5591 35.3105L76.2829 37.6158C75.6025 42.8751 74.514 48.4727 74.4082 53.7757L74.4102 53.7758ZM74.4102 53.7758C74.6009 48.5116 74.5736 42.7895 74.6159 37.4999L74.6535 35.1723C74.6956 33.8035 74.9466 31.8992 75.0617 30.5211C75.2961 27.8127 75.7748 24.017 76.0368 21.2826C76.1465 20.2162 76.2481 19.1036 76.7592 18.1159C77.5716 16.5133 79.3728 16.1031 80.9892 15.9247C83.3431 15.6531 85.7021 15.598 88.058 15.5867C91.2072 15.5987 94.327 15.7017 97.4616 16.1476C99.1484 16.442 101.029 16.6541 102.322 17.9626C102.666 18.3114 102.899 18.7851 103.079 19.242C103.514 20.2727 104.014 21.2728 104.589 22.2311C106.117 24.7998 108.301 27.25 110.049 29.697C111.314 31.8562 110.919 34.7531 110.8 37.1147C110.519 41.3238 110.02 49.1487 109.744 53.3331C109.666 54.6281 109.508 56.6403 109.466 57.9288C109.447 58.8524 109.48 59.8044 109.552 60.7327C109.6 61.2526 109.616 61.7391 109.436 62.2734C108.544 64.5798 105.61 63.803 103.731 63.8053C102.995 63.8468 102.237 63.9873 101.506 64.0481C97.6209 64.4699 93.7103 64.646 89.8024 64.6003C87.4574 64.5698 85.1088 64.5277 82.7874 64.1496C82.5074 64.107 81.9203 64.0285 81.6404 63.9801C79.5304 63.6369 74.4164 63.8046 74.5098 60.7495C74.4212 58.4871 74.2352 56.0228 74.4062 53.7795L74.4102 53.7758Z"
        fill="#21282B" />
    <path
        d="M98.669 22.3317C99.0661 22.9518 99.3879 23.5927 99.6843 24.2501C99.6859 25.3715 99.751 26.9998 99.7712 28.137C99.7898 28.4189 99.7575 28.9307 99.852 29.167C99.8649 29.1826 99.8409 29.1551 99.8426 29.1609C99.9614 29.2199 100.152 29.2446 100.356 29.2679C101.283 29.3831 102.185 29.4057 103.131 29.3818C103.763 29.3659 104.407 29.3369 105.056 29.31C105.386 29.4364 105.719 29.5648 106.049 29.7142C106.338 29.8451 106.765 30.0356 107.04 30.1948C106.776 30.3727 106.368 30.5827 106.088 30.741C105.771 30.9135 105.454 31.0687 105.138 31.2221C104.492 31.2491 103.841 31.2797 103.176 31.2947C102.179 31.3209 101.133 31.2922 100.13 31.1671C99.6915 31.1159 99.2286 31.0449 98.7894 30.7546C97.9009 30.187 97.8622 29.0952 97.864 28.1863C97.8343 27.045 97.8033 25.4253 97.756 24.3007C98.0206 23.6273 98.3077 22.9736 98.6728 22.3337L98.669 22.3317Z"
        fill="#21282B" />
    <path
        d="M82.4672 22.541C82.8541 22.072 83.2708 21.6958 83.6999 21.3525C83.7546 21.3139 83.8155 21.3253 83.8766 21.3309C83.9894 21.3342 84.2896 21.2741 84.4086 21.2623C87.004 20.9117 89.6328 20.7937 92.2488 20.9144C92.7107 21.2169 93.1641 21.5459 93.5998 21.9567C93.4766 22.0468 93.3539 22.1198 93.2329 22.2023L92.8706 22.4194C92.6309 22.5674 92.3956 22.6963 92.1602 22.8253C91.7054 22.8062 91.2504 22.7929 90.7952 22.7852C88.9743 22.7605 87.1517 22.8563 85.3429 23.0712C84.8915 23.1306 84.4386 23.1767 83.9901 23.2649C83.489 23.0627 82.9452 22.8152 82.4671 22.5429L82.4672 22.541Z"
        fill="#21282B" />
    <path
        d="M81.1108 28.6498C81.5008 28.2059 81.9751 27.8237 82.4611 27.4973C82.9632 27.47 83.4603 27.4214 83.9545 27.4015C84.9453 27.3501 85.9255 27.333 86.8998 27.3214C88.3318 27.2964 89.77 27.3252 91.1725 27.196C91.5747 27.38 91.9654 27.6288 92.399 27.7199C92.4581 27.7255 92.5252 27.7236 92.5878 27.6757C92.6811 28.0172 92.3184 28.3146 92.1092 28.5323C91.8711 28.755 91.6211 28.9294 91.3712 29.0981C90.8453 29.1516 90.3453 29.1733 89.8492 29.1893C87.9016 29.2451 85.9776 29.2116 84.0516 29.312C83.5781 29.3403 83.1068 29.359 82.6438 29.4238C82.1416 29.1929 81.6003 28.9244 81.1088 28.6517L81.1108 28.6498Z"
        fill="#21282B" />
    <path fill-rule="evenodd" clip-rule="evenodd"
        d="M82.3621 43.2C81.8271 43.2 81.314 43.3896 80.9357 43.7272C80.5574 44.0648 80.3448 44.5226 80.3448 45C80.3448 45.4774 80.5574 45.9352 80.9357 46.2728C81.314 46.6104 81.8271 46.8 82.3621 46.8H83.9495C84.3209 46.8 84.6219 47.0686 84.6219 47.4C84.6219 47.7314 84.3209 48 83.9495 48H82.3621C81.4704 48 80.6152 47.6839 79.9847 47.1213C79.3542 46.5587 79 45.7956 79 45C79 44.2044 79.3542 43.4413 79.9847 42.8787C80.6152 42.3161 81.4704 42 82.3621 42H83.9145C84.2859 42 84.5869 42.2686 84.5869 42.6C84.5869 42.9314 84.2859 43.2 83.9145 43.2H82.3621ZM86.4131 42.6C86.4131 42.2686 86.7141 42 87.0855 42H88.6379C89.5296 42 90.3848 42.3161 91.0153 42.8787C91.6458 43.4413 92 44.2044 92 45C92 45.7956 91.6458 46.5587 91.0153 47.1213C90.3848 47.6839 89.5296 48 88.6379 48H87.0505C86.6791 48 86.3781 47.7314 86.3781 47.4C86.3781 47.0686 86.6791 46.8 87.0505 46.8H88.6379C89.1729 46.8 89.686 46.6104 90.0643 46.2728C90.4426 45.9352 90.6552 45.4774 90.6552 45C90.6552 44.5226 90.4426 44.0648 90.0643 43.7272C89.686 43.3896 89.1729 43.2 88.6379 43.2H87.0855C86.7141 43.2 86.4131 42.9314 86.4131 42.6ZM82.392 45C82.392 44.6686 82.6931 44.4 83.0645 44.4H87.9916C88.3629 44.4 88.664 44.6686 88.664 45C88.664 45.3314 88.3629 45.6 87.9916 45.6H83.0645C82.6931 45.6 82.392 45.3314 82.392 45Z"
        fill="#2D3748" />
    <defs>
        <filter id="filter0_d_91_13393" x="0.169922" y="0.305664" width="350.395" height="179.399"
            filterUnits="userSpaceOnUse" color-interpolation-filters="sRGB">
            <feFlood flood-opacity="0" result="BackgroundImageFix" />
            <feColorMatrix in="SourceAlpha" type="matrix"
                values="0 0 0 0 0 0 0 0 0 0 0 0 0 0 0 0 0 0 127 0" result="hardAlpha" />
            <feOffset dx="-9" dy="14" />
            <feGaussianBlur stdDeviation="18" />
            <feComposite in2="hardAlpha" operator="out" />
            <feColorMatrix type="matrix" values="0 0 0 0 0 0 0 0 0 0 0 0 0 0 0 0 0 0 0.12 0" />
            <feBlend mode="normal" in2="BackgroundImageFix" result="effect1_dropShadow_91_13393" />
            <feBlend mode="normal" in="SourceGraphic" in2="effect1_dropShadow_91_13393"
                result="shape" />
        </filter>
    </defs>
</svg>