<svg width="337" height="180" viewBox="0 0 337 180" fill="none" xmlns="http://www.w3.org/2000/svg">
    <g filter="url(#filter0_d_91_13280)">
        <rect x="47.9385" y="22.2227" width="261.966" height="101.055" rx="7"
            transform="rotate(1.39129 47.9385 22.2227)" fill="white" />
    </g>
    <text transform="translate(69.5859 64.3711) rotate(1.39129)" fill="#21282B" xml:space="preserve"
        style="white-space: pre" font-family="Inter" font-size="16" letter-spacing="0em"><tspan x="0" y="17.8182">Manage Causal-defined </tspan><tspan x="0" y="41.8182">features without code</tspan></text>
    <path
        d="M106.777 16.0734C106.424 17.2105 105.855 18.2515 105.417 19.3517C104.837 20.8079 104.49 22.3739 104.392 23.9575C104.352 24.596 104.37 25.2957 104.731 25.7951C105.167 26.3987 105.973 26.5147 106.658 26.3496C107.343 26.1845 107.967 25.7977 108.632 25.5568C110.603 24.8412 112.731 25.4527 114.776 25.8053C117.644 26.2994 120.565 26.2731 123.47 26.2465C123.677 26.2438 123.912 26.2282 124.044 26.0498C124.142 25.9169 124.149 25.7336 124.154 25.5618C124.273 20.3816 124.394 15.2016 124.514 10.0215C118.951 10.1367 112.748 9.05612 107.29 9.8944C107.125 11.9825 107.417 14.0218 106.777 16.0734Z"
        fill="#99F876" />
    <path
        d="M109.415 16.2757C109.017 17.5336 108.432 18.7405 108.212 20.0613C108.006 21.2739 107.942 22.6501 108.068 23.8414C108.115 24.0957 108.133 24.2907 108.258 24.4539C108.395 24.5967 108.633 24.6403 108.845 24.6368C109.608 24.5777 110.137 24.1237 110.927 23.8758C111.825 23.5651 112.745 23.5373 113.599 23.6061C115.262 23.7632 116.75 24.209 118.38 24.3343C119.942 24.4839 121.527 24.4997 123.126 24.49C123.419 24.4833 123.97 24.4897 124.264 24.4778C124.302 24.4787 124.276 24.4592 124.169 24.5358C124.095 24.5736 124.01 24.7386 124.003 24.8039C124.008 24.7007 124.014 24.384 124.016 24.2652C124.054 22.5371 124.283 12.8037 124.326 10.8622L125.11 11.7404C121.241 11.8108 117.495 11.3056 113.675 11.3461C112.429 11.4625 111.191 11.3052 109.932 11.3008L110.35 10.8131C109.948 12.5979 109.952 14.5286 109.413 16.2773L109.415 16.2757ZM109.415 16.2757C110.031 14.3427 109.426 12.3442 109.371 10.3693C110.768 9.9242 112.225 9.5236 113.668 9.6221C117.754 9.58102 121.854 10.1465 125.895 10.001L125.874 10.8943L125.625 21.6174L125.563 24.2973L125.555 24.6329C125.592 25.5999 125.063 26.2192 124.186 26.1998C124.101 26.2012 123.823 26.2031 123.732 26.2044C121.908 26.2207 120.086 26.2233 118.24 26.048C116.658 25.9324 115.018 25.4709 113.476 25.3218C112.734 25.2609 112.017 25.2936 111.373 25.5192C110.627 25.7785 109.731 26.3613 108.871 26.3544C107.207 26.4039 106.219 24.9404 106.6 23.1671C106.851 21.5543 107.515 20.0083 108.292 18.6527C108.719 17.8846 109.15 17.1235 109.413 16.2739L109.415 16.2757Z"
        fill="#21282B" />
    <path
        d="M117.118 26.886C117.62 27.506 118.037 28.2152 118.378 28.9571C118.418 29.0511 118.417 29.1526 118.422 29.2527C118.507 29.9263 118.598 30.6467 118.639 31.3227C118.88 35.1827 118.565 39.0672 118.479 42.9176C118.228 43.6711 117.946 44.4633 117.628 45.1893C117.503 44.8694 117.357 44.3613 117.252 44.0247C117.134 43.6361 117.034 43.2496 116.932 42.8614L117.009 40.5625C117.058 39.0309 117.117 37.491 117.158 35.9731C117.196 34.4533 117.2 32.9482 117.096 31.4664C117.043 30.7263 116.974 29.991 116.838 29.273C116.947 28.4697 117.02 27.7016 117.118 26.8843L117.118 26.886Z"
        fill="#21282B" />
    <path
        d="M89.2543 43.5988C89.2999 40.8702 89.4283 38.0455 89.5529 35.3138C90.2861 35.4089 91.1624 35.5351 91.8963 35.601C93.4684 35.8955 95.0493 36.0179 96.651 36.0479C107.38 35.9172 121.685 35.213 132.441 34.9107C135.187 34.8149 137.948 34.6662 140.698 34.9993C141.464 35.0746 142.221 35.3856 142.964 35.5999L142.895 36.1924C142.589 38.8853 142.48 41.602 142.522 44.3171C142.229 42.984 142.004 41.6319 141.837 40.269C141.663 38.9009 141.564 37.5208 141.508 36.1365L142.056 36.9195C141.007 36.8323 139.982 36.6302 138.927 36.5704C135.844 36.4031 132.339 36.6734 129.223 36.7447C119.702 37.0062 106.093 37.6841 96.6126 37.7709C95.5109 37.746 94.4038 37.6832 93.2983 37.5584L92.4677 37.4609C91.6269 37.3976 90.8196 37.1043 90.0194 36.8371L90.8192 36.2208C90.3409 38.6582 89.8017 41.1854 89.2527 43.5987L89.2543 43.5988Z"
        fill="#21282B" />
    <path
        d="M133.942 60.2046C134.914 59.6115 135.936 59.1694 137.007 58.8525C138.345 58.4766 139.716 58.1618 141.089 58.1053C143.594 58.1209 146.185 58.2212 148.663 57.8624C148.727 57.8484 148.967 57.8198 149.014 57.8071C149.039 57.8026 149.027 57.7988 148.97 57.8319C148.914 57.8633 148.831 57.9577 148.809 58.0157C148.782 58.0719 148.786 58.0909 148.788 58.0703C148.792 58.0515 148.796 58.0034 148.799 57.9259C148.986 55.528 148.786 53.1949 148.859 50.7701C148.882 49.8045 149.001 48.7706 148.89 47.8173C148.463 47.0941 147.373 47.6706 146.699 47.8816C146.085 48.0821 145.426 48.1334 144.813 48.0687C143.429 47.9286 142.233 47.2832 140.895 47.2166C140.677 47.1907 140.359 47.2295 140.141 47.2294C138.786 47.2966 137.176 47.003 136.302 48.3269C135.722 49.2808 135.669 50.6314 135.551 51.8031C135.536 52.2419 135.475 52.7157 135.381 53.1423C134.919 55.4905 134.486 57.8601 133.942 60.2046ZM133.942 60.2046C133.898 57.7874 133.886 55.383 133.904 52.9655C133.888 52.5294 133.944 52.0554 134.009 51.6247C134.162 50.1611 134.228 48.6558 135.039 47.3424C136.324 45.2879 138.594 45.5578 140.512 45.4938C141.518 45.4491 142.581 45.7503 143.508 46.0292C144.586 46.3618 145.599 46.5566 146.638 46.1012C147.233 45.8796 147.898 45.6734 148.56 45.7686C149.62 45.913 150.489 46.7864 150.465 48.0481C150.502 48.6759 150.485 49.3196 150.442 49.9437C150.288 52.6145 150.554 55.3471 150.343 58.0389C150.323 58.2813 150.313 58.5376 150.174 58.8236C150.089 59.0144 149.911 59.2219 149.735 59.3262C149.475 59.4887 149.289 59.4997 149.07 59.5392C148.865 59.5653 148.65 59.6101 148.447 59.6293C146.81 59.8413 145.141 59.8527 143.514 59.848C142.956 59.85 141.641 59.8252 141.101 59.8708C139.775 59.8492 138.453 59.6761 137.126 59.7509C136.063 59.7891 134.978 59.9403 133.942 60.2064L133.942 60.2046Z"
        fill="#21282B" />
    <path
        d="M108.847 59.4378C110.84 58.4973 112.959 57.9008 115.11 57.6289C115.606 57.5392 116.104 57.5977 116.6 57.6079C117.91 57.6309 119.199 57.6861 120.453 57.6147C121.709 57.5536 122.928 57.3436 124.061 56.8991L123.546 57.684L123.813 46.0297L124.889 46.8306C122.656 47.8514 120.233 47.5795 117.897 47.6007C116.622 47.5752 115.344 47.5203 114.072 47.4328C113.112 47.3701 112.094 47.07 111.177 47.0531C110.601 47.0461 110.151 47.1265 109.902 47.4323C109.637 48.2387 109.687 49.2457 109.673 50.146C109.663 50.7606 109.727 51.3752 109.731 51.9901C109.664 53.2336 109.621 54.4932 109.546 55.7555C109.475 56.4306 109.408 59.2326 108.847 59.4361L108.847 59.4378ZM108.847 59.4378C109.286 59.1539 108.765 56.4203 108.702 55.8057C108.523 54.5701 108.333 53.3342 108.166 52.0799C108.119 50.7785 108.087 49.5292 108.185 48.2072C108.255 47.6113 108.294 47.0232 108.644 46.4393C108.998 45.8829 109.662 45.5235 110.211 45.4213C111.576 45.139 112.865 45.6161 114.175 45.7183C115.982 45.8411 117.794 45.9019 119.604 45.8973C121.158 45.8848 122.901 45.9182 124.286 45.2523L125.391 44.7244L125.359 46.0549L125.093 57.7368L125.079 58.3254L124.577 58.5217C121.981 59.5545 119.217 59.3811 116.566 59.331C115.283 59.3914 114.022 59.1595 112.734 59.1836C111.448 59.1698 110.151 59.2695 108.845 59.4378L108.847 59.4378Z"
        fill="#21282B" />
    <path
        d="M96.9805 47.3989C97.0267 47.8564 97.6891 53.5227 97.7251 53.8284C97.8443 54.5339 97.793 55.2508 97.8285 55.9647C97.8629 56.9144 97.9051 57.8626 97.9565 58.811L98.0121 59.8457C95.271 59.4232 92.4963 59.3684 89.7077 59.5716C86.9457 59.7616 84.1539 60.1594 81.3796 60.5368C81.4066 59.6764 81.3972 58.7789 81.3457 57.896C81.2531 54.9264 80.4149 47.8178 83.6091 46.5928C84.9734 46.066 86.4101 46.2591 87.7851 46.3834C88.5729 46.4593 89.2776 46.5744 90.0525 46.5448C90.33 46.5274 90.6103 46.5256 90.885 46.5649C93.0878 46.835 95.1422 47.1617 96.9805 47.3954L96.9805 47.3989ZM96.9805 47.3989C94.6955 47.6435 92.6236 47.9793 90.7033 48.2586C90.1891 48.3306 89.7369 48.2697 89.197 48.2516C88.1553 48.1765 87.1527 48.018 86.1349 47.978C85.3364 47.964 84.5503 47.945 83.8593 48.3503C82.4286 49.5782 82.7396 54.1494 82.8 56.0762C82.8582 57.1299 82.9427 58.5096 82.9386 59.5773L82.074 58.7057C87.096 58.0224 92.1985 57.3342 97.276 58.0111L96.4071 58.9218C96.3273 57.4819 96.2815 56.0393 96.214 54.598C96.3526 52.1869 96.6165 49.7805 96.9774 47.3954L96.9805 47.3989Z"
        fill="#21282B" />
    <defs>
        <filter id="filter0_d_91_13280" x="0.652344" y="0.390625" width="336.008" height="179.05"
            filterUnits="userSpaceOnUse" color-interpolation-filters="sRGB">
            <feFlood flood-opacity="0" result="BackgroundImageFix" />
            <feColorMatrix in="SourceAlpha" type="matrix"
                values="0 0 0 0 0 0 0 0 0 0 0 0 0 0 0 0 0 0 127 0" result="hardAlpha" />
            <feOffset dx="-9" dy="14" />
            <feGaussianBlur stdDeviation="18" />
            <feComposite in2="hardAlpha" operator="out" />
            <feColorMatrix type="matrix" values="0 0 0 0 0 0 0 0 0 0 0 0 0 0 0 0 0 0 0.12 0" />
            <feBlend mode="normal" in2="BackgroundImageFix" result="effect1_dropShadow_91_13280" />
            <feBlend mode="normal" in="SourceGraphic" in2="effect1_dropShadow_91_13280"
                result="shape" />
        </filter>
    </defs>
</svg>