<svg width="336" height="162" viewBox="0 0 336 162" fill="none" xmlns="http://www.w3.org/2000/svg">
<g filter="url(#filter0_d_91_13366)">
<rect x="46.9385" y="22.8174" width="261.966" height="82.4232" rx="7" transform="rotate(1.39129 46.9385 22.8174)" fill="white"/>
</g>
<text transform="translate(68.585 64.9658) rotate(1.39129)" fill="#21282B" xml:space="preserve" style="white-space: pre" font-family="Inter" font-size="16" letter-spacing="0em"><tspan x="0" y="17.8182">Set up an experiment</tspan></text>
<g clip-path="url(#clip0_91_13366)">
<path d="M76.246 49.6243C86.7115 47.9237 97.5025 52.0246 107.883 49.8174C107.853 39.0026 107.899 28.1865 108.01 17.3692C102.311 18.5782 96.5519 19.4131 90.7643 19.8614C87.1661 20.1397 80.3321 16.444 77.2839 19.0964C73.1345 22.7351 76.6573 49.5568 76.246 49.6243Z" fill="#99F876"/>
</g>
<path d="M79.2779 51.4563C89.7411 49.6172 100.539 54.1073 110.917 51.7154C110.87 39.9177 110.899 28.1186 110.993 16.3185C105.296 17.6286 99.5381 18.5306 93.7511 19.0107C90.1532 19.3089 83.3134 15.2668 80.2691 18.1555C76.125 22.1054 79.6889 51.3702 79.2777 51.4431L79.2779 51.4563Z" stroke="#21282B" stroke-width="1.48026" stroke-miterlimit="10"/>
<path d="M120.599 50.149C124.28 50.087 127.961 50.025 131.655 49.9754L153.95 49.6C154.035 38.2637 153.902 26.931 153.987 15.5946C153.959 19.3734 123.084 17.328 120.19 16.9977C119.846 27.9846 120.862 39.1129 120.599 50.149Z" stroke="#21282B" stroke-width="1.48026" stroke-miterlimit="10"/>
<path d="M86.4518 42.3757C86.9778 37.7227 88.5182 33.2662 90.5272 29.0268C90.9656 28.1423 91.3226 27.2592 92.252 26.5464C93.3656 25.7292 94.5606 25.6079 95.4899 25.581C96.6072 25.6746 97.1484 25.3731 98.3705 26.1735C99.0307 26.7246 99.1336 27.3188 99.2077 27.5762C99.3364 28.3162 99.4809 28.6174 99.8174 29.2752C102.105 33.2961 103.913 37.8199 104.432 42.4328C102.714 39.7855 101.148 37.1805 99.478 34.656C98.5218 33.0866 96.1249 30.1583 95.85 28.3299C95.8367 28.229 95.8168 28.4317 96.1591 28.7408C96.559 29.0264 96.7554 28.9557 96.5813 28.9698C95.9297 28.9246 94.6511 28.9124 94.3187 29.1879C94.0875 29.2592 93.6043 30.2457 93.4455 30.4732C91.163 34.3462 88.8741 38.5229 86.4284 42.3649L86.4518 42.3757Z" fill="#21282B"/>
<path d="M87.3132 35.5573C88.7655 33.3903 94.9649 32.918 97.302 34.8083C93.8697 35.6147 90.9917 35.8245 87.3132 35.5573Z" fill="#21282B"/>
<path d="M130.465 43.8035C129.867 40.0225 128.862 33.9212 128.165 30.2169C128.128 29.9798 128.154 30.2171 128.189 30.3041C128.573 31.3111 130 30.724 130.062 29.7721L128.533 28.2714C131.666 27.1176 134.506 25.8186 138.049 25.8716C138.35 25.904 138.719 25.9479 139.202 26.215C140.505 26.8687 140.695 28.8674 140.259 30.1384C139.402 33.4559 135.863 34.9294 133.497 35.3445L133.056 31.661C135.316 31.5729 137.587 31.5096 139.848 31.4966C141.337 31.3339 143.721 32.0069 144.168 34.0513C144.858 37.3178 143.105 40.3752 140.861 42.077C137.816 44.4429 133.886 43.9085 130.465 43.8035ZM130.465 43.8035C134.389 42.6864 139.573 42.2989 141.265 37.641C141.555 36.948 141.711 35.6567 141.49 35.0723C141.41 34.9611 141.489 35.0473 141.231 34.9391C138.657 34.8823 135.825 35.3429 133.219 35.3868L132.779 31.7032C134.774 31.1441 136.462 30.8279 137.188 28.989C137.22 28.8884 137.24 28.7879 137.261 28.6875C137.282 28.587 137.259 28.5749 137.296 28.787C137.333 29.0116 137.606 29.3448 137.741 29.3926C135.599 29.1909 131.841 30.2426 129.201 30.9001L127.249 31.3959L127.672 29.3994C127.724 29.1483 127.75 28.7475 128.278 28.3383C129.436 27.6556 130.412 28.7277 130.509 29.8522C130.843 34.4884 130.911 39.1917 130.488 43.8156L130.465 43.8035Z" fill="#21282B"/>
<defs>
<filter id="filter0_d_91_13366" x="0.105469" y="0.985352" width="335.555" height="160.424" filterUnits="userSpaceOnUse" color-interpolation-filters="sRGB">
<feFlood flood-opacity="0" result="BackgroundImageFix"/>
<feColorMatrix in="SourceAlpha" type="matrix" values="0 0 0 0 0 0 0 0 0 0 0 0 0 0 0 0 0 0 127 0" result="hardAlpha"/>
<feOffset dx="-9" dy="14"/>
<feGaussianBlur stdDeviation="18"/>
<feComposite in2="hardAlpha" operator="out"/>
<feColorMatrix type="matrix" values="0 0 0 0 0 0 0 0 0 0 0 0 0 0 0 0 0 0 0.12 0"/>
<feBlend mode="normal" in2="BackgroundImageFix" result="effect1_dropShadow_91_13366"/>
<feBlend mode="normal" in="SourceGraphic" in2="effect1_dropShadow_91_13366" result="shape"/>
</filter>
<clipPath id="clip0_91_13366">
<rect width="85" height="33" fill="white" transform="translate(69.0156 18.0254) rotate(-0.964636)"/>
</clipPath>
</defs>
</svg>
