<svg width="337" height="180" viewBox="0 0 337 180" fill="none" xmlns="http://www.w3.org/2000/svg">
    <g filter="url(#filter0_d_91_13313)">
        <rect x="47.4551" y="22.1377" width="261.966" height="101.055" rx="7"
            transform="rotate(1.39129 47.4551 22.1377)" fill="white" />
    </g>
    <text transform="translate(69.1016 64.2861) rotate(1.39129)" fill="#21282B" xml:space="preserve"
        style="white-space: pre" font-family="Inter" font-size="16" letter-spacing="0em"><tspan x="0" y="17.8182">Track user impressions and </tspan><tspan x="0" y="41.8182">events in Causal</tspan></text>
    <path
        d="M91.2412 46.8298C97.7602 46.8102 104.279 46.7942 110.798 46.7818C111.5 46.7804 112.203 46.779 112.909 46.7777L113.313 24.7221L111.935 23.2671C111.374 22.6757 110.773 22.0586 109.97 21.8299C108.283 21.3498 106.711 22.7578 105.567 24.0311C103.832 25.9603 102.1 27.8931 100.365 29.8223C98.9695 31.3762 97.1899 33.0835 95.0618 32.8163C93.6827 32.6449 92.6355 31.6951 91.5344 30.8299L91.2412 46.8298Z"
        fill="#99F876" />
    <path
        d="M74.9274 5.35379C75.6369 5.57359 76.1913 6.30397 76.0093 7.06363C76.398 10.3117 76.5479 14.3613 76.6554 17.8752C76.8481 28.7605 76.5961 39.659 74.9637 50.4537C74.0953 43.2106 73.9779 35.9635 74.0588 28.6951C74.1806 21.4345 74.5337 14.196 75.499 6.98297L75.5076 6.91895L75.5077 6.91182C75.7716 6.37471 75.4443 5.68772 74.9237 5.35372L74.9274 5.35379Z"
        fill="#21282B" />
    <path
        d="M71.7223 8.40398C72.8643 6.42808 74.4128 4.69141 75.9936 3.02665L76.2405 4.02246C76.6578 5.71671 78.0069 7.11069 79.4788 8.12538C77.4232 7.77392 75.6546 6.23319 75.1528 4.26282L76.116 4.49799C74.7788 5.91761 73.3603 7.28583 71.7261 8.40049L71.7223 8.40398Z"
        fill="#21282B" />
    <path
        d="M128.226 44.3415C129.344 45.1393 130.556 45.8247 131.875 46.2233L133.135 46.6065L131.947 47.1981C130.466 47.934 129.257 49.0671 128.24 50.3393C128.429 48.5528 129.784 47.0158 131.453 46.2477L131.525 47.2224C130.088 46.7254 128.807 45.7035 128.234 44.338L128.226 44.3415Z"
        fill="#21282B" />
    <path
        d="M76.2327 35.36C77.9848 32.7037 79.9896 29.9202 83.0782 28.5328C85.0293 27.6594 87.5448 27.3739 89.6503 28.2682C90.8551 28.7752 91.9053 29.7642 92.795 30.5471C93.7322 31.3879 94.9791 32.2451 96.1746 32.0352C96.9542 31.8962 97.7375 30.9407 98.3251 30.2705C100.675 27.586 103.059 24.9129 105.45 22.2648C105.972 21.7003 106.5 21.0254 107.374 20.4068C110.124 18.539 112.499 20.4472 114.11 22.6338C115.028 23.7203 117.512 26.9605 118.457 28.0082C118.534 28.0774 118.589 28.1033 118.582 28.1068C118.574 28.1066 118.511 28.1055 118.488 28.1229C118.462 28.1366 118.503 28.1303 118.579 28.0639C118.655 27.9976 118.754 27.8924 118.869 27.7555C123.041 22.6727 127.59 17.2368 132.005 12.3582L132.174 12.5146L130.942 13.2729L132.028 12.3337L132.654 11.7925C128.922 17.5072 124.655 23.4618 120.616 28.9998C119.19 31.0309 117.237 30.3676 115.983 28.6581L112.889 25.0324C112.45 24.5323 111.822 23.74 111.379 23.2577C110.575 22.455 109.902 21.7153 108.903 22.4136C108.452 22.7227 107.971 23.2915 107.422 23.8911C105.287 26.2408 103.138 28.5831 100.969 30.9073C99.3725 32.6358 97.7084 34.7695 94.9301 34.1053C92.6676 33.6253 91.2992 31.6499 89.7279 30.3518C88.0124 28.9727 85.6671 28.9332 83.5511 29.6361C80.5517 30.6365 78.3356 33.1309 76.2291 35.3492L76.2327 35.36Z"
        fill="#21282B" />
    <path
        d="M69.0736 46.3419C71.5338 46.0198 74.1227 45.8069 76.6123 45.717C94.2071 45.1053 111.861 45.3682 129.372 47.2938C109.284 48.7691 89.1216 48.0323 69.0736 46.3419Z"
        fill="#21282B" />
    <path d="M77.1848 36.6287C76.9332 39.1486 77.0209 41.6997 77.4533 44.1966" stroke="#21282B"
        stroke-width="0.233871" stroke-miterlimit="10" />
    <path d="M80.4135 34.3691C80.118 37.8581 79.8261 41.3472 79.5306 44.8327" stroke="#21282B"
        stroke-width="0.233871" stroke-miterlimit="10" />
    <path d="M83.0859 33.4951L83.0282 44.5933" stroke="#21282B" stroke-width="0.233871"
        stroke-miterlimit="10" />
    <path d="M88.0681 32.2002C87.7837 36.0992 87.4955 40.0016 87.2111 43.9006" stroke="#21282B"
        stroke-width="0.233871" stroke-miterlimit="10" />
    <path
        d="M91.7637 32.5771C91.6941 36.9863 91.6245 41.3955 91.5549 45.8047C91.6135 45.6631 91.6721 45.5216 91.7307 45.3836"
        stroke="#21282B" stroke-width="0.233871" stroke-miterlimit="10" />
    <path d="M96.7441 34.6719L96.5606 44.6883" stroke="#21282B" stroke-width="0.233871"
        stroke-miterlimit="10" />
    <path d="M102.267 31.2223C101.694 36.182 101.46 41.1764 101.571 46.1665" stroke="#21282B"
        stroke-width="0.233871" stroke-miterlimit="10" />
    <path d="M105.949 26.0508L105.65 42.3857" stroke="#21282B" stroke-width="0.233871"
        stroke-miterlimit="10" />
    <path d="M110.598 24.5977C110.556 31.5352 110.515 38.4728 110.474 45.4069" stroke="#21282B"
        stroke-width="0.233871" stroke-miterlimit="10" />
    <path d="M114.327 28.3662C114.066 33.813 114.156 39.2769 114.598 44.7152" stroke="#21282B"
        stroke-width="0.233871" stroke-miterlimit="10" />
    <path d="M119.869 30.6118C119.409 35.9444 119.233 41.2965 119.344 46.6467" stroke="#21282B"
        stroke-width="0.233871" stroke-miterlimit="10" />
    <path d="M117.248 31.1943L117.237 43.8336" stroke="#21282B" stroke-width="0.233871"
        stroke-miterlimit="10" />
    <path d="M124.9 24.8567L124.112 43.8068" stroke="#21282B" stroke-width="0.233871"
        stroke-miterlimit="10" />
    <path d="M127.164 21.2012C127.18 29.6801 127.193 38.1589 127.21 46.6379" stroke="#21282B"
        stroke-width="0.233871" stroke-miterlimit="10" />
    <defs>
        <filter id="filter0_d_91_13313" x="0.169922" y="0.305664" width="336.006" height="179.05"
            filterUnits="userSpaceOnUse" color-interpolation-filters="sRGB">
            <feFlood flood-opacity="0" result="BackgroundImageFix" />
            <feColorMatrix in="SourceAlpha" type="matrix"
                values="0 0 0 0 0 0 0 0 0 0 0 0 0 0 0 0 0 0 127 0" result="hardAlpha" />
            <feOffset dx="-9" dy="14" />
            <feGaussianBlur stdDeviation="18" />
            <feComposite in2="hardAlpha" operator="out" />
            <feColorMatrix type="matrix" values="0 0 0 0 0 0 0 0 0 0 0 0 0 0 0 0 0 0 0.12 0" />
            <feBlend mode="normal" in2="BackgroundImageFix" result="effect1_dropShadow_91_13313" />
            <feBlend mode="normal" in="SourceGraphic" in2="effect1_dropShadow_91_13313"
                result="shape" />
        </filter>
    </defs>
</svg>