<svg width="337" height="186" viewBox="0 0 337 186" fill="none" xmlns="http://www.w3.org/2000/svg">
    <g filter="url(#filter0_d_91_13417)">
        <rect x="47.9385" y="22.8174" width="261.966" height="106.831" rx="7"
            transform="rotate(1.39129 47.9385 22.8174)" fill="white" />
    </g>
    <text transform="translate(69.585 64.9658) rotate(1.39129)" fill="#21282B" xml:space="preserve"
        style="white-space: pre" font-family="Inter" font-size="16" letter-spacing="0em"><tspan x="0" y="17.8182">View Causal data in a data </tspan><tspan x="0" y="41.8182">warehouse</tspan></text>
    <path
        d="M94.0804 42.6535C92.2596 42.5577 90.4463 42.3188 88.6749 41.9456C87.9554 41.7935 87.23 41.6146 86.612 41.265C85.5054 40.6424 84.8903 39.5692 84.3213 38.5462C83.8249 37.6508 83.3227 36.7375 83.1976 35.7527C83.0725 34.7679 83.3901 33.6844 84.2924 33.0608C85.4849 32.2354 87.5056 32.285 88.1745 31.1033C88.3495 30.7952 88.3925 30.4464 88.4041 30.1039C88.4469 28.6413 87.9282 27.0908 88.656 25.7628C89.2456 24.686 90.5709 24.0055 91.931 23.7506C93.2912 23.4956 94.7028 23.5977 96.0886 23.7059C95.7423 22.6007 96.5719 21.4863 97.4551 20.6217C100.644 17.4963 105.126 15.3525 109.908 14.6626C111.123 14.4892 112.381 14.4048 113.571 14.6724C115.936 15.2017 117.581 16.9756 119.051 18.6437C120.91 20.7524 122.873 23.2296 122.223 25.8167C122.599 25.1467 123.685 24.9684 124.491 25.2419C125.297 25.5155 125.886 26.1035 126.443 26.6739C127.591 27.8501 128.81 29.3385 128.215 30.7876C131.223 31.97 133.556 34.614 133.395 37.4415C133.235 40.269 130.082 42.8878 126.807 42.4609"
        fill="#99F876" />
    <path
        d="M90.0852 42.3878C88.632 42.4618 87.1667 42.4376 85.7033 42.3032C84.1884 42.1603 82.4647 42.0369 81.2454 40.9148C80.5914 40.3512 80.108 39.6581 79.6852 39.0182C78.7219 37.7005 77.8286 35.8254 78.3011 34.0586C78.5307 33.0591 79.2389 32.1423 80.131 31.6915C81.2367 31.0991 82.1923 31.0766 83.0752 30.5455C83.2545 30.422 83.3167 30.3292 83.3531 30.2217C83.4888 29.6459 83.3666 29.0333 83.3302 28.4023C82.8752 25.1389 84.5023 23.1813 87.5618 22.4991C89.1759 22.1617 90.7251 22.2924 92.1682 22.4002L91.143 23.7633C90.9552 23.1662 90.99 22.4988 91.1605 21.9793C91.6104 20.6118 92.5994 19.7463 93.5825 18.854C95.9726 16.7624 98.7851 15.2482 101.759 14.2986C103.241 13.8163 104.761 13.4946 106.307 13.3008C107.911 13.0946 109.677 13.167 111.205 13.8637C112.779 14.569 114.021 15.7296 115.081 16.8798C116.698 18.7105 118.423 20.4986 119.144 22.9737C119.385 23.8592 119.439 24.8714 119.203 25.8173L117.368 25.0277C117.572 24.6627 117.864 24.4043 118.149 24.2293C119.869 23.2032 121.852 24.1942 123.044 25.5517C123.956 26.5005 125.03 27.6297 125.319 29.1105C125.432 29.6844 125.383 30.3638 125.141 30.9315L124.575 29.5452C126.105 30.1496 127.498 31.1035 128.641 32.39C130.405 34.3148 130.798 37.7187 129.092 39.7959C127.633 41.7164 125.057 42.7225 122.815 42.1952C125.543 42.3047 128.544 40.0534 128.637 37.2384C128.666 35.898 127.919 34.7841 127.116 33.7898C126.272 32.7482 125.093 31.9891 123.87 31.4955C123.35 31.2911 123.091 30.6856 123.287 30.148C123.693 29.0459 122.376 27.8501 121.642 27.0429C120.855 26.2361 120.014 25.5458 119.099 26.0802L117.265 25.2906C117.4 24.7296 117.376 24.1431 117.216 23.5398C116.602 21.5047 115.05 19.9355 113.638 18.3236C112.178 16.7299 110.64 15.4734 108.572 15.311C103.824 15.1817 98.5065 17.2874 94.88 20.449C94.2094 21.0588 93.3736 21.7593 93.0714 22.6194C92.996 22.8642 93.0171 23.001 93.0643 23.1823C93.2061 23.7381 92.8872 24.3065 92.3532 24.4536C92.2447 24.4843 92.1304 24.4941 92.0244 24.486C90.5898 24.3722 89.2098 24.2819 87.9728 24.5477C86.7615 24.7985 85.608 25.4926 85.3861 26.3877C85.0993 27.3966 85.5005 28.9153 85.4038 30.0864C85.3783 31.5608 84.1953 32.5142 82.962 32.8753C81.7637 33.3315 80.6074 33.3168 80.2426 34.5883C80.1094 35.1165 80.2194 35.6338 80.4352 36.1533C80.6629 36.7233 80.9458 37.3881 81.263 38.0617C82.2809 40.4927 83.5315 40.867 85.8428 41.4831C87.2337 41.8563 88.6526 42.1638 90.0909 42.3907L90.0852 42.3878Z"
        fill="#21282B" />
    <path
        d="M111.167 33.8293C111.116 33.8714 111.09 33.7703 111.107 33.7285C111.112 33.7046 111.132 33.6657 111.178 33.6564C111.223 33.6501 111.246 33.6619 111.278 33.6795C111.387 33.762 111.391 33.8841 111.415 33.9613C111.737 35.2543 112.019 36.5683 112.272 37.8737C112.405 38.3581 112.3 38.8503 112.327 39.3415L112.342 41.301L112.404 49.1329L111.394 48.0985C111.907 48.1153 112.137 48.2982 112.43 48.4686C112.485 48.5039 112.508 48.4977 112.405 48.4688C112.382 48.466 112.347 48.4573 112.307 48.4576C112.276 48.4579 112.302 48.4577 112.31 48.4576L112.493 48.4562C114.617 48.4454 118.571 48.4053 120.731 48.3912L120.404 50.4159C119.836 50.2328 119.541 49.5055 119.675 49.01C119.727 48.7744 119.792 48.6249 119.905 48.4394C120.744 47.1314 122.209 46.3425 123.735 46.396C124.173 46.4104 124.536 46.7203 124.656 47.1333C124.865 47.8404 125.002 48.569 125.074 49.304C125.102 49.9083 125.271 50.6724 124.884 51.3127C124.467 52.1588 123.351 52.4833 122.569 52.0547C121.437 51.465 121.281 50.2392 120.863 49.1734C121.348 49.5895 121.833 50.1336 122.325 50.4931C122.561 50.655 122.799 50.7336 122.959 50.7055C123.139 50.6981 123.273 50.569 123.209 50.5218C123.178 50.5012 123.138 50.5045 123.114 50.4809C123.089 50.4573 123.071 50.4038 123.09 50.3143C123.167 49.5305 122.956 48.5196 122.741 47.738L123.662 48.4753C122.869 48.4428 122.023 48.8873 121.579 49.5877C121.61 49.5279 121.619 49.5189 121.641 49.4264C121.73 49.101 121.465 48.5641 121.081 48.448L120.754 50.4727C118.456 50.4789 114.524 50.5338 112.264 50.5397C111.831 50.5252 111.515 50.3192 111.236 50.1487C111.21 50.131 111.248 50.1754 111.417 50.1771L110.407 49.1427L110.33 39.3483C110.346 38.8538 110.236 38.3633 110.361 37.8799C110.591 36.5707 110.858 35.2522 111.171 33.9573C111.194 33.8767 111.207 33.814 111.199 33.7754C111.184 33.7606 111.201 33.7337 111.173 33.7518C111.156 33.7668 111.127 33.8236 111.176 33.8203L111.167 33.8293Z"
        fill="#21282B" />
    <path
        d="M106.082 36.9406C106.47 38.2121 106.804 39.6062 107.086 40.9054C107.208 41.4644 107.084 42.0401 107.128 42.6086C107.134 43.3084 107.149 45.2827 107.155 46.0153L107.227 55.098C107.231 55.6727 106.786 56.1438 106.233 56.1481C105.747 56.1311 105.218 56.2127 104.827 56.3796C104.448 56.5285 104.016 56.9846 104.057 57.3982C104.075 57.4666 104.101 57.52 104.199 57.6056C104.406 57.7886 104.9 57.9574 105.433 58.0485C105.794 58.1052 106.058 58.1776 106.306 58.0893C106.453 57.9005 106.442 57.5998 106.517 57.3371C106.748 56.7784 107.052 56.2191 106.864 55.625C106.72 55.1317 106.089 54.9074 105.663 55.289C105.888 54.4801 107.052 54.4114 107.606 54.955C109.003 56.1531 108.809 59.3978 106.94 60.0707C106.332 60.3018 105.61 60.2003 105.083 60.1002C103.879 59.9042 102.424 59.3171 102.106 57.8722C101.841 56.5848 102.533 55.4298 103.495 54.7551C104.329 54.2095 105.335 54.0437 106.248 54.0604L105.221 55.1108C105.201 52.6391 105.141 44.9769 105.122 42.6244C105.158 42.0553 105.025 41.4816 105.137 40.9208C105.399 39.6173 105.714 38.2181 106.079 36.9406L106.082 36.9406Z"
        fill="#21282B" />
    <path
        d="M99.839 34.5708C100.212 36.1224 100.516 37.6984 100.792 39.2627C100.954 39.8869 100.885 40.5068 100.892 41.1411L100.9 42.0821L100.959 49.6014C100.964 50.1821 100.51 50.6562 99.9544 50.6516L90.9513 50.6035C90.1555 50.577 89.9865 49.8279 89.5154 49.233C89.4169 49.0849 89.301 48.8952 89.2138 48.7321L89.2022 48.7113L89.2023 48.7173L89.2138 48.7321C89.2718 48.821 89.3205 48.8265 89.2602 48.8032C88.9331 48.7015 87.9184 48.4772 87.6087 48.7626C87.2546 49.2181 87.408 50.1669 87.8564 50.4195C88.1356 50.6198 88.6134 50.61 88.9211 50.4438C89.0864 50.3562 89.2058 50.248 89.2618 50.0927C89.4061 49.892 89.5616 49.6496 89.6682 49.3747C89.7919 49.1028 90.0185 48.4339 90.0437 48.7315C90.0809 48.7312 90.0833 48.6686 90.0858 48.6329C90.0856 48.6001 90.1167 48.5522 90.065 48.5318C89.9247 48.515 89.7693 48.7724 89.8478 48.9236C89.9295 49.1315 90.3598 49.2621 90.6266 48.989C90.335 49.7507 89.1137 49.4655 89.1865 48.5357C89.1811 47.8508 89.9122 47.2971 90.5553 47.563C91.1234 47.7581 91.5206 48.4101 91.3883 49.0515C91.3803 49.12 91.3779 49.1856 91.3727 49.2481C91.3499 49.6236 91.339 50.0555 91.2676 50.4402C91.171 51.254 90.4954 51.9473 89.8115 52.307C88.3754 53.0927 86.3704 52.489 85.7168 50.9009C84.9867 49.3908 85.5579 47.0753 87.2629 46.6449C88.3171 46.4222 89.0364 46.5505 90.0118 46.8675C90.2817 46.9815 90.6469 47.199 90.8962 47.605L91.0383 47.854L91.163 48.0526C91.3484 48.337 91.5595 48.6183 91.7972 49.0036L90.9549 48.5158L99.9579 48.564L98.9532 49.6142L98.8939 42.095C98.8696 41.5532 98.9119 40.7517 98.8533 40.2161C98.8575 39.6592 99.0318 38.8924 99.1104 38.3349C99.3237 37.0795 99.557 35.8238 99.8361 34.5708L99.839 34.5708Z"
        fill="#21282B" />
    <defs>
        <filter id="filter0_d_91_13417" x="0.512695" y="0.985352" width="336.147" height="184.824"
            filterUnits="userSpaceOnUse" color-interpolation-filters="sRGB">
            <feFlood flood-opacity="0" result="BackgroundImageFix" />
            <feColorMatrix in="SourceAlpha" type="matrix"
                values="0 0 0 0 0 0 0 0 0 0 0 0 0 0 0 0 0 0 127 0" result="hardAlpha" />
            <feOffset dx="-9" dy="14" />
            <feGaussianBlur stdDeviation="18" />
            <feComposite in2="hardAlpha" operator="out" />
            <feColorMatrix type="matrix" values="0 0 0 0 0 0 0 0 0 0 0 0 0 0 0 0 0 0 0.12 0" />
            <feBlend mode="normal" in2="BackgroundImageFix" result="effect1_dropShadow_91_13417" />
            <feBlend mode="normal" in="SourceGraphic" in2="effect1_dropShadow_91_13417"
                result="shape" />
        </filter>
    </defs>
</svg>